<?xml version="1.0" encoding="UTF-8"?>
<svg version="1.1" xmlns="http://www.w3.org/2000/svg" width="100" height="100">
<path d="M0 0 C1.27362648 -0.00361794 1.27362648 -0.00361794 2.57298279 -0.00730896 C4.36242356 -0.00633215 6.15189516 0.0070219 7.94116211 0.03198242 C10.67861525 0.06634376 13.41284778 0.05262181 16.15039062 0.03320312 C17.8919408 0.04010057 19.63348267 0.04977204 21.375 0.0625 C22.19174698 0.05754013 23.00849396 0.05258026 23.84999084 0.04747009 C27.52345544 0.12357762 29.68687325 0.30316802 32.66772461 2.53930664 C34.12109375 4.62890625 34.12109375 4.62890625 34.12109375 6.62890625 C35.45285645 6.6131958 35.45285645 6.6131958 36.81152344 6.59716797 C40.11395882 6.56302869 43.41620593 6.53797957 46.71875 6.51904297 C48.14651453 6.50900198 49.57425858 6.49536644 51.00195312 6.47802734 C53.05734316 6.45369473 55.11246067 6.44240423 57.16796875 6.43359375 C58.40385742 6.42312012 59.63974609 6.41264648 60.91308594 6.40185547 C63.98771662 6.61946632 65.61850775 6.88895117 68.12109375 8.62890625 C70.15076175 11.67340825 70.36965676 12.23166953 70.34814453 15.64135742 C70.34799347 16.44196091 70.34784241 17.24256439 70.34768677 18.06742859 C70.3373642 18.9268959 70.32704163 19.78636322 70.31640625 20.671875 C70.31357635 21.55547195 70.31074646 22.43906891 70.30783081 23.34944153 C70.29663472 26.17190079 70.27153126 28.99404287 70.24609375 31.81640625 C70.23606321 33.72981313 70.22693749 35.64322498 70.21875 37.55664062 C70.19669726 42.24751807 70.16217137 46.93815838 70.12109375 51.62890625 C69.00188661 50.70299113 67.8874095 49.77135698 66.77490234 48.83740234 C66.15376556 48.31922943 65.53262878 47.80105652 64.89266968 47.2671814 C63.21152536 45.71253341 61.96951286 44.16126077 60.66015625 42.29296875 C57.06771873 38.63378389 52.73827344 39.00082972 47.85430908 38.93902588 C45.73425405 38.94144653 43.61585194 38.96920352 41.49609375 39.00390625 C39.36591934 39.02800325 37.23714555 39.0431253 35.10684204 39.03433228 C33.17974165 39.02768099 31.25260908 39.05278872 29.32568359 39.07958984 C26.12109375 38.62890625 26.12109375 38.62890625 23.68603516 36.72900391 C22.12109375 34.62890625 22.12109375 34.62890625 22.12109375 32.62890625 C7.79103166 31.39109981 7.79103166 31.39109981 -5.04296875 36.3671875 C-7.99965378 39.19791128 -10.45010904 42.34259492 -12.87890625 45.62890625 C-13.20890625 45.62890625 -13.53890625 45.62890625 -13.87890625 45.62890625 C-14.00269956 40.02392603 -14.09333643 34.41974503 -14.15356445 28.8137207 C-14.17867624 26.90765518 -14.2127727 25.00168566 -14.25610352 23.09594727 C-14.31690369 20.35278627 -14.3451487 17.61090039 -14.3671875 14.8671875 C-14.39299393 14.01804276 -14.41880035 13.16889801 -14.44538879 12.29402161 C-14.44733744 8.16379097 -14.20337753 6.12788309 -11.90332031 2.59082031 C-7.82061505 -0.05759909 -4.77188311 -0.07765418 0 0 Z " fill="#2096F2" transform="translate(21.87890625,7.37109375)"/>
<path d="M0 0 C2.83118683 2.4168668 3.38419358 3.75340694 3.8359375 7.38671875 C4.10819866 14.05711713 2.66222128 17.9457135 -1.4375 23.1875 C2.81290745 26.20998217 2.81290745 26.20998217 7.6875 27 C8.30625 26.731875 8.925 26.46375 9.5625 26.1875 C11.22769519 25.84689189 12.89407466 25.51191604 14.5625 25.1875 C14.5625 24.5275 14.5625 23.8675 14.5625 23.1875 C13.9025 23.1875 13.2425 23.1875 12.5625 23.1875 C12.4078125 22.2284375 12.4078125 22.2284375 12.25 21.25 C12.023125 20.569375 11.79625 19.88875 11.5625 19.1875 C10.5725 18.8575 9.5825 18.5275 8.5625 18.1875 C8.0632702 11.94712747 8.32107816 8.17740804 12.5625 3.1875 C15.77701269 1.58024365 18.99862536 2.13001815 22.5625 2.1875 C22.5625 2.8475 22.5625 3.5075 22.5625 4.1875 C23.18125 4.290625 23.8 4.39375 24.4375 4.5 C26.5625 5.1875 26.5625 5.1875 28.5625 8.1875 C28.7578125 10.66796875 28.7578125 10.66796875 28.6875 13.375 C28.66945313 14.27605469 28.65140625 15.17710938 28.6328125 16.10546875 C28.60960938 16.79253906 28.58640625 17.47960937 28.5625 18.1875 C27.0775 18.6825 27.0775 18.6825 25.5625 19.1875 C24.82926204 21.20258358 24.82926204 21.20258358 24.5625 23.1875 C23.9025 23.1875 23.2425 23.1875 22.5625 23.1875 C22.5625 23.8475 22.5625 24.5075 22.5625 25.1875 C23.26375 25.208125 23.965 25.22875 24.6875 25.25 C28.84425394 26.60546324 31.39961063 29.41173437 33.5625 33.1875 C33.5625 34.8375 33.5625 36.4875 33.5625 38.1875 C6.1725 38.1875 -21.2175 38.1875 -49.4375 38.1875 C-46.4375 29.1875 -46.4375 29.1875 -43.4375 26.625 C-40.4375 25.1875 -40.4375 25.1875 -37.4375 25.1875 C-37.4375 24.5275 -37.4375 23.8675 -37.4375 23.1875 C-38.0975 23.1875 -38.7575 23.1875 -39.4375 23.1875 C-39.5921875 22.2284375 -39.5921875 22.2284375 -39.75 21.25 C-39.976875 20.569375 -40.20375 19.88875 -40.4375 19.1875 C-41.4275 18.8575 -42.4175 18.5275 -43.4375 18.1875 C-44.00457317 8.5472561 -44.00457317 8.5472561 -40.4375 4.1875 C-37.34861478 2.12824319 -36.72814073 1.9484626 -33.25 2.0625 C-31.3628125 2.124375 -31.3628125 2.124375 -29.4375 2.1875 C-29.4375 2.8475 -29.4375 3.5075 -29.4375 4.1875 C-28.81875 4.27 -28.2 4.3525 -27.5625 4.4375 C-25.4375 5.1875 -25.4375 5.1875 -24.1875 6.75 C-22.96216134 10.73235065 -22.53663226 15.38576452 -24.4375 19.1875 C-25.0975 19.1875 -25.7575 19.1875 -26.4375 19.1875 C-26.7675 20.5075 -27.0975 21.8275 -27.4375 23.1875 C-28.0975 23.1875 -28.7575 23.1875 -29.4375 23.1875 C-29.4375 23.8475 -29.4375 24.5075 -29.4375 25.1875 C-28.674375 25.31125 -27.91125 25.435 -27.125 25.5625 C-24.4375 26.1875 -24.4375 26.1875 -21.4375 28.1875 C-20.674375 27.56875 -19.91125 26.95 -19.125 26.3125 C-16.4375 24.1875 -16.4375 24.1875 -13.4375 22.1875 C-14.2625 21.218125 -15.0875 20.24875 -15.9375 19.25 C-18.99501265 14.95905895 -19.29541344 11.31633035 -18.4375 6.1875 C-17.26902861 2.97420369 -16.40100886 0.97258129 -13.75 -1.1875 C-8.43788784 -2.62320599 -4.79335208 -2.52740382 0 0 Z " fill="#5F7B8A" transform="translate(57.4375,53.8125)"/>
<path d="M0 0 C4.19920237 -0.04953687 8.39824869 -0.08578411 12.59765625 -0.10986328 C14.02542078 -0.11990427 15.45316483 -0.13353981 16.88085938 -0.15087891 C18.93624941 -0.17521152 20.99136692 -0.18650202 23.046875 -0.1953125 C24.28276367 -0.20578613 25.51865234 -0.21625977 26.79199219 -0.22705078 C29.86662287 -0.00943993 31.497414 0.26004492 34 2 C36.029668 5.044502 36.24856301 5.60276328 36.22705078 9.01245117 C36.22689972 9.81305466 36.22674866 10.61365814 36.22659302 11.43852234 C36.21627045 12.29798965 36.20594788 13.15745697 36.1953125 14.04296875 C36.1924826 14.9265657 36.18965271 15.81016266 36.18673706 16.72053528 C36.17554097 19.54299454 36.15043751 22.36513662 36.125 25.1875 C36.11496946 27.10090688 36.10584374 29.01431873 36.09765625 30.92773438 C36.07560351 35.61861182 36.04107762 40.30925213 36 45 C34.88079286 44.07408488 33.76631575 43.14245073 32.65380859 42.20849609 C32.03267181 41.69032318 31.41153503 41.17215027 30.77157593 40.63827515 C29.09043161 39.08362716 27.84841911 37.53235452 26.5390625 35.6640625 C22.94662498 32.00487764 18.61717969 32.37192347 13.73321533 32.31011963 C11.6131603 32.31254028 9.49475819 32.34029727 7.375 32.375 C5.24482559 32.399097 3.1160518 32.41421905 0.98574829 32.40542603 C-0.9413521 32.39877474 -2.86848467 32.42388247 -4.79541016 32.45068359 C-8 32 -8 32 -10.43505859 30.10009766 C-12 28 -12 28 -12 26 C-9.02148438 25.36523438 -9.02148438 25.36523438 -6.04296875 24.73046875 C-3.59768685 23.85615189 -2.61788789 23.02742279 -1 21 C-0.49753325 18.68749164 -0.49753325 18.68749164 -0.48828125 16.11328125 C-0.45283203 15.17548828 -0.41738281 14.23769531 -0.38085938 13.27148438 C-0.34702148 11.80678711 -0.34702148 11.80678711 -0.3125 10.3125 C-0.27833984 9.32443359 -0.24417969 8.33636719 -0.20898438 7.31835938 C-0.12649462 4.87901947 -0.05734932 2.44003937 0 0 Z " fill="#1465C0" transform="translate(56,14)"/>
<path d="M0 0 C2.83228041 2.41780035 3.36298754 3.76565804 3.87109375 7.38671875 C4.19077776 13.5575889 3.16218579 16.7530741 -0.9296875 21.3984375 C-2.47608718 23.23328479 -3.44940057 25.00984397 -4.4375 27.1875 C-7.19921875 27.52734375 -7.19921875 27.52734375 -10.4375 27.1875 C-12.51953125 24.81640625 -12.51953125 24.81640625 -14.25 21.75 C-15.12591797 20.23599609 -15.12591797 20.23599609 -16.01953125 18.69140625 C-16.48746094 17.86511719 -16.95539062 17.03882812 -17.4375 16.1875 C-17.7675 15.8575 -18.0975 15.5275 -18.4375 15.1875 C-19.05531548 9.5439932 -18.71701467 4.98964648 -15.4375 0.1875 C-10.85119288 -3.54949099 -4.82038032 -2.54165508 0 0 Z " fill="#FBB34B" transform="translate(57.4375,53.8125)"/>
<path d="M0 0 C0 0.66 0 1.32 0 2 C0.928125 2.1546875 0.928125 2.1546875 1.875 2.3125 C4 3 4 3 6 6 C6.1953125 8.48046875 6.1953125 8.48046875 6.125 11.1875 C6.10695313 12.08855469 6.08890625 12.98960938 6.0703125 13.91796875 C6.04710938 14.60503906 6.02390625 15.29210937 6 16 C5.01 16.33 4.02 16.66 3 17 C2.26676204 19.01508358 2.26676204 19.01508358 2 21 C1.34 21 0.68 21 0 21 C-0.99 23.475 -0.99 23.475 -2 26 C-3.65 25.67 -5.3 25.34 -7 25 C-7.33 23.68 -7.66 22.36 -8 21 C-8.66 21 -9.32 21 -10 21 C-10.1546875 20.0409375 -10.1546875 20.0409375 -10.3125 19.0625 C-10.539375 18.381875 -10.76625 17.70125 -11 17 C-11.99 16.67 -12.98 16.34 -14 16 C-14.4992298 9.75962747 -14.24142184 5.98990804 -10 1 C-6.78548731 -0.60725635 -3.56387464 -0.05748185 0 0 Z " fill="#FBB24B" transform="translate(80,56)"/>
<path d="M0 0 C1.8871875 0.061875 1.8871875 0.061875 3.8125 0.125 C3.8125 0.785 3.8125 1.445 3.8125 2.125 C4.740625 2.24875 4.740625 2.24875 5.6875 2.375 C7.8125 3.125 7.8125 3.125 9.0625 4.6875 C10.28783866 8.66985065 10.71336774 13.32326452 8.8125 17.125 C8.1525 17.125 7.4925 17.125 6.8125 17.125 C6.4825 18.445 6.1525 19.765 5.8125 21.125 C5.1525 21.125 4.4925 21.125 3.8125 21.125 C2.8225 23.6 2.8225 23.6 1.8125 26.125 C0.1625 25.795 -1.4875 25.465 -3.1875 25.125 C-3.5175 23.805 -3.8475 22.485 -4.1875 21.125 C-4.8475 21.125 -5.5075 21.125 -6.1875 21.125 C-6.3421875 20.1659375 -6.3421875 20.1659375 -6.5 19.1875 C-6.726875 18.506875 -6.95375 17.82625 -7.1875 17.125 C-8.1775 16.795 -9.1675 16.465 -10.1875 16.125 C-10.75457317 6.4847561 -10.75457317 6.4847561 -7.1875 2.125 C-4.09861478 0.06574319 -3.47814073 -0.1140374 0 0 Z " fill="#FAB24B" transform="translate(24.1875,55.875)"/>
<path d="M0 0 C0.33 0.66 0.66 1.32 1 2 C2.32 2 3.64 2 5 2 C5.33 1.34 5.66 0.68 6 0 C9.26232523 0.28998446 11.42236364 0.5623967 14.0625 2.5625 C15 5 15 5 12 13 C3.75 13 -4.5 13 -13 13 C-10 4 -10 4 -7.0625 1.4375 C-4 0 -4 0 0 0 Z " fill="#455A63" transform="translate(21,79)"/>
<path d="M0 0 C0.33 0.66 0.66 1.32 1 2 C2.32 2 3.64 2 5 2 C5.33 1.34 5.66 0.68 6 0 C9.13010209 0.07452624 11.29383097 0.40993534 13.734375 2.44921875 C17.30760474 6.37126377 18 7.32182554 18 13 C10.08 13 2.16 13 -6 13 C-6.99 10.03 -7.98 7.06 -9 4 C-4.5 0 -4.5 0 0 0 Z " fill="#455A63" transform="translate(73,79)"/>
<path d="M0 0 C2.5625 2.1875 2.5625 2.1875 3.5625 5.1875 C3.69031786 7.86144964 3.60641871 10.50845857 3.5625 13.1875 C2.5725 13.5175 1.5825 13.8475 0.5625 14.1875 C0.43875 13.07375 0.315 11.96 0.1875 10.8125 C-0.0840813 7.15646323 -0.0840813 7.15646323 -2.4375 5.1875 C-4.53525233 5.35119745 -4.53525233 5.35119745 -6.8125 6 C-7.58335938 6.19207031 -8.35421875 6.38414063 -9.1484375 6.58203125 C-10.28152344 6.88173828 -10.28152344 6.88173828 -11.4375 7.1875 C-12.77056527 7.52190375 -14.10380921 7.85559978 -15.4375 8.1875 C-15.4375 10.1675 -15.4375 12.1475 -15.4375 14.1875 C-16.4275 13.8575 -17.4175 13.5275 -18.4375 13.1875 C-18.75080487 7.96575222 -18.31765136 4.61058959 -15.4375 0.1875 C-10.85119288 -3.54949099 -4.82038032 -2.54165508 0 0 Z " fill="#474441" transform="translate(57.4375,53.8125)"/>
<path d="M0 0 C0 0.66 0 1.32 0 2 C0.928125 2.1546875 0.928125 2.1546875 1.875 2.3125 C4 3 4 3 6 6 C6.25760279 8.69452521 6.08900053 11.28548375 6 14 C5.01 14.33 4.02 14.66 3 15 C2.34 12.36 1.68 9.72 1 7 C-1 7.33333333 -3 7.66666667 -5 8 C-7 8.33333333 -9 8.66666667 -11 9 C-11 10.98 -11 12.96 -11 15 C-11.99 14.34 -12.98 13.68 -14 13 C-14.63680221 8.99724326 -14.13641726 7.24100382 -12.125 3.6875 C-8.47162166 -0.93294907 -5.56658496 -0.08978363 0 0 Z " fill="#484542" transform="translate(80,56)"/>
<path d="M0 0 C0 0.66 0 1.32 0 2 C0.928125 2.12375 0.928125 2.12375 1.875 2.25 C4 3 4 3 5.25 4.625 C6.25295915 7.8010373 6.12721966 10.69228878 6 14 C5.01 14.33 4.02 14.66 3 15 C2.34 12.36 1.68 9.72 1 7 C-1 7.33333333 -3 7.66666667 -5 8 C-7 8.33333333 -9 8.66666667 -11 9 C-11 10.98 -11 12.96 -11 15 C-11.99 14.34 -12.98 13.68 -14 13 C-13.81217902 5.0090709 -13.81217902 5.0090709 -10.9375 1.4375 C-6.99750426 -0.49058302 -4.35317058 -0.29513021 0 0 Z " fill="#464441" transform="translate(28,56)"/>
<path d="M0 0 C3.3 0 6.6 0 10 0 C9.34 1.65 8.68 3.3 8 5 C6.02 5 4.04 5 2 5 C1.34 3.35 0.68 1.7 0 0 Z " fill="#EB8C3D" transform="translate(45,76)"/>
<path d="M0 0 C2.64 0 5.28 0 8 0 C7.34 1.32 6.68 2.64 6 4 C4.35 3.67 2.7 3.34 1 3 C0.67 2.01 0.34 1.02 0 0 Z " fill="#EA8C3D" transform="translate(72,78)"/>
<path d="M0 0 C2.64 0 5.28 0 8 0 C7.34 1.32 6.68 2.64 6 4 C4.35 3.67 2.7 3.34 1 3 C0.67 2.01 0.34 1.02 0 0 Z " fill="#EA8B3D" transform="translate(20,78)"/>
</svg>
