<?xml version="1.0" encoding="UTF-8"?>
<svg version="1.1" xmlns="http://www.w3.org/2000/svg" width="256" height="256">
<path d="M0 0 C0.60005859 0.34401855 1.20011719 0.68803711 1.81835938 1.04248047 C25.96854829 15.16520545 45.31686699 36.97986921 52.93359375 64.35546875 C59.43861255 91.40265218 55.48758886 117.77152881 41.26953125 141.61328125 C37.42266978 147.54907596 32.75988912 152.78947049 28 158 C27.35546875 158.72703125 26.7109375 159.4540625 26.046875 160.203125 C6.10079687 181.53675639 -25.47920606 194.81231674 -54.46240234 196.16113281 C-58.43347983 196.20715258 -62.4036585 196.24512997 -66.375 196.25 C-67.44914154 196.25250763 -67.44914154 196.25250763 -68.54498291 196.25506592 C-80.12365029 196.25668817 -91.09469573 195.55303711 -102.29418945 192.34228516 C-109.24570977 190.56416301 -113.81392273 191.63704087 -120.4375 194.125 C-127.67246804 196.63588336 -134.80458793 198.84160376 -142.3125 200.375 C-143.42999634 200.60727295 -143.42999634 200.60727295 -144.57006836 200.84423828 C-151.87058944 202.2893814 -159.11127344 203.14814628 -166.5625 203.0625 C-167.59503906 203.05347656 -168.62757813 203.04445312 -169.69140625 203.03515625 C-170.83416016 203.01775391 -170.83416016 203.01775391 -172 203 C-170.61054335 199.3403518 -168.97218349 195.94508597 -167.1015625 192.5078125 C-166.53953125 191.47269531 -165.9775 190.43757812 -165.3984375 189.37109375 C-164.81320313 188.29988281 -164.22796875 187.22867188 -163.625 186.125 C-163.0475 185.06152344 -162.47 183.99804688 -161.875 182.90234375 C-158.97265878 177.56813215 -156.04028921 172.25685475 -153 167 C-154.35931641 165.71029297 -154.35931641 165.71029297 -155.74609375 164.39453125 C-176.93758432 143.97258037 -189.58658253 119.51323933 -190.3125 89.6875 C-189.90979924 65.424779 -181.02112899 43.10446262 -165 25 C-164.46117187 24.31808594 -163.92234375 23.63617188 -163.3671875 22.93359375 C-144.92409008 -0.00442943 -113.35515053 -12.21376592 -85.0625 -16.3125 C-55.54499104 -19.37009057 -25.91300633 -14.87877211 0 0 Z " fill="#C0E2F6" transform="translate(195,35)"/>
<path d="M0 0 C0.60005859 0.34401855 1.20011719 0.68803711 1.81835938 1.04248047 C25.96854829 15.16520545 45.31686699 36.97986921 52.93359375 64.35546875 C59.43861255 91.40265218 55.48758886 117.77152881 41.26953125 141.61328125 C37.42266978 147.54907596 32.75988912 152.78947049 28 158 C27.35546875 158.72703125 26.7109375 159.4540625 26.046875 160.203125 C6.10079687 181.53675639 -25.47920606 194.81231674 -54.46240234 196.16113281 C-58.43347983 196.20715258 -62.4036585 196.24512997 -66.375 196.25 C-67.44914154 196.25250763 -67.44914154 196.25250763 -68.54498291 196.25506592 C-80.12365029 196.25668817 -91.09469573 195.55303711 -102.29418945 192.34228516 C-109.24570977 190.56416301 -113.81392273 191.63704087 -120.4375 194.125 C-127.67246804 196.63588336 -134.80458793 198.84160376 -142.3125 200.375 C-143.42999634 200.60727295 -143.42999634 200.60727295 -144.57006836 200.84423828 C-151.87058944 202.2893814 -159.11127344 203.14814628 -166.5625 203.0625 C-167.59503906 203.05347656 -168.62757813 203.04445312 -169.69140625 203.03515625 C-170.83416016 203.01775391 -170.83416016 203.01775391 -172 203 C-170.61054335 199.3403518 -168.97218349 195.94508597 -167.1015625 192.5078125 C-166.53953125 191.47269531 -165.9775 190.43757812 -165.3984375 189.37109375 C-164.81320313 188.29988281 -164.22796875 187.22867188 -163.625 186.125 C-163.0475 185.06152344 -162.47 183.99804688 -161.875 182.90234375 C-158.97265878 177.56813215 -156.04028921 172.25685475 -153 167 C-154.35931641 165.71029297 -154.35931641 165.71029297 -155.74609375 164.39453125 C-176.93758432 143.97258037 -189.58658253 119.51323933 -190.3125 89.6875 C-189.90979924 65.424779 -181.02112899 43.10446262 -165 25 C-164.46117187 24.31808594 -163.92234375 23.63617188 -163.3671875 22.93359375 C-144.92409008 -0.00442943 -113.35515053 -12.21376592 -85.0625 -16.3125 C-55.54499104 -19.37009057 -25.91300633 -14.87877211 0 0 Z M-102 -6 C-102.65677734 -5.82871582 -103.31355469 -5.65743164 -103.99023438 -5.48095703 C-120.10053874 -1.17190594 -135.25776794 7.34045074 -148 18 C-148.85722656 18.69480469 -149.71445313 19.38960937 -150.59765625 20.10546875 C-168.12828359 34.9807615 -180.57303174 57.06668604 -183 80 C-184.89474119 105.21810302 -177.90756503 127.94307695 -161.84375 147.64453125 C-157.22534381 152.93781018 -152.25720989 157.50586656 -146.7734375 161.89453125 C-146.18820313 162.58933594 -145.60296875 163.28414062 -145 164 C-145.36773893 168.07879759 -146.96537084 171.12704316 -148.94140625 174.66796875 C-149.52470703 175.72564453 -150.10800781 176.78332031 -150.70898438 177.87304688 C-151.32064453 178.96681641 -151.93230469 180.06058594 -152.5625 181.1875 C-153.77584036 183.3664306 -154.98566835 185.54732205 -156.19140625 187.73046875 C-156.72967041 188.69364014 -157.26793457 189.65681152 -157.82250977 190.64916992 C-159.14928164 192.85983098 -159.14928164 192.85983098 -159 195 C-143.39691515 194.71583786 -128.41195001 190.782101 -114.04296875 184.8203125 C-107.39625641 183.02851585 -100.16876551 185.79960191 -93.59765625 187.28125 C-59.98105738 193.99726975 -24.66521217 187.81046492 4 169 C26.94452076 153.19539512 42.22917534 132.30282637 48 105 C51.98479509 81.8350579 46.86465526 58.78511476 33.53515625 39.4765625 C14.053857 12.34216929 -14.27168678 -3.59368556 -47.04296875 -9.05078125 C-65.35728243 -11.81704635 -84.15458201 -10.88508132 -102 -6 Z " fill="#7291BC" transform="translate(195,35)"/>
<path d="M0 0 C37.62 0 75.24 0 114 0 C114 1.98 114 3.96 114 6 C76.38 6 38.76 6 0 6 C0 4.02 0 2.04 0 0 Z " fill="#4D76AC" transform="translate(71,154)"/>
<path d="M0 0 C37.62 0 75.24 0 114 0 C114 1.98 114 3.96 114 6 C76.38 6 38.76 6 0 6 C0 4.02 0 2.04 0 0 Z " fill="#4D76AC" transform="translate(71,90)"/>
<path d="M0 0 C31.35 0 62.7 0 95 0 C95 1.98 95 3.96 95 6 C63.65 6 32.3 6 0 6 C0 4.02 0 2.04 0 0 Z " fill="#4D76AC" transform="translate(58,122)"/>
<path d="M0 0 C8.25 0 16.5 0 25 0 C25 1.98 25 3.96 25 6 C16.75 6 8.5 6 0 6 C0 4.02 0 2.04 0 0 Z " fill="#4D76AC" transform="translate(173,122)"/>
</svg>
