<?xml version="1.0" encoding="UTF-8"?>
<svg version="1.1" xmlns="http://www.w3.org/2000/svg" width="128" height="128">
<path d="M0 0 C0.83106766 -0.0065712 1.66213531 -0.0131424 2.51838684 -0.01991272 C5.27552373 -0.03966371 8.03260612 -0.05131218 10.78979492 -0.0612793 C11.73052038 -0.06535482 12.67124584 -0.06943035 13.64047813 -0.07362938 C18.61936601 -0.09449761 23.59822627 -0.10879617 28.57714844 -0.11816406 C33.72219671 -0.1292313 38.86681282 -0.16363267 44.01170826 -0.20333576 C47.96568104 -0.2294696 51.91955035 -0.23785301 55.87360191 -0.24144554 C57.77022916 -0.24631972 59.66685153 -0.25795729 61.56339455 -0.27648354 C64.2183935 -0.30080687 66.87226771 -0.2999226 69.52734375 -0.29296875 C70.31038879 -0.30577881 71.09343384 -0.31858887 71.90020752 -0.33178711 C75.63424702 -0.29615149 77.74908574 0.04294431 80.92216492 2.08137512 C84.63359379 5.90225088 84.08810195 9.40663074 84.05541992 14.46606445 C84.05400497 15.28448822 84.05259003 16.10291199 84.0511322 16.94613647 C84.04552657 19.5647952 84.03297315 22.18336899 84.02026367 24.80200195 C84.0152494 26.57543822 84.01068636 28.34887582 84.0065918 30.12231445 C83.99555531 34.47390977 83.97828692 38.82544145 83.95776367 43.17700195 C84.62960693 43.28947266 85.3014502 43.40194336 85.99365234 43.51782227 C95.52587856 45.24168958 101.32497728 49.29110101 106.95776367 57.17700195 C111.03559404 65.31281923 111.57393471 74.40068694 109.11401367 83.19262695 C106.44235471 89.07749738 102.38259478 93.65032248 96.95776367 97.17700195 C94.71166992 97.8605957 94.71166992 97.8605957 92.95776367 98.17700195 C93.12147461 98.88211914 93.28518555 99.58723633 93.45385742 100.3137207 C93.97476191 103.27358883 94.05643099 105.98761468 94.02026367 108.98950195 C94.01124023 109.96532227 94.0022168 110.94114258 93.99291992 111.9465332 C93.98131836 112.68258789 93.9697168 113.41864258 93.95776367 114.17700195 C92.21948242 114.02075195 92.21948242 114.02075195 89.95776367 113.17700195 C88.54410201 111.35738042 87.15127811 109.52152382 85.77026367 107.67700195 C82.01256158 103.31339616 78.7398985 101.83879382 72.99291992 101.33325195 C68.62623981 101.14986753 64.28685203 101.2130005 59.91870117 101.30200195 C50.72561842 101.38685218 43.65043983 98.43129321 36.95776367 92.17700195 C31.24332588 85.7373817 29.66506103 79.6653785 29.95776367 71.17700195 C22.01892315 70.92832102 22.01892315 70.92832102 14.74682617 73.5559082 C12.98144221 75.34126257 11.45948853 77.16548102 9.95776367 79.17700195 C8.90536196 80.49761284 7.84319655 81.8105167 6.77026367 83.11450195 C6.32295898 83.70102539 5.8756543 84.28754883 5.41479492 84.8918457 C3.95776367 86.17700195 3.95776367 86.17700195 -0.04223633 86.17700195 C0.28776367 81.22700195 0.61776367 76.27700195 0.95776367 71.17700195 C-0.86754883 71.26981445 -0.86754883 71.26981445 -2.72973633 71.36450195 C-6.63965329 71.36450195 -8.91492944 70.66045154 -12.04223633 68.17700195 C-14.31740709 64.76424581 -14.30296467 63.51167732 -14.33276367 59.49975586 C-14.34552338 58.33489655 -14.35828308 57.17003723 -14.37142944 55.96987915 C-14.37365509 54.7104953 -14.37588074 53.45111145 -14.37817383 52.15356445 C-14.38483063 50.86010101 -14.39148743 49.56663757 -14.39834595 48.23397827 C-14.41031905 45.49522567 -14.41402681 42.75659919 -14.4128418 40.01782227 C-14.41263871 36.51493216 -14.43992806 33.01285436 -14.47438622 29.51015663 C-14.50202658 26.16211383 -14.5008051 22.81421987 -14.50317383 19.46606445 C-14.51754486 18.21072906 -14.53191589 16.95539368 -14.54672241 15.66201782 C-14.54056915 14.49085419 -14.53441589 13.31969055 -14.52807617 12.11303711 C-14.53092621 11.08506012 -14.53377625 10.05708313 -14.53671265 8.99795532 C-13.91281261 5.43864854 -12.51381869 3.76287839 -10.04223633 1.17700195 C-6.8792176 -0.40450741 -3.4742791 0.01183854 0 0 Z " fill="#F0F0F4" transform="translate(16.042236328125,6.822998046875)"/>
<path d="M0 0 C0.83106766 -0.0065712 1.66213531 -0.0131424 2.51838684 -0.01991272 C5.27552373 -0.03966371 8.03260612 -0.05131218 10.78979492 -0.0612793 C11.73052038 -0.06535482 12.67124584 -0.06943035 13.64047813 -0.07362938 C18.61936601 -0.09449761 23.59822627 -0.10879617 28.57714844 -0.11816406 C33.72219671 -0.1292313 38.86681282 -0.16363267 44.01170826 -0.20333576 C47.96568104 -0.2294696 51.91955035 -0.23785301 55.87360191 -0.24144554 C57.77022916 -0.24631972 59.66685153 -0.25795729 61.56339455 -0.27648354 C64.2183935 -0.30080687 66.87226771 -0.2999226 69.52734375 -0.29296875 C70.31038879 -0.30577881 71.09343384 -0.31858887 71.90020752 -0.33178711 C75.63424702 -0.29615149 77.74908574 0.04294431 80.92216492 2.08137512 C84.63359379 5.90225088 84.08810195 9.40663074 84.05541992 14.46606445 C84.05400497 15.28448822 84.05259003 16.10291199 84.0511322 16.94613647 C84.04552657 19.5647952 84.03297315 22.18336899 84.02026367 24.80200195 C84.0152494 26.57543822 84.01068636 28.34887582 84.0065918 30.12231445 C83.99555531 34.47390977 83.97828692 38.82544145 83.95776367 43.17700195 C84.62960693 43.28947266 85.3014502 43.40194336 85.99365234 43.51782227 C95.52587856 45.24168958 101.32497728 49.29110101 106.95776367 57.17700195 C111.03559404 65.31281923 111.57393471 74.40068694 109.11401367 83.19262695 C106.44235471 89.07749738 102.38259478 93.65032248 96.95776367 97.17700195 C94.71166992 97.8605957 94.71166992 97.8605957 92.95776367 98.17700195 C93.12147461 98.88211914 93.28518555 99.58723633 93.45385742 100.3137207 C93.97476191 103.27358883 94.05643099 105.98761468 94.02026367 108.98950195 C94.01124023 109.96532227 94.0022168 110.94114258 93.99291992 111.9465332 C93.98131836 112.68258789 93.9697168 113.41864258 93.95776367 114.17700195 C92.21948242 114.02075195 92.21948242 114.02075195 89.95776367 113.17700195 C88.54410201 111.35738042 87.15127811 109.52152382 85.77026367 107.67700195 C82.01256158 103.31339616 78.7398985 101.83879382 72.99291992 101.33325195 C68.62623981 101.14986753 64.28685203 101.2130005 59.91870117 101.30200195 C50.72561842 101.38685218 43.65043983 98.43129321 36.95776367 92.17700195 C31.24332588 85.7373817 29.66506103 79.6653785 29.95776367 71.17700195 C22.01892315 70.92832102 22.01892315 70.92832102 14.74682617 73.5559082 C12.98144221 75.34126257 11.45948853 77.16548102 9.95776367 79.17700195 C8.90536196 80.49761284 7.84319655 81.8105167 6.77026367 83.11450195 C6.32295898 83.70102539 5.8756543 84.28754883 5.41479492 84.8918457 C3.95776367 86.17700195 3.95776367 86.17700195 -0.04223633 86.17700195 C0.28776367 81.22700195 0.61776367 76.27700195 0.95776367 71.17700195 C-0.86754883 71.26981445 -0.86754883 71.26981445 -2.72973633 71.36450195 C-6.63965329 71.36450195 -8.91492944 70.66045154 -12.04223633 68.17700195 C-14.31740709 64.76424581 -14.30296467 63.51167732 -14.33276367 59.49975586 C-14.34552338 58.33489655 -14.35828308 57.17003723 -14.37142944 55.96987915 C-14.37365509 54.7104953 -14.37588074 53.45111145 -14.37817383 52.15356445 C-14.38483063 50.86010101 -14.39148743 49.56663757 -14.39834595 48.23397827 C-14.41031905 45.49522567 -14.41402681 42.75659919 -14.4128418 40.01782227 C-14.41263871 36.51493216 -14.43992806 33.01285436 -14.47438622 29.51015663 C-14.50202658 26.16211383 -14.5008051 22.81421987 -14.50317383 19.46606445 C-14.51754486 18.21072906 -14.53191589 16.95539368 -14.54672241 15.66201782 C-14.54056915 14.49085419 -14.53441589 13.31969055 -14.52807617 12.11303711 C-14.53092621 11.08506012 -14.53377625 10.05708313 -14.53671265 8.99795532 C-13.91281261 5.43864854 -12.51381869 3.76287839 -10.04223633 1.17700195 C-6.8792176 -0.40450741 -3.4742791 0.01183854 0 0 Z M-10.04223633 5.17700195 C-12.14115859 8.19712627 -12.30645404 10.77558528 -12.34863281 14.40112305 C-12.36462021 15.44255463 -12.3806076 16.48398621 -12.39707947 17.55697632 C-12.40244217 18.67681915 -12.40780487 19.79666199 -12.41333008 20.95043945 C-12.42235855 22.10694 -12.43138702 23.26344055 -12.44068909 24.45498657 C-12.45519404 26.90103567 -12.46407892 29.34712358 -12.46777344 31.79321289 C-12.47967007 35.53118381 -12.52885726 39.26750437 -12.5793457 43.00512695 C-12.58880994 45.38272307 -12.59604497 47.76032932 -12.60083008 50.13793945 C-12.6203624 51.25373383 -12.63989471 52.3695282 -12.66001892 53.51913452 C-12.67908277 60.16213527 -12.67908277 60.16213527 -9.68823242 65.89282227 C-6.56650993 68.587677 -5.28209859 68.8449438 -1.22973633 68.55200195 C0.48213867 68.42825195 2.19401367 68.30450195 3.95776367 68.17700195 C3.95776367 72.13700195 3.95776367 76.09700195 3.95776367 80.17700195 C5.00963867 79.29012695 6.06151367 78.40325195 7.14526367 77.48950195 C7.73694336 76.99063477 8.32862305 76.49176758 8.93823242 75.9777832 C11.09931955 74.13497941 11.09931955 74.13497941 13.20776367 71.52075195 C16.65330892 68.58420771 19.42838045 68.40189616 23.77026367 68.36450195 C24.46313477 68.33936523 25.15600586 68.31422852 25.86987305 68.28833008 C27.56523489 68.22986932 29.26155654 68.20047149 30.95776367 68.17700195 C31.12791992 67.59692383 31.29807617 67.0168457 31.47338867 66.41918945 C34.167882 57.7337482 37.9995788 51.81927646 45.95776367 47.17700195 C53.17746533 43.70023318 60.03030661 43.63599667 67.95776367 43.48950195 C69.20944336 43.4553418 70.46112305 43.42118164 71.75073242 43.38598633 C74.81965324 43.30399226 77.88830573 43.23468176 80.95776367 43.17700195 C81.05673548 38.12334903 81.1292797 33.07026171 81.17749023 28.01586914 C81.19758995 26.29701916 81.22487456 24.57823743 81.25952148 22.85961914 C81.30811401 20.38711706 81.33074802 17.91551985 81.34838867 15.44262695 C81.36903381 14.67581604 81.38967896 13.90900513 81.41094971 13.11895752 C81.41244722 9.54797779 81.27719939 7.58972276 79.05834961 4.72290039 C75.20880555 1.88987936 72.09831302 2.02293303 67.46630859 2.01586914 C66.69376236 2.01090424 65.92121613 2.00593933 65.1252594 2.00082397 C62.56290809 1.9861885 60.00061871 1.97939764 57.43823242 1.97387695 C55.65944924 1.9681261 53.88066608 1.96236836 52.10188293 1.956604 C48.3685375 1.94608971 44.63521363 1.94025003 40.90185547 1.93676758 C36.1200823 1.93128564 31.3385943 1.90726591 26.55691051 1.87879562 C22.88087637 1.860162 19.20491077 1.85496323 15.52883339 1.8534317 C13.76619217 1.85040566 12.00355215 1.84237876 10.24095726 1.82924652 C7.77288586 1.81217269 5.305509 1.81406949 2.83740234 1.82055664 C1.74699142 1.80673447 1.74699142 1.80673447 0.634552 1.79263306 C-3.75957626 1.82877398 -6.60059617 2.38866196 -10.04223633 5.17700195 Z " fill="#419CD8" transform="translate(16.042236328125,6.822998046875)"/>
<path d="M0 0 C0.83106766 -0.0065712 1.66213531 -0.0131424 2.51838684 -0.01991272 C5.27552373 -0.03966371 8.03260612 -0.05131218 10.78979492 -0.0612793 C11.73052038 -0.06535482 12.67124584 -0.06943035 13.64047813 -0.07362938 C18.61936601 -0.09449761 23.59822627 -0.10879617 28.57714844 -0.11816406 C33.72219671 -0.1292313 38.86681282 -0.16363267 44.01170826 -0.20333576 C47.96568104 -0.2294696 51.91955035 -0.23785301 55.87360191 -0.24144554 C57.77022916 -0.24631972 59.66685153 -0.25795729 61.56339455 -0.27648354 C64.2183935 -0.30080687 66.87226771 -0.2999226 69.52734375 -0.29296875 C70.31038879 -0.30577881 71.09343384 -0.31858887 71.90020752 -0.33178711 C75.63424702 -0.29615149 77.74908574 0.04294431 80.92216492 2.08137512 C84.63359379 5.90225088 84.08810195 9.40663074 84.05541992 14.46606445 C84.05400497 15.28448822 84.05259003 16.10291199 84.0511322 16.94613647 C84.04552657 19.5647952 84.03297315 22.18336899 84.02026367 24.80200195 C84.0152494 26.57543822 84.01068636 28.34887582 84.0065918 30.12231445 C83.99555531 34.47390977 83.97828692 38.82544145 83.95776367 43.17700195 C84.62960693 43.28947266 85.3014502 43.40194336 85.99365234 43.51782227 C95.52587856 45.24168958 101.32497728 49.29110101 106.95776367 57.17700195 C111.03559404 65.31281923 111.57393471 74.40068694 109.11401367 83.19262695 C106.44235471 89.07749738 102.38259478 93.65032248 96.95776367 97.17700195 C94.71166992 97.8605957 94.71166992 97.8605957 92.95776367 98.17700195 C93.12147461 98.88211914 93.28518555 99.58723633 93.45385742 100.3137207 C93.97476191 103.27358883 94.05643099 105.98761468 94.02026367 108.98950195 C94.01124023 109.96532227 94.0022168 110.94114258 93.99291992 111.9465332 C93.98131836 112.68258789 93.9697168 113.41864258 93.95776367 114.17700195 C92.21948242 114.02075195 92.21948242 114.02075195 89.95776367 113.17700195 C88.54410201 111.35738042 87.15127811 109.52152382 85.77026367 107.67700195 C82.01256158 103.31339616 78.7398985 101.83879382 72.99291992 101.33325195 C68.62623981 101.14986753 64.28685203 101.2130005 59.91870117 101.30200195 C50.72561842 101.38685218 43.65043983 98.43129321 36.95776367 92.17700195 C31.24332588 85.7373817 29.66506103 79.6653785 29.95776367 71.17700195 C22.01892315 70.92832102 22.01892315 70.92832102 14.74682617 73.5559082 C12.98144221 75.34126257 11.45948853 77.16548102 9.95776367 79.17700195 C8.90536196 80.49761284 7.84319655 81.8105167 6.77026367 83.11450195 C6.32295898 83.70102539 5.8756543 84.28754883 5.41479492 84.8918457 C3.95776367 86.17700195 3.95776367 86.17700195 -0.04223633 86.17700195 C0.28776367 81.22700195 0.61776367 76.27700195 0.95776367 71.17700195 C-0.86754883 71.26981445 -0.86754883 71.26981445 -2.72973633 71.36450195 C-6.63965329 71.36450195 -8.91492944 70.66045154 -12.04223633 68.17700195 C-14.31740709 64.76424581 -14.30296467 63.51167732 -14.33276367 59.49975586 C-14.34552338 58.33489655 -14.35828308 57.17003723 -14.37142944 55.96987915 C-14.37365509 54.7104953 -14.37588074 53.45111145 -14.37817383 52.15356445 C-14.38483063 50.86010101 -14.39148743 49.56663757 -14.39834595 48.23397827 C-14.41031905 45.49522567 -14.41402681 42.75659919 -14.4128418 40.01782227 C-14.41263871 36.51493216 -14.43992806 33.01285436 -14.47438622 29.51015663 C-14.50202658 26.16211383 -14.5008051 22.81421987 -14.50317383 19.46606445 C-14.51754486 18.21072906 -14.53191589 16.95539368 -14.54672241 15.66201782 C-14.54056915 14.49085419 -14.53441589 13.31969055 -14.52807617 12.11303711 C-14.53092621 11.08506012 -14.53377625 10.05708313 -14.53671265 8.99795532 C-13.91281261 5.43864854 -12.51381869 3.76287839 -10.04223633 1.17700195 C-6.8792176 -0.40450741 -3.4742791 0.01183854 0 0 Z M-10.04223633 5.17700195 C-12.14115859 8.19712627 -12.30645404 10.77558528 -12.34863281 14.40112305 C-12.36462021 15.44255463 -12.3806076 16.48398621 -12.39707947 17.55697632 C-12.40244217 18.67681915 -12.40780487 19.79666199 -12.41333008 20.95043945 C-12.42235855 22.10694 -12.43138702 23.26344055 -12.44068909 24.45498657 C-12.45519404 26.90103567 -12.46407892 29.34712358 -12.46777344 31.79321289 C-12.47967007 35.53118381 -12.52885726 39.26750437 -12.5793457 43.00512695 C-12.58880994 45.38272307 -12.59604497 47.76032932 -12.60083008 50.13793945 C-12.6203624 51.25373383 -12.63989471 52.3695282 -12.66001892 53.51913452 C-12.67908277 60.16213527 -12.67908277 60.16213527 -9.68823242 65.89282227 C-6.56650993 68.587677 -5.28209859 68.8449438 -1.22973633 68.55200195 C0.48213867 68.42825195 2.19401367 68.30450195 3.95776367 68.17700195 C3.95776367 72.13700195 3.95776367 76.09700195 3.95776367 80.17700195 C5.00963867 79.29012695 6.06151367 78.40325195 7.14526367 77.48950195 C7.73694336 76.99063477 8.32862305 76.49176758 8.93823242 75.9777832 C11.09931955 74.13497941 11.09931955 74.13497941 13.20776367 71.52075195 C16.65330892 68.58420771 19.42838045 68.40189616 23.77026367 68.36450195 C24.46313477 68.33936523 25.15600586 68.31422852 25.86987305 68.28833008 C27.56523489 68.22986932 29.26155654 68.20047149 30.95776367 68.17700195 C31.12791992 67.59692383 31.29807617 67.0168457 31.47338867 66.41918945 C34.167882 57.7337482 37.9995788 51.81927646 45.95776367 47.17700195 C53.17746533 43.70023318 60.03030661 43.63599667 67.95776367 43.48950195 C69.20944336 43.4553418 70.46112305 43.42118164 71.75073242 43.38598633 C74.81965324 43.30399226 77.88830573 43.23468176 80.95776367 43.17700195 C81.05673548 38.12334903 81.1292797 33.07026171 81.17749023 28.01586914 C81.19758995 26.29701916 81.22487456 24.57823743 81.25952148 22.85961914 C81.30811401 20.38711706 81.33074802 17.91551985 81.34838867 15.44262695 C81.36903381 14.67581604 81.38967896 13.90900513 81.41094971 13.11895752 C81.41244722 9.54797779 81.27719939 7.58972276 79.05834961 4.72290039 C75.20880555 1.88987936 72.09831302 2.02293303 67.46630859 2.01586914 C66.69376236 2.01090424 65.92121613 2.00593933 65.1252594 2.00082397 C62.56290809 1.9861885 60.00061871 1.97939764 57.43823242 1.97387695 C55.65944924 1.9681261 53.88066608 1.96236836 52.10188293 1.956604 C48.3685375 1.94608971 44.63521363 1.94025003 40.90185547 1.93676758 C36.1200823 1.93128564 31.3385943 1.90726591 26.55691051 1.87879562 C22.88087637 1.860162 19.20491077 1.85496323 15.52883339 1.8534317 C13.76619217 1.85040566 12.00355215 1.84237876 10.24095726 1.82924652 C7.77288586 1.81217269 5.305509 1.81406949 2.83740234 1.82055664 C1.74699142 1.80673447 1.74699142 1.80673447 0.634552 1.79263306 C-3.75957626 1.82877398 -6.60059617 2.38866196 -10.04223633 5.17700195 Z M37.39526367 56.23950195 C32.39486925 63.49526716 32.16776057 70.55523971 32.95776367 79.17700195 C35.27411594 87.24041199 41.18017626 91.91295989 48.09057617 96.16137695 C51.79744756 98.17766683 54.66972737 98.24797033 58.80541992 98.1418457 C79.12080082 97.97379827 79.12080082 97.97379827 83.93041992 101.46606445 C86.28083318 103.92378671 88.16879701 106.29477789 89.95776367 109.17700195 C90.28776367 109.17700195 90.61776367 109.17700195 90.95776367 109.17700195 C90.85334961 108.38036133 90.74893555 107.5837207 90.64135742 106.76293945 C90.38251183 103.38562074 90.32701661 100.51095069 90.95776367 97.17700195 C92.99008809 95.1181112 95.00823876 94.02888026 97.55932617 92.6809082 C102.12973109 89.81510056 104.59011483 84.91229964 106.95776367 80.17700195 C107.76750563 71.40308909 108.12155513 63.6847664 102.80151367 56.23168945 C97.30991012 50.11180923 91.55898424 46.57566366 83.23828125 45.85473633 C81.85991063 45.81489462 80.48113962 45.78749203 79.10229492 45.77075195 C78.36001144 45.75935181 77.61772797 45.74795166 76.85295105 45.73620605 C75.28727841 45.71739634 73.72152821 45.70427414 72.15576172 45.6965332 C69.79338665 45.67719127 67.43455265 45.6151148 65.07299805 45.55200195 C53.83633797 45.39424218 44.86826412 46.99350233 37.39526367 56.23950195 Z " fill="#454A82" transform="translate(16.042236328125,6.822998046875)"/>
<path d="M0 0 C2.375 1.125 2.375 1.125 4 3 C4.5 6 4.5 6 4 9 C1.781313 11.56002346 0.34812407 11.94923191 -3 12.4375 C-6 12 -6 12 -8.4375 10.375 C-10 8 -10 8 -9.9375 4.875 C-8.23923577 -0.3330103 -4.94358528 -0.50444748 0 0 Z " fill="#465089" transform="translate(89,73)"/>
<path d="M0 0 C2.4375 1.625 2.4375 1.625 4 4 C3.9375 7.125 3.9375 7.125 3 10 C-0.48868651 12.32579101 -1.89718519 12.41865457 -6 12 C-8.375 10.875 -8.375 10.875 -10 9 C-10.5 6 -10.5 6 -10 3 C-7.1012774 -0.34467992 -4.26951578 -0.62263772 0 0 Z " fill="#505A90" transform="translate(69,73)"/>
<path d="M0 0 C2.375 1.125 2.375 1.125 4 3 C4.5 6 4.5 6 4 9 C1.781313 11.56002346 0.34812407 11.94923191 -3 12.4375 C-6 12 -6 12 -8.4375 10.3125 C-10 8 -10 8 -9.9375 5.4375 C-7.91744199 0.18534917 -5.57520286 -0.6826779 0 0 Z " fill="#414782" transform="translate(109,73)"/>
<path d="M0 0 C-0.74443359 0.45439453 -0.74443359 0.45439453 -1.50390625 0.91796875 C-2.93349003 1.79959063 -4.35623991 2.69235224 -5.7734375 3.59375 C-7.13659519 4.4546917 -8.5142188 5.29383931 -9.9140625 6.09375 C-14.80131133 9.10791227 -16.6542246 12.64174588 -18.859375 17.890625 C-20 20 -20 20 -23 21 C-22.38483109 14.43819829 -18.42523096 9.04577882 -13.6875 4.6875 C-10.16363472 1.85913444 -4.42872269 -2.21436134 0 0 Z " fill="#4A5088" transform="translate(70,52)"/>
<path d="M0 0 C6.27 0 12.54 0 19 0 C19.33 0.99 19.66 1.98 20 3 C13.4 3 6.8 3 0 3 C0 2.01 0 1.02 0 0 Z " fill="#676998" transform="translate(17,54)"/>
<path d="M0 0 C1.134375 0.020625 2.26875 0.04125 3.4375 0.0625 C3.7675 1.7125 4.0975 3.3625 4.4375 5.0625 C1.4375 7.0625 1.4375 7.0625 -1.25 6.6875 C-2.013125 6.48125 -2.77625 6.275 -3.5625 6.0625 C-3.94468767 4.40635343 -4.27645102 2.73792976 -4.5625 1.0625 C-3.5625 0.0625 -3.5625 0.0625 0 0 Z " fill="#F0F0F5" transform="translate(106.5625,75.9375)"/>
<path d="M0 0 C1.4540625 0.0309375 1.4540625 0.0309375 2.9375 0.0625 C3.5975 1.3825 4.2575 2.7025 4.9375 4.0625 C2.9375 6.0625 2.9375 6.0625 -0.1875 6.1875 C-1.610625 6.125625 -1.610625 6.125625 -3.0625 6.0625 C-3.44468767 4.40635343 -3.77645102 2.73792976 -4.0625 1.0625 C-3.0625 0.0625 -3.0625 0.0625 0 0 Z " fill="#FAFAFC" transform="translate(86.0625,75.9375)"/>
<path d="M0 0 C0.94875 0.04125 1.8975 0.0825 2.875 0.125 C3.25718767 1.78114657 3.58895102 3.44957024 3.875 5.125 C2.875 6.125 2.875 6.125 -0.1875 6.1875 C-1.156875 6.166875 -2.12625 6.14625 -3.125 6.125 C-3.785 4.805 -4.445 3.485 -5.125 2.125 C-3.125 0.125 -3.125 0.125 0 0 Z " fill="#FAFAFC" transform="translate(66.125,75.875)"/>
<path d="M0 0 C1 1 1 1 1.375 3.875 C1.25125 4.90625 1.1275 5.9375 1 7 C-1.5 8.875 -1.5 8.875 -4 10 C-4 9.34 -4 8.68 -4 8 C-5.32 7.67 -6.64 7.34 -8 7 C-6.02 6.34 -4.04 5.68 -2 5 C-2.33 4.01 -2.66 3.02 -3 2 C-4.65 1.67 -6.3 1.34 -8 1 C-4.94690317 -0.85366593 -3.3773192 -1.28105211 0 0 Z " fill="#596194" transform="translate(92,75)"/>
<path d="M0 0 C2.475 0.99 2.475 0.99 5 2 C5 2.33 5 2.66 5 3 C3.35 3.33 1.7 3.66 0 4 C0 5.32 0 6.64 0 8 C0.66 8.33 1.32 8.66 2 9 C2 9.99 2 10.98 2 12 C-0.46800047 10.84826645 -2.04783565 9.95216435 -4 8 C-3.77256695 5.04337034 -3.38764062 3.44966312 -1.4375 1.1875 C-0.963125 0.795625 -0.48875 0.40375 0 0 Z " fill="#4E588F" transform="translate(103,73)"/>
<path d="M0 0 C-1 2 -1 2 -3.5 2.875 C-4.325 3.24625 -5.15 3.6175 -6 4 C-6.65213292 6.02463255 -6.65213292 6.02463255 -7 8 C-7.99 8.33 -8.98 8.66 -10 9 C-10.25 6.1875 -10.25 6.1875 -10 3 C-7.05843777 -0.39411027 -4.30855278 -0.29376496 0 0 Z " fill="#475089" transform="translate(69,73)"/>
<path d="M0 0 C0 1.65 0 3.3 0 5 C-0.391875 4.525625 -0.78375 4.05125 -1.1875 3.5625 C-3.40808374 1.64820367 -5.13375709 1.38733012 -8 1 C-4.93251126 -0.86240388 -3.40254489 -1.2151946 0 0 Z " fill="#595F93" transform="translate(72,75)"/>
</svg>
