<svg viewBox="0 0 395.52 247.2" height="247.2" width="395.52" data-background-color="#71cbbd"
     preserveAspectRatio="xMidYMid meet" id="tight-bounds" xmlns="http://www.w3.org/2000/svg"
     xmlns:xlink="http://www.w3.org/1999/xlink">
    <g>
        <svg viewBox="0 0 395.52 247.2" height="247.2" width="395.52">
            <g transform="matrix(1,0,0,1,0,49.88483290488432)">
                <svg viewBox="0 0 395.52 147.43033419023135" height="147.43033419023135" width="395.52">
                    <g>
                        <svg viewBox="0 0 395.52 147.43033419023135" height="147.43033419023135" width="395.52">
                            <g>
                                <svg viewBox="0 0 395.52 147.43033419023135" height="147.43033419023135" width="395.52">
                                    <g>
                                        <svg viewBox="0 0 395.52 147.43033419023135" height="147.43033419023135"
                                             width="395.52">
                                            <g id="textblocktransform">
                                                <svg viewBox="0 0 395.52 147.43033419023135" height="147.43033419023135"
                                                     width="395.52" id="textblock">
                                                    <g>
                                                        <svg viewBox="0 0 395.52 147.43033419023135"
                                                             height="147.43033419023135" width="395.52">
                                                            <g transform="matrix(1,0,0,1,0,0)">
                                                                <svg width="395.52"
                                                                     viewBox="0.05000019073486328 -40 117.68999481201172 44.5"
                                                                     height="147.43033419023135"
                                                                     data-palette-color="#3859e2">
                                                                    <path d="M4.05-36L8.95-36 8.95-31.65 4.05-31.65 4.05-36ZM4.15-25.55L8.85-25.55 8.85 0 4.15 0 4.15-25.55ZM32.2-34.3Q36.75-34.3 39.67-32.15 42.6-30 42.6-26.25L42.6-26.25Q42.6-22.9 40.82-20.55 39.05-18.2 36.45-17.7L36.45-17.7 36.45-17.45Q38.85-16.5 40.4-14.15 41.95-11.8 41.95-8.5L41.95-8.5Q41.95-5.75 42.25-4.35 42.55-2.95 43.05-2.4 43.55-1.85 44.5-1.55L44.5-1.55 44.5-0.15Q43.4 0.3 42.15 0.3L42.15 0.3Q39.75 0.3 38.4-1.13 37.05-2.55 37.05-6.5L37.05-6.5Q37.05-10.55 35.37-12.83 33.7-15.1 31.2-15.1L31.2-15.1 22.5-15.1 22.5 0 17.6 0 17.6-34.3 32.2-34.3ZM32.25-29.85L22.5-29.85 22.5-19.55 32.25-19.55Q34.4-19.55 36.05-21 37.7-22.45 37.7-24.6L37.7-24.6 37.7-24.8Q37.7-27 36.2-28.43 34.7-29.85 32.25-29.85L32.25-29.85ZM50.55-36L55.45-36 55.45-31.65 50.55-31.65 50.55-36ZM50.65-25.55L55.35-25.55 55.35 0 50.65 0 50.65-25.55ZM84.49-36L84.49 0 80.99 0Q80.64-1.6 80.34-3.5L80.34-3.5Q77.49 0.5 72.44 0.5L72.44 0.5Q67.64 0.5 64.87-3.05 62.09-6.6 62.09-12.8L62.09-12.8 62.09-13.35Q62.09-19.2 64.82-22.63 67.54-26.05 72.44-26.05L72.44-26.05Q77.19-26.05 79.79-22.3L79.79-22.3 79.79-36 84.49-36ZM73.29-22.3Q69.94-22.3 68.37-19.98 66.79-17.65 66.79-12.75L66.79-12.75Q66.79-7.85 68.39-5.55 69.99-3.25 73.29-3.25L73.29-3.25Q79.84-3.25 79.84-12.75L79.84-12.75Q79.84-17.65 78.19-19.98 76.54-22.3 73.29-22.3L73.29-22.3ZM103.04-26.05Q106.19-26.05 108.62-24.73 111.04-23.4 112.39-20.95 113.74-18.5 113.74-15.25L113.74-15.25 113.74-11.7 95.89-11.7Q95.99-7.65 97.79-5.45 99.59-3.25 103.14-3.25L103.14-3.25Q106.29-3.25 107.79-5.1 109.29-6.95 109.29-9.5L109.29-9.5 113.74-9.5Q113.74-6.5 112.37-4.25 110.99-2 108.57-0.75 106.14 0.5 103.04 0.5L103.04 0.5 102.84 0.5Q97.44 0.5 94.32-2.98 91.19-6.45 91.19-12.25L91.19-12.25 91.19-13.25Q91.19-17.05 92.59-19.95 93.99-22.85 96.59-24.45 99.19-26.05 102.69-26.05L102.69-26.05 103.04-26.05ZM102.79-22.3Q99.94-22.3 98.17-20.55 96.39-18.8 95.99-15.35L95.99-15.35 109.09-15.35 109.09-15.95Q109.09-18.8 107.37-20.55 105.64-22.3 102.79-22.3L102.79-22.3Z"
                                                                          opacity="1" transform="matrix(1,0,0,1,0,0)"
                                                                          fill="#3859e2" class="wordmark-text-0"
                                                                          data-fill-palette-color="primary"
                                                                          id="text-0"></path>
                                                                </svg>
                                                            </g>
                                                        </svg>
                                                    </g>
                                                </svg>
                                            </g>
                                        </svg>
                                    </g>
                                </svg>
                            </g>
                        </svg>
                    </g>
                </svg>
            </g>
        </svg>
    </g>
    <defs></defs>
</svg>