<svg viewBox="0 0 154.5 154.5" height="154.5" width="154.5" data-background-color="#71cbbd"
     preserveAspectRatio="xMidYMid meet" id="tight-bounds" xmlns="http://www.w3.org/2000/svg"
     xmlns:xlink="http://www.w3.org/1999/xlink">
    <g>
        <svg/>
    </g>
    <g>
        <svg viewBox="0 0 154.5 154.5" height="154.5" width="154.5">
            <g transform="matrix(1,0,0,1,68.00166593023256,43.83165)">
                <svg viewBox="0 0 18.496668139534883 66.8367" height="66.8367" width="18.496668139534883">
                    <g>
                        <svg viewBox="0 0 18.496668139534883 66.8367" height="66.8367" width="18.496668139534883">
                            <g>
                                <svg viewBox="0 0 18.496668139534883 66.8367" height="66.8367"
                                     width="18.496668139534883">
                                    <g id="textblocktransform">
                                        <svg viewBox="0 0 18.496668139534883 66.8367" height="66.8367"
                                             width="18.496668139534883" id="textblock">
                                            <g>
                                                <svg viewBox="0 0 18.496668139534883 66.8367" height="66.8367"
                                                     width="18.496668139534883">
                                                    <g transform="matrix(1,0,0,1,0,0)">
                                                        <svg width="18.496668139534883"
                                                             viewBox="0.05000019073486328 -40 12.899999618530273 44"
                                                             height="66.8367" data-palette-color="#3859e2">
                                                            <path d="M4.05-36L8.95-36 8.95-31.65 4.05-31.65 4.05-36ZM4.15-25.55L8.85-25.55 8.85 0 4.15 0 4.15-25.55Z"
                                                                  opacity="1" transform="matrix(1,0,0,1,0,0)"
                                                                  fill="#000000" class="wordmark-text-0"
                                                                  data-fill-palette-color="primary" id="text-0"/>
                                                        </svg>
                                                    </g>
                                                </svg>
                                            </g>
                                        </svg>
                                    </g>
                                </svg>
                            </g>
                        </svg>
                    </g>
                </svg>
            </g>
            <g mask="url(&quot;#18347a53-5182-49a1-b1de-7398088512b3&quot;)">
                <g transform="matrix(1.6906871326134072, 0, 0, 1.6906871326134072, 6.940926143241782, 1)">
                    <svg xmlns="http://www.w3.org/2000/svg" xmlns:xlink="http://www.w3.org/1999/xlink" version="1.1" x="0" y="0" viewBox="8.473485946655273 4.899997711181641 83.17218780517578 90.20001220703125" enable-background="new 0 0 100 100" xml:space="preserve" height="90.20001220703125" width="83.17218780517578" class="icon-none" data-fill-palette-color="accent" id="none" fill="#000000"><g fill="#000000" data-fill-palette-color="accent"><path fill="#000000" d="M90.8 77.6L90.8 77.6c-3-17.8-23.7-27.4-29.8-29.5 6.7-4 11.2-11.5 11.2-20.1 0-12.7-9.9-23.1-22-23.1s-22 10.3-22 23.1c0 9.1 5 16.9 12.3 20.7-6.9 2.2-27.8 11.3-31 28.5l-0.1 0.3c-2 9.4-0.7 15.7 3.3 17 2.4 0.8 6.2 0 11.2-1.5l1.1-0.3-0.1-0.1c2.5-1.2 4.1-3.7 4.1-6.5V86c0-2.4-1.2-4.6-3.2-6C29.5 69.9 39.2 63.2 50 63.2c10.8 0 20.5 6.8 24.2 16.9-2 1.3-3.2 3.6-3.2 6v0.3c0 3.1 2 5.9 5 6.8l0.1 0c3.4 1 6.6 1.9 9.1 1.9 0.7 0 1.4-0.1 2-0.3C92.2 93.2 92.3 84.9 90.8 77.6zM29.2 28.1c0-12.1 9.4-22 20.9-22S71 15.9 71 28.1s-9.4 22-20.9 22S29.2 40.2 29.2 28.1zM86.8 93.7c-2.2 0.7-6.2-0.4-10.4-1.6l-0.1 0c-2.5-0.8-4.2-3.2-4.2-5.8V86c0-2.2 1.2-4.2 3.1-5.3l0.4-0.2-0.2-0.4c-3.8-10.8-14-18-25.4-18-11.4 0-21.6 7.2-25.4 18l-0.2 0.4 0.4 0.2c1.9 1.1 3.1 3.1 3.1 5.3v0.3c0 2.6-1.7 4.9-4.2 5.7l-0.2 0.1c-3.8 1.1-8.1 2.3-10.5 1.5-3.3-1.1-4.3-6.7-2.8-14.7l0 0 0.2-1.1c3-18.1 26.6-27.2 31.5-28.4 2.5 1.1 5.3 1.7 8.2 1.7 3.4 0 6.6-0.8 9.5-2.3 4 1 27 10.5 30.1 29l0.2 1.1 0 0C91.4 86.8 90.2 92.7 86.8 93.7z" data-fill-palette-color="accent"/><path
                            fill="#000000"
                            d="M65.9 75.5L56.1 85l0.2 0.4c0.6 1.1 1 2.4 1 3.6 0 1.6-0.5 3.1-1.4 4.3l-0.7 0.9 1.2-0.1c5-0.3 9.7-0.9 13.9-1.8l0.4-0.1 0.1-0.4c0.1-1 0.2-2 0.2-2.9 0-4.7-1.6-9.4-4.6-13.1L65.9 75.5zM69.6 91.4c-3.7 0.8-7.9 1.4-12.3 1.7 0.7-1.2 1-2.6 1-4 0-1.3-0.3-2.6-0.9-3.8l8.3-8.1c2.6 3.5 4 7.5 4 11.9C69.8 89.8 69.7 90.6 69.6 91.4z"
                            data-fill-palette-color="accent"/><path fill="#000000"
                                                                    d="M42.7 89c0-1.3 0.4-2.6 1-3.7l0.2-0.4-9.8-9.5-0.4 0.5c-3 3.7-4.7 8.4-4.7 13.1 0 1 0.1 2 0.2 3l0.1 0.4 0.4 0.1c4.2 0.9 8.9 1.5 13.9 1.8l1.2 0.1-0.7-0.9C43.2 92.1 42.7 90.6 42.7 89zM30.3 91.5c-0.1-0.8-0.2-1.6-0.2-2.4 0-4.3 1.4-8.5 4-12l8.3 8.1c-0.6 1.2-1 2.5-1 3.9 0 1.4 0.4 2.8 1.1 4.1C38.2 92.8 34.1 92.3 30.3 91.5z"
                                                                    data-fill-palette-color="accent"/><path
                            fill="#000000"
                            d="M50 84.5c-2.5 0-4.5 2-4.5 4.5s2 4.5 4.5 4.5c2.5 0 4.5-2 4.5-4.5S52.5 84.5 50 84.5zM50 92.5c-1.9 0-3.4-1.5-3.4-3.4s1.5-3.4 3.4-3.4c1.9 0 3.4 1.5 3.4 3.4S51.9 92.5 50 92.5z"
                            data-fill-palette-color="accent"/><path fill="#000000"
                                                                    d="M46.2 82.8c2.3-1.4 5.3-1.4 7.6 0l0.4 0.2 9.8-9.5-0.5-0.4c-3.8-3.2-8.6-5-13.5-5-4.9 0-9.7 1.8-13.5 4.9l-0.5 0.4 9.8 9.5L46.2 82.8zM50 69.2c4.5 0 8.9 1.5 12.4 4.3L54 81.7c-1.2-0.7-2.6-1-4-1-1.4 0-2.7 0.3-3.9 1l-8.3-8.1C41.2 70.7 45.5 69.2 50 69.2z"
                                                                    data-fill-palette-color="accent"/></g></svg>
                </g>
            </g>
            <mask id="18347a53-5182-49a1-b1de-7398088512b3">
                <rect width="250" height="250" fill="white"/>
                <g transform="matrix(1,0,0,1,68.00166593023256,43.83165)">
                    <svg viewBox="0 0 18.496668139534883 66.8367" height="66.8367" width="18.496668139534883">
                        <g>
                            <svg viewBox="0 0 18.496668139534883 66.8367" height="66.8367" width="18.496668139534883">
                                <g>
                                    <svg viewBox="0 0 18.496668139534883 66.8367" height="66.8367"
                                         width="18.496668139534883">
                                        <g id="SvgjsG1005">
                                            <svg viewBox="0 0 18.496668139534883 66.8367" height="66.8367"
                                                 width="18.496668139534883" id="SvgjsSvg1004">
                                                <g>
                                                    <svg viewBox="0 0 18.496668139534883 66.8367" height="66.8367"
                                                         width="18.496668139534883">
                                                        <g transform="matrix(1,0,0,1,0,0)">
                                                            <svg width="18.496668139534883"
                                                                 viewBox="0.05000019073486328 -40 12.899999618530273 44"
                                                                 height="66.8367" data-palette-color="#3859e2">
                                                                <path d="M4.05-36L8.95-36 8.95-31.65 4.05-31.65 4.05-36ZM4.15-25.55L8.85-25.55 8.85 0 4.15 0 4.15-25.55Z"
                                                                      opacity="1" transform="matrix(1,0,0,1,0,0)"
                                                                      fill="#000000" class="wordmark-text-0"
                                                                      data-fill-palette-color="primary"
                                                                      id="SvgjsPath1003" stroke-width="7" stroke="black"
                                                                      stroke-linejoin="round"/>
                                                            </svg>
                                                        </g>
                                                    </svg>
                                                </g>
                                            </svg>
                                        </g>
                                    </svg>
                                </g>
                            </svg>
                        </g>
                    </svg>
                </g>
            </mask>
        </svg>
    </g>
    <defs/>
</svg>