<?xml version="1.0" standalone="no"?>
<!DOCTYPE svg PUBLIC "-//W3C//DTD SVG 20010904//EN"
 "http://www.w3.org/TR/2001/REC-SVG-20010904/DTD/svg10.dtd">
<svg version="1.0" xmlns="http://www.w3.org/2000/svg"
 width="650.000000pt" height="520.000000pt" viewBox="0 0 650.000000 520.000000"
 preserveAspectRatio="xMidYMid meet">

<g transform="translate(0.000000,520.000000) scale(0.100000,-0.100000)"
fill="#000000" stroke="none">
<path d="M2915 3945 c-412 -73 -725 -304 -895 -661 -21 -45 -44 -101 -50 -125
-6 -24 -18 -64 -25 -89 -18 -58 -48 -316 -41 -345 7 -27 -5 -38 -59 -55 -214
-69 -397 -213 -488 -385 -84 -157 -109 -377 -63 -570 13 -58 47 -131 82 -182
73 -103 159 -162 309 -212 159 -53 289 -68 710 -81 238 -7 292 -11 360 -30
297 -80 305 -82 460 -87 172 -6 245 6 370 58 132 55 251 144 356 268 l45 53
195 -32 c385 -63 574 -48 767 61 75 43 190 160 225 230 65 133 83 294 47 433
-23 92 -55 154 -123 237 l-49 62 32 66 c70 142 109 314 95 420 -47 364 -244
617 -567 727 -208 70 -449 53 -627 -46 -30 -16 -58 -30 -63 -30 -4 0 -33 20
-63 44 -167 136 -335 219 -530 262 -99 22 -311 27 -410 9z m65 -570 c0 -16
-27 -27 -36 -14 -3 5 -3 16 0 24 6 17 36 9 36 -10z m-509 -8 c27 -21 39 -54
39 -107 0 -42 -5 -55 -26 -75 -29 -27 -72 -38 -125 -33 l-34 3 -3 113 -3 112
68 0 c38 0 75 -6 84 -13z m227 -70 c5 -7 12 -24 16 -39 l6 -28 -61 0 c-57 0
-60 -1 -57 -22 3 -26 43 -37 61 -19 13 13 47 14 47 2 0 -17 -44 -41 -75 -41
-97 1 -115 153 -20 172 24 5 70 -9 83 -25z m180 10 c6 -5 12 -13 12 -18 0 -13
-34 -11 -47 2 -13 13 -56 2 -50 -14 2 -6 23 -17 47 -24 63 -18 76 -47 40 -83
-25 -25 -86 -27 -112 -3 -10 9 -18 20 -18 25 0 11 38 10 45 -2 3 -5 17 -10 31
-10 17 0 24 6 24 19 0 14 -10 21 -37 26 -48 9 -63 21 -63 52 0 42 87 63 128
30z m498 -12 c22 -34 15 -139 -8 -143 -15 -3 -18 4 -18 48 0 59 -13 90 -38 90
-31 0 -42 -22 -42 -82 0 -51 -2 -58 -20 -58 -18 0 -20 7 -20 85 0 78 2 85 20
85 11 0 20 -4 20 -9 0 -6 12 -4 26 3 32 17 61 10 80 -19z m-396 -60 c0 -78 -2
-85 -20 -85 -18 0 -20 7 -20 85 0 78 2 85 20 85 18 0 20 -7 20 -85z m148 73
c9 -9 12 -9 12 0 0 7 9 12 20 12 19 0 20 -7 20 -98 0 -88 -2 -101 -21 -118
-29 -26 -94 -23 -122 5 l-21 21 22 0 c13 0 32 -5 43 -10 27 -15 59 4 59 35 0
23 -1 23 -26 10 -49 -25 -94 8 -94 69 0 56 22 86 64 86 17 0 37 -5 44 -12z
m418 -35 c-15 -21 -26 -31 -26 -22 0 18 40 73 47 65 3 -2 -7 -22 -21 -43z
m-68 -96 c4 -22 -27 -35 -38 -16 -10 15 7 42 24 36 6 -2 12 -11 14 -20z
m-1568 -631 c0 -2 7 -41 16 -87 94 -495 414 -807 944 -920 90 -19 136 -23 325
-23 121 0 290 3 376 8 85 5 177 6 203 2 l48 -8 -28 -30 c-50 -52 -156 -128
-229 -163 -104 -50 -176 -65 -308 -65 -127 0 -219 15 -377 60 -153 44 -266 60
-430 60 -297 0 -564 26 -701 66 -233 69 -342 218 -341 469 0 235 81 397 259
519 79 53 243 129 243 112z m3030 -531 c0 -8 -9 -15 -20 -15 -11 0 -20 7 -20
15 0 8 9 15 20 15 11 0 20 -7 20 -15z m-288 -73 c9 -9 18 -28 20 -42 3 -24 0
-25 -54 -28 -50 -3 -58 -6 -58 -22 0 -23 46 -38 63 -21 14 14 47 15 47 1 0
-21 -50 -43 -86 -37 -47 8 -62 22 -70 62 -16 87 79 146 138 87z m185 6 c7 -6
13 -14 13 -19 0 -12 -37 -11 -45 1 -8 12 -25 13 -44 1 -21 -13 4 -41 35 -41
23 0 64 -31 64 -48 0 -22 -30 -44 -66 -49 -34 -4 -45 -1 -70 21 -28 24 -28 25
-6 26 12 0 31 -5 41 -12 10 -6 26 -8 35 -5 30 12 16 33 -31 48 -37 11 -49 19
-51 37 -4 28 12 49 41 55 28 6 68 -1 84 -15z m234 12 c26 -14 24 -30 -4 -30
-13 0 -28 -5 -35 -12 -17 -17 -15 -63 2 -78 17 -13 10 -40 -10 -40 -20 0 -44
41 -44 78 0 42 15 71 43 82 29 11 26 11 48 0z m-601 -50 c0 -86 -42 -120 -147
-120 l-43 0 0 59 c0 50 3 59 20 64 17 4 20 0 20 -23 0 -46 10 -60 41 -60 41 0
69 32 69 79 0 35 8 48 33 50 4 1 7 -22 7 -49z m470 -35 c0 -78 -2 -85 -20 -85
-18 0 -20 7 -20 85 0 78 2 85 20 85 18 0 20 -7 20 -85z m70 -109 c0 -3 -4 -8
-10 -11 -5 -3 -10 -1 -10 4 0 6 5 11 10 11 6 0 10 -2 10 -4z"/>
<path d="M2370 3271 l0 -81 30 0 c42 0 70 31 70 78 0 50 -17 71 -63 79 l-37 6
0 -82z"/>
<path d="M2618 3289 c-31 -18 -22 -39 17 -39 36 0 46 15 23 38 -14 14 -18 14
-40 1z"/>
<path d="M3071 3276 c-31 -37 9 -103 47 -80 36 23 23 94 -18 94 -10 0 -23 -6
-29 -14z"/>
<path d="M4577 1929 c-30 -17 -20 -39 18 -39 24 0 35 5 35 15 0 21 -32 35 -53
24z"/>
</g>
</svg>
