<svg xmlns="http://www.w3.org/2000/svg" xmlns:xlink="http://www.w3.org/1999/xlink" version="1.1"
     width="3342.8571428571427" height="3318.643771250589" viewBox="0 0 3342.8571428571427 3318.643771250589">

    <g transform="scale(17.142857142857142) translate(10, 10)">
        <defs id="SvgjsDefs7290"/>
        <g id="SvgjsG7291" featureKey="rootContainer"
           transform="matrix(1.71714448928833,0,0,1.71714448928833,0.07631754539081934,-0.01574155037844014)"
           fill="#000">
            <path xmlns="http://www.w3.org/2000/svg"
                  d="M101.8 83.6l-.2-29.5c0-6 .1-12.2-.2-18-.1-2.5-.1-5.1-.1-7.8 0-4.7-.1-9-.4-13.2l-.2-4.2c-.1-2.7-.2-5.3-.3-8V1h-7.3L77.2.7H66.6a25.7 25.7 0 0 0-5.5.6l-.6.3H49.8c-.1-.2-.8-.3-2.2-.4L34.3.3a130.5 130.5 0 0 0-18.8.1C12.3.6 9 .8 4.6.9L1.5.5H.4v1.2c-.2 2-.3 4.3-.3 7s0 6.8-.1 10.2 0 5.3 0 8a42.2 42.2 0 0 0 .4 6.9 20.3 20.3 0 0 1 .3 2.9c.1 3.8.4 4.8.8 5.5v17.6l-.2.5c.1 4-.1 7.6-.2 11.3-.3 7.4-.4 15-.1 22.5a25.5 25.5 0 0 0 .5 4.9v.8H6l-.2.2h5.4a51 51 0 0 1 8.6.4 21.1 21.1 0 0 0 3.8.3c6.6-.1 12.7.1 18.9.4h6.7l13.9-.3c6.1-.1 11.9-.5 18.3-.5h9.7l3.5-.2 2.8-.5h2.3v-1c.3 1.6.6 1.4 1-.8.1-.6.2-1.3.3-2s.3-2.6.5-3.4a51.3 51.3 0 0 0 .3-8.8z"/>
        </g>
        <g id="SvgjsG7292" featureKey="symbolFeature-0"
           transform="matrix(0.6399999856948853,0,0,0.6399999856948853,55.8,28.8)" fill="#ffffff">
            <g xmlns="http://www.w3.org/2000/svg">
                <g>
                    <defs>
                        <rect id="a" x="5" y="5" width="90.8" height="90"/>
                    </defs>
                    <clipPath id="b">
                        <use xlink:href="#a" xmlns:xlink="http://www.w3.org/1999/xlink" style="" overflow="visible"/>
                    </clipPath>
                    <path d="M32.4,40.2l1.3,2.3h-8.3l1.3-2.3c0.1-0.2,0.3-0.3,0.4-0.3h4.9C32.2,39.9,32.3,40.1,32.4,40.2 M34.2,43.8    c0-0.1-0.1-0.2-0.2-0.2l-1.8,0.3c-0.1,0-0.2,0.1-0.3,0.2l-0.3,0.6c-0.1,0.1,0,0.2,0.1,0.2h0.3h0.4H34c0.1,0,0.2-0.1,0.2-0.2V43.8     M27.4,44.2c-0.1-0.1-0.2-0.2-0.3-0.2l-1.8-0.3c-0.1,0-0.2,0.1-0.2,0.2v0.9c0,0.1,0.1,0.2,0.2,0.2h1.7h0.4h0.3    c0.1,0,0.2-0.1,0.1-0.2L27.4,44.2z M77.3,5c-10.2,0-18.5,8.3-18.5,18.5c0,1.7,0.2,3.4,0.7,4.9l-7.8,4.5    c-4.9-5.7-12.1-9.4-20.2-9.4C16.9,23.5,5,35.4,5,50s11.9,26.5,26.5,26.5c8.1,0,15.4-3.7,20.2-9.4l7.7,4.5    c-0.4,1.6-0.7,3.2-0.7,4.9C58.7,86.7,67,95,77.2,95s18.5-8.3,18.5-18.5S87.4,58,77.2,58c-5.2,0-9.8,2.1-13.2,5.5L56.4,59    c1-2.8,1.6-5.8,1.6-9s-0.6-6.2-1.6-9l7.7-4.5c3.4,3.4,8,5.5,13.2,5.5c10.2,0,18.5-8.3,18.5-18.5C95.8,13.3,87.6,5,77.3,5     M67.2,86.7v-3.1c0-3.2,4.5-5.7,10.1-5.7s10.1,2.6,10.1,5.7v3.1H67.2z M67.2,33.8v-3.1c0-3.2,4.5-5.7,10.1-5.7s10.1,2.6,10.1,5.7    v3.1H67.2z M82.7,18.6c0,3-2.4,5.3-5.3,5.3c-3,0-5.3-2.4-5.3-5.3c0-3,2.4-5.3,5.3-5.3C80.3,13.3,82.7,15.7,82.7,18.6 M82.7,71.6    c0,3-2.4,5.3-5.3,5.3c-3,0-5.3-2.4-5.3-5.3s2.4-5.3,5.3-5.3C80.3,66.2,82.7,68.6,82.7,71.6 M35.1,42.9c-0.1,0-0.3,0.1-0.4,0.1    l-0.2,0l0.3,0.5c0,0.2,0,0.2,0,0.3v3.2v0.3V48c0,0.2-0.1,0.3-0.3,0.3h-1.1c-0.2,0-0.3-0.1-0.3-0.3v-0.6h-6.8V48    c0,0.2-0.1,0.3-0.3,0.3h-1.1c-0.2,0-0.3-0.1-0.3-0.3v-0.9v-0.3v-3.1c0,0,0-0.1,0-0.3l0.3-0.5l-0.2,0c-0.1,0-0.3-0.1-0.4-0.1    l-0.1,0c-0.1,0-0.2-0.1-0.1-0.2l0.3-0.5c0.1-0.1,0.2-0.2,0.3-0.2l0.7,0l1.1-2c0.2-0.3,0.5-0.5,0.8-0.5H32c0.3,0,0.6,0.2,0.8,0.5    l1.1,1.9l0.7,0c0.1,0,0.2,0.1,0.3,0.2l0.3,0.5C35.3,42.7,35.2,42.8,35.1,42.9L35.1,42.9z M38.6,47.3c1.5,0.6,2.3,1.9,3,3.1    c0.5,0.8,1,1.7,1.7,2.1c0.7,0.4,1.4,1,1.9,1.6c0.5,0.7,0.8,1.5,0.8,2.4c-0.1,3.5,0.2,5.1,0.7,7.9c0.2,0.9,0.4,1.9,0.5,3.1    c0.3,0.7,0,1.4-0.6,2c-0.4,0.4-1.1,0.8-1.8,1.1c-0.7,0.3-1.5,0.5-2.3,0.7c-2.3,0.5-4.8,0.4-5.5-0.7c0-0.1-0.1-0.1-0.1-0.2    c-0.1-0.2-0.1-0.3-0.2-0.6l-0.2-0.6c-0.9-0.7-1.8-1.5-2.6-2.4c-0.8-0.8-1.5-1.7-1.9-2.7c-0.8-0.1-1.2,0-1.9,0.1    c-0.3,0.1-0.7,0.1-1,0.2c-1.1,0.2-1.9-0.4-2.4-1.2c-0.2-0.3-0.3-0.7-0.3-1.1c0-0.4,0-0.8,0.1-1.1l0-0.1c0-0.1,0.1-0.1,0.1-0.2    h-2.9c-0.8,0-1.6-0.4-2.2-0.9c-0.6-0.6-0.9-1.3-0.9-2.2V33.7c0-0.8,0.3-1.6,0.9-2.2c0.6-0.6,1.3-0.9,2.2-0.9h11.9    c0.8,0,1.6,0.3,2.2,0.9c0.6,0.6,0.9,1.3,0.9,2.2V47.3z M36.9,54.3c0.1,0,0.1,0,0.2,0v-6.5V33.7c0-0.4-0.2-0.8-0.4-1.1    c-0.3-0.3-0.7-0.4-1.1-0.4H23.6c-0.4,0-0.8,0.2-1.1,0.4c-0.3,0.3-0.4,0.7-0.4,1.1v24.1c0,0.4,0.2,0.8,0.4,1.1    c0.3,0.3,0.7,0.4,1.1,0.4h8.7c-0.4-0.6-0.8-1.1-1.3-1.6l0,0c-0.4,0.3-0.9,0.5-1.4,0.5c-0.6,0-1.1-0.2-1.5-0.6    c-0.4-0.4-0.6-0.9-0.6-1.5c0-0.6,0.2-1.1,0.6-1.5c-0.7-0.8-0.9-1.7-0.7-2.5c0.1-0.4,0.3-0.8,0.5-1.1c0.3-0.3,0.6-0.6,1-0.8    c0.8-0.3,1.8-0.3,2.9,0.4c1.2,0.8,2.3,1.6,3.4,2.5C35.8,53.4,36.4,53.9,36.9,54.3z M38.6,55.5l1.2,1.2c0.3,0.3,0.3,0.9,0,1.2    c-0.3,0.3-0.9,0.3-1.2,0l-1.2-1.2c-0.1,0-0.1-0.1-0.1-0.1c-0.9-0.8-2-1.6-3-2.4c-1.1-0.8-2.2-1.6-3.4-2.4    c-0.6-0.4-1.1-0.4-1.4-0.3c-0.2,0.1-0.3,0.2-0.4,0.3c-0.1,0.1-0.2,0.3-0.2,0.5c-0.1,0.4,0,0.9,0.4,1.3c1.1,1,2,2,2.9,3    c0.8,0.9,1.5,1.9,2.3,3c0.2,0.1,0.3,0.3,0.3,0.5c0,0.1,0,0.2,0,0.2c0,0,0,0.1,0,0.1c0.1,1.1,0.3,2,0.7,2.8    c0.4,0.8,0.9,1.5,1.8,2.3c0.3,0.3,0.3,0.8,0,1.1c-0.3,0.3-0.8,0.3-1.1,0c-1-1-1.6-1.8-2.1-2.8c-0.4-0.8-0.6-1.7-0.7-2.7l-4.8,0    c-0.4,0-0.6,0.2-0.7,0.4l0,0c-0.1,0.1-0.1,0.3-0.1,0.5c0,0.2,0.1,0.3,0.2,0.5c0.1,0.3,0.4,0.5,0.8,0.4c0.5-0.1,0.7-0.1,1-0.2    c1-0.2,1.6-0.3,2.9,0c0.2,0.1,0.5,0.2,0.6,0.5c0.4,1,1.1,1.8,1.8,2.7c0.8,0.8,1.7,1.6,2.5,2.3c0.1,0.1,0.2,0.2,0.3,0.3l0.3,0.8    l0.2,0.5c0.4,0.4,2.1,0.3,3.8-0.1c0.7-0.2,1.4-0.4,2-0.6c0.6-0.2,1-0.5,1.3-0.8c0.2-0.1,0.2-0.3,0.2-0.4c0-0.1-0.1-0.1-0.1-0.2    c-0.2-1.3-0.4-2.3-0.5-3.2c-0.5-2.9-0.8-4.6-0.7-8.2c0-0.6-0.2-1-0.5-1.4c-0.3-0.5-0.8-0.8-1.4-1.2c-1.1-0.7-1.7-1.7-2.3-2.7    c-0.4-0.8-0.9-1.6-1.6-2.1V55.5z M28.7,55.3c-0.2,0.2-0.3,0.5-0.3,0.7c0,0.3,0.1,0.6,0.3,0.8c0.2,0.2,0.5,0.3,0.8,0.3    c0.3,0,0.5-0.1,0.7-0.3C29.8,56.3,29.3,55.8,28.7,55.3z"
                          style="clip-path: url(#b);"/>
                </g>
            </g>
        </g>
        <g id="SvgjsG7293" featureKey="nameLeftFeature-0"
           transform="matrix(2.559999704360962,0,0,2.559999704360962,29.440000390624938,90.80000292968705)"
           fill="#ffffff">
            <path d="M1.26 20 c-0.14 0 -0.26 -0.12 -0.26 -0.26 l0 -11.98 c0 -0.14 0.12 -0.26 0.26 -0.26 l2.6 0 c0.14 0 0.26 0.12 0.26 0.26 l0 11.98 c0 0.14 -0.12 0.26 -0.26 0.26 l-2.6 0 z M6.38 20 c-0.16 0 -0.26 -0.12 -0.26 -0.26 l0 -11.98 c0 -0.14 0.1 -0.26 0.26 -0.26 l4.88 0 c1.52 0 2.72 0.38 3.56 1.16 c1.24 1.12 1.66 3.24 1.06 4.8 c-0.22 0.56 -0.6 1.08 -1.08 1.46 c-0.28 0.22 -0.58 0.38 -0.88 0.54 c0.86 1.36 2.16 4.12 2.16 4.12 c0.02 0.04 0.06 0.1 0.06 0.16 c0 0.14 -0.12 0.26 -0.26 0.26 l-2.96 0 c-0.08 0 -0.18 -0.06 -0.22 -0.14 l-1.74 -3.82 c-0.62 0.04 -1.1 0.02 -1.74 0.02 l0 3.68 c0 0.14 -0.12 0.26 -0.26 0.26 l-2.58 0 z M9.219999999999999 13.280000000000001 c0 0 2.52 0.28 3.4 -0.3 c0.34 -0.22 0.54 -0.76 0.54 -1.16 c-0.02 -0.44 -0.24 -0.9 -0.6 -1.18 c-0.38 -0.32 -1.32 -0.42 -1.8 -0.42 l-1.54 0.04 l0 3.02 z"/>
        </g>
        <g id="SvgjsG7294" featureKey="nameRightFeature-0"
           transform="matrix(2.116401433944702,0,0,2.116401433944702,74.99999974770529,99.67196161790041)"
           fill="#ffffff">
            <path d="M1.48 4.880000000000001 c0.8 0 1.46 0.66 1.46 1.48 l0 13.04 c0 0.32 -0.26 0.6 -0.6 0.6 s-0.62 -0.28 -0.62 -0.6 l0 -13.04 c0 -0.14 -0.1 -0.26 -0.24 -0.26 s-0.26 0.12 -0.26 0.26 l0 6.08 c0 0.34 -0.28 0.6 -0.62 0.6 c-0.32 0 -0.6 -0.26 -0.6 -0.6 l0 -6.08 c0 -0.82 0.66 -1.48 1.48 -1.48 z M11.04 4.9 c4.18 0 7.56 3.38 7.56 7.54 c0 4.18 -3.38 7.56 -7.56 7.56 l-4.36 0 c-1.18 0 -2.14 -0.96 -2.14 -2.14 l0 -10.68 c0 -0.32 0.28 -0.6 0.6 -0.6 c0.34 0 0.62 0.28 0.62 0.6 l0 10.68 c0 0.52 0.4 0.92 0.92 0.92 l4.36 0 c3.5 0 6.34 -2.84 6.34 -6.34 c0 -3.48 -2.84 -6.34 -6.34 -6.34 c-0.32 0 -0.6 -0.26 -0.6 -0.6 s0.28 -0.6 0.6 -0.6 z M6.84 6.58 l4.2 0 c3.24 0 5.88 2.64 5.88 5.86 c0 3.24 -2.64 5.88 -5.88 5.88 c-0.32 0 -0.6 -0.28 -0.6 -0.62 s0.28 -0.6 0.6 -0.6 c2.56 0 4.66 -2.1 4.66 -4.66 s-2.1 -4.64 -4.66 -4.64 l-3.58 0 l0 9.9 c0 0.34 -0.28 0.62 -0.62 0.62 s-0.6 -0.28 -0.6 -0.62 l0 -10.52 c0 -0.32 0.26 -0.6 0.6 -0.6 z M23.7 4.880000000000001 l7.42 0 c0.8 0 1.46 0.66 1.46 1.46 s-0.62 1.48 -1.42 1.48 l-7.46 0 c-0.3 0 -0.56 0.24 -0.56 0.56 c0 0.3 0.26 0.56 0.56 0.56 c0.34 0 0.62 0.26 0.62 0.6 s-0.28 0.62 -0.62 0.62 c-0.98 0 -1.76 -0.8 -1.76 -1.78 s0.78 -1.78 1.76 -1.78 l7.42 0 c0.14 0 0.24 -0.12 0.24 -0.26 s-0.1 -0.24 -0.24 -0.24 l-7.42 0 c-1.26 0 -2.28 1.02 -2.28 2.28 s1.02 2.28 2.28 2.28 l5.38 0 c0.98 0 1.78 0.8 1.78 1.8 c0 0.98 -0.8 1.76 -1.78 1.76 l-5.38 0 c-1.26 0 -2.28 1.02 -2.28 2.28 s1.02 2.28 2.28 2.28 l8.26 0 c0.34 0 0.62 0.28 0.62 0.62 s-0.28 0.6 -0.62 0.6 l-8.26 0 c-1.94 0 -3.5 -1.56 -3.5 -3.5 c0 -1.92 1.56 -3.5 3.5 -3.5 l5.38 0 c0.32 0 0.56 -0.24 0.56 -0.54 c0 -0.34 -0.24 -0.58 -0.56 -0.58 l-5.38 0 c-1.92 0 -3.5 -1.58 -3.5 -3.5 c0 -1.94 1.58 -3.5 3.5 -3.5 z M23.7 14.74 l5.38 0 c0.34 0 0.62 0.26 0.62 0.6 s-0.28 0.62 -0.62 0.62 l-5.38 0 c-0.3 0 -0.56 0.24 -0.56 0.54 c0 0.32 0.26 0.56 0.56 0.56 c0.34 0 0.6 0.28 0.6 0.62 c0 0.32 -0.26 0.6 -0.6 0.6 c-0.98 0 -1.78 -0.8 -1.78 -1.78 s0.8 -1.76 1.78 -1.76 z"/>
        </g>
    </g>
</svg>
	