<?xml version="1.0" encoding="utf-8"?>
<!-- Generator: Adobe Illustrator 15.1.0, SVG Export Plug-In . SVG Version: 6.00 Build 0)  -->
<!DOCTYPE svg PUBLIC "-//W3C//DTD SVG 1.1//EN" "http://www.w3.org/Graphics/SVG/1.1/DTD/svg11.dtd">
<svg version="1.1" id="Layer_1" xmlns="http://www.w3.org/2000/svg" xmlns:xlink="http://www.w3.org/1999/xlink" x="0px" y="0px"
	 width="136.006px" height="136.004px" viewBox="0 0 136.006 136.004" enable-background="new 0 0 136.006 136.004"
	 xml:space="preserve">
<g>
	<path fill="none" d="M96.606,56.428c-0.058-0.135-0.123-0.264-0.182-0.396c-1.614-3.613-3.738-6.748-6.385-9.398
		c-1.444-1.443-3.036-2.729-4.767-3.863c-0.627-0.412-1.273-0.803-1.938-1.174c-0.003-0.002-0.007-0.004-0.012-0.006
		c-0.688-0.385-1.396-0.746-2.122-1.086c-0.316-0.148-0.632-0.297-0.955-0.438c-0.23-0.1-0.462-0.195-0.692-0.287
		c-0.077-0.031-0.154-0.061-0.231-0.092c-0.154-0.061-0.31-0.121-0.466-0.178c-0.095-0.035-0.19-0.07-0.285-0.104
		c-0.14-0.051-0.278-0.102-0.418-0.148c-0.104-0.035-0.206-0.07-0.31-0.104c-0.133-0.045-0.266-0.09-0.399-0.131
		c-0.109-0.035-0.219-0.068-0.328-0.1c-0.128-0.039-0.256-0.078-0.384-0.115c-0.115-0.033-0.23-0.064-0.344-0.096
		c-0.126-0.035-0.25-0.07-0.376-0.102c-0.117-0.031-0.236-0.061-0.354-0.09c-0.123-0.031-0.246-0.061-0.368-0.09
		c-0.123-0.029-0.245-0.057-0.367-0.082c-0.12-0.027-0.239-0.053-0.36-0.078c-0.126-0.027-0.252-0.053-0.38-0.078
		c-0.117-0.021-0.235-0.043-0.353-0.066c-0.13-0.023-0.261-0.047-0.391-0.068c-0.115-0.02-0.23-0.037-0.347-0.057
		c-0.134-0.021-0.268-0.041-0.403-0.061c-0.112-0.016-0.225-0.031-0.336-0.045c-0.14-0.02-0.278-0.039-0.418-0.055
		c-0.107-0.014-0.215-0.023-0.323-0.035c-0.146-0.016-0.29-0.031-0.437-0.045c-0.102-0.01-0.204-0.018-0.306-0.027
		c-0.152-0.012-0.305-0.025-0.458-0.035c-0.093-0.008-0.186-0.012-0.278-0.018c-0.163-0.01-0.327-0.021-0.491-0.029
		c-0.07-0.002-0.14-0.004-0.21-0.006c-0.187-0.008-0.373-0.016-0.562-0.02c-0.251-0.006-0.504-0.01-0.757-0.01
		c-4.306,0-8.312,0.818-12.021,2.449c-3.711,1.635-6.977,3.822-9.794,6.566c-2.82,2.748-5.008,6.01-6.566,9.795
		c-0.672,1.631-1.197,3.311-1.579,5.037c-0.154,0.697-0.284,1.404-0.392,2.117c-0.243,1.619-0.366,3.277-0.366,4.977
		c0,1.818,0.141,3.58,0.418,5.291c0.138,0.852,0.31,1.689,0.516,2.514c0.362,1.445,0.83,2.852,1.403,4.215
		c1.485,3.539,3.55,6.666,6.183,9.393c0.047,0.049,0.094,0.1,0.142,0.148c0.081,0.084,0.159,0.172,0.242,0.254
		c0.313,0.312,0.634,0.615,0.957,0.912c0.115,0.107,0.232,0.209,0.35,0.314c2.508,2.232,5.335,4.016,8.487,5.34
		c3.709,1.559,7.715,2.338,12.021,2.338c1.46,0,2.889-0.092,4.289-0.271c1.107-0.412,2.214-0.828,3.318-1.254
		c3.919-1.506,7.771-3.166,11.579-4.922c0.962-0.76,1.879-1.574,2.739-2.457c2.744-2.816,4.932-6.084,6.566-9.795
		c1.632-3.707,2.448-7.713,2.448-12.02c0-1.1-0.053-2.182-0.16-3.248c-0.068-0.684-0.161-1.361-0.273-2.031
		c-0.317-1.895-0.81-3.732-1.477-5.514C96.976,57.316,96.798,56.869,96.606,56.428z"/>
	<path fill="#DDAC6C" d="M37.763,63.582c-1.046,0.475-2.104,0.924-3.173,1.34c-0.12,0.559-0.31,1.104-0.591,1.631
		c-1.411,2.824-1.976,6.496-1.129,8.754c0.255,0.664,0.487,1.326,0.711,1.988c1.409-1.15,2.819-2.301,4.233-3.445
		c-0.277-1.711-0.418-3.473-0.418-5.291C37.396,66.859,37.52,65.201,37.763,63.582z"/>
	<path fill="#DDAC6C" d="M95.29,15.744c1.372-0.166,2.745-0.322,4.118-0.455c1.977-0.193,4.337-0.449,6.248,0.246
		c5.819,2.115-4.211,8.477-6.186,9.551c-1.524,0.832-3.095,1.559-4.696,2.213c1.448,1.115,3.623,1.541,5.505,1.959
		c4.714-3.602,9.347-7.309,13.851-11.168c0.007-0.008,0.014-0.014,0.021-0.02c-2.645-2.443-5.475-4.662-8.489-6.66
		c-3.188,1.238-6.347,2.551-9.476,3.934C95.887,15.475,95.589,15.609,95.29,15.744z"/>
	<path fill="#DDAC6C" d="M116.177,68.248c0.421,2.193,0.832,4.434,1.177,6.688c1.269-1.139,2.479-2.338,3.604-3.619
		c1.936-2.205,4.509-5.055,4.968-8.07c0.44-2.9-2.946-2.553-4.944-2.502c-1.499,0.039-2.993,0.143-4.48,0.299
		C115.92,63.379,115.651,65.752,116.177,68.248z"/>
	<path fill="#DDAC6C" d="M118.053,42.266c1.248-0.945,2.489-1.904,3.717-2.889c1.688-1.354,5.003-3.982,3.415-6.484
		c-0.728-1.146-1.924-1.678-3.222-1.93c-3.938-0.762-8.336,0.307-12.146,1.256c-0.359,0.088-0.716,0.184-1.074,0.275
		C112.885,34.875,116.25,38.23,118.053,42.266z"/>
	<path fill="#DDAC6C" d="M93.596,25.906c1.49-0.594,2.95-1.254,4.357-2.02c1.573-0.857,3.136-1.838,4.484-3.023
		c0.753-0.662,2.137-1.709,2.255-2.811c0.257-2.395-12.365-0.188-13.188-0.072c-0.539,0.076-1.079,0.154-1.617,0.236
		c-0.143,0.066-0.284,0.135-0.425,0.201c1.608,2.275,3,4.76,4.123,7.469C93.589,25.895,93.593,25.9,93.596,25.906z"/>
	<path fill="#DDAC6C" d="M56.094,96.939c-3.152-1.324-5.979-3.107-8.487-5.34c-0.566,0.324-1.134,0.65-1.701,0.975
		c-0.663,0.646-1.319,1.301-1.974,1.955c2.672,1.572,5.611,2.934,8.142,4.5c3.106,1.977,6.777,2.824,10.73,1.977
		c2.366-0.676,4.833-0.748,7.221-1.121c0.794-0.291,1.587-0.584,2.379-0.879c-1.4,0.18-2.829,0.271-4.289,0.271
		C63.809,99.277,59.803,98.498,56.094,96.939z"/>
	<path fill="#DDAC6C" d="M55.619,38.225c-4.725,1.461-9.479,3.215-13.949,5.471c-3.056,2.525-5.543,5.596-7.105,9.02
		c-1.451,3.111,0.14,6.83,0.195,10.266c1.145-0.475,2.274-0.984,3.395-1.516c0.382-1.727,0.907-3.406,1.579-5.037
		c1.559-3.785,3.746-7.047,6.566-9.795c2.817-2.744,6.083-4.932,9.794-6.566c3.709-1.631,7.715-2.449,12.021-2.449
		c0.253,0,0.506,0.004,0.757,0.01c-2.321-0.758-4.75-1.129-7.202-1.162C59.642,37.021,57.624,37.604,55.619,38.225z"/>
	<path fill="#DDAC6C" d="M119.355,89.309c0.869-0.979,1.686-2.004,2.166-3.197c-0.201,0.111-0.387,0.215-0.522,0.279
		c-0.604,0.283-1.208,0.57-1.798,0.885c-0.347,0.184-0.691,0.373-1.033,0.564c-0.064,1.051-0.171,2.092-0.327,3.119
		C118.353,90.414,118.861,89.865,119.355,89.309z"/>
	<path fill="#DDAC6C" d="M78.634,7.883c2.087-0.885,4.656-1.971,5.889-4.004c-1.135-0.418-2.532,0.271-3.71,0.455
		C78.837,4.641,76.871,5,74.918,5.426c-0.119,0.025-0.236,0.055-0.354,0.08c1.37,0.744,2.702,1.547,3.99,2.41
		C78.581,7.904,78.606,7.895,78.634,7.883z"/>
	<path fill="#DDAC6C" d="M39.733,80.578c-0.573-1.363-1.041-2.77-1.403-4.215c-1.332,1.092-2.667,2.182-4.002,3.271
		c0.666,2.197,1.246,4.352,1.932,6.404c0.725,2.9,2.643,5.027,5.063,6.797c1.292-0.738,2.583-1.48,3.872-2.221
		c0.24-0.217,0.48-0.43,0.721-0.645C43.283,87.244,41.219,84.117,39.733,80.578z"/>
	<path fill="#DDAC6C" d="M87.466,3.59c-1.022,2.4-3.417,3.957-5.674,5.07c-0.437,0.215-0.878,0.416-1.321,0.609
		c2.874,2.146,5.482,4.629,7.732,7.469c0.035-0.006,0.072-0.012,0.107-0.018c5.021-2.365,10.102-4.605,15.267-6.637
		c-2.905-1.775-5.969-3.359-9.196-4.742c-2.293-0.982-4.627-1.824-6.998-2.535C87.551,3.029,87.594,3.289,87.466,3.59z"/>
	<path fill="#DDAC6C" d="M78.57,2.689c1.62-0.275,3.222-0.691,4.84-0.943C78.406,0.584,73.234,0,67.892,0
		c-2.234,0-4.437,0.111-6.61,0.314c3.61,0.953,7.144,2.209,10.5,3.785C74.029,3.561,76.292,3.082,78.57,2.689z"/>
	<path fill="#DDAC6C" d="M102.887,29.947c1.232,0.385,2.437,0.846,3.595,1.381c0.583-0.162,1.165-0.32,1.751-0.473
		c4.255-1.104,8.799-2.156,13.227-1.859c0.757,0.049,1.631,0.178,2.498,0.406c-2.335-3.4-4.957-6.562-7.873-9.48
		c-0.119-0.119-0.241-0.234-0.359-0.352c-3.419,2.922-6.908,5.762-10.452,8.529C104.479,28.719,103.684,29.334,102.887,29.947z"/>
	<path fill="#DDAC6C" d="M76.56,125.908c2.765-4.773,6.997-8.496,11.444-11.709c-0.91,0.318-1.821,0.635-2.735,0.945
		c-0.837,0.504-1.627,1.045-2.414,1.674c-6.213,5.367-11.014,12.709-18.639,13.838c-6.316,0.812-12.604,1.307-18.881,1.539
		c7.149,2.537,14.668,3.809,22.557,3.809c2.086,0,4.146-0.094,6.179-0.271C73.507,132.463,75.158,128.328,76.56,125.908z"/>
	<path fill="#DDAC6C" d="M109.965,105.842c-0.094,0.082-0.188,0.164-0.282,0.246c-2.542,1.977-4.802,3.672-7.626,5.084
		c-2.932,1.379-5.967,1.496-8.98,1.762c-3.439,2.279-6.775,4.727-9.652,7.666c-2.121,2.168-4.038,4.596-5.236,7.404
		c-0.923,2.164-1.797,5.021-1.252,7.42c6.048-0.785,11.864-2.369,17.445-4.762c8.309-3.561,15.543-8.381,21.703-14.467
		c5.168-5.107,9.42-11.002,12.76-17.68c-0.82,0.299-1.641,0.6-2.457,0.908C120.887,101.498,115.426,103.676,109.965,105.842z"/>
	<path fill="#DDAC6C" d="M130.664,41.625c-0.862-2.012-1.802-3.957-2.816-5.842c-0.914,2.004-2.947,3.576-4.589,4.865
		c-1.496,1.176-2.985,2.354-4.494,3.508c0.839,2.713,0.987,5.688,0.236,8.842c-0.558,2.01-1.292,3.975-1.907,5.947
		c0.348-0.033,0.694-0.066,1.043-0.094c1.962-0.146,3.987-0.287,5.955-0.145c1.093,0.08,2.292,0.254,3.23,0.867
		c1.952,1.275,1.556,3.643,0.741,5.506c-1.299,2.969-3.413,5.631-5.629,7.975c-1.488,1.572-3.07,3.043-4.724,4.432
		c0.351,2.777,0.564,5.559,0.531,8.283c0.382-0.195,0.765-0.387,1.153-0.568c1.381-0.645,2.776-1.482,4.35-1.35
		c0.4,0.033,0.964,0.26,0.876,0.766c-0.384,2.221-1.802,4.039-3.303,5.65c-1.426,1.531-2.853,3.062-4.326,4.549
		c-0.808,2.736-2.057,5.326-3.887,7.697c5.602-2.268,11.242-4.574,16.968-6.574c0.2-0.443,0.398-0.889,0.591-1.338
		c3.562-8.309,5.342-17.139,5.342-26.488S134.226,49.938,130.664,41.625z"/>
	<path fill="#754C29" d="M36.939,95.338c1.463-0.832,2.924-1.666,4.384-2.502c-2.421-1.77-4.339-3.896-5.063-6.797
		c-0.686-2.053-1.266-4.207-1.932-6.404c-2.756,2.248-5.521,4.482-8.319,6.674c-4.664,3.652-9.594,6.977-13.917,11.051
		c-1.23,1.16-2.456,2.408-3.578,3.742c1.442,2.621,3.029,5.111,4.764,7.475c1.455-0.797,2.883-1.645,4.304-2.502
		C23.889,102.266,30.529,98.977,36.939,95.338z"/>
	<path fill="#754C29" d="M96.606,80.578c-1.635,3.711-3.822,6.979-6.566,9.795c-0.86,0.883-1.777,1.697-2.739,2.457
		c2.543-1.174,5.066-2.389,7.576-3.633c6.369-3.162,12.681-6.578,18.359-10.885c1.414-1.072,2.796-2.191,4.117-3.377
		c-0.345-2.254-0.756-4.494-1.177-6.688c-0.525-2.496-0.257-4.869,0.323-7.205c-2.839,0.297-5.656,0.799-8.433,1.486
		c-3.103,0.77-6.16,1.711-9.173,2.781c0.107,1.066,0.16,2.148,0.16,3.248C99.055,72.865,98.238,76.871,96.606,80.578z"/>
	<path fill="#754C29" d="M62.618,22.822c8.396-2.531,16.923-4.682,25.585-6.084c-2.25-2.84-4.858-5.322-7.732-7.469
		c-2.143,0.938-4.364,1.672-6.563,2.473c-3.567,1.297-7.058,2.832-10.605,4.191c-3.963,1.52-7.942,2.998-11.924,4.471
		C36.144,26.041,20.773,31.617,6.406,39.264c-0.364,0.777-0.722,1.562-1.064,2.361c-0.48,1.123-0.928,2.256-1.344,3.4
		c7.025-3.176,14.097-6.244,21.309-8.971C37.65,31.389,49.974,26.631,62.618,22.822z"/>
	<path fill="#754C29" d="M115.491,93.412c0.785-0.812,1.574-1.627,2.35-2.453c0.156-1.027,0.263-2.068,0.327-3.119
		c-1.046,0.586-2.073,1.205-3.088,1.846c-2.608,1.648-5.149,3.424-7.838,4.941c-4.944,2.795-10.075,5.27-15.365,7.336
		c-10.569,4.127-21.62,6.762-32.845,8.328c-4.362,0.611-8.772,1.311-13.174,1.576c-0.848,0.424-1.691,0.855-2.527,1.299
		c-4.863,2.58-10.534,5.863-13.084,11c0.583,0.084,1.169,0.039,1.806,0.037c1.229-0.008,2.456-0.045,3.682-0.135
		c2.504-0.186,4.996-0.494,7.477-0.883c4.806-0.75,9.622-1.555,14.389-2.516c12.718-2.561,25.043-6.529,37.184-11.023
		c3.837-2.461,7.7-4.879,11.286-7.711C109.396,99.309,112.546,96.461,115.491,93.412z"/>
	<path fill="#754C29" d="M87.21,95.113c-8.021,3.717-16.409,6.508-24.667,9.629c-4.03,1.523-8.061,3.131-12.006,4.91
		c1.943-0.232,3.883-0.506,5.826-0.752c8.06-1.025,16.069-2.506,23.875-4.781c7.765-2.264,15.307-5.26,22.461-9.041
		c3.833-2.025,7.38-4.447,11.062-6.725c1.463-0.906,2.948-1.797,4.481-2.584c0.033-2.725-0.181-5.506-0.531-8.283
		c-3.692,3.098-7.742,5.771-11.909,8.193C99.792,89.17,93.512,92.191,87.21,95.113z"/>
	<path fill="#754C29" d="M102.057,111.172c2.824-1.412,5.084-3.107,7.626-5.084c0.095-0.082,0.188-0.164,0.282-0.246
		c-4.946,1.961-9.896,3.914-14.877,5.781c-0.673,0.432-1.344,0.869-2.012,1.311C96.09,112.668,99.125,112.551,102.057,111.172z"/>
	<path fill="#754C29" d="M71.143,10.691c2.441-1.002,4.979-1.75,7.411-2.775c-1.288-0.863-2.62-1.666-3.99-2.41
		c-3.505,0.773-6.977,1.686-10.41,2.73c-7.326,2.229-14.61,4.615-21.918,6.904c-7.608,2.385-15.263,4.652-22.841,7.125
		c-0.848,0.275-1.696,0.564-2.543,0.855c-3.431,3.953-6.396,8.297-8.898,13.037c12.558-6.402,25.838-11.359,39.041-16.244
		C55.074,16.924,63.171,13.963,71.143,10.691z"/>
	<path fill="#754C29" d="M52.073,99.029c-2.53-1.566-5.47-2.928-8.142-4.5c-1.713,1.717-3.418,3.439-5.224,5.043
		c-1.794,1.594-5.763,4.168-5.028,7.027c1.006,3.922,7.54,3.668,10.608,3.568c0.159-0.006,0.319-0.016,0.479-0.023
		c2.844-1.402,5.75-2.686,8.659-3.918c5.456-2.312,11.038-4.299,16.598-6.342c-2.388,0.373-4.854,0.445-7.221,1.121
		C58.851,101.854,55.18,101.006,52.073,99.029z"/>
	<path fill="#754C29" d="M83.335,41.596c0.016-0.01,0.029-0.02,0.045-0.029c-0.02,0.006-0.038,0.016-0.057,0.023
		C83.328,41.592,83.332,41.594,83.335,41.596z"/>
	<path fill="#754C29" d="M18.165,89.561c5.24-3.957,10.326-8.113,15.416-12.266c-0.224-0.662-0.456-1.324-0.711-1.988
		c-0.847-2.258-0.282-5.93,1.129-8.754c0.281-0.527,0.471-1.072,0.591-1.631c-1.123,0.438-2.26,0.838-3.415,1.178
		c-2.73,0.801-6.41,1.783-9.241,0.891c-2.455-0.775-1.857-3.135-1.231-5.088c1.009-3.148,2.667-6.008,4.821-8.514
		c1.115-1.299,2.316-2.492,3.587-3.602c-4.163,2.129-8.345,4.221-12.559,6.248c-5.444,2.621-10.929,5.166-16.415,7.705
		C0.049,65.186,0,66.643,0,68.113c0,9.35,1.781,18.18,5.342,26.488c0.619,1.447,1.281,2.857,1.978,4.236
		C10.639,95.25,14.697,92.178,18.165,89.561z"/>
	<path fill="#754C29" d="M93.596,25.906c-0.003-0.006-0.007-0.012-0.01-0.02c-1.123-2.709-2.515-5.193-4.123-7.469
		c-8.542,4.029-16.91,8.422-25.261,12.83c-3.776,1.994-7.545,4.006-11.312,6.018c11.446-3.826,23.519-5.9,35.042-9.404
		C89.838,27.281,91.739,26.648,93.596,25.906z"/>
	<path fill="#754C29" d="M34.564,44.672c15.802-8.26,31.383-16.965,47.368-24.871c0.194-0.096,0.389-0.189,0.584-0.285
		c-14.732,2.941-29.056,7.82-43.111,13.051c-8.419,3.133-16.842,6.271-25.097,9.82c-3.717,1.598-7.41,3.25-11.093,4.924
		c-1.465,4.531-2.432,9.205-2.894,14.027c0.684-0.32,1.368-0.639,2.055-0.953C13.24,55.4,23.972,50.209,34.564,44.672z"/>
	<path fill="#754C29" d="M82.854,116.818c0.787-0.629,1.577-1.17,2.414-1.674c-2.489,0.848-4.989,1.664-7.508,2.434
		c-8.28,2.527-16.687,4.604-25.228,6.037c-4.426,0.742-8.839,1.615-13.299,2.141c-2.161,0.254-4.336,0.453-6.514,0.484
		c2.745,1.643,5.638,3.117,8.682,4.422c0.425,0.184,0.852,0.357,1.279,0.529c0.193,0.078,0.387,0.156,0.579,0.23
		c0.157,0.062,0.314,0.121,0.473,0.182c0.531,0.203,1.064,0.402,1.601,0.592c0.001,0,0.001,0,0.001,0
		c6.276-0.232,12.564-0.727,18.881-1.539C71.841,129.527,76.642,122.186,82.854,116.818z"/>
	<path fill="#754C29" d="M97.145,57.766c0.667,1.781,1.159,3.619,1.477,5.514c2.278-0.799,4.579-1.523,6.906-2.148
		c3.785-1.018,7.659-1.812,11.566-2.186c0.615-1.973,1.35-3.938,1.907-5.947c0.751-3.154,0.603-6.129-0.236-8.842
		c-1.596,1.219-3.213,2.408-4.886,3.537C108.48,51.334,102.788,54.512,97.145,57.766z"/>
	<path fill="#754C29" d="M34.564,52.715c1.562-3.424,4.05-6.494,7.105-9.02c-2.447,1.234-4.811,2.617-7.033,4.191
		c-2.844,2.012-5.522,4.328-7.646,7.109c-1.888,2.469-3.814,5.736-4.104,8.904c-0.098,1.072,0.326,1.453,1.382,1.506
		c1.598,0.08,3.214-0.117,4.765-0.5c1.962-0.484,3.863-1.156,5.727-1.926C34.704,59.545,33.113,55.826,34.564,52.715z"/>
	<path fill="#754C29" d="M96.425,56.031c1.682-0.98,3.37-1.949,5.072-2.895c5.812-3.23,11.284-6.879,16.556-10.871
		c-1.803-4.035-5.168-7.391-9.31-9.771c-4.203,1.094-8.339,2.451-12.414,3.947c-1.504,0.553-3.001,1.119-4.493,1.695
		c-2.176,1.561-4.364,3.104-6.562,4.633c1.73,1.135,3.322,2.42,4.767,3.863C92.687,49.283,94.811,52.418,96.425,56.031z"/>
	<path fill="#754C29" d="M44.362,12.391c7.597-2.383,15.157-4.998,22.835-7.107c1.521-0.42,3.05-0.814,4.584-1.184
		c-3.356-1.576-6.89-2.832-10.5-3.785c-0.008-0.002-0.015-0.004-0.022-0.006c-0.333,0.031-0.665,0.066-0.997,0.104
		c-0.158,0.018-0.317,0.033-0.477,0.053c-0.319,0.037-0.638,0.076-0.956,0.117c-0.164,0.021-0.329,0.045-0.492,0.066
		c-1.029,0.143-2.05,0.307-3.065,0.494c-0.204,0.039-0.408,0.076-0.613,0.117c-0.271,0.053-0.543,0.107-0.814,0.164
		c-0.228,0.047-0.455,0.096-0.683,0.146c-0.253,0.055-0.505,0.109-0.755,0.168c-0.438,0.102-0.872,0.207-1.308,0.316
		c-0.202,0.051-0.405,0.107-0.607,0.16c-0.287,0.076-0.574,0.152-0.86,0.232c-0.211,0.059-0.422,0.119-0.632,0.18
		c-0.294,0.086-0.589,0.174-0.883,0.264c-0.185,0.057-0.371,0.111-0.555,0.17C47.1,3.205,46.64,3.354,46.182,3.51
		c-0.099,0.033-0.196,0.068-0.295,0.104c-0.384,0.131-0.768,0.268-1.149,0.406c-0.159,0.059-0.317,0.119-0.477,0.178
		c-0.338,0.127-0.676,0.256-1.012,0.389c-0.146,0.059-0.292,0.113-0.438,0.172c-0.47,0.189-0.94,0.383-1.409,0.584
		c-8.312,3.561-15.508,8.424-21.591,14.58c-0.069,0.068-0.134,0.141-0.203,0.209c0.469-0.154,0.939-0.305,1.408-0.449
		C28.803,17.264,36.583,14.832,44.362,12.391z"/>
	<path fill="#754C29" d="M38.389,113.611c0.935-0.566,1.887-1.105,2.846-1.631c-0.938-0.025-1.875-0.09-2.804-0.209
		c-1.923-0.25-4.152-0.635-5.716-1.881c-5.22-4.16,1.985-9.211,4.877-12.096c0.381-0.381,0.769-0.754,1.153-1.131
		c-0.66,0.375-1.32,0.75-1.981,1.125c-6.525,3.686-13.179,7.135-19.629,10.945c-0.862,0.508-1.731,1.01-2.61,1.492
		c1.641,2.096,3.403,4.086,5.287,5.969c2.533,2.533,5.263,4.846,8.183,6.941C30.289,119.006,34.438,116.004,38.389,113.611z"/>
	<path fill="#754C29" d="M61.669,36.465c2.452,0.033,4.881,0.404,7.202,1.162c0.188,0.004,0.375,0.012,0.562,0.02
		c0.07,0.002,0.14,0.004,0.21,0.006c0.164,0.008,0.328,0.02,0.491,0.029c0.093,0.006,0.186,0.01,0.278,0.018
		c0.153,0.01,0.306,0.023,0.458,0.035c0.102,0.01,0.204,0.018,0.306,0.027c0.146,0.014,0.291,0.029,0.437,0.045
		c0.108,0.012,0.216,0.021,0.323,0.035c0.14,0.016,0.278,0.035,0.418,0.055c0.111,0.014,0.224,0.029,0.336,0.045
		c0.136,0.02,0.27,0.039,0.403,0.061c0.116,0.02,0.231,0.037,0.347,0.057c0.13,0.021,0.261,0.045,0.391,0.068
		c0.117,0.023,0.235,0.045,0.353,0.066c0.128,0.025,0.254,0.051,0.38,0.078c0.121,0.025,0.24,0.051,0.36,0.078
		c0.122,0.025,0.244,0.053,0.367,0.082c0.122,0.029,0.245,0.059,0.368,0.09c0.118,0.029,0.237,0.059,0.354,0.09
		c0.126,0.031,0.25,0.066,0.376,0.102c0.113,0.031,0.229,0.062,0.344,0.096c0.128,0.037,0.256,0.076,0.384,0.115
		c0.109,0.031,0.219,0.064,0.328,0.1c0.134,0.041,0.267,0.086,0.399,0.131c0.104,0.033,0.206,0.068,0.31,0.104
		c0.14,0.047,0.278,0.098,0.418,0.148c0.095,0.033,0.19,0.068,0.285,0.104c0.156,0.057,0.312,0.117,0.466,0.178
		c0.077,0.031,0.154,0.061,0.231,0.092c0.23,0.092,0.462,0.188,0.692,0.287c0.323,0.141,0.639,0.289,0.955,0.438
		c1.48-0.621,2.966-1.23,4.463-1.814c1.32-0.514,2.64-1.031,3.963-1.543c1.215-0.873,2.429-1.752,3.638-2.637
		c2.354-1.727,4.694-3.479,7.015-5.252c-1.882-0.418-4.057-0.844-5.505-1.959c-4.983,2.033-10.274,3.328-15.472,4.658
		C73.436,33.457,67.519,34.857,61.669,36.465z"/>
	<path fill="#754C29" d="M102.887,29.947c-1.951,1.498-3.918,2.975-5.895,4.436c3.129-1.121,6.287-2.162,9.489-3.055
		C105.323,30.793,104.119,30.332,102.887,29.947z"/>
	<path fill="#754C29" d="M102.822,106.594c1.491-0.58,2.979-1.16,4.466-1.746c1.936-0.764,3.874-1.547,5.817-2.334
		c1.83-2.371,3.079-4.961,3.887-7.697c-0.225,0.227-0.447,0.455-0.676,0.68C112.133,99.619,107.62,103.273,102.822,106.594z"/>
	<path fill="#20BCBC" d="M38.154,61.465c-1.12,0.531-2.25,1.041-3.395,1.516c-1.863,0.77-3.765,1.441-5.727,1.926
		c-1.551,0.383-3.167,0.58-4.765,0.5c-1.056-0.053-1.479-0.434-1.382-1.506c0.289-3.168,2.216-6.436,4.104-8.904
		c2.124-2.781,4.803-5.098,7.646-7.109c2.223-1.574,4.586-2.957,7.033-4.191c4.47-2.256,9.225-4.01,13.949-5.471
		c2.005-0.621,4.022-1.203,6.05-1.76c5.85-1.607,11.767-3.008,17.634-4.508c5.197-1.33,10.488-2.625,15.472-4.658
		c1.602-0.654,3.172-1.381,4.696-2.213c1.975-1.074,12.005-7.436,6.186-9.551c-1.911-0.695-4.271-0.439-6.248-0.246
		c-1.373,0.133-2.746,0.289-4.118,0.455c-1.81,0.805-3.61,1.631-5.402,2.473c0.538-0.082,1.078-0.16,1.617-0.236
		c0.822-0.115,13.444-2.322,13.188,0.072c-0.118,1.102-1.502,2.148-2.255,2.811c-1.349,1.186-2.911,2.166-4.484,3.023
		c-1.407,0.766-2.867,1.426-4.357,2.02c-1.856,0.742-3.758,1.375-5.664,1.955c-11.523,3.504-23.596,5.578-35.042,9.404
		c-0.804,0.43-1.608,0.859-2.412,1.289c-2.276,1.215-4.553,2.428-6.832,3.639c-4.829,2.562-9.67,5.105-14.535,7.594
		c-1.271,1.109-2.472,2.303-3.587,3.602c-2.154,2.506-3.812,5.365-4.821,8.514c-0.626,1.953-1.224,4.312,1.231,5.088
		c2.831,0.893,6.511-0.09,9.241-0.891c1.155-0.34,2.292-0.74,3.415-1.178c1.069-0.416,2.127-0.865,3.173-1.34
		C37.87,62.869,38,62.162,38.154,61.465z"/>
	<path fill="#20BCBC" d="M108.232,30.855c-0.586,0.152-1.168,0.311-1.751,0.473c-3.202,0.893-6.36,1.934-9.489,3.055
		c-1.711,1.264-3.429,2.514-5.156,3.754c1.492-0.576,2.989-1.143,4.493-1.695c4.075-1.496,8.211-2.854,12.414-3.947
		c0.358-0.092,0.715-0.188,1.074-0.275c3.81-0.949,8.208-2.018,12.146-1.256c1.298,0.252,2.494,0.783,3.222,1.93
		c1.588,2.502-1.728,5.131-3.415,6.484c-1.228,0.984-2.469,1.943-3.717,2.889c-5.271,3.992-10.743,7.641-16.556,10.871
		c-1.702,0.945-3.391,1.914-5.072,2.895c0.059,0.133,0.124,0.262,0.182,0.396c0.191,0.441,0.369,0.889,0.538,1.338
		c5.644-3.254,11.336-6.432,16.734-10.072c1.673-1.129,3.29-2.318,4.886-3.537c1.509-1.154,2.998-2.332,4.494-3.508
		c1.642-1.289,3.675-2.861,4.589-4.865c-1.191-2.215-2.489-4.34-3.891-6.381c-0.867-0.229-1.741-0.357-2.498-0.406
		C117.031,28.699,112.487,29.752,108.232,30.855z"/>
	<path fill="#20BCBC" d="M45.195,90.615c0.288-0.166,0.574-0.33,0.862-0.496c-0.048-0.049-0.095-0.1-0.142-0.148
		C45.676,90.186,45.436,90.398,45.195,90.615z"/>
	<path fill="#20BCBC" d="M78.188,128.004c1.198-2.809,3.115-5.236,5.236-7.404c2.877-2.939,6.213-5.387,9.652-7.666
		c0.668-0.441,1.339-0.879,2.012-1.311c-1.405,0.525-2.812,1.045-4.225,1.557c-0.95,0.344-1.904,0.684-2.859,1.02
		c-4.447,3.213-8.68,6.936-11.444,11.709c-1.401,2.42-3.053,6.555-2.489,9.824c0.961-0.082,1.916-0.186,2.865-0.309
		C76.391,133.025,77.265,130.168,78.188,128.004z"/>
	<path fill="#20BCBC" d="M102.699,95.078c-7.154,3.781-14.696,6.777-22.461,9.041c-7.806,2.275-15.815,3.756-23.875,4.781
		c-1.943,0.246-3.883,0.52-5.826,0.752c-1.574,0.709-3.135,1.447-4.679,2.215c4.401-0.266,8.812-0.965,13.174-1.576
		c11.225-1.566,22.275-4.201,32.845-8.328c5.29-2.066,10.421-4.541,15.365-7.336c2.688-1.518,5.229-3.293,7.838-4.941
		c1.015-0.641,2.042-1.26,3.088-1.846c0.342-0.191,0.687-0.381,1.033-0.564c0.59-0.314,1.193-0.602,1.798-0.885
		c0.136-0.064,0.321-0.168,0.522-0.279c-0.48,1.193-1.297,2.219-2.166,3.197c-0.494,0.557-1.003,1.105-1.515,1.65
		c-0.775,0.826-1.564,1.641-2.35,2.453c-2.945,3.049-6.095,5.896-9.422,8.523c-3.586,2.832-7.449,5.25-11.286,7.711
		c2.688-0.996,5.367-2.016,8.039-3.053c4.798-3.32,9.311-6.975,13.494-11.098c0.229-0.225,0.451-0.453,0.676-0.68
		c1.474-1.486,2.9-3.018,4.326-4.549c1.501-1.611,2.919-3.43,3.303-5.65c0.088-0.506-0.476-0.732-0.876-0.766
		c-1.573-0.133-2.969,0.705-4.35,1.35c-0.389,0.182-0.771,0.373-1.153,0.568c-1.533,0.787-3.019,1.678-4.481,2.584
		C110.079,90.631,106.532,93.053,102.699,95.078z"/>
	<path fill="#20BCBC" d="M33.68,106.6c-0.734-2.859,3.234-5.434,5.028-7.027c1.806-1.604,3.511-3.326,5.224-5.043
		c0.654-0.654,1.311-1.309,1.974-1.955c-0.892,0.514-1.783,1.023-2.676,1.533c-1.493,0.855-2.987,1.707-4.484,2.557
		c-0.385,0.377-0.772,0.75-1.153,1.131c-2.892,2.885-10.097,7.936-4.877,12.096c1.563,1.246,3.793,1.631,5.716,1.881
		c0.929,0.119,1.865,0.184,2.804,0.209c1.163-0.637,2.343-1.248,3.533-1.836c-0.16,0.008-0.32,0.018-0.479,0.023
		C41.22,110.268,34.686,110.521,33.68,106.6z"/>
	<path fill="#20BCBC" d="M81.201,40.504c0.727,0.34,1.435,0.701,2.122,1.086c0.019-0.008,0.037-0.018,0.057-0.023
		c2.093-1.459,4.176-2.93,6.247-4.42c-1.323,0.512-2.643,1.029-3.963,1.543C84.167,39.273,82.682,39.883,81.201,40.504z"/>
	<path fill="#20BCBC" d="M39.405,32.566c14.056-5.23,28.379-10.109,43.111-13.051c1.894-0.934,3.795-1.854,5.705-2.754
		c0.029-0.014,0.059-0.027,0.089-0.041c-0.035,0.006-0.072,0.012-0.107,0.018c-8.662,1.402-17.188,3.553-25.585,6.084
		c-12.645,3.809-24.968,8.566-37.312,13.232c-7.212,2.727-14.283,5.795-21.309,8.971c-0.275,0.758-0.535,1.52-0.782,2.285
		c3.683-1.674,7.376-3.326,11.093-4.924C22.563,38.838,30.986,35.699,39.405,32.566z"/>
	<path fill="#543620" d="M100.279,29.258c-2.32,1.773-4.66,3.525-7.015,5.252c-1.209,0.885-2.423,1.764-3.638,2.637
		c-2.071,1.49-4.154,2.961-6.247,4.42c-0.016,0.01-0.029,0.02-0.045,0.029c0.665,0.371,1.312,0.762,1.938,1.174
		c2.198-1.529,4.387-3.072,6.562-4.633c1.728-1.24,3.445-2.49,5.156-3.754c1.977-1.461,3.943-2.938,5.895-4.436
		c0.797-0.613,1.593-1.229,2.386-1.848c3.544-2.768,7.033-5.607,10.452-8.529c-0.518-0.51-1.042-1.008-1.574-1.5
		c-0.007,0.006-0.014,0.012-0.021,0.02C109.626,21.949,104.993,25.656,100.279,29.258z"/>
	<path fill="#543620" d="M36.764,97.789c0.661-0.375,1.321-0.75,1.981-1.125c1.497-0.85,2.991-1.701,4.484-2.557
		c0.893-0.51,1.784-1.02,2.676-1.533c0.567-0.324,1.135-0.65,1.701-0.975c-0.117-0.105-0.234-0.207-0.35-0.314
		c-0.323-0.297-0.644-0.6-0.957-0.912c-0.083-0.082-0.161-0.17-0.242-0.254c-0.288,0.166-0.574,0.33-0.862,0.496
		c-1.289,0.74-2.58,1.482-3.872,2.221c-1.46,0.836-2.921,1.67-4.384,2.502c-6.41,3.639-13.051,6.928-19.358,10.736
		c-1.421,0.857-2.849,1.705-4.304,2.502c0.408,0.557,0.822,1.107,1.247,1.65c0.879-0.482,1.748-0.984,2.61-1.492
		C23.585,104.924,30.238,101.475,36.764,97.789z"/>
	<path fill="#543620" d="M29.11,49.787c4.865-2.488,9.706-5.031,14.535-7.594c2.279-1.211,4.556-2.424,6.832-3.639
		c0.804-0.43,1.608-0.859,2.412-1.289c3.768-2.012,7.536-4.023,11.312-6.018c8.351-4.408,16.719-8.801,25.261-12.83
		c0.141-0.066,0.282-0.135,0.425-0.201c1.792-0.842,3.593-1.668,5.402-2.473c0.299-0.135,0.597-0.27,0.896-0.4
		c3.129-1.383,6.287-2.695,9.476-3.934c-0.687-0.453-1.38-0.896-2.084-1.326c-5.165,2.031-10.246,4.271-15.267,6.637
		c-0.03,0.014-0.06,0.027-0.089,0.041c-1.91,0.9-3.812,1.82-5.705,2.754c-0.195,0.096-0.39,0.189-0.584,0.285
		c-15.985,7.906-31.566,16.611-47.368,24.871C23.972,50.209,13.24,55.4,2.377,60.385c-0.687,0.314-1.371,0.633-2.055,0.953
		c-0.076,0.797-0.136,1.598-0.186,2.402c5.486-2.539,10.971-5.084,16.415-7.705C20.766,54.008,24.947,51.916,29.11,49.787z"/>
	<path fill="#543620" d="M12.092,97.359c4.323-4.074,9.253-7.398,13.917-11.051c2.799-2.191,5.563-4.426,8.319-6.674
		c1.335-1.09,2.67-2.18,4.002-3.271c-0.206-0.824-0.378-1.662-0.516-2.514c-1.414,1.145-2.824,2.295-4.233,3.445
		c-5.09,4.152-10.176,8.309-15.416,12.266c-3.468,2.617-7.526,5.689-10.846,9.277c0.386,0.766,0.784,1.52,1.194,2.264
		C9.636,99.768,10.861,98.52,12.092,97.359z"/>
	<path fill="#543620" d="M63.302,15.934c3.548-1.359,7.038-2.895,10.605-4.191c2.199-0.801,4.421-1.535,6.563-2.473
		c0.443-0.193,0.885-0.395,1.321-0.609c2.257-1.113,4.651-2.67,5.674-5.07c0.128-0.301,0.085-0.561-0.083-0.783
		c-1.312-0.395-2.637-0.75-3.973-1.061c-1.618,0.252-3.22,0.668-4.84,0.943c-2.278,0.393-4.541,0.871-6.789,1.41
		c-1.534,0.369-3.062,0.764-4.584,1.184c-7.678,2.109-15.238,4.725-22.835,7.107c-7.779,2.441-15.56,4.873-23.346,7.291
		c-0.469,0.145-0.939,0.295-1.408,0.449c-0.95,0.971-1.869,1.969-2.757,2.99c0.847-0.291,1.695-0.58,2.543-0.855
		c7.578-2.473,15.232-4.74,22.841-7.125c7.308-2.289,14.592-4.676,21.918-6.904c3.434-1.045,6.905-1.957,10.41-2.73
		c0.118-0.025,0.235-0.055,0.354-0.08C76.871,5,78.837,4.641,80.812,4.334c1.178-0.184,2.575-0.873,3.71-0.455
		c-1.232,2.033-3.802,3.119-5.889,4.004c-0.027,0.012-0.053,0.021-0.08,0.033c-2.433,1.025-4.97,1.773-7.411,2.775
		c-7.972,3.271-16.068,6.232-24.148,9.223c-13.203,4.885-26.483,9.842-39.041,16.244c-0.537,1.018-1.052,2.053-1.547,3.105
		c14.367-7.646,29.737-13.223,44.972-18.859C55.359,18.932,59.339,17.453,63.302,15.934z"/>
	<path fill="#543620" d="M107.288,104.848c-1.486,0.586-2.975,1.166-4.466,1.746c-2.672,1.037-5.351,2.057-8.039,3.053
		c-12.141,4.494-24.466,8.463-37.184,11.023c-4.767,0.961-9.583,1.766-14.389,2.516c-2.48,0.389-4.973,0.697-7.477,0.883
		c-1.226,0.09-2.453,0.127-3.682,0.135c-0.637,0.002-1.223,0.047-1.806-0.037c2.55-5.137,8.221-8.42,13.084-11
		c0.836-0.443,1.68-0.875,2.527-1.299c1.544-0.768,3.104-1.506,4.679-2.215c3.945-1.779,7.976-3.387,12.006-4.91
		c8.258-3.121,16.646-5.912,24.667-9.629c6.302-2.922,12.582-5.943,18.592-9.434c4.167-2.422,8.217-5.096,11.909-8.193
		c1.653-1.389,3.235-2.859,4.724-4.432c2.216-2.344,4.33-5.006,5.629-7.975c0.814-1.863,1.211-4.23-0.741-5.506
		c-0.938-0.613-2.138-0.787-3.23-0.867c-1.968-0.143-3.993-0.002-5.955,0.145c-0.349,0.027-0.695,0.061-1.043,0.094
		c-3.907,0.373-7.781,1.168-11.566,2.186c-2.327,0.625-4.628,1.35-6.906,2.148c0.112,0.67,0.205,1.348,0.273,2.031
		c3.013-1.07,6.07-2.012,9.173-2.781c2.776-0.688,5.594-1.189,8.433-1.486c1.487-0.156,2.981-0.26,4.48-0.299
		c1.998-0.051,5.385-0.398,4.944,2.502c-0.459,3.016-3.032,5.865-4.968,8.07c-1.124,1.281-2.335,2.48-3.604,3.619
		c-1.321,1.186-2.703,2.305-4.117,3.377c-5.679,4.307-11.99,7.723-18.359,10.885c-2.51,1.244-5.033,2.459-7.576,3.633
		c-3.809,1.756-7.66,3.416-11.579,4.922c-1.104,0.426-2.211,0.842-3.318,1.254c-0.792,0.295-1.585,0.588-2.379,0.879
		c-5.56,2.043-11.142,4.029-16.598,6.342c-2.909,1.232-5.815,2.516-8.659,3.918c-1.19,0.588-2.37,1.199-3.533,1.836
		c-0.959,0.525-1.911,1.064-2.846,1.631c-3.95,2.393-8.1,5.395-10.395,9.525c0.479,0.344,0.963,0.684,1.452,1.016
		c0.203,0.137,0.406,0.275,0.61,0.41c0.872,0.578,1.76,1.139,2.664,1.678c2.178-0.031,4.353-0.23,6.514-0.484
		c4.46-0.525,8.873-1.398,13.299-2.141c8.541-1.434,16.947-3.51,25.228-6.037c2.519-0.77,5.019-1.586,7.508-2.434
		c0.914-0.311,1.825-0.627,2.735-0.945c0.955-0.336,1.909-0.676,2.859-1.02c1.412-0.512,2.819-1.031,4.225-1.557
		c4.981-1.867,9.931-3.82,14.877-5.781c5.461-2.166,10.922-4.344,16.422-6.418c0.816-0.309,1.637-0.609,2.457-0.908
		c0.424-0.846,0.836-1.705,1.229-2.576c-5.726,2-11.366,4.307-16.968,6.574C111.162,103.301,109.224,104.084,107.288,104.848z"/>
</g>
</svg>
