<?xml version="1.0" encoding="utf-8"?>
<!-- Generator: Adobe Illustrator 15.1.0, SVG Export Plug-In . SVG Version: 6.00 Build 0)  -->
<!DOCTYPE svg PUBLIC "-//W3C//DTD SVG 1.1//EN" "http://www.w3.org/Graphics/SVG/1.1/DTD/svg11.dtd">
<svg version="1.1" id="Layer_1" xmlns="http://www.w3.org/2000/svg" xmlns:xlink="http://www.w3.org/1999/xlink" x="0px" y="0px"
	 width="62.771px" height="134.67px" viewBox="0 0 62.771 134.67" enable-background="new 0 0 62.771 134.67" xml:space="preserve">
<g>
	<path fill="#DDAC6C" d="M33.971,131.672c-0.102-0.064-0.203-0.133-0.305-0.199C33.768,131.539,33.869,131.607,33.971,131.672z"/>
	<path fill="#DDAC6C" d="M32.578,130.689c-0.072-0.055-0.147-0.111-0.221-0.168C32.431,130.578,32.506,130.635,32.578,130.689z"/>
	<path fill="#DDAC6C" d="M33.281,131.207c-0.092-0.064-0.184-0.129-0.274-0.195C33.098,131.078,33.189,131.143,33.281,131.207z"/>
	<path fill="#DDAC6C" d="M34.664,132.098c-0.11-0.064-0.22-0.133-0.33-0.199C34.443,131.965,34.554,132.033,34.664,132.098z"/>
	<path fill="#DDAC6C" d="M37.199,133.326c-0.172-0.066-0.343-0.137-0.513-0.209C36.856,133.189,37.027,133.26,37.199,133.326z"/>
	<path fill="#DDAC6C" d="M37.927,133.598c-0.183-0.064-0.363-0.131-0.544-0.199C37.563,133.467,37.744,133.533,37.927,133.598z"/>
	<path fill="#DDAC6C" d="M36.496,133.033c-0.51-0.227-1.009-0.477-1.499-0.75C35.487,132.557,35.986,132.807,36.496,133.033z"/>
	<path fill="#DDAC6C" d="M10.955,64.168c-0.269-0.104-0.533-0.217-0.794-0.334C10.422,63.951,10.687,64.064,10.955,64.168z"/>
	<path fill="#DDAC6C" d="M6.109,61.123c-0.154-0.141-0.305-0.289-0.455-0.438C5.805,60.834,5.955,60.982,6.109,61.123z"/>
	<path fill="#DDAC6C" d="M25.066,60.391c-1.412-1.129-3.107-0.281-4.52,0.283c-2.732,1.062-6.199,2.857-9.568,3.504
		c1.816,0.695,3.795,1.043,5.938,1.043c3.262,0,6.378-0.814,9.349-2.449v1.338C26.703,62.545,26.143,61.467,25.066,60.391z"/>
	<path fill="#DDAC6C" d="M5.436,60.469c-0.221-0.227-0.438-0.459-0.65-0.701C4.998,60.01,5.215,60.242,5.436,60.469z"/>
	<path fill="#DDAC6C" d="M9.896,63.705c-0.179-0.084-0.356-0.17-0.531-0.264C9.539,63.535,9.717,63.621,9.896,63.705z"/>
	<path fill="#DDAC6C" d="M46.967,0c-5.224,0-10.176,2.221-14.861,6.65c0.119-0.111,0.236-0.223,0.355-0.332
		c2.995-0.24,5.989-0.678,8.984-1.277C52.459,3.348,60.93,16.055,58.389,25.092c-3.106,12.709-10.166,25.133-1.977,37.559
		c0.848,1.131,0.564,2.824,0,3.955c-2.824,7.342-1.13,14.965-0.565,22.309c1.413,14.4,6.214,36.146-9.036,43.771
		c-1.485,0.758-3.011,1.373-4.562,1.863c-1.454-0.152-2.848-0.455-4.182-0.904c2.013,0.68,4.163,1.025,6.452,1.025
		c5.043,0,9.349-1.559,12.91-4.674s5.343-7.641,5.343-13.578V20.256c0-6.379-1.447-11.354-4.341-14.914S51.715,0,46.967,0z"/>
	<path fill="#DDAC6C" d="M9.061,63.273C8.902,63.184,8.744,63.094,8.59,63C8.744,63.094,8.902,63.184,9.061,63.273z"/>
	<path fill="#DDAC6C" d="M7.529,62.291c-0.146-0.107-0.289-0.215-0.431-0.328C7.24,62.076,7.384,62.184,7.529,62.291z"/>
	<path fill="#DDAC6C" d="M6.807,61.73c-0.146-0.119-0.287-0.244-0.43-0.369C6.52,61.486,6.661,61.611,6.807,61.73z"/>
	<path fill="#DDAC6C" d="M8.278,62.803c-0.149-0.096-0.297-0.193-0.443-0.295C7.981,62.609,8.129,62.707,8.278,62.803z"/>
	<path fill="#754C29" d="M46.811,132.686c15.25-7.625,10.449-29.371,9.036-43.771c-0.564-7.344-2.259-14.967,0.565-22.309
		c0.564-1.131,0.848-2.824,0-3.955c-8.189-12.426-1.13-24.85,1.977-37.559c2.541-9.037-5.93-21.744-16.943-20.051
		c-2.995,0.6-5.989,1.037-8.984,1.277c-0.119,0.109-0.236,0.221-0.355,0.332c-0.24,0.227-0.48,0.457-0.721,0.695L6.232,32.275
		C2.076,36.434,0,41.33,0,46.967c0,4.896,1.592,9.166,4.785,12.801c0.213,0.242,0.43,0.475,0.65,0.701
		c0.071,0.074,0.146,0.145,0.219,0.217c0.15,0.148,0.301,0.297,0.455,0.438c0.088,0.082,0.178,0.16,0.268,0.238
		c0.143,0.125,0.284,0.25,0.43,0.369c0.097,0.08,0.194,0.156,0.292,0.232c0.142,0.113,0.285,0.221,0.431,0.328
		c0.101,0.072,0.203,0.146,0.306,0.217c0.146,0.102,0.294,0.199,0.443,0.295C8.381,62.869,8.484,62.936,8.59,63
		c0.154,0.094,0.312,0.184,0.471,0.273c0.102,0.057,0.201,0.115,0.304,0.168c0.175,0.094,0.353,0.18,0.531,0.264
		c0.089,0.043,0.177,0.088,0.266,0.129c0.261,0.117,0.525,0.23,0.794,0.334c0.008,0.002,0.016,0.006,0.023,0.01l0,0
		c3.369-0.646,6.836-2.441,9.568-3.504c1.412-0.564,3.107-1.412,4.52-0.283c1.076,1.076,1.637,2.154,1.199,3.719v52.309
		c0,5.938,1.816,10.463,5.453,13.578c0.211,0.18,0.424,0.354,0.639,0.525c0.073,0.057,0.148,0.113,0.221,0.168
		c0.143,0.111,0.285,0.219,0.429,0.322c0.091,0.066,0.183,0.131,0.274,0.195c0.128,0.092,0.256,0.18,0.385,0.266
		c0.102,0.066,0.203,0.135,0.305,0.199c0.121,0.078,0.242,0.152,0.363,0.227c0.11,0.066,0.22,0.135,0.33,0.199
		s0.222,0.125,0.333,0.186c0.49,0.273,0.989,0.523,1.499,0.75c0.064,0.027,0.127,0.057,0.19,0.084
		c0.17,0.072,0.341,0.143,0.513,0.209c0.062,0.025,0.123,0.049,0.184,0.072c0.181,0.068,0.361,0.135,0.544,0.199
		c0.046,0.016,0.093,0.031,0.14,0.047c1.334,0.449,2.728,0.752,4.182,0.904C43.8,134.059,45.325,133.443,46.811,132.686z
		 M4.284,48.908c-0.007,0-0.015,0-0.022,0c-0.457,0-0.834-0.365-0.846-0.826L3.228,40.74c-0.013-0.467,0.357-0.857,0.825-0.869
		c0.467-0.016,0.856,0.357,0.869,0.824l0.188,7.344C5.122,48.506,4.752,48.895,4.284,48.908z M17.441,56.062h-5.083
		c-0.468,0-0.848-0.381-0.848-0.848c0-0.469,0.38-0.848,0.848-0.848h5.083c0.468,0,0.847,0.379,0.847,0.848
		C18.288,55.682,17.909,56.062,17.441,56.062z M20.641,34.707l-2.447,4.707c-0.151,0.291-0.447,0.457-0.753,0.457
		c-0.132,0-0.266-0.031-0.39-0.096c-0.415-0.217-0.577-0.729-0.361-1.143l2.447-4.707c0.216-0.414,0.728-0.576,1.143-0.361
		C20.695,33.781,20.855,34.293,20.641,34.707z M23.152,26.004l-5.271,3.201c-0.138,0.084-0.289,0.123-0.439,0.123
		c-0.285,0-0.564-0.146-0.725-0.408c-0.242-0.4-0.115-0.92,0.285-1.162l5.271-3.201c0.4-0.244,0.921-0.115,1.164,0.283
		C23.68,25.24,23.553,25.762,23.152,26.004z M48.975,121.436l-5.083,3.389c-0.145,0.096-0.308,0.143-0.47,0.143
		c-0.273,0-0.542-0.133-0.705-0.377c-0.26-0.391-0.154-0.916,0.234-1.176l5.084-3.389c0.389-0.26,0.915-0.154,1.175,0.234
		C49.469,120.65,49.363,121.176,48.975,121.436z M45.603,60.148c0.396-0.252,0.919-0.135,1.169,0.26l4.896,7.697
		c0.251,0.395,0.135,0.918-0.261,1.168c-0.141,0.09-0.297,0.133-0.453,0.133c-0.28,0-0.555-0.139-0.716-0.393l-4.896-7.697
		C45.092,60.922,45.208,60.398,45.603,60.148z M42.105,48.693c-0.35-0.311-0.381-0.846-0.07-1.195
		c0.312-0.35,0.847-0.381,1.196-0.07l3.39,3.012c0.349,0.311,0.381,0.846,0.07,1.195c-0.168,0.189-0.4,0.285-0.635,0.285
		c-0.199,0-0.4-0.07-0.562-0.215L42.105,48.693z M54.799,117.301c-0.142,0.092-0.3,0.135-0.457,0.135
		c-0.279,0-0.552-0.137-0.713-0.389l-2.542-3.953c-0.253-0.395-0.14-0.918,0.255-1.172c0.393-0.254,0.918-0.139,1.17,0.256
		l2.542,3.953C55.307,116.523,55.193,117.049,54.799,117.301z M54.527,94.865c0.456,0.102,0.742,0.557,0.641,1.012l-1.695,7.531
		c-0.088,0.393-0.438,0.662-0.825,0.662c-0.062,0-0.124-0.008-0.187-0.021c-0.457-0.104-0.744-0.557-0.641-1.014l1.694-7.529
		C53.617,95.049,54.071,94.762,54.527,94.865z M53.375,83.398c0.239,0.4,0.107,0.922-0.295,1.16
		c-0.137,0.08-0.285,0.119-0.433,0.119c-0.289,0-0.571-0.148-0.729-0.414l-4.142-6.965c-0.239-0.402-0.106-0.924,0.296-1.162
		s0.922-0.107,1.16,0.295L53.375,83.398z M50.134,31.465l1.694-6.402c0.119-0.451,0.584-0.719,1.035-0.602
		c0.453,0.121,0.723,0.584,0.602,1.035l-1.693,6.402c-0.101,0.379-0.443,0.629-0.818,0.629c-0.072,0-0.145-0.008-0.218-0.027
		C50.283,32.381,50.014,31.918,50.134,31.465z M44.622,9.617c0.437-0.168,0.927,0.047,1.096,0.484l2.259,5.836
		c0.17,0.438-0.047,0.928-0.484,1.096c-0.1,0.039-0.203,0.059-0.305,0.059c-0.34,0-0.66-0.207-0.791-0.543l-2.259-5.836
		C43.969,10.277,44.186,9.787,44.622,9.617z M42.186,35.975c0.383-0.268,0.911-0.172,1.179,0.211l4.519,6.496
		c0.268,0.385,0.172,0.912-0.212,1.18c-0.147,0.104-0.316,0.15-0.483,0.15c-0.268,0-0.531-0.127-0.695-0.363l-4.52-6.494
		C41.706,36.77,41.801,36.242,42.186,35.975z M39.488,76.096c0.426-0.197,0.928-0.012,1.125,0.412l3.577,7.719
		c0.196,0.426,0.012,0.93-0.413,1.125c-0.115,0.055-0.236,0.08-0.355,0.08c-0.319,0-0.625-0.182-0.77-0.492l-3.576-7.719
		C38.879,76.797,39.064,76.293,39.488,76.096z M39.533,91.703c0.436-0.172,0.927,0.041,1.1,0.477l1.788,4.518
		c0.173,0.436-0.041,0.928-0.476,1.1c-0.103,0.039-0.208,0.061-0.312,0.061c-0.337,0-0.656-0.203-0.787-0.537l-1.789-4.518
		C38.885,92.367,39.098,91.875,39.533,91.703z M35.498,27.805c-0.059,0.012-0.115,0.018-0.173,0.018
		c-0.394,0-0.745-0.275-0.829-0.676l-1.129-5.459c-0.095-0.459,0.199-0.908,0.658-1.002c0.459-0.098,0.906,0.199,1.001,0.658
		l1.13,5.459C36.25,27.262,35.957,27.711,35.498,27.805z M31.301,83.74c0.469-0.043,0.881,0.293,0.928,0.758l0.928,9.225
		c0.047,0.467-0.291,0.883-0.757,0.93c-0.029,0.002-0.058,0.004-0.087,0.004c-0.43,0-0.797-0.326-0.841-0.764l-0.929-9.225
		C30.496,84.203,30.835,83.787,31.301,83.74z M30.729,54.68l3.377-4.143c0.295-0.361,0.829-0.416,1.191-0.121
		s0.417,0.83,0.121,1.191l-3.376,4.143c-0.167,0.205-0.411,0.312-0.657,0.312c-0.188,0-0.377-0.062-0.534-0.191
		C30.487,55.576,30.434,55.041,30.729,54.68z M33.074,72.254c-0.077,0-0.155-0.012-0.233-0.035c-0.449-0.127-0.71-0.596-0.583-1.045
		l2.254-7.908c0.128-0.449,0.597-0.711,1.047-0.582c0.449,0.127,0.711,0.596,0.582,1.047l-2.252,7.908
		C33.782,72.01,33.443,72.254,33.074,72.254z M27.889,47.352c-0.023,0.453-0.398,0.803-0.846,0.803c-0.015,0-0.03,0-0.045,0
		c-0.468-0.025-0.826-0.424-0.801-0.893l0.564-10.637c0.024-0.467,0.421-0.83,0.891-0.801c0.467,0.025,0.826,0.424,0.801,0.891
		L27.889,47.352z M29.422,15.02c-0.267,0-0.528-0.125-0.693-0.359c-0.27-0.381-0.178-0.91,0.204-1.18l5.341-3.766
		c0.383-0.27,0.91-0.178,1.181,0.205c0.27,0.383,0.178,0.91-0.204,1.18l-5.341,3.766C29.761,14.971,29.591,15.02,29.422,15.02z
		 M30.741,113.186c-0.304-0.355-0.262-0.891,0.095-1.195c0.355-0.303,0.891-0.262,1.193,0.096l3.377,3.953
		c0.303,0.355,0.262,0.891-0.094,1.193c-0.16,0.137-0.355,0.203-0.551,0.203c-0.239,0-0.477-0.1-0.645-0.297L30.741,113.186z
		 M37.854,124.924l-2.824,0.941c-0.089,0.029-0.18,0.043-0.268,0.043c-0.354,0-0.686-0.225-0.805-0.58
		c-0.147-0.443,0.093-0.924,0.537-1.072l2.823-0.939c0.444-0.15,0.924,0.09,1.071,0.535
		C38.537,124.295,38.297,124.775,37.854,124.924z M39.369,104.969c0.388-0.264,0.914-0.162,1.176,0.225l3.578,5.271
		c0.263,0.387,0.162,0.914-0.226,1.176c-0.146,0.1-0.312,0.146-0.476,0.146c-0.271,0-0.537-0.129-0.701-0.371l-3.576-5.271
		C38.881,105.758,38.982,105.23,39.369,104.969z"/>
	<path fill="#C62790" d="M46.396,16.549c0.131,0.336,0.451,0.543,0.791,0.543c0.102,0,0.205-0.02,0.305-0.059
		c0.438-0.168,0.654-0.658,0.484-1.096l-2.259-5.836c-0.169-0.438-0.659-0.652-1.096-0.484c-0.437,0.17-0.653,0.66-0.484,1.096
		L46.396,16.549z"/>
	<path fill="#C62790" d="M34.025,20.686c-0.459,0.094-0.753,0.543-0.658,1.002l1.129,5.459c0.084,0.4,0.436,0.676,0.829,0.676
		c0.058,0,0.114-0.006,0.173-0.018c0.459-0.094,0.752-0.543,0.658-1.002l-1.13-5.459C34.932,20.885,34.484,20.588,34.025,20.686z"/>
	<path fill="#C62790" d="M20.279,33.564c-0.415-0.215-0.927-0.053-1.143,0.361l-2.447,4.707c-0.216,0.414-0.054,0.926,0.361,1.143
		c0.124,0.064,0.258,0.096,0.39,0.096c0.306,0,0.602-0.166,0.753-0.457l2.447-4.707C20.855,34.293,20.695,33.781,20.279,33.564z"/>
	<path fill="#C62790" d="M4.053,39.871c-0.468,0.012-0.838,0.402-0.825,0.869l0.188,7.342c0.012,0.461,0.389,0.826,0.846,0.826
		c0.008,0,0.016,0,0.022,0c0.468-0.014,0.838-0.402,0.825-0.869l-0.188-7.344C4.909,40.229,4.52,39.855,4.053,39.871z"/>
	<path fill="#C62790" d="M17.441,54.367h-5.083c-0.468,0-0.848,0.379-0.848,0.848c0,0.467,0.38,0.848,0.848,0.848h5.083
		c0.468,0,0.847-0.381,0.847-0.848C18.288,54.746,17.909,54.367,17.441,54.367z"/>
	<path fill="#C62790" d="M50.237,69.014c0.161,0.254,0.436,0.393,0.716,0.393c0.156,0,0.312-0.043,0.453-0.133
		c0.396-0.25,0.512-0.773,0.261-1.168l-4.896-7.697c-0.25-0.395-0.773-0.512-1.169-0.26c-0.395,0.25-0.511,0.773-0.261,1.168
		L50.237,69.014z"/>
	<path fill="#C62790" d="M32.312,94.656c0.029,0,0.058-0.002,0.087-0.004c0.466-0.047,0.804-0.463,0.757-0.93l-0.928-9.225
		c-0.047-0.465-0.459-0.801-0.928-0.758c-0.466,0.047-0.805,0.463-0.758,0.928l0.929,9.225
		C31.516,94.33,31.883,94.656,32.312,94.656z"/>
	<path fill="#C62790" d="M52.461,104.049c0.062,0.014,0.125,0.021,0.187,0.021c0.388,0,0.737-0.27,0.825-0.662l1.695-7.531
		c0.102-0.455-0.185-0.91-0.641-1.012c-0.456-0.104-0.91,0.184-1.013,0.641l-1.694,7.529
		C51.717,103.492,52.004,103.945,52.461,104.049z"/>
	<path fill="#C62790" d="M48.035,120.025l-5.084,3.389c-0.389,0.26-0.494,0.785-0.234,1.176c0.163,0.244,0.432,0.377,0.705,0.377
		c0.162,0,0.325-0.047,0.47-0.143l5.083-3.389c0.389-0.26,0.494-0.785,0.235-1.176C48.95,119.871,48.424,119.766,48.035,120.025z"/>
	<path fill="#C62790" d="M34.762,117.436c0.195,0,0.391-0.066,0.551-0.203c0.355-0.303,0.396-0.838,0.094-1.193l-3.377-3.953
		c-0.303-0.357-0.838-0.398-1.193-0.096c-0.356,0.305-0.398,0.84-0.095,1.195l3.376,3.953
		C34.285,117.336,34.522,117.436,34.762,117.436z"/>
	<path fill="#C62790" d="M43.422,111.787c0.164,0,0.33-0.047,0.476-0.146c0.388-0.262,0.488-0.789,0.226-1.176l-3.578-5.271
		c-0.262-0.387-0.788-0.488-1.176-0.225c-0.387,0.262-0.488,0.789-0.225,1.176l3.576,5.271
		C42.885,111.658,43.15,111.787,43.422,111.787z"/>
	<path fill="#C62790" d="M42.652,84.939c0.145,0.311,0.45,0.492,0.77,0.492c0.119,0,0.24-0.025,0.355-0.08
		c0.425-0.195,0.609-0.699,0.413-1.125l-3.577-7.719c-0.197-0.424-0.699-0.609-1.125-0.412c-0.424,0.197-0.609,0.701-0.412,1.125
		L42.652,84.939z"/>
	<path fill="#C62790" d="M31.385,56.062c0.246,0,0.49-0.107,0.657-0.312l3.376-4.143c0.296-0.361,0.241-0.896-0.121-1.191
		s-0.896-0.24-1.191,0.121l-3.377,4.143c-0.295,0.361-0.241,0.896,0.122,1.191C31.008,56,31.196,56.062,31.385,56.062z"/>
	<path fill="#C62790" d="M46.492,43.648c0.164,0.236,0.428,0.363,0.695,0.363c0.167,0,0.336-0.047,0.483-0.15
		c0.384-0.268,0.479-0.795,0.212-1.18l-4.519-6.496c-0.268-0.383-0.796-0.479-1.179-0.211c-0.385,0.268-0.479,0.795-0.213,1.18
		L46.492,43.648z"/>
	<path fill="#C62790" d="M35.454,9.92c-0.271-0.383-0.798-0.475-1.181-0.205l-5.341,3.766c-0.382,0.27-0.474,0.799-0.204,1.18
		c0.165,0.234,0.427,0.359,0.693,0.359c0.169,0,0.339-0.049,0.487-0.154L35.25,11.1C35.632,10.83,35.724,10.303,35.454,9.92z"/>
	<path fill="#F2E5DF" d="M50.735,32.5c0.073,0.02,0.146,0.027,0.218,0.027c0.375,0,0.718-0.25,0.818-0.629l1.693-6.402
		c0.121-0.451-0.148-0.914-0.602-1.035c-0.451-0.117-0.916,0.15-1.035,0.602l-1.694,6.402C50.014,31.918,50.283,32.381,50.735,32.5z
		"/>
	<path fill="#F2E5DF" d="M22.273,24.557l-5.271,3.201c-0.4,0.242-0.527,0.762-0.285,1.162c0.16,0.262,0.439,0.408,0.725,0.408
		c0.15,0,0.302-0.039,0.439-0.123l5.271-3.201c0.4-0.242,0.527-0.764,0.285-1.164C23.194,24.441,22.674,24.312,22.273,24.557z"/>
	<path fill="#F2E5DF" d="M27.652,35.824c-0.47-0.029-0.866,0.334-0.891,0.801l-0.564,10.637c-0.025,0.469,0.333,0.867,0.801,0.893
		c0.015,0,0.03,0,0.045,0c0.447,0,0.822-0.35,0.846-0.803l0.564-10.637C28.479,36.248,28.119,35.85,27.652,35.824z"/>
	<path fill="#F2E5DF" d="M46.057,51.92c0.234,0,0.467-0.096,0.635-0.285c0.311-0.35,0.278-0.885-0.07-1.195l-3.39-3.012
		c-0.35-0.311-0.885-0.279-1.196,0.07c-0.311,0.35-0.279,0.885,0.07,1.195l3.389,3.012C45.656,51.85,45.857,51.92,46.057,51.92z"/>
	<path fill="#F2E5DF" d="M33.889,71.639l2.252-7.908c0.129-0.451-0.133-0.92-0.582-1.047c-0.45-0.129-0.919,0.133-1.047,0.582
		l-2.254,7.908c-0.127,0.449,0.134,0.918,0.583,1.045c0.078,0.023,0.156,0.035,0.233,0.035
		C33.443,72.254,33.782,72.01,33.889,71.639z"/>
	<path fill="#F2E5DF" d="M48.072,76.137c-0.402,0.238-0.535,0.76-0.296,1.162l4.142,6.965c0.158,0.266,0.44,0.414,0.729,0.414
		c0.147,0,0.296-0.039,0.433-0.119c0.402-0.238,0.534-0.76,0.295-1.16l-4.143-6.967C48.994,76.029,48.475,75.898,48.072,76.137z"/>
	<path fill="#F2E5DF" d="M40.846,97.32c0.131,0.334,0.45,0.537,0.787,0.537c0.104,0,0.21-0.021,0.312-0.061
		c0.435-0.172,0.648-0.664,0.476-1.1l-1.788-4.518c-0.173-0.436-0.664-0.648-1.1-0.477s-0.648,0.664-0.477,1.1L40.846,97.32z"/>
	<path fill="#F2E5DF" d="M37.317,123.316l-2.823,0.939c-0.444,0.148-0.685,0.629-0.537,1.072c0.119,0.355,0.45,0.58,0.805,0.58
		c0.088,0,0.179-0.014,0.268-0.043l2.824-0.941c0.443-0.148,0.684-0.629,0.535-1.072C38.241,123.406,37.762,123.166,37.317,123.316z
		"/>
	<path fill="#F2E5DF" d="M52.512,112.178c-0.252-0.395-0.777-0.51-1.17-0.256c-0.395,0.254-0.508,0.777-0.255,1.172l2.542,3.953
		c0.161,0.252,0.434,0.389,0.713,0.389c0.157,0,0.315-0.043,0.457-0.135c0.395-0.252,0.508-0.777,0.255-1.17L52.512,112.178z"/>
</g>
</svg>
