<?xml version="1.0" encoding="utf-8"?>
<!-- Generator: Adobe Illustrator 15.1.0, SVG Export Plug-In . SVG Version: 6.00 Build 0)  -->
<!DOCTYPE svg PUBLIC "-//W3C//DTD SVG 1.1//EN" "http://www.w3.org/Graphics/SVG/1.1/DTD/svg11.dtd">
<svg version="1.1" id="Layer_1" xmlns="http://www.w3.org/2000/svg" xmlns:xlink="http://www.w3.org/1999/xlink" x="0px" y="0px"
	 width="108.909px" height="133.678px" viewBox="0 0 108.909 133.678" enable-background="new 0 0 108.909 133.678"
	 xml:space="preserve">
<g>
	<path fill="#543620" d="M38.131,85.387c-2.609-0.811-5.778-0.107-9.28,2.047c-0.08,0.041-0.164,0.15-0.222,0.371
		c-0.144,0.541-0.06,1.48,0.294,2.033l1.164,1.164l0.02,0.076c0.17,0.682,0.172,1.686-0.336,2.459
		c-0.301,0.459-0.746,0.777-1.299,0.932c0.476,2.086,1.528,2.336,2.292,2.336c0.502,0,1.083-0.125,1.794-0.387l-0.221-5.539
		C32.337,87.588,34.271,85.758,38.131,85.387z"/>
	<path fill="#543620" d="M100.104,100.029c1.503,2.672,0.565,5.062-0.34,7.373c-0.683,1.738-1.388,3.537-1.031,5.436
		c0.138,0.971,0.491,1.887,0.833,2.775c0.041,0.107,0.083,0.217,0.125,0.324c2.815-2.244,5.734-4.334,8.746-6.279
		c-1.023-5.227-3.709-8.904-8.059-11.029c-0.225,0.277-0.451,0.555-0.68,0.83C99.839,99.643,99.975,99.83,100.104,100.029z"/>
	<path fill="#543620" d="M96.332,15.318c1.708,3.6,1.607,8.336,1.515,12.707c-0.041,1.967-0.081,3.824,0.042,5.49
		c0.142,2.113,1.304,4.096,2.534,6.193c1.184,2.018,2.408,4.105,2.828,6.486c0.205,1.029-0.017,1.836-0.484,2.51
		c1.613,0.252,2.857,0.975,2.92,2.609c0.095,2.447-1.979,4.518-3.602,6.111c-1.93,1.896-3.917,3.705-6.014,5.41
		c0.102,2.625-0.122,5.246-1.91,7.586c-1.973,2.629-4.654,4.277-7.25,5.875c-0.799,0.49-1.623,0.998-2.42,1.529l-0.029,0.018
		c-0.77,0.383-1.625,0.543-2.452,0.695c-1.019,0.189-1.979,0.367-2.558,0.947c-3.332,2.826-7.127,4.645-12.188,5.828h2.468
		c13.058,0,22.852-3.672,29.383-11.02c6.529-7.344,9.795-17.842,9.795-31.496c0-13.375-3.107-23.592-9.32-30.656
		c-0.44,0.441-0.881,0.881-1.321,1.314C97.631,14.088,96.984,14.707,96.332,15.318z"/>
	<path fill="#543620" d="M98.8,97.955c-0.418-0.156-0.85-0.299-1.294-0.43c0.372,0.219,0.721,0.463,1.046,0.738
		C98.634,98.16,98.718,98.059,98.8,97.955z"/>
	<path fill="#543620" d="M86.688,4.76c0.539-0.232,1.078-0.463,1.619-0.691C83.001,1.775,76.667,0.525,69.31,0.316
		c3.85,2.379,8.027,4.551,12.628,6.559C83.516,6.154,85.098,5.445,86.688,4.76z"/>
	<path fill="#543620" d="M80.319,133.395h0.406c0.096-0.08,0.189-0.164,0.285-0.246C80.779,133.23,80.55,133.312,80.319,133.395z"/>
	<path fill="#543620" d="M90.925,10.396c2.098,0.787,3.571,2.014,4.605,3.527c1.004-0.969,1.998-1.949,2.975-2.951
		c-2.43-2.482-5.285-4.533-8.566-6.15c-2.115,0.895-4.215,1.82-6.302,2.775C85.958,8.568,88.382,9.5,90.925,10.396z"/>
	<path fill="#543620" d="M100.429,118.498c1.124,5.338-4.078,8.793-8.641,10.748c-1.666,0.6-3.311,1.199-4.952,1.797
		c-0.627,0.229-1.26,0.457-1.896,0.689c-0.617,0.564-1.24,1.117-1.873,1.662h6.254c13.057,0,19.588-6.154,19.588-18.477
		c0-1.311-0.079-2.547-0.229-3.719c-2.922,1.943-5.749,4.029-8.476,6.256C100.3,117.795,100.378,118.143,100.429,118.498z"/>
	<path fill="#543620" d="M103.408,51.42c-0.345-0.895-1.157-1.252-2.057-1.371c-0.552,0.387-1.166,0.734-1.776,1.078
		c-1.565,0.885-3.045,1.721-3.389,3.094c-0.555,2.109-0.395,4.354-0.239,6.525c0.005,0.068,0.009,0.137,0.015,0.205
		c1.18-1.014,2.336-2.057,3.468-3.139C100.808,56.494,104.282,53.682,103.408,51.42z"/>
	<path fill="#4EC1CE" d="M82.01,78.539c0.827-0.152,1.683-0.312,2.452-0.695l0.029-0.018c0.797-0.531,1.621-1.039,2.42-1.529
		c2.596-1.598,5.277-3.246,7.25-5.875c1.788-2.34,2.012-4.961,1.91-7.586c-0.091,0.074-0.182,0.15-0.273,0.223
		c-0.092,0.074-0.182,0.15-0.273,0.225c-0.091,0.072-0.177,0.146-0.268,0.219c-5.26,4.143-10.91,7.725-16.602,11.238l-0.451,0.814
		c-0.154,0.279-0.443,0.438-0.741,0.438c-0.14,0-0.28-0.035-0.411-0.107c-0.043-0.023-0.08-0.053-0.117-0.082
		c-0.682,0.42-1.363,0.838-2.043,1.258c-1.591,0.98-3.168,1.982-4.738,2.996l0.328,0.209c0.396,0.252,0.512,0.775,0.26,1.17
		c-0.16,0.254-0.436,0.393-0.715,0.393c-0.156,0-0.312-0.043-0.454-0.133l-0.981-0.625c-1.984,1.299-3.953,2.619-5.908,3.961
		c-0.137,0.094-0.273,0.189-0.41,0.283s-0.274,0.188-0.41,0.283h4.093l0.057-0.006c0.427-0.088,0.843-0.182,1.252-0.277
		c5.062-1.184,8.856-3.002,12.188-5.828C80.03,78.906,80.991,78.729,82.01,78.539z"/>
	<path fill="#4EC1CE" d="M81.606,132.635c0.196-0.172,0.396-0.338,0.592-0.512c0.996-0.885,1.969-1.795,2.93-2.715
		c-0.013,0-0.025,0.002-0.039,0.002c-0.275,0-0.545-0.133-0.708-0.379c-0.258-0.391-0.149-0.918,0.241-1.176l6.391-4.215
		c1.155-1.127,2.322-2.24,3.52-3.324c1.531-1.385,3.098-2.715,4.695-4.002c0.077-0.062,0.154-0.127,0.231-0.189
		c0.077-0.061,0.153-0.125,0.231-0.188c-0.042-0.107-0.084-0.217-0.125-0.324c-0.342-0.889-0.695-1.805-0.833-2.775
		c-0.356-1.898,0.349-3.697,1.031-5.436c0.905-2.311,1.843-4.701,0.34-7.373c-0.129-0.199-0.265-0.387-0.405-0.57
		c-0.062,0.074-0.125,0.148-0.187,0.225c-0.062,0.074-0.124,0.146-0.187,0.221c-0.809,0.963-1.642,1.908-2.514,2.824
		c-0.956,1.004-1.938,1.982-2.934,2.945c0.027-0.016,0.053-0.035,0.082-0.049c0.426-0.193,0.929-0.008,1.123,0.418l2.071,4.518
		c0.194,0.426,0.008,0.93-0.417,1.123c-0.114,0.053-0.234,0.078-0.354,0.078c-0.32,0-0.627-0.184-0.77-0.494l-2.071-4.518
		c-0.122-0.266-0.095-0.561,0.046-0.793c-3.449,3.318-7.076,6.447-10.598,9.688c-0.6,0.553-1.197,1.107-1.795,1.664l1.382,1.02
		c0.378,0.277,0.457,0.807,0.18,1.184c-0.166,0.225-0.423,0.346-0.683,0.346c-0.174,0-0.35-0.055-0.502-0.166l-1.631-1.201
		c-2.826,2.68-5.592,5.451-8.167,8.35l2.985-1.354c0.426-0.191,0.928-0.004,1.121,0.422s0.005,0.928-0.422,1.121l-6.247,2.834
		c-0.825,1.041-1.619,2.123-2.338,3.248c-0.06,0.096-0.12,0.189-0.179,0.283s-0.115,0.188-0.172,0.283h13l0.045-0.016
		c0.249-0.088,0.5-0.18,0.75-0.268c0.23-0.082,0.46-0.164,0.691-0.246C81.21,132.979,81.408,132.807,81.606,132.635z"/>
	<path fill="#4EC1CE" d="M2.574,17.74c2.087-0.949,4.178-1.891,6.265-2.836c-0.145-0.287-0.12-0.645,0.096-0.914l4.707-5.836
		c0.293-0.363,0.826-0.422,1.191-0.127c0.363,0.293,0.421,0.828,0.127,1.191l-3.695,4.582c2.553-1.168,5.098-2.348,7.621-3.568
		c6.594-3.188,13.101-6.564,19.735-9.668c0.2-0.092,0.399-0.189,0.6-0.281C39.425,0.188,39.63,0.094,39.835,0H19.871
		C8.046,0,2.036,6.057,2.005,17.998C2.1,17.955,2.194,17.91,2.29,17.869C2.384,17.826,2.479,17.781,2.574,17.74z"/>
	<path fill="#4EC1CE" d="M91.788,129.246c4.562-1.955,9.765-5.41,8.641-10.748c-0.051-0.355-0.129-0.703-0.225-1.043
		c-0.08,0.066-0.158,0.135-0.238,0.199c-0.08,0.066-0.16,0.135-0.24,0.199c-2.348,1.941-4.623,3.984-6.819,6.137
		c-0.067,0.066-0.136,0.133-0.202,0.199c-0.029,0.24-0.154,0.467-0.372,0.609l-0.743,0.49c-1.847,1.83-3.687,3.674-5.582,5.455
		c-0.176,0.164-0.352,0.328-0.528,0.492c-0.179,0.166-0.358,0.332-0.538,0.496c0.636-0.232,1.269-0.461,1.896-0.689
		C88.478,130.445,90.122,129.846,91.788,129.246z"/>
	<path fill="#4EC1CE" d="M28.472,94.469c0.553-0.154,0.998-0.473,1.299-0.932c0.508-0.773,0.506-1.777,0.336-2.459l-0.02-0.076
		l-1.164-1.164c-0.354-0.553-0.438-1.492-0.294-2.033c0.058-0.221,0.142-0.33,0.222-0.371c3.502-2.154,6.671-2.857,9.28-2.047
		c0.198,0.062,0.394,0.131,0.585,0.211l0.059,0.023l0.062-0.004c0.281-0.014,0.565-0.02,0.845-0.02h19.706
		c0.133-0.094,0.266-0.189,0.397-0.283c0.134-0.094,0.266-0.189,0.398-0.283c2.333-1.639,4.691-3.242,7.079-4.805l-3.903-2.484
		c-0.395-0.252-0.511-0.775-0.26-1.17s0.774-0.512,1.169-0.26l4.558,2.9c0.723-0.465,1.446-0.928,2.175-1.381
		c2.02-1.256,4.051-2.494,6.079-3.742l4.255-7.662c0.227-0.41,0.743-0.557,1.152-0.33c0.408,0.229,0.557,0.744,0.329,1.152
		l-2.783,5.012c3.929-2.453,7.81-4.979,11.516-7.756c1.331-0.998,2.62-2.029,3.879-3.096c0.089-0.074,0.179-0.148,0.267-0.225
		c0.091-0.076,0.178-0.156,0.268-0.234c-0.006-0.068-0.01-0.137-0.015-0.205c-0.155-2.172-0.315-4.416,0.239-6.525
		c0.344-1.373,1.823-2.209,3.389-3.094c0.61-0.344,1.225-0.691,1.776-1.078c-0.146-0.02-0.294-0.033-0.442-0.041
		c-0.17-0.01-0.341-0.012-0.51-0.01c-0.447,0.004-0.884,0.039-1.268,0.076c-2.468,0.227-4.893,0.797-7.28,1.445
		c-2.122,0.576-4.222,1.23-6.321,1.883c-0.486,0.152-0.975,0.293-1.466,0.43c0.186,0.068,0.349,0.201,0.45,0.389l2.447,4.518
		c0.224,0.41,0.07,0.926-0.341,1.148c-0.128,0.07-0.267,0.102-0.403,0.102c-0.3,0-0.592-0.16-0.745-0.443l-2.447-4.518
		c-0.167-0.309-0.123-0.676,0.083-0.934c-1.732,0.461-3.48,0.873-5.209,1.352c-7.93,2.199-15.725,4.889-23.232,8.27
		c-7.729,3.48-14.988,7.721-22.168,12.205c-7.406,4.627-14.726,9.395-22.182,13.945c-1.179,0.719-2.363,1.441-3.551,2.162
		l0.095,1.117c0.04,0.467-0.306,0.877-0.772,0.918c-0.024,0.002-0.049,0.002-0.072,0.002c-0.436,0-0.806-0.334-0.844-0.775
		l-0.023-0.283c-1.52,0.914-3.046,1.82-4.584,2.711c-0.094,0.053-0.188,0.107-0.283,0.162C0.188,95.932,0.095,95.986,0,96.039
		v31.803c0.061,1.523,0.358,2.748,0.886,3.678c0.07-0.068,0.14-0.137,0.211-0.205c0.069-0.066,0.141-0.131,0.21-0.195
		c1.751-1.648,3.611-3.193,5.448-4.732c0.977-0.818,1.961-1.631,2.942-2.445C9.603,123.975,9.506,124,9.405,124
		c-0.158,0-0.318-0.045-0.461-0.139l-3.766-2.447c-0.393-0.256-0.504-0.779-0.248-1.172c0.254-0.393,0.779-0.504,1.172-0.25
		l3.766,2.449c0.38,0.246,0.493,0.746,0.268,1.135c5.827-4.834,11.715-9.596,17.669-14.275c5.411-4.252,10.87-8.445,16.376-12.574
		c0.127-0.096,0.254-0.188,0.38-0.283c0.126-0.094,0.254-0.188,0.38-0.281H33.2l-0.054,0.023c-0.206,0.088-0.401,0.164-0.589,0.232
		c-0.711,0.262-1.292,0.387-1.794,0.387C30,96.805,28.947,96.555,28.472,94.469z M60.248,66.01l11.296-2.426
		c0.458-0.098,0.907,0.193,1.006,0.65c0.098,0.457-0.193,0.908-0.65,1.008l-11.296,2.426c-0.06,0.012-0.12,0.018-0.179,0.018
		c-0.391,0-0.742-0.271-0.827-0.668C59.499,66.559,59.79,66.109,60.248,66.01z M42.817,78.477l4.707-5.93
		c0.291-0.367,0.824-0.428,1.19-0.137s0.428,0.824,0.137,1.189l-4.706,5.93c-0.168,0.211-0.415,0.32-0.664,0.32
		c-0.185,0-0.371-0.059-0.526-0.182C42.589,79.377,42.527,78.844,42.817,78.477z M16.354,98.156l-3.671,6.402
		c-0.156,0.273-0.442,0.426-0.736,0.426c-0.143,0-0.287-0.037-0.42-0.113c-0.406-0.232-0.547-0.75-0.314-1.156l3.672-6.4
		c0.232-0.406,0.75-0.547,1.156-0.314C16.446,97.234,16.587,97.752,16.354,98.156z M22.093,106.955l-3.953,4.518
		c-0.168,0.191-0.402,0.289-0.639,0.289c-0.198,0-0.396-0.068-0.558-0.209c-0.353-0.309-0.388-0.844-0.079-1.195l3.953-4.52
		c0.309-0.352,0.844-0.389,1.195-0.08S22.4,106.602,22.093,106.955z M21.744,94.768c-0.095,0.035-0.193,0.051-0.29,0.051
		c-0.346,0-0.67-0.215-0.795-0.559l-1.883-5.176c-0.16-0.441,0.066-0.926,0.506-1.086s0.926,0.066,1.086,0.506l1.883,5.178
		C22.411,94.121,22.185,94.607,21.744,94.768z"/>
	<path fill="#4EC1CE" d="M3.616,71.057c1.586-1.037,3.183-2.061,4.789-3.068l1.268-1.662c0.284-0.373,0.815-0.445,1.188-0.162
		c0.072,0.055,0.129,0.121,0.178,0.191c5.998-3.686,12.108-7.186,18.223-10.59c4.326-2.41,8.689-4.766,13.053-7.119
		c0.175-0.094,0.35-0.189,0.523-0.283c0.176-0.094,0.35-0.188,0.523-0.283h-3.9c-13.084,0-23.041,3.74-29.594,11.115
		c-3.043,3.42-5.387,7.555-7.025,12.369c0.123-0.08,0.246-0.16,0.369-0.24C3.345,71.234,3.48,71.146,3.616,71.057z"/>
	<path fill="#4EC1CE" d="M46.493,96.727c-4.942,3.723-9.832,7.514-14.699,11.312c-7.287,5.691-14.492,11.49-21.59,17.414
		c-2.669,2.229-5.414,4.436-7.897,6.873c-0.026,0.027-0.055,0.053-0.081,0.078c-0.041,0.041-0.08,0.08-0.12,0.121
		c-0.068,0.066-0.137,0.135-0.204,0.203c0.781,0.629,1.799,0.949,3.056,0.949h11.138c0.18-0.094,0.357-0.188,0.535-0.283
		c0.178-0.094,0.357-0.188,0.535-0.283c5.276-2.83,10.32-6.037,15.307-9.338l-7.465-4.018c-0.412-0.221-0.566-0.736-0.345-1.146
		c0.222-0.414,0.736-0.566,1.147-0.346l7.695,4.143c0.182,0.098,0.309,0.252,0.381,0.428c7.323-4.879,14.559-9.904,22.262-14.176
		c7.504-4.164,15.321-7.707,23.287-10.885c0.889-0.355,1.779-0.701,2.67-1.047c0.243-0.096,0.486-0.189,0.73-0.283
		c0.246-0.094,0.493-0.188,0.739-0.281H47.243c-0.125,0.094-0.25,0.188-0.375,0.281S46.618,96.633,46.493,96.727z M23.782,128.775
		c-0.1,0.381-0.443,0.637-0.82,0.637c-0.07,0-0.141-0.01-0.211-0.027l-3.483-0.895c-0.454-0.115-0.727-0.578-0.61-1.031
		s0.578-0.725,1.031-0.609l3.482,0.895C23.624,127.859,23.897,128.322,23.782,128.775z M37.606,106.852l-4.142,6.496
		c-0.161,0.252-0.436,0.391-0.715,0.391c-0.155,0-0.313-0.043-0.454-0.133c-0.396-0.252-0.512-0.775-0.26-1.17l4.143-6.494
		c0.251-0.395,0.775-0.512,1.169-0.26C37.742,105.934,37.858,106.457,37.606,106.852z M60.189,100.123l6.495-1.883
		c0.451-0.127,0.92,0.129,1.05,0.578s-0.128,0.918-0.577,1.049l-6.496,1.883c-0.078,0.023-0.158,0.033-0.236,0.033
		c-0.367,0-0.706-0.24-0.812-0.611C59.481,100.723,59.74,100.252,60.189,100.123z M56.183,105.596
		c0.442,0.152,0.678,0.633,0.525,1.076c-0.121,0.352-0.449,0.572-0.801,0.572c-0.092,0-0.185-0.016-0.275-0.047l-11.484-3.953
		c-0.442-0.152-0.678-0.635-0.525-1.078c0.152-0.441,0.633-0.678,1.076-0.525L56.183,105.596z"/>
	<path fill="#4EC1CE" d="M85.692,96.727c-0.654,0.248-1.307,0.496-1.959,0.75c-8.066,3.135-16.055,6.529-23.699,10.6
		c-2.598,1.383-5.133,2.863-7.631,4.404c0.225,0.404,0.082,0.918-0.321,1.146l-3.476,1.977c-0.132,0.076-0.275,0.111-0.417,0.111
		c-0.202,0-0.398-0.076-0.554-0.211c-3.143,2.045-6.25,4.146-9.369,6.23c-5.957,3.977-11.959,7.922-18.236,11.377
		c-0.172,0.096-0.343,0.189-0.514,0.283c-0.175,0.096-0.35,0.189-0.524,0.283h45.411c0.057-0.096,0.115-0.189,0.174-0.283
		c0.058-0.094,0.116-0.189,0.176-0.283c0.38-0.602,0.781-1.189,1.195-1.766l-0.654,0.295c-0.113,0.053-0.232,0.076-0.35,0.076
		c-0.322,0-0.63-0.184-0.771-0.496c-0.193-0.426-0.005-0.928,0.421-1.121l3.595-1.633c3.219-3.863,6.831-7.449,10.485-10.91
		l-4.065-2.994c-0.377-0.277-0.458-0.809-0.181-1.186c0.278-0.377,0.808-0.457,1.185-0.18l4.317,3.18
		c4.446-4.152,9.126-8.061,13.415-12.377c1.687-1.697,3.332-3.447,4.853-5.297c0.06-0.072,0.118-0.146,0.177-0.219
		c0.06-0.074,0.119-0.148,0.178-0.221c-0.325-0.275-0.674-0.52-1.046-0.738c-0.431-0.252-0.888-0.473-1.383-0.65l-0.034-0.01
		c-2.082-0.467-4.434-0.703-6.99-0.703h-1.912c-0.251,0.094-0.501,0.188-0.751,0.281C86.188,96.537,85.939,96.631,85.692,96.727z
		 M46.585,123.688l-5.084,6.213c-0.167,0.205-0.41,0.311-0.656,0.311c-0.188,0-0.378-0.062-0.535-0.191
		c-0.361-0.295-0.416-0.83-0.119-1.191l5.083-6.213c0.296-0.361,0.83-0.416,1.192-0.119
		C46.827,122.793,46.881,123.326,46.585,123.688z M54.829,131.686c-0.077,0.021-0.156,0.031-0.233,0.031
		c-0.368,0-0.708-0.24-0.813-0.613l-1.324-4.611c-0.13-0.451,0.13-0.92,0.58-1.049c0.449-0.129,0.918,0.131,1.047,0.58l1.325,4.613
		C55.54,131.086,55.279,131.555,54.829,131.686z M67.64,124.664c-0.167,0.184-0.396,0.275-0.625,0.275
		c-0.204,0-0.409-0.072-0.571-0.221l-6.59-6.025c-0.345-0.316-0.369-0.852-0.054-1.197c0.316-0.346,0.853-0.369,1.197-0.053
		l6.59,6.023C67.933,123.783,67.956,124.318,67.64,124.664z M69.707,106.973l-3.013,3.246c-0.166,0.182-0.394,0.271-0.621,0.271
		c-0.206,0-0.413-0.074-0.576-0.225c-0.343-0.318-0.363-0.855-0.045-1.197l3.012-3.248c0.318-0.344,0.855-0.363,1.197-0.045
		C70.005,106.094,70.024,106.629,69.707,106.973z M82.923,106.396c0,0.467-0.379,0.846-0.848,0.846
		c-0.467,0-0.847-0.379-0.847-0.846v-5.459c0-0.469,0.38-0.848,0.847-0.848c0.469,0,0.848,0.379,0.848,0.848V106.396z"/>
	<path fill="#4EC1CE" d="M0.565,94.039c1.49-0.857,2.973-1.73,4.449-2.613L4.42,84.441c-0.04-0.467,0.306-0.877,0.772-0.916
		c0.464-0.037,0.876,0.305,0.916,0.771l0.523,6.154c10.882-6.594,21.434-13.729,32.414-20.166
		c7.008-4.107,14.324-7.686,21.906-10.611c7.411-2.861,14.979-4.98,22.643-7.033c4.053-1.086,7.98-2.551,12.111-3.359
		c1.213-0.236,4.059-0.838,6.404-0.65c0.112,0.008,0.223,0.018,0.333,0.031c0.109,0.012,0.218,0.027,0.323,0.043
		c0.468-0.674,0.689-1.48,0.484-2.51c-0.42-2.381-1.645-4.469-2.828-6.486c-1.23-2.098-2.393-4.08-2.534-6.193
		c-0.123-1.666-0.083-3.523-0.042-5.49c0.093-4.371,0.193-9.107-1.515-12.707c-0.073,0.07-0.146,0.141-0.22,0.209
		c-0.076,0.07-0.151,0.141-0.227,0.211c-5.297,4.918-11.078,9.303-17.089,13.311c-0.804,0.535-1.611,1.064-2.421,1.59l4.712,3.641
		c0.37,0.285,0.438,0.816,0.152,1.188c-0.167,0.217-0.417,0.33-0.671,0.33c-0.182,0-0.363-0.059-0.518-0.176l-5.191-4.012
		c-2.88,1.836-5.797,3.611-8.742,5.342c-0.16,0.094-0.318,0.189-0.479,0.283c-0.159,0.092-0.319,0.188-0.479,0.281h4.351
		c4.753,0,7.063,1.729,7.063,5.283s-2.311,5.281-7.063,5.281H46.147c-0.174,0.096-0.348,0.189-0.521,0.283
		c-0.175,0.094-0.349,0.189-0.523,0.283c-3.262,1.762-6.521,3.523-9.77,5.307c0.06,0.045,0.115,0.096,0.163,0.158
		c0.283,0.373,0.21,0.904-0.162,1.188l-11.013,8.365c-0.154,0.117-0.334,0.174-0.513,0.174c-0.255,0-0.509-0.115-0.675-0.336
		c-0.283-0.371-0.211-0.904,0.162-1.188l8.269-6.281c-7.24,4.021-14.459,8.164-21.501,12.576l-0.926,1.213
		c-0.166,0.219-0.418,0.332-0.674,0.332c-0.18,0-0.359-0.055-0.514-0.172c-0.008-0.008-0.015-0.016-0.023-0.023
		c-1.688,1.078-3.365,2.17-5.029,3.283c-0.129,0.086-0.258,0.174-0.387,0.262c-0.117,0.076-0.232,0.154-0.35,0.232
		C0.724,78.777,0,84.5,0,90.879v3.488c0.095-0.055,0.188-0.109,0.282-0.164C0.377,94.148,0.471,94.094,0.565,94.039z M87.935,28.592
		l3.201-5.461c0.235-0.404,0.755-0.539,1.158-0.303c0.404,0.236,0.539,0.756,0.303,1.16l-3.201,5.459
		c-0.157,0.27-0.44,0.42-0.731,0.42c-0.146,0-0.293-0.039-0.428-0.117C87.833,29.514,87.698,28.994,87.935,28.592z M88.062,40.85
		l3.201-3.246c0.328-0.334,0.865-0.338,1.197-0.01c0.334,0.328,0.338,0.865,0.009,1.197l-3.2,3.248
		c-0.166,0.17-0.385,0.252-0.604,0.252c-0.215,0-0.43-0.08-0.594-0.242C87.737,41.719,87.733,41.184,88.062,40.85z M64.944,51.705
		h6.777c0.468,0,0.847,0.379,0.847,0.848c0,0.467-0.379,0.848-0.847,0.848h-6.777c-0.469,0-0.848-0.381-0.848-0.848
		C64.097,52.084,64.476,51.705,64.944,51.705z M45.618,56.094l5.734-2.26c0.436-0.17,0.928,0.043,1.099,0.479
		s-0.042,0.928-0.478,1.098l-5.734,2.26c-0.102,0.041-0.207,0.061-0.311,0.061c-0.338,0-0.656-0.205-0.788-0.537
		C44.97,56.758,45.184,56.266,45.618,56.094z M29.187,67.16l7.578-1.158c0.462-0.07,0.895,0.246,0.965,0.709
		c0.071,0.463-0.246,0.895-0.709,0.965l-7.578,1.16c-0.043,0.006-0.086,0.01-0.129,0.01c-0.411,0-0.771-0.301-0.836-0.719
		C28.407,67.664,28.725,67.232,29.187,67.16z M16.783,72.623c0.249-0.396,0.772-0.516,1.168-0.268l6.307,3.953
		c0.397,0.248,0.517,0.771,0.269,1.168c-0.161,0.258-0.438,0.398-0.719,0.398c-0.154,0-0.31-0.043-0.449-0.131l-6.307-3.953
		C16.655,73.543,16.534,73.02,16.783,72.623z"/>
	<path fill="#4EC1CE" d="M24.52,36.951c12.468-7.186,25.032-14.174,37.918-20.613c0.675-0.336,1.35-0.672,2.024-1.012l-0.223-0.334
		c-0.26-0.389-0.154-0.914,0.234-1.174c0.39-0.26,0.916-0.154,1.176,0.234l0.341,0.512c5.054-2.52,10.126-5.021,15.259-7.377
		c0.115-0.053,0.229-0.104,0.344-0.156s0.23-0.105,0.345-0.156c-4.601-2.008-8.778-4.18-12.628-6.559
		c-0.137-0.084-0.275-0.168-0.412-0.254l-0.065-0.041L68.754,0.02C68.194,0.01,67.632,0,67.062,0h-6.857
		c-0.119,0.096-0.24,0.189-0.36,0.283s-0.239,0.189-0.36,0.281C48.584,9.012,36.063,15.023,24.438,22.4l3.144,2.154
		c0.386,0.266,0.483,0.791,0.22,1.178c-0.164,0.24-0.43,0.369-0.7,0.369c-0.165,0-0.331-0.049-0.478-0.148l-3.732-2.559
		c-0.34,0.221-0.68,0.441-1.02,0.666c-3.021,2-6.035,4.098-8.955,6.328l1.492,1.637c0.315,0.346,0.291,0.881-0.055,1.197
		c-0.163,0.148-0.367,0.221-0.571,0.221c-0.229,0-0.459-0.094-0.626-0.275l-1.584-1.74c-0.982,0.773-1.951,1.562-2.904,2.367
		c-0.062,0.055-0.127,0.109-0.189,0.162c-0.07,0.061-0.141,0.119-0.21,0.178c2.927,2.246,6.87,3.381,11.824,3.381h3.446
		c0.163-0.094,0.326-0.188,0.488-0.281C24.192,37.139,24.356,37.045,24.52,36.951z M53.749,5.486c0-0.469,0.379-0.848,0.848-0.848
		c0.467,0,0.847,0.379,0.847,0.848v5.178c0,0.467-0.38,0.848-0.847,0.848c-0.469,0-0.848-0.381-0.848-0.848V5.486z M47.448,15.43
		c0.227-0.408,0.742-0.557,1.151-0.328l5.083,2.822c0.409,0.227,0.557,0.742,0.329,1.152c-0.155,0.279-0.443,0.436-0.741,0.436
		c-0.139,0-0.28-0.033-0.41-0.107l-5.084-2.824C47.368,16.354,47.22,15.838,47.448,15.43z"/>
	<path fill="#4EC1CE" d="M63.436,36.951c3.464-2.02,6.892-4.1,10.269-6.264c-0.246-0.299-0.264-0.736-0.018-1.057
		c0.286-0.371,0.818-0.439,1.189-0.152l0.322,0.25c6.885-4.486,13.56-9.357,19.526-15.023c0.128-0.123,0.254-0.248,0.382-0.371
		c0.072-0.068,0.144-0.139,0.216-0.209c0.069-0.066,0.139-0.135,0.208-0.201c-1.034-1.514-2.508-2.74-4.605-3.527
		c-2.543-0.896-4.967-1.828-7.288-2.799c-0.117,0.053-0.234,0.107-0.351,0.16c-0.116,0.055-0.232,0.105-0.349,0.16
		c-4.282,1.971-8.522,4.035-12.769,6.096c-1.144,0.557-2.286,1.117-3.427,1.68l3.048,4.572c0.26,0.389,0.154,0.916-0.234,1.174
		c-0.145,0.098-0.308,0.145-0.469,0.145c-0.274,0-0.543-0.133-0.706-0.379l-3.17-4.754c-6.454,3.201-12.856,6.51-19.197,9.932
		c-6.321,3.412-12.562,6.963-18.771,10.568c-0.162,0.094-0.324,0.188-0.485,0.283c-0.162,0.094-0.324,0.188-0.486,0.281h36.188
		c0.163-0.094,0.325-0.188,0.488-0.281C63.11,37.139,63.272,37.045,63.436,36.951z M80.108,9.953
		c0.393-0.254,0.918-0.143,1.172,0.25l4.519,6.965c0.255,0.393,0.143,0.918-0.249,1.172c-0.143,0.092-0.303,0.137-0.461,0.137
		c-0.277,0-0.549-0.137-0.711-0.387l-4.519-6.965C79.604,10.732,79.716,10.207,80.108,9.953z M46.391,28.412l-7.53,4.895
		c-0.143,0.092-0.303,0.137-0.461,0.137c-0.277,0-0.549-0.135-0.711-0.387c-0.256-0.391-0.145-0.916,0.248-1.172l7.531-4.895
		c0.393-0.256,0.917-0.145,1.172,0.25C46.895,27.631,46.783,28.158,46.391,28.412z M61.09,33.121
		c-0.167,0.213-0.415,0.322-0.665,0.322c-0.184,0-0.369-0.059-0.525-0.184l-4.518-3.576c-0.367-0.291-0.43-0.822-0.139-1.189
		s0.823-0.43,1.189-0.139l4.519,3.576C61.318,32.223,61.38,32.754,61.09,33.121z"/>
	<path fill="#4EC1CE" d="M7.443,32.752c1.008-0.846,2.033-1.674,3.073-2.482L7.839,27.33c-0.316-0.346-0.291-0.883,0.055-1.197
		s0.883-0.289,1.197,0.057l2.777,3.047c3.162-2.383,6.442-4.611,9.749-6.717l-1.583-1.086c-0.386-0.264-0.484-0.791-0.219-1.178
		c0.264-0.385,0.791-0.482,1.178-0.219l2.184,1.498c1.246-0.777,2.493-1.541,3.737-2.287c3.275-1.967,6.595-3.861,9.906-5.768
		c-0.186-0.016-0.367-0.088-0.513-0.229l-4.143-3.953c-0.338-0.322-0.35-0.857-0.027-1.197c0.323-0.338,0.859-0.35,1.198-0.027
		l4.142,3.953c0.271,0.258,0.329,0.652,0.178,0.973c3.701-2.133,7.387-4.293,10.985-6.596c2.872-1.84,5.657-3.787,8.376-5.84
		c0.124-0.094,0.248-0.188,0.372-0.281C57.513,0.188,57.638,0.096,57.761,0H43.024c-0.209,0.094-0.418,0.188-0.627,0.283
		c-0.208,0.094-0.416,0.188-0.624,0.281c-0.943,0.43-1.884,0.867-2.821,1.309c-7.764,3.666-15.363,7.668-23.148,11.285
		c-4.379,2.037-8.809,4-13.22,6.006c-0.093,0.043-0.185,0.084-0.277,0.127s-0.185,0.084-0.277,0.125
		C2.28,25.496,3.96,30.057,7.051,33.08c0.069-0.059,0.138-0.117,0.207-0.174C7.319,32.855,7.382,32.803,7.443,32.752z"/>
	<path fill="#754C29" d="M64.474,13.818c-0.389,0.26-0.494,0.785-0.234,1.174l0.223,0.334c0.51-0.254,1.019-0.508,1.528-0.762
		l-0.341-0.512C65.39,13.664,64.863,13.559,64.474,13.818z"/>
	<path fill="#754C29" d="M68.381,21.205c0.163,0.246,0.432,0.379,0.706,0.379c0.161,0,0.324-0.047,0.469-0.145
		c0.389-0.258,0.494-0.785,0.234-1.174l-3.048-4.572c-0.511,0.252-1.021,0.506-1.531,0.758L68.381,21.205z"/>
	<path fill="#754C29" d="M14.833,8.027c-0.365-0.295-0.898-0.236-1.191,0.127L8.935,13.99c-0.216,0.27-0.24,0.627-0.096,0.914
		c0.811-0.367,1.619-0.734,2.426-1.104l3.695-4.582C15.254,8.855,15.196,8.32,14.833,8.027z"/>
	<path fill="#754C29" d="M26.624,25.953c0.146,0.1,0.312,0.148,0.478,0.148c0.271,0,0.536-0.129,0.7-0.369
		c0.264-0.387,0.166-0.912-0.22-1.178L24.438,22.4c-0.518,0.326-1.033,0.66-1.547,0.994L26.624,25.953z"/>
	<path fill="#754C29" d="M19.815,20.256c-0.266,0.387-0.167,0.914,0.219,1.178l1.583,1.086c0.52-0.33,1.04-0.66,1.56-0.984
		l-2.184-1.498C20.606,19.773,20.079,19.871,19.815,20.256z"/>
	<path fill="#754C29" d="M37.478,12.027l-4.142-3.953c-0.339-0.322-0.875-0.311-1.198,0.027c-0.322,0.34-0.311,0.875,0.027,1.197
		l4.143,3.953c0.146,0.141,0.327,0.213,0.513,0.229c0.278-0.16,0.557-0.32,0.835-0.48C37.807,12.68,37.748,12.285,37.478,12.027z"/>
	<path fill="#754C29" d="M45.468,26.99l-7.531,4.895c-0.393,0.256-0.504,0.781-0.248,1.172c0.162,0.252,0.434,0.387,0.711,0.387
		c0.158,0,0.318-0.045,0.461-0.137l7.53-4.895c0.393-0.254,0.504-0.781,0.249-1.172C46.385,26.846,45.86,26.734,45.468,26.99z"/>
	<path fill="#754C29" d="M54.597,11.512c0.467,0,0.847-0.381,0.847-0.848V5.486c0-0.469-0.38-0.848-0.847-0.848
		c-0.469,0-0.848,0.379-0.848,0.848v5.178C53.749,11.131,54.128,11.512,54.597,11.512z"/>
	<path fill="#754C29" d="M47.776,16.58l5.084,2.824c0.13,0.074,0.271,0.107,0.41,0.107c0.298,0,0.586-0.156,0.741-0.436
		c0.228-0.41,0.08-0.926-0.329-1.152L48.6,15.102c-0.409-0.229-0.925-0.08-1.151,0.328C47.22,15.838,47.368,16.354,47.776,16.58z"/>
	<path fill="#754C29" d="M80.052,35.621c0.154,0.117,0.336,0.176,0.518,0.176c0.254,0,0.504-0.113,0.671-0.33
		c0.286-0.371,0.218-0.902-0.152-1.188l-4.712-3.641c-0.504,0.326-1.01,0.648-1.516,0.971L80.052,35.621z"/>
	<path fill="#754C29" d="M73.687,29.631c-0.246,0.32-0.229,0.758,0.018,1.057c0.402-0.258,0.807-0.514,1.207-0.771
		c0.096-0.062,0.191-0.127,0.287-0.188l-0.322-0.25C74.505,29.191,73.973,29.26,73.687,29.631z"/>
	<path fill="#754C29" d="M60.951,31.932l-4.519-3.576c-0.366-0.291-0.898-0.229-1.189,0.139s-0.229,0.898,0.139,1.189l4.518,3.576
		c0.156,0.125,0.342,0.184,0.525,0.184c0.25,0,0.498-0.109,0.665-0.322C61.38,32.754,61.318,32.223,60.951,31.932z"/>
	<path fill="#754C29" d="M84.378,18.09c0.162,0.25,0.434,0.387,0.711,0.387c0.158,0,0.318-0.045,0.461-0.137
		c0.392-0.254,0.504-0.779,0.249-1.172l-4.519-6.965c-0.254-0.393-0.779-0.504-1.172-0.25s-0.504,0.779-0.249,1.172L84.378,18.09z"
		/>
	<path fill="#754C29" d="M88.665,42.291c0.219,0,0.438-0.082,0.604-0.252l3.2-3.248c0.329-0.332,0.325-0.869-0.009-1.197
		c-0.332-0.328-0.869-0.324-1.197,0.01l-3.201,3.246c-0.328,0.334-0.324,0.869,0.01,1.199C88.235,42.211,88.45,42.291,88.665,42.291
		z"/>
	<path fill="#754C29" d="M88.236,29.75c0.135,0.078,0.282,0.117,0.428,0.117c0.291,0,0.574-0.15,0.731-0.42l3.201-5.459
		c0.236-0.404,0.102-0.924-0.303-1.16c-0.403-0.236-0.923-0.102-1.158,0.303l-3.201,5.461C87.698,28.994,87.833,29.514,88.236,29.75
		z"/>
	<path fill="#754C29" d="M83.025,55.027l2.447,4.518c0.153,0.283,0.445,0.443,0.745,0.443c0.137,0,0.275-0.031,0.403-0.102
		c0.411-0.223,0.564-0.738,0.341-1.148l-2.447-4.518c-0.102-0.188-0.265-0.32-0.45-0.389c-0.317,0.09-0.636,0.176-0.956,0.262
		C82.902,54.352,82.858,54.719,83.025,55.027z"/>
	<path fill="#754C29" d="M64.944,53.4h6.777c0.468,0,0.847-0.381,0.847-0.848c0-0.469-0.379-0.848-0.847-0.848h-6.777
		c-0.469,0-0.848,0.379-0.848,0.848C64.097,53.02,64.476,53.4,64.944,53.4z"/>
	<path fill="#754C29" d="M77.463,75.992c0.298,0,0.587-0.158,0.741-0.438l0.451-0.814c-0.572,0.355-1.146,0.709-1.721,1.062
		c0.037,0.029,0.074,0.059,0.117,0.082C77.183,75.957,77.323,75.992,77.463,75.992z"/>
	<path fill="#754C29" d="M82.816,67.25c0.228-0.408,0.079-0.924-0.329-1.152c-0.409-0.227-0.926-0.08-1.152,0.33L77.08,74.09
		c0.986-0.607,1.972-1.215,2.953-1.828L82.816,67.25z"/>
	<path fill="#754C29" d="M60.425,67.686c0.059,0,0.119-0.006,0.179-0.018l11.296-2.426c0.457-0.1,0.748-0.551,0.65-1.008
		c-0.099-0.457-0.548-0.748-1.006-0.65L60.248,66.01c-0.458,0.1-0.749,0.549-0.65,1.008C59.683,67.414,60.034,67.686,60.425,67.686z
		"/>
	<path fill="#754C29" d="M64.269,76.312c-0.395-0.252-0.918-0.135-1.169,0.26s-0.135,0.918,0.26,1.17l3.903,2.484
		c0.52-0.34,1.041-0.68,1.563-1.014L64.269,76.312z"/>
	<path fill="#754C29" d="M70.026,81.828c0.279,0,0.555-0.139,0.715-0.393c0.252-0.395,0.136-0.918-0.26-1.17l-0.328-0.209
		c-0.521,0.336-1.043,0.674-1.562,1.014l0.981,0.625C69.714,81.785,69.87,81.828,70.026,81.828z"/>
	<path fill="#754C29" d="M42.955,79.668c0.155,0.123,0.342,0.182,0.526,0.182c0.249,0,0.496-0.109,0.664-0.32l4.706-5.93
		c0.291-0.365,0.229-0.898-0.137-1.189s-0.899-0.23-1.19,0.137l-4.707,5.93C42.527,78.844,42.589,79.377,42.955,79.668z"/>
	<path fill="#754C29" d="M45.929,57.73c0.104,0,0.209-0.02,0.311-0.061l5.734-2.26c0.436-0.17,0.648-0.662,0.478-1.098
		s-0.663-0.648-1.099-0.479l-5.734,2.26c-0.435,0.172-0.648,0.664-0.478,1.1C45.272,57.525,45.591,57.73,45.929,57.73z"/>
	<path fill="#754C29" d="M31.564,56.033l-8.269,6.281c-0.373,0.283-0.445,0.816-0.162,1.188c0.166,0.221,0.42,0.336,0.675,0.336
		c0.179,0,0.358-0.057,0.513-0.174l11.013-8.365c0.372-0.283,0.445-0.814,0.162-1.188c-0.048-0.062-0.104-0.113-0.163-0.158
		c-0.622,0.34-1.244,0.682-1.865,1.023C32.833,55.328,32.199,55.682,31.564,56.033z"/>
	<path fill="#754C29" d="M17.052,73.791l6.307,3.953c0.14,0.088,0.295,0.131,0.449,0.131c0.281,0,0.558-0.141,0.719-0.398
		c0.248-0.396,0.129-0.92-0.269-1.168l-6.307-3.953c-0.396-0.248-0.919-0.129-1.168,0.268S16.655,73.543,17.052,73.791z"/>
	<path fill="#754C29" d="M29.313,68.846c0.043,0,0.086-0.004,0.129-0.01l7.578-1.16c0.463-0.07,0.78-0.502,0.709-0.965
		c-0.07-0.463-0.503-0.779-0.965-0.709l-7.578,1.158c-0.462,0.072-0.779,0.504-0.709,0.967
		C28.542,68.545,28.902,68.846,29.313,68.846z"/>
	<path fill="#754C29" d="M5.192,83.525c-0.467,0.039-0.812,0.449-0.772,0.916l0.595,6.984c0.54-0.324,1.079-0.648,1.617-0.975
		l-0.523-6.154C6.068,83.83,5.656,83.488,5.192,83.525z"/>
	<path fill="#754C29" d="M5.173,93.289c0.038,0.441,0.408,0.775,0.844,0.775c0.023,0,0.048,0,0.072-0.002
		c0.467-0.041,0.812-0.451,0.772-0.918l-0.095-1.117c-0.539,0.326-1.078,0.652-1.617,0.979L5.173,93.289z"/>
	<path fill="#754C29" d="M20.368,88.504c-0.16-0.439-0.646-0.666-1.086-0.506s-0.666,0.645-0.506,1.086l1.883,5.176
		c0.125,0.344,0.449,0.559,0.795,0.559c0.097,0,0.195-0.016,0.29-0.051c0.44-0.16,0.667-0.646,0.507-1.086L20.368,88.504z"/>
	<path fill="#754C29" d="M16.04,97c-0.406-0.232-0.924-0.092-1.156,0.314l-3.672,6.4c-0.232,0.406-0.092,0.924,0.314,1.156
		c0.133,0.076,0.277,0.113,0.42,0.113c0.294,0,0.58-0.152,0.736-0.426l3.671-6.402C16.587,97.752,16.446,97.234,16.04,97z"/>
	<path fill="#754C29" d="M10.86,66.164c-0.372-0.283-0.903-0.211-1.188,0.162l-1.268,1.662c0.875-0.549,1.752-1.094,2.633-1.633
		C10.989,66.285,10.933,66.219,10.86,66.164z"/>
	<path fill="#754C29" d="M7.95,69.982c0.154,0.117,0.334,0.172,0.514,0.172c0.256,0,0.508-0.113,0.674-0.332l0.926-1.213
		c-0.715,0.447-1.427,0.896-2.137,1.35C7.936,69.967,7.942,69.975,7.95,69.982z"/>
	<path fill="#754C29" d="M9.868,122.441l-3.766-2.449c-0.393-0.254-0.918-0.143-1.172,0.25c-0.256,0.393-0.145,0.916,0.248,1.172
		l3.766,2.447C9.087,123.955,9.247,124,9.405,124c0.101,0,0.197-0.025,0.292-0.059c0.146-0.123,0.292-0.244,0.438-0.365
		C10.361,123.188,10.248,122.688,9.868,122.441z"/>
	<path fill="#754C29" d="M37.348,105.682c-0.394-0.252-0.918-0.135-1.169,0.26l-4.143,6.494c-0.252,0.395-0.136,0.918,0.26,1.17
		c0.141,0.09,0.299,0.133,0.454,0.133c0.279,0,0.554-0.139,0.715-0.391l4.142-6.496C37.858,106.457,37.742,105.934,37.348,105.682z"
		/>
	<path fill="#754C29" d="M20.817,105.838l-3.953,4.52c-0.309,0.352-0.273,0.887,0.079,1.195c0.161,0.141,0.359,0.209,0.558,0.209
		c0.236,0,0.471-0.098,0.639-0.289l3.953-4.518c0.308-0.354,0.271-0.889-0.08-1.197S21.126,105.486,20.817,105.838z"/>
	<path fill="#754C29" d="M43.622,102.166c-0.152,0.443,0.083,0.926,0.525,1.078l11.484,3.953c0.091,0.031,0.184,0.047,0.275,0.047
		c0.352,0,0.68-0.221,0.801-0.572c0.152-0.443-0.083-0.924-0.525-1.076l-11.484-3.955C44.255,101.488,43.774,101.725,43.622,102.166
		z"/>
	<path fill="#754C29" d="M45.273,122.615l-5.083,6.213c-0.297,0.361-0.242,0.896,0.119,1.191c0.157,0.129,0.348,0.191,0.535,0.191
		c0.246,0,0.489-0.105,0.656-0.311l5.084-6.213c0.296-0.361,0.242-0.895-0.119-1.191C46.104,122.199,45.569,122.254,45.273,122.615z
		"/>
	<path fill="#754C29" d="M33.505,122.406l-7.695-4.143c-0.411-0.221-0.926-0.068-1.147,0.346c-0.222,0.41-0.067,0.926,0.345,1.146
		l7.465,4.018c0.472-0.312,0.943-0.625,1.414-0.939C33.813,122.658,33.687,122.504,33.505,122.406z"/>
	<path fill="#754C29" d="M60.997,117.443c-0.345-0.316-0.881-0.293-1.197,0.053c-0.315,0.346-0.291,0.881,0.054,1.197l6.59,6.025
		c0.162,0.148,0.367,0.221,0.571,0.221c0.229,0,0.458-0.092,0.625-0.275c0.316-0.346,0.293-0.881-0.053-1.197L60.997,117.443z"/>
	<path fill="#754C29" d="M48.606,115.604l3.476-1.977c0.403-0.229,0.546-0.742,0.321-1.146c-1.603,0.986-3.189,1.996-4.768,3.023
		c0.155,0.135,0.352,0.211,0.554,0.211C48.331,115.715,48.475,115.68,48.606,115.604z"/>
	<path fill="#754C29" d="M68.464,105.82l-3.012,3.248c-0.318,0.342-0.298,0.879,0.045,1.197c0.163,0.15,0.37,0.225,0.576,0.225
		c0.228,0,0.455-0.09,0.621-0.271l3.013-3.246c0.317-0.344,0.298-0.879-0.046-1.197C69.319,105.457,68.782,105.477,68.464,105.82z"
		/>
	<path fill="#754C29" d="M60.425,101.783c0.078,0,0.158-0.01,0.236-0.033l6.496-1.883c0.449-0.131,0.707-0.6,0.577-1.049
		s-0.599-0.705-1.05-0.578l-6.495,1.883c-0.449,0.129-0.708,0.6-0.577,1.049C59.719,101.543,60.058,101.783,60.425,101.783z"/>
	<path fill="#754C29" d="M82.075,100.09c-0.467,0-0.847,0.379-0.847,0.848v5.459c0,0.467,0.38,0.846,0.847,0.846
		c0.469,0,0.848-0.379,0.848-0.846v-5.459C82.923,100.469,82.544,100.09,82.075,100.09z"/>
	<path fill="#754C29" d="M79.93,116.377l-4.317-3.18c-0.377-0.277-0.906-0.197-1.185,0.18c-0.277,0.377-0.196,0.908,0.181,1.186
		l4.065,2.994c0.259-0.246,0.518-0.492,0.776-0.734C79.608,116.672,79.77,116.525,79.93,116.377z"/>
	<path fill="#754C29" d="M82.075,119.857c0.26,0,0.517-0.121,0.683-0.346c0.277-0.377,0.198-0.906-0.18-1.184l-1.382-1.02
		c-0.418,0.393-0.838,0.785-1.254,1.182l1.631,1.201C81.726,119.803,81.901,119.857,82.075,119.857z"/>
	<path fill="#754C29" d="M68.188,128.467l-3.595,1.633c-0.426,0.193-0.614,0.695-0.421,1.121c0.142,0.312,0.449,0.496,0.771,0.496
		c0.117,0,0.236-0.023,0.35-0.076l0.654-0.295c0.717-0.998,1.473-1.957,2.237-2.875C68.187,128.471,68.188,128.469,68.188,128.467z"
		/>
	<path fill="#754C29" d="M75.882,125.908c-0.193-0.426-0.695-0.613-1.121-0.422l-2.985,1.354c-0.22,0.248-0.442,0.494-0.659,0.742
		c-0.641,0.736-1.281,1.498-1.903,2.281l6.247-2.834C75.887,126.836,76.075,126.334,75.882,125.908z"/>
	<path fill="#754C29" d="M54.085,126.023c-0.129-0.449-0.598-0.709-1.047-0.58c-0.45,0.129-0.71,0.598-0.58,1.049l1.324,4.611
		c0.105,0.373,0.445,0.613,0.813,0.613c0.077,0,0.156-0.01,0.233-0.031c0.45-0.131,0.711-0.6,0.581-1.049L54.085,126.023z"/>
	<path fill="#754C29" d="M93.543,106.75l2.071,4.518c0.143,0.311,0.449,0.494,0.77,0.494c0.119,0,0.239-0.025,0.354-0.078
		c0.425-0.193,0.611-0.697,0.417-1.123l-2.071-4.518c-0.194-0.426-0.697-0.611-1.123-0.418c-0.029,0.014-0.055,0.033-0.082,0.049
		c-0.097,0.094-0.192,0.189-0.289,0.283C93.448,106.189,93.421,106.484,93.543,106.75z"/>
	<path fill="#754C29" d="M92.704,124.189c-0.373,0.367-0.744,0.732-1.115,1.1l0.743-0.49
		C92.55,124.656,92.675,124.43,92.704,124.189z"/>
	<path fill="#754C29" d="M84.381,129.031c0.163,0.246,0.433,0.379,0.708,0.379c0.014,0,0.026-0.002,0.039-0.002
		c1.984-1.898,3.919-3.85,5.885-5.768l-6.391,4.215C84.231,128.113,84.123,128.641,84.381,129.031z"/>
	<path fill="#754C29" d="M23.171,127.744l-3.482-0.895c-0.453-0.115-0.915,0.156-1.031,0.609s0.156,0.916,0.61,1.031l3.483,0.895
		c0.07,0.018,0.141,0.027,0.211,0.027c0.377,0,0.721-0.256,0.82-0.637C23.897,128.322,23.624,127.859,23.171,127.744z"/>
	<path fill="#754C29" d="M7.894,26.133c-0.346,0.314-0.371,0.852-0.055,1.197l2.678,2.939c0.448-0.348,0.898-0.691,1.352-1.033
		l-2.777-3.047C8.776,25.844,8.239,25.818,7.894,26.133z"/>
	<path fill="#754C29" d="M13.157,33.168c0.167,0.182,0.396,0.275,0.626,0.275c0.204,0,0.408-0.072,0.571-0.221
		c0.346-0.316,0.37-0.852,0.055-1.197l-1.492-1.637c-0.451,0.344-0.898,0.689-1.344,1.039L13.157,33.168z"/>
	<path fill="#F2E5DF" d="M99.459,116.125c-0.077,0.062-0.154,0.127-0.231,0.189c-1.598,1.287-3.164,2.617-4.695,4.002
		c-1.197,1.084-2.364,2.197-3.52,3.324c-1.966,1.918-3.9,3.869-5.885,5.768c-0.961,0.92-1.934,1.83-2.93,2.715
		c-0.195,0.174-0.396,0.34-0.592,0.512c-0.198,0.172-0.396,0.344-0.596,0.514c-0.096,0.082-0.189,0.166-0.285,0.246h2.342
		c0.633-0.545,1.256-1.098,1.873-1.662c0.18-0.164,0.359-0.33,0.538-0.496c0.177-0.164,0.353-0.328,0.528-0.492
		c1.896-1.781,3.735-3.625,5.582-5.455c0.371-0.367,0.742-0.732,1.115-1.1c0.066-0.066,0.135-0.133,0.202-0.199
		c2.196-2.152,4.472-4.195,6.819-6.137c0.08-0.064,0.16-0.133,0.24-0.199c0.08-0.064,0.158-0.133,0.238-0.199
		c2.727-2.227,5.554-4.312,8.476-6.256c-0.067-0.525-0.146-1.041-0.243-1.541c-3.012,1.945-5.931,4.035-8.746,6.279
		C99.612,116,99.536,116.064,99.459,116.125z"/>
	<path fill="#F2E5DF" d="M27.242,36.951c6.21-3.605,12.45-7.156,18.771-10.568c6.341-3.422,12.743-6.73,19.197-9.932
		c0.511-0.252,1.021-0.506,1.531-0.758c1.141-0.562,2.283-1.123,3.427-1.68c4.246-2.061,8.486-4.125,12.769-6.096
		c0.116-0.055,0.232-0.105,0.349-0.16c0.116-0.053,0.233-0.107,0.351-0.16c2.087-0.955,4.187-1.881,6.302-2.775
		c-0.532-0.262-1.076-0.514-1.631-0.754c-0.541,0.229-1.08,0.459-1.619,0.691c-1.591,0.686-3.173,1.395-4.751,2.115
		c-0.114,0.051-0.229,0.104-0.345,0.156s-0.229,0.104-0.344,0.156c-5.133,2.355-10.205,4.857-15.259,7.377
		c-0.51,0.254-1.019,0.508-1.528,0.762c-0.675,0.34-1.35,0.676-2.024,1.012c-12.886,6.439-25.45,13.428-37.918,20.613
		c-0.163,0.094-0.327,0.188-0.491,0.283c-0.162,0.094-0.325,0.188-0.488,0.281h2.73c0.162-0.094,0.324-0.188,0.486-0.281
		C26.918,37.139,27.08,37.045,27.242,36.951z"/>
	<path fill="#F2E5DF" d="M0.565,95.717c1.538-0.891,3.064-1.797,4.584-2.711c0.539-0.326,1.078-0.652,1.617-0.979
		c1.188-0.721,2.372-1.443,3.551-2.162c7.456-4.551,14.775-9.318,22.182-13.945c7.18-4.484,14.439-8.725,22.168-12.205
		c7.508-3.381,15.303-6.07,23.232-8.27c1.729-0.479,3.477-0.891,5.209-1.352c0.32-0.086,0.639-0.172,0.956-0.262
		c0.491-0.137,0.979-0.277,1.466-0.43c2.1-0.652,4.199-1.307,6.321-1.883c2.388-0.648,4.812-1.219,7.28-1.445
		c0.384-0.037,0.82-0.072,1.268-0.076c0.169-0.002,0.34,0,0.51,0.01c0.148,0.008,0.297,0.021,0.442,0.041
		c0.899,0.119,1.712,0.477,2.057,1.371c0.874,2.262-2.601,5.074-3.979,6.393c-1.132,1.082-2.288,2.125-3.468,3.139
		c-0.09,0.078-0.177,0.158-0.268,0.234c-0.088,0.076-0.178,0.15-0.267,0.225c-1.259,1.066-2.548,2.098-3.879,3.096
		c-3.706,2.777-7.587,5.303-11.516,7.756c-0.981,0.613-1.967,1.221-2.953,1.828c-2.028,1.248-4.06,2.486-6.079,3.742
		c-0.729,0.453-1.452,0.916-2.175,1.381c-0.522,0.334-1.044,0.674-1.563,1.014c-2.388,1.562-4.746,3.166-7.079,4.805
		c-0.133,0.094-0.265,0.189-0.398,0.283c-0.132,0.094-0.265,0.189-0.397,0.283h2.475c0.136-0.096,0.273-0.189,0.41-0.283
		s0.273-0.189,0.41-0.283c1.955-1.342,3.924-2.662,5.908-3.961c0.52-0.34,1.041-0.678,1.562-1.014
		c1.57-1.014,3.147-2.016,4.738-2.996c0.68-0.42,1.361-0.838,2.043-1.258c0.574-0.354,1.148-0.707,1.721-1.062
		c5.691-3.514,11.342-7.096,16.602-11.238c0.091-0.072,0.177-0.146,0.268-0.219c0.092-0.074,0.182-0.15,0.273-0.225
		c0.092-0.072,0.183-0.148,0.273-0.223c2.097-1.705,4.084-3.514,6.014-5.41c1.623-1.594,3.696-3.664,3.602-6.111
		c-0.062-1.635-1.307-2.357-2.92-2.609c-0.105-0.016-0.214-0.031-0.323-0.043c-0.11-0.014-0.221-0.023-0.333-0.031
		c-2.346-0.188-5.191,0.414-6.404,0.65c-4.131,0.809-8.059,2.273-12.111,3.359c-7.663,2.053-15.231,4.172-22.643,7.033
		C53.37,62.6,46.054,66.178,39.046,70.285c-10.98,6.438-21.532,13.572-32.414,20.166c-0.538,0.326-1.077,0.65-1.617,0.975
		c-1.477,0.883-2.959,1.756-4.449,2.613c-0.095,0.055-0.188,0.109-0.283,0.164C0.188,94.258,0.095,94.312,0,94.367v1.672
		c0.095-0.053,0.188-0.107,0.282-0.16C0.377,95.824,0.472,95.77,0.565,95.717z"/>
	<path fill="#F2E5DF" d="M66.118,36.951c2.945-1.73,5.862-3.506,8.742-5.342c0.506-0.322,1.012-0.645,1.516-0.971
		c0.81-0.525,1.617-1.055,2.421-1.59c6.011-4.008,11.792-8.393,17.089-13.311c0.075-0.07,0.15-0.141,0.227-0.211
		c0.073-0.068,0.146-0.139,0.22-0.209c0.652-0.611,1.299-1.23,1.936-1.861c0.44-0.434,0.881-0.873,1.321-1.314
		c-0.352-0.4-0.713-0.789-1.084-1.17c-0.977,1.002-1.971,1.982-2.975,2.951c-0.069,0.066-0.139,0.135-0.208,0.201
		c-0.072,0.07-0.144,0.141-0.216,0.209c-0.128,0.123-0.254,0.248-0.382,0.371c-5.967,5.666-12.642,10.537-19.526,15.023
		c-0.096,0.061-0.191,0.125-0.287,0.188c-0.4,0.258-0.805,0.514-1.207,0.771c-3.377,2.164-6.805,4.244-10.269,6.264
		c-0.163,0.094-0.325,0.188-0.488,0.283c-0.163,0.094-0.325,0.188-0.488,0.281h2.7c0.16-0.094,0.32-0.189,0.479-0.281
		C65.8,37.141,65.958,37.045,66.118,36.951z"/>
	<path fill="#F2E5DF" d="M44.181,96.727c-5.506,4.129-10.965,8.322-16.376,12.574c-5.954,4.68-11.842,9.441-17.669,14.275
		c-0.146,0.121-0.293,0.242-0.438,0.365c-0.981,0.814-1.966,1.627-2.942,2.445c-1.837,1.539-3.697,3.084-5.448,4.732
		c-0.069,0.064-0.141,0.129-0.21,0.195c-0.071,0.068-0.141,0.137-0.211,0.205c0.275,0.484,0.613,0.889,1.016,1.209
		c0.067-0.068,0.136-0.137,0.204-0.203c0.04-0.041,0.079-0.08,0.12-0.121c0.026-0.025,0.055-0.051,0.081-0.078
		c2.483-2.438,5.229-4.645,7.897-6.873c7.098-5.924,14.303-11.723,21.59-17.414c4.867-3.799,9.757-7.59,14.699-11.312
		c0.125-0.094,0.25-0.189,0.375-0.283s0.25-0.188,0.375-0.281H44.94c-0.126,0.094-0.254,0.188-0.38,0.281
		C44.435,96.539,44.308,96.631,44.181,96.727z"/>
	<path fill="#F2E5DF" d="M8.669,33.795c0.953-0.805,1.922-1.594,2.904-2.367c0.445-0.35,0.893-0.695,1.344-1.039
		c2.92-2.23,5.935-4.328,8.955-6.328c0.34-0.225,0.68-0.445,1.02-0.666c0.514-0.334,1.029-0.668,1.547-0.994
		C36.063,15.023,48.584,9.012,59.483,0.564c0.121-0.092,0.24-0.188,0.36-0.281S60.085,0.096,60.204,0h-2.443
		c-0.123,0.096-0.248,0.188-0.372,0.283c-0.124,0.094-0.248,0.188-0.372,0.281c-2.719,2.053-5.504,4-8.376,5.84
		C45.042,8.707,41.356,10.867,37.655,13c-0.278,0.16-0.557,0.32-0.835,0.48c-3.312,1.906-6.631,3.801-9.906,5.768
		c-1.244,0.746-2.491,1.51-3.737,2.287c-0.52,0.324-1.04,0.654-1.56,0.984c-3.307,2.105-6.587,4.334-9.749,6.717
		c-0.453,0.342-0.903,0.686-1.352,1.033c-1.04,0.809-2.065,1.637-3.073,2.482c-0.062,0.051-0.124,0.104-0.186,0.154
		c-0.069,0.057-0.138,0.115-0.207,0.174c0.385,0.375,0.791,0.727,1.219,1.055c0.069-0.059,0.14-0.117,0.21-0.178
		C8.542,33.904,8.606,33.85,8.669,33.795z"/>
	<path fill="#F2E5DF" d="M2.584,19.164c4.411-2.006,8.841-3.969,13.22-6.006c7.785-3.617,15.385-7.619,23.148-11.285
		c0.938-0.441,1.878-0.879,2.821-1.309c0.208-0.094,0.416-0.188,0.624-0.281C42.606,0.188,42.815,0.094,43.024,0h-3.189
		c-0.205,0.094-0.41,0.188-0.614,0.283c-0.2,0.092-0.399,0.189-0.6,0.281c-6.635,3.104-13.142,6.48-19.735,9.668
		c-2.523,1.221-5.068,2.4-7.621,3.568c-0.807,0.369-1.615,0.736-2.426,1.104c-2.087,0.945-4.178,1.887-6.265,2.836
		c-0.095,0.041-0.19,0.086-0.284,0.129c-0.096,0.041-0.19,0.086-0.285,0.129c0,0.031-0.002,0.061-0.002,0.094v0.674
		c0.006,0.219,0.018,0.436,0.026,0.65c0.093-0.041,0.185-0.082,0.277-0.125S2.491,19.207,2.584,19.164z"/>
	<path fill="#F2E5DF" d="M2.897,73.242c1.664-1.113,3.341-2.205,5.029-3.283c0.71-0.453,1.422-0.902,2.137-1.35
		c7.042-4.412,14.261-8.555,21.501-12.576c0.635-0.352,1.269-0.705,1.903-1.057c0.621-0.342,1.243-0.684,1.865-1.023
		c3.248-1.783,6.508-3.545,9.77-5.307c0.175-0.094,0.349-0.189,0.523-0.283c0.174-0.094,0.348-0.188,0.521-0.283H43.36
		c-0.174,0.096-0.348,0.189-0.523,0.283c-0.174,0.094-0.349,0.189-0.523,0.283C37.95,51,33.587,53.355,29.261,55.766
		c-6.114,3.404-12.225,6.904-18.223,10.59c-0.881,0.539-1.758,1.084-2.633,1.633c-1.606,1.008-3.203,2.031-4.789,3.068
		c-0.136,0.09-0.271,0.178-0.406,0.268c-0.123,0.08-0.246,0.16-0.369,0.24c-0.242,0.709-0.469,1.434-0.68,2.172
		c0.117-0.078,0.232-0.156,0.35-0.232C2.64,73.416,2.769,73.328,2.897,73.242z"/>
	<path fill="#F2E5DF" d="M82.104,96.727c-0.891,0.346-1.781,0.691-2.67,1.047c-7.966,3.178-15.783,6.721-23.287,10.885
		c-7.703,4.271-14.938,9.297-22.262,14.176c-0.471,0.314-0.942,0.627-1.414,0.939c-4.986,3.301-10.03,6.508-15.307,9.338
		c-0.178,0.096-0.357,0.189-0.535,0.283c-0.178,0.096-0.355,0.189-0.535,0.283h2.897c0.175-0.094,0.35-0.188,0.524-0.283
		c0.171-0.094,0.342-0.188,0.514-0.283c6.277-3.455,12.279-7.4,18.236-11.377c3.119-2.084,6.227-4.186,9.369-6.23
		c1.578-1.027,3.165-2.037,4.768-3.023c2.498-1.541,5.033-3.021,7.631-4.404c7.645-4.07,15.633-7.465,23.699-10.6
		c0.652-0.254,1.305-0.502,1.959-0.75c0.247-0.096,0.495-0.189,0.743-0.283c0.25-0.094,0.5-0.188,0.751-0.281h-3.612
		c-0.246,0.094-0.493,0.188-0.739,0.281C82.591,96.537,82.348,96.631,82.104,96.727z"/>
	<path fill="#F2E5DF" d="M98.374,98.484c-0.059,0.072-0.117,0.146-0.177,0.219c-1.521,1.85-3.166,3.6-4.853,5.297
		c-4.289,4.316-8.969,8.225-13.415,12.377c-0.16,0.148-0.321,0.295-0.479,0.445c-0.259,0.242-0.518,0.488-0.776,0.734
		c-3.654,3.461-7.267,7.047-10.485,10.91c0,0.002-0.002,0.004-0.003,0.004c-0.765,0.918-1.521,1.877-2.237,2.875
		c-0.414,0.576-0.815,1.164-1.195,1.766c-0.06,0.094-0.118,0.189-0.176,0.283c-0.059,0.094-0.117,0.188-0.174,0.283h2.121
		c0.057-0.096,0.113-0.189,0.172-0.283s0.119-0.188,0.179-0.283c0.719-1.125,1.513-2.207,2.338-3.248
		c0.622-0.783,1.263-1.545,1.903-2.281c0.217-0.248,0.439-0.494,0.659-0.742c2.575-2.898,5.341-5.67,8.167-8.35
		c0.416-0.396,0.836-0.789,1.254-1.182c0.598-0.557,1.195-1.111,1.795-1.664c3.521-3.24,7.148-6.369,10.598-9.688
		c0.097-0.094,0.192-0.189,0.289-0.283c0.996-0.963,1.978-1.941,2.934-2.945c0.872-0.916,1.705-1.861,2.514-2.824
		c0.062-0.074,0.125-0.146,0.187-0.221c0.062-0.076,0.125-0.15,0.187-0.225c0.229-0.275,0.455-0.553,0.68-0.83
		c-0.503-0.246-1.03-0.469-1.578-0.674c-0.082,0.104-0.166,0.205-0.248,0.309C98.493,98.336,98.434,98.41,98.374,98.484z"/>
</g>
</svg>
