<?xml version="1.0" encoding="utf-8"?>
<!-- Generator: Adobe Illustrator 15.1.0, SVG Export Plug-In . SVG Version: 6.00 Build 0)  -->
<!DOCTYPE svg PUBLIC "-//W3C//DTD SVG 1.1//EN" "http://www.w3.org/Graphics/SVG/1.1/DTD/svg11.dtd">
<svg version="1.1" id="Layer_1" xmlns="http://www.w3.org/2000/svg" xmlns:xlink="http://www.w3.org/1999/xlink" x="0px" y="0px"
	 width="104.62px" height="133.111px" viewBox="0 0 104.62 133.111" enable-background="new 0 0 104.62 133.111"
	 xml:space="preserve">
<g>
	<path fill="#DDAC6C" d="M87.812,72.674c2.673,1.725,4.497,5.529,3.983,8.871c-0.282,1.129-2.824,2.822-1.694,3.67
		c2.583,1.723,4.771,4.18,6.395,6.961c0.364-0.266,0.729-0.531,1.097-0.793c1.837-1.311,3.696-2.635,5.61-3.859
		c-1.123-3.967-2.91-7.508-5.372-10.617c-2.214-2.791-4.863-5.039-7.944-6.75c-0.264,0.328-0.529,0.656-0.794,0.982
		C88.672,71.656,88.24,72.164,87.812,72.674z"/>
	<path fill="#DDAC6C" d="M97.066,93.211c1.257,2.42,2.09,5.035,2.398,7.6c1.715-1.5,3.421-3.008,5.102-4.545
		c-0.121-2.672-0.473-5.195-1.055-7.572c-0.01,0.006-0.019,0.012-0.027,0.018C101.312,90.172,99.169,91.662,97.066,93.211z"/>
	<path fill="#DDAC6C" d="M97.727,17.158c-5.648,5.365-1.977,12.426-1.695,19.201c0,7.061-8.471,7.344-11.014,12.145
		c-1.977,4.236-0.564,11.014-7.342,12.426c-2.259,0.564-2.259,4.518-0.847,6.213c0.09,0.135,0.185,0.264,0.28,0.389
		c0.432-0.41,0.863-0.822,1.297-1.229c5.423-5.07,11.24-10.133,18.338-12.652c0.304-0.109,0.826-0.07,0.953,0.281
		c0.285,0.797,0.375,1.611,0.323,2.424c0.011-0.014,0.022-0.025,0.032-0.039c4.376-5.639,6.567-12.91,6.567-21.814
		c0-5.043-0.633-9.684-1.892-13.912c-1.264-4.23-3.229-7.865-5.899-10.908c-2.58-2.936-5.89-5.25-9.923-6.943
		c-0.642,0.67-1.291,1.332-1.949,1.986C91.23,7.287,96.906,10.271,97.727,17.158z"/>
	<path fill="#DDAC6C" d="M8.514,49.746c0.482-0.219,0.988-0.412,1.512-0.588C9.502,49.334,8.995,49.527,8.514,49.746z"/>
	<path fill="#DDAC6C" d="M77.94,68.426c2.29,2.061,5.663,2.334,8.709,3.645c0.038-0.047,0.079-0.092,0.118-0.139
		c0.652-0.789,1.304-1.584,1.951-2.387c-2.684-1.328-5.677-2.271-8.976-2.834c-0.222,0.211-0.443,0.418-0.663,0.627
		C78.698,67.699,78.32,68.062,77.94,68.426z"/>
	<path fill="#DDAC6C" d="M96.23,54.945c-6.138,2.393-11.324,6.918-16.096,11.398c6.549-1.133,11.805-3.672,15.776-7.619
		C96.345,57.49,96.53,56.211,96.23,54.945z"/>
	<path fill="#DDAC6C" d="M72.681,0.02c-0.337-0.01-0.678-0.014-1.021-0.016c-0.001,0-0.002,0.002-0.002,0.002
		C72.001,0.008,72.344,0.01,72.681,0.02z"/>
	<path fill="#DDAC6C" d="M85.65,2.24c-3.264-1.199-7.016-1.912-11.243-2.146c2.815,1.625,6.099,2.854,9.301,4.129
		C84.363,3.568,85.012,2.91,85.65,2.24z"/>
	<path fill="#DDAC6C" d="M4.457,52.584c0.27-0.279,0.551-0.545,0.845-0.797C5.008,52.039,4.727,52.305,4.457,52.584z"/>
	<path fill="#DDAC6C" d="M2.693,54.881c0.266-0.436,0.551-0.85,0.855-1.242C3.244,54.031,2.959,54.445,2.693,54.881z"/>
	<path fill="#DDAC6C" d="M0.192,14.762c-0.009,0.082-0.019,0.16-0.026,0.24l0,0C0.175,14.922,0.184,14.844,0.192,14.762z"/>
	<path fill="#DDAC6C" d="M16.045,96.213c-0.042,0.002-0.084,0.006-0.127,0.008c0.042-0.002,0.083-0.004,0.125-0.008
		C16.044,96.213,16.044,96.213,16.045,96.213z"/>
	<path fill="#DDAC6C" d="M98.52,108.545c-0.049,1.016-0.586,1.902-1.385,2.428c-4.395,5.943-13.066,5.414-18.894,12.648
		c-0.765,0.822-2.083,2.719-3.472,4.617c-0.82,1.572-1.484,3.195-1.988,4.863c5.316-0.104,9.919-0.951,13.809-2.549
		c4.152-1.705,7.568-4.119,10.239-7.234c2.671-3.117,4.636-6.791,5.899-11.02c1.259-4.229,1.892-8.865,1.892-13.912
		c0-0.186-0.007-0.367-0.009-0.551c-1.662,1.49-3.342,2.963-5.027,4.428C99.676,104.492,99.344,106.641,98.52,108.545z"/>
	<path fill="#DDAC6C" d="M70.511,133.111h0.626c0.064-0.223,0.131-0.445,0.203-0.664C71.037,132.736,70.758,132.965,70.511,133.111z
		"/>
	<path fill="#DD809B" d="M62.016,120.797c0.281,0,0.556,0.029,0.824,0.072c5.382-4.328,10.538-8.91,15.668-13.539
		c5.816-5.25,11.66-10.521,17.988-15.154c-1.623-2.781-3.812-5.238-6.395-6.961c-1.13-0.848,1.412-2.541,1.694-3.67
		c0.514-3.342-1.311-7.146-3.983-8.871c-1.209,1.447-2.445,2.869-3.709,4.268c0.338,0.475,0.539,1.057,0.539,1.686
		c0,1.611-1.307,2.918-2.918,2.918c-0.559,0-1.078-0.16-1.521-0.432c-3.12,3.215-6.367,6.309-9.701,9.301
		c-6.312,5.662-12.844,10.939-19.893,15.658c-0.268,0.18-0.535,0.357-0.803,0.535c0.831,0.621,1.371,1.611,1.371,2.73
		c0,1.883-1.527,3.41-3.412,3.41c-1.613,0-2.961-1.121-3.316-2.625c-4.434,2.895-8.851,5.812-13.021,9.076
		c-0.735,0.574-1.469,1.16-2.191,1.762c0.155,0.32,0.244,0.68,0.244,1.061c0,1.352-1.096,2.447-2.447,2.447
		c-0.452,0-0.875-0.125-1.238-0.34c-0.465,0.488-0.917,0.986-1.345,1.506c-1.663,2.027-3.401,4.738-2.951,7.477h22.515
		c4.59-2.006,8.856-4.717,12.908-7.678C57.165,122.834,59.352,120.797,62.016,120.797z M85.965,90.475
		c1.459,0,2.642,1.182,2.642,2.641s-1.183,2.641-2.642,2.641c-1.458,0-2.641-1.182-2.641-2.641S84.507,90.475,85.965,90.475z
		 M72.957,95.879c2.072,0,3.752,1.68,3.752,3.752s-1.68,3.752-3.752,3.752s-3.752-1.68-3.752-3.752S70.885,95.879,72.957,95.879z
		 M63.172,110.207c0.932,0,1.688,0.756,1.688,1.688s-0.756,1.686-1.688,1.686s-1.686-0.754-1.686-1.686
		S62.24,110.207,63.172,110.207z M36.07,116.656c0-0.908,0.736-1.646,1.645-1.646s1.645,0.738,1.645,1.646s-0.736,1.645-1.645,1.645
		S36.07,117.564,36.07,116.656z M41.954,131.17c-2.157,0-3.906-1.75-3.906-3.906c0-2.158,1.749-3.906,3.906-3.906
		s3.905,1.748,3.905,3.906C45.859,129.42,44.111,131.17,41.954,131.17z"/>
	<path fill="#DD809B" d="M52.465,16.818c0.416-1.592,1.662-2.844,3.252-3.266c1.465-1.469,2.932-2.934,4.404-4.393
		c3.164-3.133,6.393-6.211,9.732-9.16H51.738H38.164c-0.161,0.385-0.332,0.738-0.504,1.043c-1.177,2.09-2.66,3.963-4.278,5.734
		c-0.216,1.135-1.089,2.037-2.21,2.295c-2.27,2.258-4.654,4.42-6.771,6.744c-3.589,3.938-7.049,8.002-10.272,12.244
		c0.28-0.109,0.585-0.172,0.903-0.172c1.379,0,2.495,1.117,2.495,2.494c0,1.379-1.116,2.496-2.495,2.496
		c-1.377,0-2.494-1.117-2.494-2.496c0-0.066,0.005-0.135,0.01-0.201c-1.279,1.75-2.518,3.531-3.705,5.348
		c2.259,0.947,4.949,1.422,8.075,1.422h7.236h8.06C39.073,30.352,45.754,23.57,52.465,16.818z M45.859,7.314
		c0.832,0,1.507,0.674,1.507,1.506s-0.675,1.506-1.507,1.506s-1.506-0.674-1.506-1.506S45.027,7.314,45.859,7.314z M34.281,26.006
		c-2.079,0-3.765-1.686-3.765-3.766s1.686-3.766,3.765-3.766c2.08,0,3.767,1.686,3.767,3.766S36.361,26.006,34.281,26.006z"/>
	<path fill="#DD809B" d="M74.282,126.209c2.319-3.631,5.196-6.943,8.26-10.053c-0.31,0.225-0.688,0.357-1.101,0.357
		c-1.039,0-1.882-0.842-1.882-1.883c0-1.039,0.843-1.883,1.882-1.883c1.04,0,1.883,0.844,1.883,1.883
		c0,0.408-0.131,0.785-0.352,1.094c1.742-1.746,3.537-3.432,5.32-5.07c1.684-1.549,3.396-3.064,5.117-4.572
		c0.031-0.025,0.061-0.055,0.092-0.08c1.983-1.734,3.978-3.457,5.963-5.191c-0.309-2.564-1.142-5.18-2.398-7.6
		c-1.481,1.092-2.943,2.211-4.377,3.371c-7.425,6.012-14.307,12.645-21.521,18.898c-2.271,1.969-4.574,3.93-6.926,5.832
		c1.709,0.828,2.892,2.576,2.892,4.604c0,2.826-2.292,5.117-5.118,5.117c-2.517,0-4.604-1.818-5.033-4.211
		c-1.281,0.9-2.582,1.773-3.902,2.609c-2.105,1.332-4.291,2.58-6.547,3.68h11.614h12.363c0.247-0.146,0.526-0.375,0.829-0.664
		C72.044,130.279,73.02,128.188,74.282,126.209z"/>
	<path fill="#DD809B" d="M64.571,79.521c-1.728-0.146-3.085-1.592-3.085-3.359c0-1.861,1.51-3.371,3.373-3.371
		c1.845,0,3.342,1.48,3.369,3.318c2.978-2.842,5.898-5.746,8.881-8.578c-0.096-0.125-0.19-0.254-0.28-0.389
		c-1.412-1.695-1.412-5.648,0.847-6.213c6.777-1.412,5.365-8.189,7.342-12.426c2.543-4.801,11.014-5.084,11.014-12.145
		c-0.281-6.775-3.953-13.836,1.695-19.201c-0.82-6.887-6.496-9.871-12.77-12.434c-1.075,1.066-2.165,2.117-3.262,3.154
		c-9.319,8.816-18.838,17.373-28.508,25.809c-1.245,1.084-2.488,2.172-3.73,3.264h8.863c3.852,0,6.182,1.154,7.004,3.447
		c1.531-1.758,3.091-3.49,4.693-5.184c0.296-0.312,0.595-0.625,0.894-0.938c-1-0.404-1.706-1.385-1.706-2.529
		c0-1.508,1.223-2.73,2.729-2.73c1.145,0,2.122,0.705,2.528,1.703c1.83-1.738,3.742-3.389,5.793-4.836
		c1.033-0.729,2.242-1.541,3.529-2.158c-1.741-0.191-3.097-1.666-3.097-3.459c0-1.924,1.56-3.482,3.483-3.482
		s3.482,1.559,3.482,3.482c0,1.014-0.436,1.924-1.127,2.559c0.761-0.117,1.525-0.111,2.276,0.068
		c1.963,0.469,2.804,2.059,2.362,3.971c-0.608,2.633-2.299,5.023-3.874,7.162c-2.426,3.299-5.126,6.387-7.897,9.396
		c-3.775,4.098-7.69,8.064-11.652,11.982c0.306,0.383,0.49,0.869,0.49,1.396c0,1.24-1.005,2.244-2.244,2.244
		c-0.542,0-1.039-0.193-1.427-0.512c-1.878,1.838-3.761,3.67-5.642,5.504c-1.949,1.902-3.9,3.803-5.829,5.727
		c1.217,0.09,2.177,1.104,2.177,2.342c0,1.299-1.053,2.35-2.351,2.35c-1.23,0-2.239-0.945-2.341-2.15
		c-0.085,0.088-0.173,0.176-0.258,0.264c-1.664,1.713-3.555,3.465-4.823,5.51c-0.776,1.252-2.306,4.281-2.761,6.951h15.102
		c1.904-1.332,3.712-2.811,5.446-4.346C63.716,80.301,64.143,79.912,64.571,79.521z M86.324,37.232c1.656,0,3,1.342,3,3
		s-1.344,3-3,3s-3-1.342-3-3S84.668,37.232,86.324,37.232z"/>
	<path fill="#DD809B" d="M20.004,63.873c4.789-5.564,9.98-10.77,15.332-15.793H21.912c-3.417,3.021-6.867,6.008-10.31,9.008
		c-3.714,3.236-7.507,6.494-11.6,9.277H0.002C0.002,66.43,0,66.492,0,66.555c0,8.125,2.551,13.566,7.648,16.334
		c0.244-0.551,0.515-1.078,0.761-1.555C11.633,75.09,15.413,69.207,20.004,63.873z M21.027,53.549c1.259,0,2.279,1.021,2.279,2.279
		s-1.021,2.277-2.279,2.277c-1.258,0-2.277-1.02-2.277-2.277S19.77,53.549,21.027,53.549z M12.537,64.129
		c1.872,0,3.389,1.518,3.389,3.391c0,1.871-1.517,3.387-3.389,3.387c-1.871,0-3.389-1.516-3.389-3.387
		C9.148,65.646,10.666,64.129,12.537,64.129z"/>
	<path fill="#DD809B" d="M98.527,108.396c0,0.051-0.006,0.1-0.008,0.148c0.824-1.904,1.156-4.053,1.064-6.281
		c-1.189,1.035-2.381,2.068-3.568,3.104C97.445,105.635,98.527,106.889,98.527,108.396z"/>
	<path fill="#DD809B" d="M16.043,96.213c-0.042,0.004-0.083,0.006-0.125,0.008c-0.104,0.004-0.209,0.01-0.311,0.016
		c-0.023,0.002-0.045,0.004-0.067,0.006c-0.032,0.004-0.065,0.006-0.099,0.01c-0.018,0-0.033,0.002-0.049,0.004
		c-0.283,0.021-0.564,0.047-0.84,0.076c-0.033,0.004-0.065,0.01-0.1,0.014c-0.041,0.004-0.08,0.01-0.12,0.016
		c-0.055,0.006-0.107,0.014-0.161,0.021c-0.215,0.025-0.43,0.053-0.639,0.084c-0.014,0.002-0.027,0.004-0.041,0.008
		c-0.055,0.008-0.105,0.02-0.16,0.027c-0.189,0.031-0.373,0.068-0.559,0.104c-0.171,0.031-0.345,0.061-0.512,0.098
		c-0.35,0.074-0.692,0.154-1.027,0.244c-0.063,0.018-0.129,0.033-0.191,0.051c-0.188,0.053-0.371,0.109-0.553,0.168
		c-0.082,0.025-0.164,0.051-0.244,0.078c-0.174,0.057-0.346,0.117-0.515,0.178c-0.083,0.031-0.167,0.062-0.25,0.094
		c-0.165,0.064-0.329,0.129-0.489,0.197c-0.081,0.035-0.158,0.07-0.237,0.104c-0.161,0.072-0.322,0.145-0.479,0.221
		c-0.066,0.031-0.132,0.066-0.197,0.1c-0.556,0.279-1.084,0.588-1.582,0.928c-0.043,0.029-0.088,0.057-0.132,0.088
		c-0.132,0.092-0.26,0.189-0.388,0.285c-0.073,0.055-0.146,0.109-0.219,0.166c-0.117,0.092-0.232,0.189-0.348,0.285
		c-0.076,0.064-0.152,0.131-0.229,0.197c-0.108,0.096-0.215,0.193-0.32,0.295c-0.076,0.072-0.15,0.145-0.225,0.219
		c-0.102,0.1-0.201,0.201-0.3,0.307c-0.073,0.078-0.144,0.158-0.216,0.238c-0.094,0.105-0.188,0.211-0.279,0.318
		c-0.07,0.086-0.138,0.174-0.207,0.26c-0.087,0.109-0.176,0.219-0.26,0.332c-0.08,0.107-0.155,0.219-0.232,0.328
		c-0.132,0.189-0.26,0.385-0.384,0.582c-0.068,0.109-0.138,0.217-0.203,0.33c-0.066,0.111-0.129,0.227-0.192,0.342
		c-0.062,0.117-0.127,0.232-0.188,0.35c-0.06,0.117-0.118,0.234-0.175,0.354c-0.061,0.123-0.119,0.248-0.177,0.375
		c-0.054,0.117-0.106,0.238-0.157,0.357c-0.057,0.135-0.111,0.27-0.165,0.404c-0.047,0.121-0.094,0.24-0.14,0.363
		c-0.054,0.146-0.105,0.299-0.156,0.449c-0.039,0.115-0.079,0.229-0.117,0.346c-0.059,0.189-0.114,0.383-0.17,0.576
		c-0.023,0.084-0.049,0.166-0.072,0.252c-0.039,0.143-0.072,0.289-0.107,0.434h0.001C5.55,103.574,10.586,99.518,16.043,96.213z"/>
	<path fill="#DD809B" d="M33.332,74.748c3.974-3.604,7.816-7.352,11.566-11.193c-0.568,0.361-1.241,0.574-1.965,0.574
		c-2.022,0-3.663-1.639-3.663-3.662s1.641-3.664,3.663-3.664c2.023,0,3.664,1.641,3.664,3.664c0,0.684-0.19,1.32-0.518,1.867
		c1.714-1.771,3.41-3.561,5.088-5.365c2.687-2.889,5.2-5.875,7.708-8.902c-0.185,0.006-0.364,0.014-0.556,0.014H42.977h-5.862
		c-1.192,1.117-2.381,2.242-3.556,3.379c-6.025,5.834-12.064,11.924-16.922,18.791c-2.052,2.9-3.685,5.994-5.479,9.047
		c-0.705,1.197-1.396,2.422-1.923,3.713c-0.065,0.16-0.14,0.34-0.217,0.531c2.384,0.992,5.238,1.49,8.566,1.49h0.185h2.684
		c0.814-0.539,1.608-1.1,2.382-1.656C26.513,80.729,29.977,77.791,33.332,74.748z M32.399,70.906c1.04,0,1.882,0.844,1.882,1.885
		c0,1.039-0.842,1.883-1.882,1.883s-1.883-0.844-1.883-1.883C30.517,71.75,31.359,70.906,32.399,70.906z"/>
	<path fill="#DD809B" d="M51.25,69.861c4.162-4.162,8.399-8.248,12.604-12.367c-0.069-0.219-0.108-0.451-0.108-0.691
		c0-1.238,1.005-2.244,2.243-2.244c0.253,0,0.496,0.045,0.723,0.123c1.462-1.447,2.919-2.9,4.362-4.365
		c3.304-3.354,6.568-6.75,9.671-10.289c2.459-2.807,4.915-5.693,6.87-8.881c0.938-1.527,2.574-4.01,1.897-5.92
		c-0.854-2.41-4.252-1.051-5.745-0.246c-3.421,1.846-6.396,4.572-9.157,7.314c-0.215,1.057-1.041,1.891-2.094,2.119
		c-2.372,2.449-4.65,4.99-6.872,7.576c0.012,0.172,0.022,0.346,0.022,0.525c0,3.049-1.657,4.842-4.964,5.385
		c-2.26,2.75-4.519,5.496-6.936,8.117C48.367,61.875,42.81,67.6,36.98,73.033c-3.359,3.131-6.805,6.188-10.436,9.004
		c-1.322,1.023-2.672,2.041-4.066,2.994h18.697C42.035,78.73,46.956,74.152,51.25,69.861z"/>
	<path fill="#DD809B" d="M83.708,4.223c-3.202-1.275-6.485-2.504-9.301-4.129c-0.004-0.004-0.009-0.006-0.013-0.008
		c-0.46-0.025-0.929-0.043-1.4-0.059c-0.104-0.002-0.209-0.006-0.313-0.008c-0.337-0.01-0.68-0.012-1.022-0.014
		c-1.072,0.936-2.133,1.883-3.181,2.848c-3.728,3.428-7.313,7-10.872,10.6c2.197,0.34,3.881,2.234,3.881,4.527
		c0,2.535-2.055,4.588-4.588,4.588c-2.271,0-4.152-1.652-4.52-3.818c-0.738,0.746-1.477,1.492-2.219,2.234
		c-5.348,5.359-10.698,10.721-16.159,15.967h9.935h3.682C57,28.645,66.519,20.496,75.64,11.893C78.336,9.35,81.08,6.84,83.708,4.223
		z M70.146,9.811c-1.664,0-3.013-1.348-3.013-3.012s1.349-3.014,3.013-3.014c1.663,0,3.012,1.35,3.012,3.014
		S71.81,9.811,70.146,9.811z"/>
	<path fill="#DD809B" d="M7.721,58.877c4.177-3.568,8.356-7.148,12.467-10.797h-2.825c-0.293,0-0.581,0.006-0.866,0.016
		c-0.051,0-0.103,0-0.152,0.002c-0.142,0.004-0.279,0.014-0.42,0.02c-0.065,0.004-0.131,0.008-0.195,0.012
		c-0.121,0.004-0.243,0.01-0.361,0.018c-0.002,0-0.003,0-0.005,0c-0.179,0.014-0.354,0.029-0.531,0.045
		c-0.022,0.002-0.046,0.004-0.068,0.006c-0.072,0.006-0.145,0.014-0.217,0.02c-0.038,0.004-0.077,0.008-0.115,0.01
		c-0.2,0.021-0.396,0.045-0.593,0.072c-0.003,0-0.007,0-0.01,0c-0.087,0.012-0.175,0.023-0.262,0.035
		c-0.01,0.002-0.021,0.002-0.033,0.004c-0.219,0.031-0.435,0.066-0.648,0.102c-0.015,0.004-0.028,0.006-0.043,0.008
		c-0.056,0.01-0.111,0.02-0.167,0.029c-0.001,0-0.003,0-0.003,0c-0.23,0.043-0.457,0.088-0.682,0.137
		c-0.035,0.008-0.069,0.016-0.104,0.023c-0.012,0.002-0.022,0.004-0.033,0.006c-0.005,0.002-0.01,0.004-0.016,0.004
		c-0.235,0.053-0.467,0.109-0.695,0.17c-0.018,0.006-0.035,0.01-0.053,0.016c-0.008,0.002-0.014,0.002-0.02,0.004h-0.002
		c-0.248,0.068-0.491,0.139-0.73,0.213c0,0-0.002,0-0.002,0.002c-0.002,0-0.002,0-0.003,0l0,0h-0.001
		c-0.104,0.033-0.203,0.072-0.307,0.107c-0.523,0.176-1.029,0.369-1.512,0.588c-0.014,0.008-0.027,0.012-0.04,0.02
		c-0.183,0.082-0.362,0.17-0.538,0.26c-0.021,0.01-0.041,0.021-0.062,0.033c-0.542,0.279-1.057,0.588-1.542,0.928
		C6.32,50.994,6.311,51,6.301,51.008c-0.147,0.104-0.291,0.211-0.435,0.318c-0.036,0.029-0.073,0.057-0.108,0.086
		c-0.139,0.109-0.276,0.219-0.41,0.334c-0.016,0.012-0.031,0.027-0.046,0.041c-0.294,0.252-0.575,0.518-0.845,0.797
		c-0.003,0.002-0.005,0.004-0.007,0.006c-0.112,0.117-0.222,0.238-0.331,0.359c-0.046,0.053-0.092,0.104-0.137,0.156
		c-0.102,0.117-0.2,0.234-0.297,0.357c-0.047,0.057-0.092,0.117-0.137,0.176c-0.305,0.393-0.59,0.807-0.855,1.242
		c-0.052,0.084-0.104,0.168-0.153,0.254c-0.069,0.119-0.137,0.24-0.204,0.361c-0.053,0.1-0.104,0.197-0.155,0.297
		c-0.062,0.119-0.123,0.238-0.182,0.359c-0.063,0.129-0.122,0.264-0.183,0.396C1.738,56.723,1.663,56.9,1.59,57.078
		c-0.057,0.139-0.112,0.277-0.166,0.42c-0.043,0.113-0.084,0.23-0.125,0.348c-0.05,0.141-0.098,0.279-0.144,0.422
		c-0.038,0.115-0.075,0.229-0.11,0.346c-0.053,0.172-0.103,0.348-0.15,0.523c-0.025,0.09-0.051,0.176-0.074,0.268
		c-0.068,0.258-0.13,0.52-0.189,0.787c-0.022,0.102-0.043,0.205-0.063,0.307c-0.039,0.188-0.076,0.375-0.11,0.564
		c-0.02,0.111-0.039,0.223-0.059,0.334c-0.034,0.207-0.066,0.414-0.096,0.625c-0.014,0.092-0.027,0.184-0.04,0.275
		c-0.039,0.301-0.074,0.605-0.105,0.914c-0.007,0.072-0.013,0.148-0.019,0.221c-0.023,0.248-0.043,0.496-0.061,0.75
		c-0.007,0.107-0.013,0.217-0.019,0.326c-0.009,0.152-0.018,0.305-0.024,0.459c0.001-0.002,0.002-0.002,0.003-0.002
		C2.707,63.072,5.249,60.988,7.721,58.877z"/>
	<path fill="#DD809B" d="M79.301,80.252c-0.312-0.465-0.494-1.023-0.494-1.625c0-1.613,1.307-2.918,2.918-2.918
		c0.527,0,1.02,0.143,1.447,0.385c1.184-1.318,2.347-2.656,3.478-4.023c-3.046-1.311-6.419-1.584-8.709-3.645
		c-4.208,4.031-8.31,8.193-12.653,12.074c-1.75,1.564-3.592,3.148-5.538,4.596c3.94,0.342,5.917,2.176,5.917,5.5
		c0,1.352-0.33,2.455-0.979,3.314c1.374-1.164,2.737-2.344,4.085-3.553C72.391,87.109,75.921,83.752,79.301,80.252z"/>
	<path fill="#DD809B" d="M8.551,8.832C8.008,8.51,7.643,7.918,7.643,7.24c0-1.021,0.828-1.85,1.85-1.85
		c0.877,0,1.611,0.613,1.8,1.434c3.163-2.307,6.343-4.592,9.56-6.824h-4.157c-0.303,0-0.601,0.006-0.896,0.016
		c-0.305,0.01-0.604,0.025-0.9,0.043c-0.027,0.002-0.055,0.004-0.082,0.006c-0.278,0.018-0.551,0.043-0.82,0.07
		c-0.043,0.004-0.088,0.008-0.132,0.014c-0.255,0.027-0.505,0.059-0.753,0.094c-0.056,0.01-0.113,0.016-0.168,0.023
		c-0.236,0.035-0.467,0.076-0.696,0.119c-0.064,0.012-0.13,0.023-0.193,0.035c-0.22,0.043-0.435,0.092-0.648,0.141
		c-0.069,0.016-0.141,0.031-0.21,0.049C10.99,0.66,10.789,0.715,10.59,0.77c-0.074,0.023-0.148,0.041-0.221,0.064
		c-0.193,0.057-0.381,0.117-0.568,0.182C9.726,1.041,9.648,1.066,9.574,1.092C9.394,1.156,9.217,1.225,9.042,1.295
		C8.965,1.324,8.887,1.355,8.811,1.387c-0.17,0.07-0.335,0.145-0.499,0.221C8.233,1.643,8.154,1.68,8.078,1.717
		C7.92,1.793,7.765,1.873,7.611,1.955C7.533,1.998,7.454,2.039,7.377,2.082C7.229,2.164,7.084,2.25,6.939,2.338
		C6.862,2.387,6.785,2.434,6.708,2.48C6.569,2.57,6.434,2.662,6.299,2.756C6.223,2.809,6.146,2.863,6.071,2.918
		c-0.13,0.094-0.258,0.191-0.384,0.291c-0.074,0.059-0.148,0.119-0.222,0.18c-0.121,0.1-0.241,0.203-0.358,0.307
		C5.035,3.762,4.963,3.828,4.892,3.895C4.779,4,4.668,4.109,4.56,4.219c-0.071,0.07-0.142,0.145-0.21,0.219
		C4.244,4.547,4.141,4.66,4.041,4.775C3.973,4.854,3.904,4.934,3.839,5.014C3.742,5.129,3.646,5.248,3.553,5.367
		c-0.065,0.086-0.129,0.172-0.193,0.26C3.271,5.748,3.183,5.869,3.097,5.996C3.034,6.088,2.973,6.182,2.912,6.275
		C2.831,6.4,2.75,6.527,2.672,6.658c-0.061,0.1-0.117,0.199-0.175,0.301C2.422,7.09,2.349,7.221,2.277,7.355
		C2.222,7.461,2.167,7.57,2.113,7.68c-0.067,0.135-0.135,0.27-0.198,0.408c-0.053,0.113-0.103,0.23-0.153,0.348
		c-0.061,0.139-0.121,0.279-0.178,0.42c-0.05,0.123-0.096,0.246-0.143,0.373c-0.054,0.143-0.107,0.283-0.158,0.43
		c-0.045,0.131-0.087,0.264-0.13,0.398c-0.047,0.146-0.095,0.291-0.139,0.439c-0.041,0.141-0.079,0.283-0.117,0.424
		c-0.04,0.15-0.082,0.299-0.12,0.451c-0.037,0.146-0.07,0.299-0.104,0.449c-0.035,0.152-0.07,0.305-0.103,0.459
		c-0.032,0.158-0.061,0.32-0.091,0.482c-0.027,0.154-0.058,0.305-0.084,0.461c-0.027,0.17-0.051,0.346-0.076,0.52
		c-0.021,0.152-0.046,0.305-0.066,0.461c-0.023,0.184-0.042,0.373-0.062,0.559c-0.009,0.082-0.018,0.16-0.026,0.24
		C2.965,12.949,5.755,10.885,8.551,8.832z"/>
	<path fill="#DD809B" d="M24.877,123.178c-0.186-0.344-0.291-0.738-0.291-1.156c0-1.352,1.096-2.447,2.447-2.447
		c0.543,0,1.042,0.178,1.447,0.477c0.367-0.295,0.728-0.582,1.074-0.855c4.735-3.758,9.789-7.055,14.84-10.361
		c0.244-1.646,1.658-2.91,3.371-2.91c0.299,0,0.586,0.043,0.862,0.115c5.054-3.381,9.876-6.99,14.53-10.848
		c-1.19,0.643-2.799,0.969-4.838,0.969H45.556H26.257c-1.087,1.49-2.496,2.83-3.428,3.762c-1.755,1.75-3.626,3.359-5.517,4.947
		c0.137,0.309,0.214,0.648,0.214,1.008c0,1.379-1.116,2.494-2.495,2.494c-0.508,0-0.982-0.152-1.377-0.414
		c-4.605,3.967-8.936,8.377-13.057,12.855c1.762,8.199,7.422,12.299,16.987,12.299h2.222c-0.01-0.131-0.018-0.264-0.019-0.398
		C19.74,129.064,22.109,125.855,24.877,123.178z M31.316,102.348c1.638,0,2.965,1.328,2.965,2.965c0,1.639-1.327,2.965-2.965,2.965
		s-2.965-1.326-2.965-2.965C28.352,103.676,29.679,102.348,31.316,102.348z M14.09,128.885c-1.897,0-3.436-1.537-3.436-3.436
		c0-1.896,1.538-3.436,3.436-3.436c1.898,0,3.437,1.539,3.437,3.436C17.526,127.348,15.988,128.885,14.09,128.885z"/>
	<path fill="#DD809B" d="M12.178,107.887c0.252-0.221,0.506-0.439,0.76-0.656c-0.252-0.391-0.4-0.854-0.4-1.354
		c0-1.377,1.117-2.494,2.494-2.494c0.655,0,1.248,0.254,1.693,0.666c1.319-1.107,2.623-2.232,3.867-3.432
		c1.429-1.375,2.861-2.822,4.006-4.457h-6.633c-4.413,2.629-8.536,5.777-12.443,9.072c-1.75,1.479-3.465,2.994-5.158,4.533
		c-0.001,0.002-0.002,0.002-0.002,0.004c-0.021,0.125-0.039,0.248-0.058,0.375c-0.019,0.131-0.036,0.262-0.054,0.395
		c-0.023,0.191-0.047,0.383-0.067,0.578c-0.015,0.133-0.028,0.268-0.041,0.404c-0.02,0.201-0.035,0.406-0.05,0.613
		c-0.01,0.131-0.021,0.262-0.028,0.395c-0.015,0.23-0.024,0.463-0.033,0.697c-0.005,0.113-0.011,0.225-0.015,0.342
		C0.006,113.918,0,114.273,0,114.635c0,1.693,0.115,3.266,0.336,4.727C4.107,115.338,8.063,111.5,12.178,107.887z"/>
	<path fill="#DD809B" d="M27.437,10.895c0.671-0.648,1.346-1.295,2.015-1.949c-1.084-0.426-1.853-1.48-1.853-2.715
		c0-1.611,1.306-2.918,2.918-2.918c1.183,0,2.198,0.703,2.657,1.717c0.363-0.428,0.721-0.859,1.062-1.303
		C35.084,2.623,35.957,1.355,36.591,0H22.889c-6.211,4.396-12.41,8.791-18.531,13.314c-1.433,1.059-2.867,2.115-4.303,3.17H0.054
		c-0.009,0.166-0.015,0.334-0.022,0.504c-0.004,0.121-0.012,0.24-0.016,0.365C0.006,17.721,0,18.096,0,18.475
		c0,8.262,2.539,13.746,7.609,16.467c3.768-5.67,7.955-11.053,12.443-16.172C22.428,16.062,24.844,13.395,27.437,10.895z
		 M15.926,19.865c-1.56,0-2.824-1.264-2.824-2.822c0-1.561,1.265-2.824,2.824-2.824s2.824,1.264,2.824,2.824
		C18.75,18.602,17.485,19.865,15.926,19.865z"/>
	<path fill="#DD809B" d="M97.135,110.973c-0.486,0.318-1.066,0.506-1.69,0.506c-1.64,0-2.976-1.279-3.073-2.895
		c-0.293,0.262-0.587,0.521-0.879,0.783c-5.324,4.805-10.907,9.906-14.945,15.881c-0.658,0.975-1.249,1.973-1.777,2.99
		c1.389-1.898,2.707-3.795,3.472-4.617C84.068,116.387,92.74,116.916,97.135,110.973z"/>
	<circle fill="#754C29" cx="15.926" cy="17.042" r="2.823"/>
	<path fill="#754C29" d="M30.517,3.312c-1.612,0-2.918,1.307-2.918,2.918c0,1.234,0.769,2.289,1.853,2.715
		c1.291-1.26,2.555-2.547,3.723-3.916C32.715,4.016,31.699,3.312,30.517,3.312z"/>
	<path fill="#754C29" d="M33.382,6.777c-0.715,0.781-1.455,1.543-2.21,2.295C32.293,8.814,33.166,7.912,33.382,6.777z"/>
	<circle fill="#754C29" cx="34.281" cy="22.24" r="3.766"/>
	<path fill="#754C29" d="M52.465,16.818c1.082-1.09,2.166-2.18,3.252-3.266C54.127,13.975,52.881,15.227,52.465,16.818z"/>
	<path fill="#754C29" d="M56.898,22.568c2.533,0,4.588-2.053,4.588-4.588c0-2.293-1.684-4.188-3.881-4.527
		c-1.744,1.764-3.482,3.533-5.227,5.297C52.746,20.916,54.627,22.568,56.898,22.568z"/>
	<circle fill="#754C29" cx="70.146" cy="6.798" r="3.013"/>
	<circle fill="#754C29" cx="45.859" cy="8.82" r="1.506"/>
	<path fill="#754C29" d="M74.463,30.721c-0.406-0.998-1.384-1.703-2.528-1.703c-1.507,0-2.729,1.223-2.729,2.73
		c0,1.145,0.706,2.125,1.706,2.529C72.066,33.072,73.246,31.877,74.463,30.721z"/>
	<path fill="#754C29" d="M74.609,32.295c-0.318,0.316-0.635,0.633-0.949,0.949c-0.384,0.387-0.766,0.777-1.145,1.17
		C73.568,34.186,74.395,33.352,74.609,32.295z"/>
	<path fill="#754C29" d="M87.654,20.268c0-1.924-1.559-3.482-3.482-3.482s-3.483,1.559-3.483,3.482c0,1.793,1.355,3.268,3.097,3.459
		c0.887-0.422,1.811-0.754,2.742-0.9C87.219,22.191,87.654,21.281,87.654,20.268z"/>
	<circle fill="#754C29" cx="86.324" cy="40.232" r="3"/>
	<path fill="#754C29" d="M65.988,59.047c1.239,0,2.244-1.004,2.244-2.244c0-0.527-0.185-1.014-0.49-1.396
		c-1.059,1.045-2.118,2.088-3.181,3.129C64.949,58.854,65.446,59.047,65.988,59.047z"/>
	<path fill="#754C29" d="M63.745,56.803c0,0.24,0.039,0.473,0.108,0.691c0.955-0.936,1.907-1.873,2.857-2.812
		c-0.227-0.078-0.47-0.123-0.723-0.123C64.75,54.559,63.745,55.564,63.745,56.803z"/>
	<path fill="#754C29" d="M42.934,56.803c-2.022,0-3.663,1.641-3.663,3.664s1.641,3.662,3.663,3.662c0.724,0,1.396-0.213,1.965-0.574
		c0.396-0.406,0.789-0.812,1.182-1.221c0.327-0.547,0.518-1.184,0.518-1.867C46.598,58.443,44.957,56.803,42.934,56.803z"/>
	<circle fill="#754C29" cx="21.027" cy="55.827" r="2.278"/>
	<circle fill="#754C29" cx="12.537" cy="67.518" r="3.389"/>
	<circle fill="#754C29" cx="32.399" cy="72.79" r="1.884"/>
	<path fill="#754C29" d="M64.859,72.791c-1.863,0-3.373,1.51-3.373,3.371c0,1.768,1.357,3.213,3.085,3.359
		c1.233-1.121,2.452-2.258,3.657-3.412C68.201,74.271,66.704,72.791,64.859,72.791z"/>
	<path fill="#754C29" d="M52.917,74.457c1.298,0,2.351-1.051,2.351-2.35c0-1.238-0.96-2.252-2.177-2.342
		c-0.844,0.842-1.683,1.688-2.515,2.541C50.678,73.512,51.687,74.457,52.917,74.457z"/>
	<path fill="#754C29" d="M78.807,78.627c0,0.602,0.182,1.16,0.494,1.625c1.314-1.363,2.607-2.748,3.871-4.158
		c-0.428-0.242-0.92-0.385-1.447-0.385C80.113,75.709,78.807,77.014,78.807,78.627z"/>
	<path fill="#754C29" d="M84.643,78.627c0-0.629-0.201-1.211-0.539-1.686c-1.277,1.412-2.575,2.805-3.9,4.172
		c0.443,0.271,0.963,0.432,1.521,0.432C83.336,81.545,84.643,80.238,84.643,78.627z"/>
	<circle fill="#754C29" cx="85.965" cy="93.115" r="2.641"/>
	<circle fill="#754C29" cx="72.957" cy="99.631" r="3.752"/>
	<path fill="#754C29" d="M47.766,112.748c1.885,0,3.412-1.527,3.412-3.41c0-1.119-0.54-2.109-1.371-2.73
		c-1.778,1.182-3.569,2.348-5.357,3.516C44.805,111.627,46.152,112.748,47.766,112.748z"/>
	<path fill="#754C29" d="M44.395,108.834c1.286-0.844,2.572-1.686,3.853-2.537c0.128-0.086,0.253-0.174,0.381-0.258
		c-0.276-0.072-0.563-0.115-0.862-0.115C46.053,105.924,44.639,107.188,44.395,108.834z"/>
	<path fill="#754C29" d="M13.654,107.957c0.395,0.262,0.869,0.414,1.377,0.414c1.379,0,2.495-1.115,2.495-2.494
		c0-0.359-0.077-0.699-0.214-1.008c-1.16,0.977-2.328,1.943-3.48,2.932C13.772,107.852,13.715,107.906,13.654,107.957z"/>
	<path fill="#754C29" d="M12.537,105.877c0,0.5,0.148,0.963,0.4,1.354c1.252-1.074,2.525-2.121,3.787-3.182
		c-0.445-0.412-1.038-0.666-1.693-0.666C13.654,103.383,12.537,104.5,12.537,105.877z"/>
	<circle fill="#754C29" cx="31.316" cy="105.312" r="2.965"/>
	<circle fill="#754C29" cx="14.09" cy="125.449" r="3.436"/>
	<path fill="#754C29" d="M24.586,122.021c0,0.418,0.105,0.812,0.291,1.156c1.182-1.143,2.434-2.188,3.604-3.127
		c-0.405-0.299-0.904-0.477-1.447-0.477C25.682,119.574,24.586,120.67,24.586,122.021z"/>
	<path fill="#754C29" d="M29.48,122.021c0-0.381-0.089-0.74-0.244-1.061c-1.2,0.998-2.364,2.043-3.441,3.168
		c0.363,0.215,0.786,0.34,1.238,0.34C28.385,124.469,29.48,123.373,29.48,122.021z"/>
	<circle fill="#754C29" cx="41.954" cy="127.264" r="3.906"/>
	<path fill="#754C29" d="M62.016,131.033c2.826,0,5.118-2.291,5.118-5.117c0-2.027-1.183-3.775-2.892-4.604
		c-2.363,1.912-4.777,3.764-7.26,5.51C57.411,129.215,59.499,131.033,62.016,131.033z"/>
	<path fill="#754C29" d="M56.922,125.434c0.987-0.721,1.963-1.453,2.926-2.197c1.007-0.779,2.002-1.57,2.992-2.367
		c-0.269-0.043-0.543-0.072-0.824-0.072C59.352,120.797,57.165,122.834,56.922,125.434z"/>
	<circle fill="#754C29" cx="63.172" cy="111.894" r="1.687"/>
	<path fill="#754C29" d="M81.441,112.748c-1.039,0-1.882,0.844-1.882,1.883c0,1.041,0.843,1.883,1.882,1.883
		c0.412,0,0.791-0.133,1.101-0.357c0.144-0.145,0.287-0.287,0.431-0.432c0.221-0.309,0.352-0.686,0.352-1.094
		C83.324,113.592,82.481,112.748,81.441,112.748z"/>
	<circle fill="#754C29" cx="37.715" cy="116.656" r="1.645"/>
	<path fill="#754C29" d="M95.444,111.479c0.624,0,1.204-0.188,1.69-0.506c0.799-0.525,1.336-1.412,1.385-2.428
		c0.002-0.049,0.008-0.098,0.008-0.148c0-1.508-1.082-2.762-2.512-3.029c-1.221,1.064-2.438,2.137-3.645,3.217
		C92.469,110.199,93.805,111.479,95.444,111.479z"/>
	<path fill="#754C29" d="M12.537,30.383c0,1.379,1.117,2.496,2.494,2.496c1.379,0,2.495-1.117,2.495-2.496
		c0-1.377-1.116-2.494-2.495-2.494c-0.318,0-0.623,0.062-0.903,0.172c-0.534,0.703-1.061,1.408-1.581,2.121
		C12.542,30.248,12.537,30.316,12.537,30.383z"/>
	<path fill="#754C29" d="M9.492,5.391c-1.021,0-1.85,0.828-1.85,1.85c0,0.678,0.365,1.27,0.908,1.592
		c0.913-0.672,1.827-1.34,2.741-2.008C11.104,6.004,10.369,5.391,9.492,5.391z"/>
	<path fill="#C62790" d="M4.357,13.314C10.479,8.791,16.678,4.396,22.889,0h-2.037c-3.217,2.232-6.396,4.518-9.56,6.824
		C10.378,7.492,9.464,8.16,8.551,8.832c-2.796,2.053-5.586,4.117-8.385,6.17l0,0c-0.008,0.072-0.016,0.143-0.023,0.217
		c-0.018,0.201-0.031,0.408-0.047,0.613c-0.01,0.146-0.023,0.289-0.032,0.436c-0.004,0.072-0.007,0.146-0.01,0.217h0.001
		C1.49,15.43,2.925,14.373,4.357,13.314z"/>
	<path fill="#C62790" d="M86.649,72.07c-1.131,1.367-2.294,2.705-3.478,4.023c-1.264,1.41-2.557,2.795-3.871,4.158
		c-3.38,3.5-6.91,6.857-10.529,10.105c-1.348,1.209-2.711,2.389-4.085,3.553c-0.508,0.43-1.017,0.857-1.528,1.281
		c-4.654,3.857-9.477,7.467-14.53,10.848c-0.128,0.084-0.253,0.172-0.381,0.258c-1.28,0.852-2.566,1.693-3.853,2.537
		c-5.051,3.307-10.104,6.604-14.84,10.361c-0.347,0.273-0.707,0.561-1.074,0.855c-1.17,0.939-2.422,1.984-3.604,3.127
		c-2.768,2.678-5.137,5.887-5.089,9.535c0.001,0.135,0.009,0.268,0.019,0.398h1.692c-0.45-2.738,1.288-5.449,2.951-7.477
		c0.428-0.52,0.88-1.018,1.345-1.506c1.077-1.125,2.241-2.17,3.441-3.168c0.723-0.602,1.456-1.188,2.191-1.762
		c4.171-3.264,8.588-6.182,13.021-9.076c1.788-1.168,3.579-2.334,5.357-3.516c0.268-0.178,0.535-0.355,0.803-0.535
		c7.049-4.719,13.58-9.996,19.893-15.658c3.334-2.992,6.581-6.086,9.701-9.301c1.325-1.367,2.623-2.76,3.9-4.172
		c1.264-1.398,2.5-2.82,3.709-4.268c0.428-0.51,0.859-1.018,1.28-1.535c0.265-0.326,0.53-0.654,0.794-0.982
		c-0.383-0.211-0.771-0.416-1.168-0.611c-0.647,0.803-1.299,1.598-1.951,2.387C86.729,71.979,86.688,72.023,86.649,72.07z"/>
	<path fill="#C62790" d="M96.496,92.176c-6.328,4.633-12.172,9.904-17.988,15.154c-5.13,4.629-10.286,9.211-15.668,13.539
		c-0.99,0.797-1.985,1.588-2.992,2.367c-0.963,0.744-1.938,1.477-2.926,2.197c-4.052,2.961-8.318,5.672-12.908,7.678h2.52
		c2.256-1.1,4.441-2.348,6.547-3.68c1.32-0.836,2.621-1.709,3.902-2.609c2.482-1.746,4.896-3.598,7.26-5.51
		c2.352-1.902,4.654-3.863,6.926-5.832c7.215-6.254,14.097-12.887,21.521-18.898c1.434-1.16,2.896-2.279,4.377-3.371
		c2.103-1.549,4.246-3.039,6.418-4.5c0.009-0.006,0.018-0.012,0.027-0.018c-0.098-0.395-0.199-0.785-0.309-1.17
		c-1.914,1.225-3.773,2.549-5.61,3.859C97.226,91.645,96.86,91.91,96.496,92.176z"/>
	<path fill="#C62790" d="M36.98,73.033C42.81,67.6,48.367,61.875,53.767,56.018c2.417-2.621,4.676-5.367,6.936-8.117
		c-0.56,0.092-1.171,0.146-1.826,0.166c-2.508,3.027-5.021,6.014-7.708,8.902c-1.678,1.805-3.374,3.594-5.088,5.365
		c-0.393,0.408-0.786,0.814-1.182,1.221c-3.75,3.842-7.593,7.59-11.566,11.193c-3.355,3.043-6.819,5.98-10.497,8.627
		c-0.773,0.557-1.567,1.117-2.382,1.656h2.025c1.395-0.953,2.744-1.971,4.066-2.994C30.176,79.221,33.621,76.164,36.98,73.033z"/>
	<path fill="#C62790" d="M11.158,79.297c1.794-3.053,3.427-6.146,5.479-9.047c4.857-6.867,10.896-12.957,16.922-18.791
		c1.175-1.137,2.363-2.262,3.556-3.379h-1.778c-5.352,5.023-10.543,10.229-15.332,15.793c-4.591,5.334-8.371,11.217-11.595,17.461
		c-0.246,0.477-0.517,1.004-0.761,1.555c0.438,0.236,0.895,0.455,1.37,0.652C9.096,83.35,9.17,83.17,9.235,83.01
		C9.762,81.719,10.453,80.494,11.158,79.297z"/>
	<path fill="#C62790" d="M96.23,54.945c0.3,1.266,0.114,2.545-0.319,3.779c0.747-0.74,1.453-1.527,2.109-2.369
		c0.052-0.812-0.038-1.627-0.323-2.424c-0.127-0.352-0.649-0.391-0.953-0.281c-7.098,2.52-12.915,7.582-18.338,12.652
		c-0.434,0.406-0.865,0.818-1.297,1.229c-2.982,2.832-5.903,5.736-8.881,8.578c-1.205,1.154-2.424,2.291-3.657,3.412
		c-0.429,0.391-0.855,0.779-1.289,1.164c-1.734,1.535-3.542,3.014-5.446,4.346h0.484c0.504,0,0.977,0.025,1.429,0.064
		c1.946-1.447,3.788-3.031,5.538-4.596c4.344-3.881,8.445-8.043,12.653-12.074c0.38-0.363,0.758-0.727,1.14-1.088
		c0.22-0.209,0.441-0.416,0.663-0.627c0.13-0.123,0.261-0.244,0.392-0.367C84.906,61.863,90.093,57.338,96.23,54.945z"/>
	<path fill="#C62790" d="M50.318,72.57c0.085-0.088,0.173-0.176,0.258-0.264c0.832-0.854,1.671-1.699,2.515-2.541
		c1.929-1.924,3.88-3.824,5.829-5.727c1.881-1.834,3.764-3.666,5.642-5.504c1.062-1.041,2.122-2.084,3.181-3.129
		c3.962-3.918,7.877-7.885,11.652-11.982c2.771-3.01,5.472-6.098,7.897-9.396c1.575-2.139,3.266-4.529,3.874-7.162
		c0.441-1.912-0.399-3.502-2.362-3.971c-0.751-0.18-1.516-0.186-2.276-0.068c-0.932,0.146-1.855,0.479-2.742,0.9
		c-1.287,0.617-2.496,1.43-3.529,2.158c-2.051,1.447-3.963,3.098-5.793,4.836c-1.217,1.156-2.396,2.352-3.552,3.557
		c-0.299,0.312-0.598,0.625-0.894,0.938c-1.603,1.693-3.162,3.426-4.693,5.184c0.172,0.482,0.279,1.012,0.319,1.592
		c2.222-2.586,4.5-5.127,6.872-7.576c0.379-0.393,0.761-0.783,1.145-1.17c0.314-0.316,0.631-0.633,0.949-0.949
		c2.762-2.742,5.736-5.469,9.157-7.314c1.493-0.805,4.892-2.164,5.745,0.246c0.677,1.91-0.96,4.393-1.897,5.92
		c-1.955,3.188-4.411,6.074-6.87,8.881c-3.103,3.539-6.367,6.936-9.671,10.289c-1.443,1.465-2.9,2.918-4.362,4.365
		c-0.95,0.939-1.902,1.877-2.857,2.812c-4.204,4.119-8.441,8.205-12.604,12.367c-4.294,4.291-9.215,8.869-10.074,15.17h1.397h0.161
		c0.455-2.67,1.984-5.699,2.761-6.951C46.764,76.035,48.654,74.283,50.318,72.57z"/>
	<path fill="#C62790" d="M93.502,106.002c-0.031,0.025-0.061,0.055-0.092,0.08c-1.721,1.508-3.434,3.023-5.117,4.572
		c-1.783,1.639-3.578,3.324-5.32,5.07c-0.144,0.145-0.287,0.287-0.431,0.432c-3.063,3.109-5.94,6.422-8.26,10.053
		c-1.263,1.979-2.238,4.07-2.942,6.238c-0.072,0.219-0.139,0.441-0.203,0.664h0.539c0.372,0,0.74-0.004,1.105-0.01
		c0.504-1.668,1.168-3.291,1.988-4.863c0.528-1.018,1.119-2.016,1.777-2.99c4.038-5.975,9.621-11.076,14.945-15.881
		c0.292-0.262,0.586-0.521,0.879-0.783c1.207-1.08,2.424-2.152,3.645-3.217c1.188-1.035,2.379-2.068,3.568-3.104
		c1.686-1.465,3.365-2.938,5.027-4.428c-0.006-0.529-0.021-1.053-0.045-1.57c-1.681,1.537-3.387,3.045-5.102,4.545
		C97.479,102.545,95.485,104.268,93.502,106.002z"/>
	<path fill="#C62790" d="M11.603,57.088c3.442-3,6.893-5.986,10.31-9.008h-1.725c-4.11,3.648-8.29,7.229-12.467,10.797
		c-2.472,2.111-5.014,4.195-7.683,6.088c-0.001,0-0.002,0-0.003,0.002c-0.004,0.084-0.006,0.168-0.009,0.252
		c-0.004,0.102-0.008,0.205-0.011,0.309c-0.008,0.275-0.012,0.555-0.014,0.838h0.001C4.096,63.582,7.889,60.324,11.603,57.088z"/>
	<path fill="#C62790" d="M81.695,7.879c1.097-1.037,2.187-2.088,3.262-3.154c0.658-0.654,1.308-1.316,1.949-1.986
		c-0.143-0.061-0.283-0.121-0.428-0.18C86.205,2.449,85.93,2.344,85.65,2.24c-0.639,0.67-1.287,1.328-1.942,1.982
		c-2.628,2.617-5.372,5.127-8.068,7.67C66.519,20.496,57,28.645,47.617,36.951h1.84c1.242-1.092,2.485-2.18,3.73-3.264
		C62.857,25.252,72.376,16.695,81.695,7.879z"/>
	<path fill="#C62790" d="M50.16,20.984c0.742-0.742,1.48-1.488,2.219-2.234c1.744-1.764,3.482-3.533,5.227-5.297
		c3.559-3.6,7.145-7.172,10.872-10.6c1.048-0.965,2.108-1.912,3.181-2.848c0,0,0.001-0.002,0.002-0.002
		C71.517,0.002,71.375,0,71.23,0h-1.377c-3.34,2.949-6.568,6.027-9.732,9.16c-1.473,1.459-2.939,2.924-4.404,4.393
		c-1.086,1.086-2.17,2.176-3.252,3.266c-6.711,6.752-13.392,13.533-20.252,20.133h1.788C39.462,31.705,44.812,26.344,50.16,20.984z"
		/>
	<path fill="#C62790" d="M14.128,28.061c3.224-4.242,6.684-8.307,10.272-12.244c2.117-2.324,4.502-4.486,6.771-6.744
		c0.755-0.752,1.495-1.514,2.21-2.295C35,5.006,36.483,3.133,37.66,1.043C37.832,0.738,38.003,0.385,38.164,0h-1.573
		c-0.634,1.355-1.507,2.623-2.354,3.727c-0.342,0.443-0.699,0.875-1.062,1.303c-1.168,1.369-2.432,2.656-3.723,3.916
		c-0.669,0.654-1.344,1.301-2.015,1.949c-2.593,2.5-5.009,5.168-7.384,7.875c-4.488,5.119-8.676,10.502-12.443,16.172
		c0.396,0.211,0.805,0.41,1.232,0.588c1.188-1.816,2.426-3.598,3.705-5.348C13.067,29.469,13.594,28.764,14.128,28.061z"/>
	<path fill="#C62790" d="M5.521,105.232c3.907-3.295,8.03-6.443,12.443-9.072h-0.157c-0.317,0-0.63,0.006-0.938,0.018
		c-0.059,0-0.119,0-0.178,0.002c-0.07,0.004-0.138,0.008-0.208,0.012c-0.12,0.004-0.237,0.012-0.355,0.018
		c-0.027,0.002-0.057,0.002-0.084,0.004c-0.001,0-0.001,0-0.002,0c-5.457,3.305-10.493,7.361-15.304,11.684H0.738
		c-0.034,0.139-0.069,0.273-0.101,0.414c-0.022,0.102-0.042,0.205-0.063,0.307c-0.041,0.197-0.082,0.393-0.119,0.592
		c-0.021,0.123-0.041,0.246-0.062,0.369c-0.011,0.064-0.021,0.127-0.031,0.191c0-0.002,0.001-0.002,0.002-0.004
		C2.057,108.227,3.771,106.711,5.521,105.232z"/>
	<path fill="#C62790" d="M13.654,107.957c0.061-0.051,0.118-0.105,0.178-0.156c1.152-0.988,2.32-1.955,3.48-2.932
		c1.891-1.588,3.762-3.197,5.517-4.947c0.932-0.932,2.341-2.271,3.428-3.762h-1.659c-1.145,1.635-2.577,3.082-4.006,4.457
		c-1.244,1.199-2.548,2.324-3.867,3.432c-1.262,1.061-2.535,2.107-3.787,3.182c-0.254,0.217-0.508,0.436-0.76,0.656
		c-4.114,3.613-8.07,7.451-11.842,11.475c0.075,0.496,0.161,0.982,0.262,1.451C4.719,116.334,9.049,111.924,13.654,107.957z"/>
</g>
</svg>
