<?xml version="1.0" encoding="utf-8"?>
<!-- Generator: Adobe Illustrator 15.1.0, SVG Export Plug-In . SVG Version: 6.00 Build 0)  -->
<!DOCTYPE svg PUBLIC "-//W3C//DTD SVG 1.1//EN" "http://www.w3.org/Graphics/SVG/1.1/DTD/svg11.dtd">
<svg version="1.1" id="Layer_1" xmlns="http://www.w3.org/2000/svg" xmlns:xlink="http://www.w3.org/1999/xlink" x="0px" y="0px"
	 width="103.284px" height="132.666px" viewBox="0 0 103.284 132.666" enable-background="new 0 0 103.284 132.666"
	 xml:space="preserve">
<g>
	<path fill="#543620" d="M14.401,0.348c0.196-0.035,0.394-0.068,0.592-0.1C14.795,0.279,14.598,0.312,14.401,0.348z"/>
	<path fill="#543620" d="M13.654,0.502c0.194-0.043,0.391-0.084,0.589-0.123C14.045,0.418,13.849,0.457,13.654,0.502z"/>
	<path fill="#543620" d="M7.402,3.195c0.092-0.059,0.182-0.119,0.273-0.178C7.584,3.076,7.494,3.137,7.402,3.195z"/>
	<path fill="#543620" d="M6.09,4.15C6.16,4.096,6.23,4.043,6.301,3.988C6.23,4.043,6.16,4.096,6.09,4.15z"/>
	<path fill="#543620" d="M8.092,2.758c0.09-0.055,0.179-0.111,0.27-0.164C8.271,2.646,8.182,2.703,8.092,2.758z"/>
	<path fill="#543620" d="M6.738,3.66c0.084-0.062,0.171-0.123,0.256-0.184C6.909,3.537,6.822,3.598,6.738,3.66z"/>
	<path fill="#543620" d="M72.622,4.17c0.056-0.043,0.11-0.086,0.165-0.129C72.732,4.084,72.678,4.127,72.622,4.17z"/>
	<path fill="#543620" d="M11.762,1.039c0.59-0.201,1.19-0.373,1.805-0.516C12.952,0.666,12.352,0.838,11.762,1.039z"/>
	<path fill="#543620" d="M9.7,1.881c0.128-0.062,0.257-0.119,0.385-0.178C9.957,1.762,9.828,1.818,9.7,1.881z"/>
	<path fill="#543620" d="M8.91,2.285c0.139-0.074,0.277-0.146,0.417-0.217C9.188,2.141,9.049,2.211,8.91,2.285z"/>
	<path fill="#543620" d="M10.396,1.564c0.139-0.061,0.278-0.119,0.418-0.174C10.675,1.447,10.535,1.504,10.396,1.564z"/>
	<path fill="#543620" d="M73.669,129.27c-0.21-0.145-0.418-0.297-0.623-0.451C73.251,128.973,73.459,129.125,73.669,129.27z"/>
	<path fill="#543620" d="M74.631,129.898c-0.245-0.15-0.488-0.307-0.729-0.469C74.143,129.592,74.386,129.748,74.631,129.898z"/>
	<path fill="#543620" d="M11.094,1.279c0.15-0.057,0.302-0.113,0.454-0.168C11.396,1.166,11.244,1.223,11.094,1.279z"/>
	<path fill="#543620" d="M72.815,128.645c-0.271-0.209-0.54-0.426-0.805-0.652C72.275,128.219,72.544,128.436,72.815,128.645z"/>
	<path fill="#543620" d="M73.339,3.627c0.027-0.021,0.055-0.041,0.082-0.062C73.394,3.586,73.366,3.605,73.339,3.627z"/>
	<path fill="#543620" d="M78.721,0.902c0.037-0.012,0.076-0.023,0.113-0.033C78.797,0.879,78.758,0.891,78.721,0.902z"/>
	<path fill="#543620" d="M74.056,3.131c0.055-0.037,0.11-0.072,0.165-0.107C74.166,3.059,74.11,3.094,74.056,3.131z"/>
	<path fill="#543620" d="M25.32,2.814c2.1,1.225,2.572,3.533,2.361,5.982l2.787,0.832c0.449,0.133,0.704,0.604,0.57,1.053
		c-0.108,0.367-0.447,0.605-0.812,0.605c-0.08,0-0.161-0.012-0.241-0.035l-2.547-0.758c-0.184,0.951-0.437,1.893-0.706,2.77
		c-0.565,1.129-0.847,2.824,0,3.389c5.365,3.389,5.083,10.166,3.105,15.25c-1.976,4.801,0.565,10.447,4.802,14.402
		c2.824,2.541-3.389,5.93-1.412,7.059c9.036,5.648,20.05,0.283,30.498-1.412c1.13-0.281,1.694-1.412,1.977-1.693
		c0.215-0.801,0.356-1.6,0.44-2.4H36.729V18.252c0-5.934-1.818-10.463-5.453-13.578C27.638,1.557,23.297,0,18.254,0
		c-1.071,0-2.109,0.078-3.119,0.227c0.21-0.031,0.42-0.059,0.633-0.084C19.001,0.965,22.717,1.223,25.32,2.814z"/>
	<path fill="#543620" d="M97.831,4.674C94.193,1.557,89.853,0,84.81,0c-1.553,0-3.042,0.158-4.467,0.471
		c0.024-0.006,0.048-0.012,0.071-0.018c0.932,0.475,1.883,0.881,2.799,1.232c2.457,0.932,5.066,2.119,7.425,3.59l1.083-1.082
		c0.331-0.33,0.867-0.33,1.197,0c0.331,0.33,0.331,0.867,0,1.197l-0.843,0.842c4.749,3.381,7.981,8.074,5.821,14.373
		c-2.933,8.799-3.16,17.775-1.838,26.934l1.63,1.188c0.379,0.273,0.462,0.805,0.188,1.182c-0.166,0.229-0.424,0.35-0.687,0.35
		c-0.172,0-0.346-0.053-0.497-0.162l-0.259-0.189c0.261,1.523,0.562,3.053,0.898,4.588c1.342,5.941-0.31,11.234-1.95,16.67
		c0.322-0.043,0.654,0.1,0.835,0.393c0.246,0.398,0.123,0.92-0.275,1.166l-1.249,0.773c-0.522,1.816-0.996,3.662-1.313,5.566
		c-0.565,2.541-0.848,5.082,0,7.342c0.572,1.795,1.149,3.656,1.692,5.559l4.597,3.359c0.377,0.275,0.46,0.807,0.184,1.184
		c-0.166,0.227-0.424,0.348-0.685,0.348c-0.174,0-0.349-0.053-0.499-0.164l-2.883-2.105c2.983,11.498,4.07,24.037-5.23,32.203
		c-4.229,3.699-9.554,4.432-14.882,3.705c-0.312-0.164-0.618-0.338-0.922-0.52c2.989,1.795,6.343,2.693,10.059,2.693
		c5.043,0,9.384-1.559,13.021-4.674c3.635-3.117,5.453-7.641,5.453-13.58v-96.16C103.284,12.318,101.466,7.789,97.831,4.674z"/>
	<path fill="#543620" d="M77.82,1.213c0.067-0.023,0.133-0.049,0.199-0.072C77.953,1.164,77.888,1.189,77.82,1.213z"/>
	<path fill="#543620" d="M79.453,0.689c0.072-0.02,0.146-0.039,0.22-0.059C79.599,0.65,79.525,0.67,79.453,0.689z"/>
	<path fill="#543620" d="M75.549,2.238c0.054-0.027,0.108-0.057,0.162-0.084C75.657,2.182,75.603,2.211,75.549,2.238z"/>
	<path fill="#543620" d="M74.76,2.688c0.045-0.025,0.089-0.055,0.135-0.08C74.849,2.633,74.805,2.662,74.76,2.688z"/>
	<path fill="#543620" d="M76.255,1.881c0.058-0.027,0.114-0.057,0.172-0.082C76.369,1.824,76.312,1.854,76.255,1.881z"/>
	<path fill="#543620" d="M77.104,1.496c0.049-0.021,0.1-0.039,0.149-0.061C77.203,1.457,77.152,1.475,77.104,1.496z"/>
	<path fill="#754C29" d="M90.555,126.787c9.301-8.166,8.214-20.705,5.23-32.203l-4.46-3.26c-0.377-0.275-0.46-0.807-0.184-1.184
		c0.275-0.379,0.805-0.461,1.184-0.184l2.746,2.006c-0.543-1.902-1.12-3.764-1.692-5.559c-0.848-2.26-0.565-4.801,0-7.342
		c0.317-1.904,0.791-3.75,1.313-5.566l-3.551,2.191c-0.14,0.086-0.293,0.127-0.445,0.127c-0.284,0-0.562-0.143-0.722-0.402
		c-0.245-0.398-0.122-0.92,0.276-1.166l4.8-2.965c0.105-0.064,0.217-0.102,0.331-0.117c1.641-5.436,3.292-10.729,1.95-16.67
		c-0.336-1.535-0.638-3.064-0.898-4.588l-4.4-3.199c-0.379-0.275-0.462-0.805-0.188-1.184c0.275-0.379,0.805-0.463,1.184-0.188
		l3.029,2.203c-1.322-9.158-1.095-18.135,1.838-26.934c2.16-6.299-1.072-10.992-5.821-14.373l-1.98,1.982
		c-0.165,0.166-0.382,0.248-0.599,0.248s-0.434-0.082-0.6-0.248c-0.331-0.332-0.331-0.867,0-1.199l1.741-1.74
		c-2.358-1.471-4.968-2.658-7.425-3.59c-0.916-0.352-1.867-0.758-2.799-1.232c-0.023,0.006-0.047,0.012-0.071,0.018
		c-0.226,0.049-0.448,0.104-0.67,0.16c-0.074,0.02-0.147,0.039-0.22,0.059c-0.208,0.057-0.414,0.115-0.619,0.18
		c-0.037,0.01-0.076,0.021-0.113,0.033c-0.235,0.074-0.469,0.154-0.701,0.238c-0.066,0.023-0.132,0.049-0.199,0.072
		c-0.189,0.072-0.38,0.145-0.567,0.223c-0.05,0.021-0.101,0.039-0.149,0.061c-0.228,0.096-0.453,0.197-0.677,0.303
		c-0.058,0.025-0.114,0.055-0.172,0.082c-0.183,0.088-0.363,0.18-0.544,0.273c-0.054,0.027-0.108,0.057-0.162,0.084
		c-0.221,0.119-0.438,0.242-0.654,0.369c-0.046,0.025-0.09,0.055-0.135,0.08c-0.182,0.109-0.36,0.221-0.539,0.336
		c-0.055,0.035-0.11,0.07-0.165,0.107c-0.213,0.141-0.426,0.285-0.635,0.434c-0.027,0.021-0.055,0.041-0.082,0.062
		c-0.185,0.133-0.37,0.271-0.552,0.414c-0.055,0.043-0.109,0.086-0.165,0.129c-0.205,0.164-0.41,0.33-0.611,0.504
		c-3.639,3.115-5.454,7.645-5.454,13.578v29.605h-0.413c-0.084,0.801-0.226,1.6-0.44,2.4c-0.282,0.281-0.847,1.412-1.977,1.693
		c-10.448,1.695-21.462,7.061-30.498,1.412c-1.977-1.129,4.236-4.518,1.412-7.059c-4.236-3.955-6.777-9.602-4.802-14.402
		c1.978-5.084,2.26-11.861-3.105-15.25c-0.847-0.564-0.565-2.26,0-3.389c0.27-0.877,0.522-1.818,0.706-2.77l-5.043-1.502
		c-0.448-0.133-0.703-0.605-0.57-1.053c0.134-0.449,0.605-0.703,1.054-0.57l4.802,1.428c0.211-2.449-0.262-4.758-2.361-5.982
		c-2.604-1.592-6.319-1.85-9.553-2.672c-0.213,0.025-0.423,0.053-0.633,0.084c-0.047,0.008-0.095,0.016-0.142,0.021
		c-0.198,0.031-0.396,0.064-0.592,0.1c-0.053,0.012-0.105,0.021-0.158,0.031c-0.198,0.039-0.395,0.08-0.589,0.123
		c-0.029,0.008-0.059,0.014-0.088,0.021c-0.614,0.143-1.215,0.314-1.805,0.516c-0.072,0.023-0.143,0.047-0.214,0.072
		c-0.152,0.055-0.304,0.111-0.454,0.168C11,1.316,10.907,1.352,10.814,1.391c-0.14,0.055-0.279,0.113-0.418,0.174
		c-0.104,0.043-0.208,0.092-0.312,0.139C9.957,1.762,9.828,1.818,9.7,1.881C9.574,1.941,9.451,2.004,9.327,2.068
		c-0.14,0.07-0.278,0.143-0.417,0.217C8.727,2.387,8.543,2.486,8.361,2.594c-0.091,0.053-0.18,0.109-0.27,0.164
		c-0.139,0.086-0.278,0.17-0.416,0.26C7.584,3.076,7.494,3.137,7.402,3.195C7.266,3.289,7.13,3.383,6.994,3.477
		C6.909,3.537,6.822,3.598,6.738,3.66C6.592,3.768,6.446,3.877,6.301,3.988C6.23,4.043,6.16,4.096,6.09,4.15
		C5.876,4.32,5.664,4.494,5.454,4.674C1.816,7.789,0,12.318,0,18.252v48.08c0,12.32,6.084,18.477,18.254,18.477h48.303v29.604
		c0,5.939,1.815,10.463,5.454,13.58c0.265,0.227,0.533,0.443,0.805,0.652c0.076,0.059,0.153,0.117,0.23,0.174
		c0.205,0.154,0.413,0.307,0.623,0.451c0.077,0.055,0.153,0.107,0.232,0.16c0.241,0.162,0.484,0.318,0.729,0.469
		c0.041,0.023,0.08,0.049,0.12,0.074c0.304,0.182,0.61,0.355,0.922,0.52C81.001,131.219,86.326,130.486,90.555,126.787z
		 M35.084,58.549c0.412-0.223,0.925-0.07,1.148,0.342l1.835,3.389c0.223,0.412,0.07,0.926-0.342,1.148
		c-0.127,0.07-0.267,0.104-0.401,0.104c-0.302,0-0.593-0.162-0.747-0.445l-1.835-3.389C34.52,59.287,34.672,58.771,35.084,58.549z
		 M26.859,36.967c0.398-0.244,0.92-0.115,1.162,0.285c0.243,0.4,0.115,0.922-0.284,1.164l-4.66,2.824
		c-0.138,0.082-0.288,0.123-0.438,0.123c-0.286,0-0.566-0.146-0.725-0.41c-0.243-0.398-0.115-0.92,0.285-1.162L26.859,36.967z
		 M19.086,15.729l4.236,5.789c0.275,0.377,0.193,0.908-0.184,1.184c-0.151,0.111-0.326,0.164-0.5,0.164
		c-0.26,0-0.518-0.121-0.684-0.346l-4.236-5.789c-0.276-0.379-0.194-0.908,0.184-1.186C18.279,15.27,18.809,15.352,19.086,15.729z
		 M12.415,2.305c0.204-0.422,0.712-0.598,1.132-0.393l4.377,2.117c0.421,0.203,0.598,0.711,0.394,1.133
		c-0.146,0.301-0.448,0.477-0.763,0.477c-0.124,0-0.25-0.027-0.369-0.084l-4.377-2.119C12.388,3.232,12.211,2.727,12.415,2.305z
		 M11.364,32.336c-0.159,0.266-0.44,0.414-0.729,0.414c-0.146,0-0.296-0.039-0.432-0.119c-0.402-0.24-0.534-0.76-0.295-1.162
		l3.53-5.93c0.239-0.402,0.759-0.535,1.161-0.295s0.534,0.758,0.295,1.16L11.364,32.336z M11.264,38.26
		c-0.168,0.186-0.397,0.279-0.627,0.279c-0.204,0-0.408-0.074-0.57-0.223l-3.105-2.822c-0.347-0.314-0.373-0.852-0.059-1.197
		c0.315-0.346,0.852-0.371,1.197-0.057l3.106,2.824C11.553,37.379,11.578,37.916,11.264,38.26z M7.652,10.564l5.084-3.107
		c0.399-0.242,0.921-0.117,1.164,0.281c0.244,0.4,0.119,0.922-0.281,1.164L8.537,12.01c-0.139,0.084-0.291,0.125-0.441,0.125
		c-0.285,0-0.564-0.145-0.725-0.406C7.128,11.328,7.254,10.809,7.652,10.564z M7.53,19.9c0.468,0,0.847,0.379,0.847,0.848v4.094
		c0,0.469-0.379,0.848-0.847,0.848s-0.847-0.379-0.847-0.848v-4.094C6.684,20.279,7.062,19.9,7.53,19.9z M4.718,41.441
		c0.269-0.383,0.796-0.477,1.181-0.209l4.235,2.967c0.384,0.268,0.477,0.797,0.208,1.178c-0.165,0.236-0.428,0.363-0.695,0.363
		c-0.167,0-0.337-0.051-0.484-0.154l-4.236-2.965C4.543,42.354,4.449,41.824,4.718,41.441z M9.352,54.432l-1.977,1.693
		C7.216,56.262,7.02,56.33,6.824,56.33c-0.238,0-0.477-0.102-0.643-0.297c-0.306-0.355-0.264-0.889,0.091-1.193l1.978-1.695
		c0.354-0.305,0.89-0.264,1.194,0.092C9.748,53.592,9.707,54.127,9.352,54.432z M8.675,74.949c-0.163,0.154-0.372,0.23-0.58,0.23
		c-0.226,0-0.45-0.09-0.616-0.268l-3.39-3.6c-0.32-0.342-0.304-0.877,0.036-1.197c0.342-0.322,0.877-0.305,1.197,0.035l3.39,3.602
		C9.032,74.092,9.016,74.629,8.675,74.949z M8.803,67.18c-0.046,0-0.092-0.004-0.138-0.012c-0.462-0.074-0.776-0.51-0.7-0.973
		l0.848-5.201c0.074-0.461,0.51-0.775,0.972-0.699c0.462,0.074,0.774,0.51,0.7,0.973l-0.848,5.201
		C9.568,66.885,9.21,67.18,8.803,67.18z M15.872,71.182l-4.518,7.201c-0.161,0.256-0.437,0.396-0.72,0.396
		c-0.153,0-0.309-0.041-0.449-0.129C9.79,78.4,9.67,77.879,9.919,77.482l4.519-7.201c0.248-0.396,0.771-0.518,1.168-0.268
		C16.002,70.262,16.121,70.785,15.872,71.182z M17.006,35.775l5.294-4.518c0.355-0.303,0.891-0.262,1.194,0.094
		s0.262,0.891-0.094,1.195l-5.295,4.518c-0.16,0.137-0.355,0.203-0.551,0.203c-0.238,0-0.477-0.1-0.645-0.299
		C16.607,36.615,16.648,36.08,17.006,35.775z M18.401,51.811c-0.404,0-0.762-0.289-0.833-0.701c-0.081-0.461,0.227-0.898,0.688-0.98
		l8.896-1.553c0.459-0.078,0.899,0.229,0.98,0.689c0.08,0.459-0.229,0.898-0.689,0.98l-8.896,1.553
		C18.498,51.807,18.45,51.811,18.401,51.811z M26.584,61.609c-0.164,0.238-0.429,0.367-0.699,0.367c-0.164,0-0.33-0.047-0.478-0.146
		l-5.366-3.672c-0.386-0.266-0.484-0.791-0.22-1.178c0.264-0.387,0.791-0.484,1.177-0.221l5.365,3.67
		C26.75,60.695,26.85,61.223,26.584,61.609z M19.709,68.031c-0.38-0.271-0.468-0.801-0.195-1.182s0.803-0.467,1.182-0.195
		l4.131,2.959c0.38,0.273,0.467,0.803,0.195,1.182c-0.166,0.232-0.426,0.355-0.689,0.355c-0.171,0-0.344-0.053-0.493-0.158
		L19.709,68.031z M35.611,75.805l-10.52,1.553c-0.042,0.008-0.084,0.012-0.125,0.012c-0.413,0-0.774-0.305-0.837-0.725
		c-0.069-0.463,0.251-0.893,0.714-0.963l10.52-1.553c0.462-0.066,0.894,0.252,0.962,0.715S36.073,75.738,35.611,75.805z
		 M40.053,69.85c-0.15,0.291-0.447,0.459-0.754,0.459c-0.13,0-0.264-0.031-0.388-0.094l-6.071-3.129
		c-0.416-0.215-0.579-0.725-0.365-1.141c0.215-0.416,0.726-0.58,1.141-0.365l6.072,3.129C40.103,68.922,40.267,69.434,40.053,69.85z
		 M74.763,90.141c0.275-0.379,0.806-0.461,1.184-0.184l3.671,2.682c0.378,0.277,0.46,0.807,0.184,1.184
		c-0.166,0.229-0.424,0.348-0.684,0.348c-0.174,0-0.35-0.053-0.5-0.162l-3.671-2.684C74.569,91.049,74.485,90.518,74.763,90.141z
		 M74.476,80.771c-0.128,0.34-0.451,0.551-0.794,0.551c-0.1,0-0.199-0.018-0.296-0.055c-0.438-0.162-0.661-0.65-0.498-1.09
		l1.766-4.73c0.162-0.438,0.651-0.66,1.09-0.496c0.438,0.162,0.66,0.65,0.497,1.088L74.476,80.771z M74.127,28.352
		c0.323-0.338,0.86-0.35,1.198-0.027l3.106,2.965c0.338,0.324,0.352,0.859,0.028,1.197c-0.167,0.176-0.39,0.264-0.612,0.264
		c-0.211,0-0.422-0.078-0.586-0.234l-3.106-2.965C73.816,29.227,73.805,28.689,74.127,28.352z M73.681,24.559
		c-0.202,0-0.405-0.07-0.567-0.219c-0.347-0.312-0.374-0.85-0.06-1.197l4.729-5.223c0.313-0.348,0.85-0.375,1.197-0.061
		c0.347,0.314,0.373,0.852,0.059,1.197l-4.73,5.225C74.143,24.465,73.911,24.559,73.681,24.559z M78.66,55.236
		c0.137-0.449,0.611-0.701,1.057-0.564c0.447,0.135,0.7,0.609,0.563,1.057l-2.188,7.201c-0.11,0.365-0.446,0.602-0.81,0.602
		c-0.082,0-0.165-0.012-0.247-0.037c-0.447-0.137-0.7-0.609-0.564-1.057L78.66,55.236z M83.67,84.84
		c-0.154,0.277-0.443,0.436-0.741,0.436c-0.139,0-0.28-0.035-0.411-0.107l-5.082-2.824c-0.409-0.227-0.557-0.742-0.33-1.15
		c0.228-0.41,0.743-0.559,1.152-0.33l5.084,2.824C83.75,83.914,83.897,84.43,83.67,84.84z M85.238,103.205
		c0.156-0.441,0.642-0.67,1.082-0.514s0.671,0.641,0.514,1.082l-2.259,6.354c-0.124,0.348-0.45,0.564-0.798,0.564
		c-0.094,0-0.19-0.018-0.284-0.051c-0.441-0.156-0.671-0.641-0.515-1.08L85.238,103.205z M89.665,120.98L79.287,123.1
		c-0.058,0.012-0.114,0.018-0.171,0.018c-0.395,0-0.747-0.277-0.829-0.678c-0.094-0.459,0.202-0.908,0.661-1.002l10.378-2.117
		c0.459-0.092,0.906,0.203,1,0.662C90.419,120.439,90.123,120.887,89.665,120.98z M94.322,120.203
		c-0.122,0.061-0.251,0.09-0.379,0.09c-0.311,0-0.609-0.172-0.758-0.469l-0.848-1.695c-0.209-0.418-0.04-0.928,0.379-1.137
		c0.418-0.209,0.928-0.039,1.138,0.379l0.847,1.695C94.91,119.484,94.74,119.994,94.322,120.203z M90.211,99.688
		c0.384-0.266,0.912-0.172,1.18,0.211l3.248,4.66c0.268,0.383,0.172,0.912-0.211,1.18c-0.147,0.102-0.316,0.152-0.484,0.152
		c-0.268,0-0.53-0.127-0.695-0.363l-3.247-4.66C89.733,100.484,89.828,99.957,90.211,99.688z M89.957,68.607l-7.413,4.812
		c-0.143,0.092-0.302,0.135-0.46,0.135c-0.278,0-0.55-0.135-0.713-0.385c-0.254-0.393-0.143-0.918,0.25-1.172l7.412-4.812
		c0.394-0.254,0.918-0.143,1.172,0.25C90.461,67.828,90.35,68.352,89.957,68.607z M85.271,60.623l3.461-7.201
		c0.202-0.422,0.708-0.6,1.13-0.398c0.422,0.203,0.6,0.709,0.396,1.131L86.8,61.355c-0.146,0.305-0.448,0.48-0.765,0.48
		c-0.122,0-0.248-0.027-0.365-0.084C85.248,61.549,85.069,61.045,85.271,60.623z M87.941,12.494c0.426-0.195,0.928-0.01,1.123,0.416
		l2.4,5.225c0.196,0.424,0.01,0.928-0.416,1.123c-0.114,0.053-0.234,0.078-0.353,0.078c-0.321,0-0.628-0.184-0.771-0.494l-2.4-5.225
		C87.33,13.191,87.517,12.689,87.941,12.494z M84.146,23.338c0.206-0.42,0.714-0.592,1.134-0.385l4.59,2.258
		c0.419,0.207,0.592,0.715,0.386,1.135c-0.147,0.299-0.449,0.475-0.76,0.475c-0.127,0-0.254-0.029-0.375-0.088l-4.589-2.26
		C84.112,24.266,83.939,23.758,84.146,23.338z M87.153,35.836c0.322-0.34,0.859-0.352,1.197-0.027
		c0.338,0.322,0.352,0.857,0.028,1.197l-6.672,6.988c-0.167,0.174-0.39,0.264-0.613,0.264c-0.21,0-0.421-0.078-0.585-0.234
		c-0.338-0.324-0.351-0.861-0.027-1.199L87.153,35.836z M80.422,4.982c0.285-0.371,0.817-0.441,1.188-0.156
		c0.372,0.285,0.441,0.816,0.157,1.188l-3.248,4.236c-0.167,0.217-0.419,0.33-0.672,0.33c-0.181,0-0.362-0.057-0.515-0.174
		c-0.372-0.285-0.442-0.816-0.158-1.188L80.422,4.982z M71.844,15.896l2.118-4.943c0.185-0.43,0.683-0.629,1.112-0.445
		c0.43,0.186,0.629,0.682,0.445,1.113L73.4,16.562c-0.137,0.32-0.45,0.514-0.778,0.514c-0.112,0-0.225-0.021-0.333-0.068
		C71.859,16.824,71.66,16.326,71.844,15.896z M71.202,44.305c0.325-0.338,0.861-0.346,1.197-0.021l5.472,5.295
		c0.336,0.326,0.345,0.861,0.02,1.197c-0.166,0.174-0.388,0.26-0.608,0.26c-0.213,0-0.425-0.08-0.589-0.238l-5.473-5.295
		C70.885,45.176,70.876,44.639,71.202,44.305z M48.039,61.145l4.519-0.848c0.461-0.086,0.903,0.217,0.988,0.678
		c0.086,0.459-0.216,0.902-0.677,0.988l-4.518,0.846c-0.053,0.012-0.105,0.016-0.158,0.016c-0.399,0-0.755-0.283-0.832-0.691
		C47.276,61.674,47.579,61.23,48.039,61.145z M52.099,75.682l-6.413,4.096c-0.141,0.088-0.299,0.133-0.455,0.133
		c-0.279,0-0.553-0.139-0.715-0.393c-0.251-0.395-0.137-0.918,0.258-1.17l6.414-4.094c0.393-0.252,0.917-0.137,1.169,0.258
		S52.493,75.43,52.099,75.682z M53.945,68.184l-4.553,0.555c-0.034,0.004-0.068,0.006-0.104,0.006c-0.422,0-0.787-0.316-0.839-0.744
		c-0.058-0.465,0.274-0.889,0.738-0.943l4.552-0.555c0.464-0.061,0.887,0.273,0.943,0.738S54.41,68.127,53.945,68.184z
		 M58.618,56.852c0.335-0.326,0.872-0.318,1.197,0.016l5.083,5.225c0.326,0.336,0.319,0.873-0.016,1.199
		c-0.166,0.16-0.378,0.24-0.591,0.24c-0.221,0-0.442-0.086-0.607-0.258l-5.083-5.223C58.275,57.715,58.282,57.178,58.618,56.852z
		 M64.419,76.582l-5.082,0.775c-0.044,0.008-0.087,0.012-0.129,0.012c-0.412,0-0.772-0.301-0.837-0.721
		c-0.07-0.463,0.247-0.895,0.709-0.965l5.084-0.777c0.463-0.07,0.895,0.248,0.965,0.711C65.199,76.078,64.881,76.512,64.419,76.582z
		 M68.104,68.744h-7.624c-0.468,0-0.848-0.379-0.848-0.848c0-0.467,0.38-0.846,0.848-0.846h7.624c0.469,0,0.848,0.379,0.848,0.846
		C68.951,68.365,68.572,68.744,68.104,68.744z M69.239,57.971c0.263-0.387,0.788-0.486,1.177-0.225l3.741,2.543
		c0.387,0.262,0.487,0.789,0.225,1.176c-0.164,0.242-0.431,0.371-0.701,0.371c-0.164,0-0.33-0.047-0.476-0.146l-3.742-2.541
		C69.076,58.885,68.976,58.357,69.239,57.971z M72.008,97.438l-2.683-2.824c-0.322-0.34-0.308-0.875,0.031-1.197
		c0.338-0.322,0.874-0.311,1.196,0.029l2.684,2.824c0.322,0.34,0.309,0.875-0.03,1.197c-0.163,0.156-0.374,0.234-0.584,0.234
		C72.398,97.701,72.175,97.613,72.008,97.438z M75.053,119.527c-0.042,0.439-0.41,0.766-0.841,0.766
		c-0.027,0-0.056-0.002-0.085-0.004c-0.465-0.047-0.805-0.463-0.76-0.928l0.336-3.389c0.046-0.465,0.465-0.807,0.927-0.76
		c0.465,0.047,0.805,0.461,0.759,0.928L75.053,119.527z M74.975,110.658c-0.078,0.021-0.157,0.033-0.234,0.033
		c-0.368,0-0.707-0.242-0.813-0.613l-1.06-3.672c-0.129-0.449,0.13-0.918,0.579-1.049c0.45-0.129,0.92,0.131,1.05,0.58l1.059,3.672
		C75.685,110.059,75.425,110.527,74.975,110.658z"/>
	<path fill="#C62790" d="M7.371,11.729c0.16,0.262,0.439,0.406,0.725,0.406c0.15,0,0.303-0.041,0.441-0.125l5.082-3.107
		c0.4-0.242,0.525-0.764,0.281-1.164c-0.243-0.398-0.765-0.523-1.164-0.281l-5.084,3.107C7.254,10.809,7.128,11.328,7.371,11.729z"
		/>
	<path fill="#C62790" d="M17.902,15.545c-0.378,0.277-0.46,0.807-0.184,1.186l4.236,5.789c0.166,0.225,0.424,0.346,0.684,0.346
		c0.174,0,0.349-0.053,0.5-0.164c0.377-0.275,0.459-0.807,0.184-1.184l-4.236-5.789C18.809,15.352,18.279,15.27,17.902,15.545z"/>
	<path fill="#C62790" d="M14.6,25.244c-0.402-0.24-0.922-0.107-1.161,0.295l-3.53,5.93c-0.239,0.402-0.107,0.922,0.295,1.162
		c0.136,0.08,0.285,0.119,0.432,0.119c0.289,0,0.57-0.148,0.729-0.414l3.53-5.932C15.134,26.002,15.002,25.484,14.6,25.244z"/>
	<path fill="#C62790" d="M4.926,42.621l4.236,2.965c0.147,0.104,0.317,0.154,0.484,0.154c0.268,0,0.53-0.127,0.695-0.363
		c0.269-0.381,0.176-0.91-0.208-1.178l-4.235-2.967c-0.385-0.268-0.912-0.174-1.181,0.209S4.543,42.354,4.926,42.621z"/>
	<path fill="#C62790" d="M21.914,40.953c0.158,0.264,0.438,0.41,0.725,0.41c0.15,0,0.301-0.041,0.438-0.123l4.66-2.824
		c0.399-0.242,0.527-0.764,0.284-1.164c-0.242-0.4-0.764-0.529-1.162-0.285l-4.66,2.824C21.799,40.033,21.671,40.555,21.914,40.953z
		"/>
	<path fill="#C62790" d="M20.998,56.76c-0.386-0.264-0.913-0.166-1.177,0.221c-0.265,0.387-0.166,0.912,0.22,1.178l5.366,3.672
		c0.147,0.1,0.313,0.146,0.478,0.146c0.271,0,0.535-0.129,0.699-0.367c0.266-0.387,0.166-0.914-0.221-1.18L20.998,56.76z"/>
	<path fill="#C62790" d="M9.784,60.295c-0.462-0.076-0.897,0.238-0.972,0.699l-0.848,5.201c-0.076,0.463,0.238,0.898,0.7,0.973
		c0.046,0.008,0.092,0.012,0.138,0.012c0.407,0,0.766-0.295,0.834-0.711l0.848-5.201C10.559,60.805,10.246,60.369,9.784,60.295z"/>
	<path fill="#C62790" d="M35.363,74.129l-10.52,1.553c-0.463,0.07-0.783,0.5-0.714,0.963c0.062,0.42,0.424,0.725,0.837,0.725
		c0.041,0,0.083-0.004,0.125-0.012l10.52-1.553c0.462-0.066,0.782-0.498,0.714-0.961S35.825,74.062,35.363,74.129z"/>
	<path fill="#C62790" d="M48.193,62.824c0.053,0,0.105-0.004,0.158-0.016l4.518-0.846c0.461-0.086,0.763-0.529,0.677-0.988
		c-0.085-0.461-0.527-0.764-0.988-0.678l-4.519,0.848c-0.46,0.086-0.763,0.529-0.678,0.988
		C47.438,62.541,47.794,62.824,48.193,62.824z"/>
	<path fill="#C62790" d="M36.577,63.086c0.154,0.283,0.445,0.445,0.747,0.445c0.135,0,0.274-0.033,0.401-0.104
		c0.412-0.223,0.564-0.736,0.342-1.148l-1.835-3.389c-0.224-0.412-0.736-0.564-1.148-0.342s-0.564,0.738-0.342,1.148L36.577,63.086z
		"/>
	<path fill="#C62790" d="M89.926,18.842c0.143,0.311,0.449,0.494,0.771,0.494c0.118,0,0.238-0.025,0.353-0.078
		c0.426-0.195,0.612-0.699,0.416-1.123l-2.4-5.225c-0.195-0.426-0.697-0.611-1.123-0.416c-0.425,0.195-0.611,0.697-0.416,1.123
		L89.926,18.842z"/>
	<path fill="#C62790" d="M72.289,17.008c0.108,0.047,0.221,0.068,0.333,0.068c0.328,0,0.642-0.193,0.778-0.514l2.119-4.941
		c0.184-0.432-0.016-0.928-0.445-1.113c-0.43-0.184-0.928,0.016-1.112,0.445l-2.118,4.943C71.66,16.326,71.859,16.824,72.289,17.008
		z"/>
	<path fill="#C62790" d="M77.262,32.516c0.164,0.156,0.375,0.234,0.586,0.234c0.223,0,0.445-0.088,0.612-0.264
		c0.323-0.338,0.31-0.873-0.028-1.197l-3.106-2.965c-0.338-0.322-0.875-0.311-1.198,0.027c-0.322,0.338-0.311,0.875,0.028,1.199
		L77.262,32.516z"/>
	<path fill="#C62790" d="M86.035,61.836c0.316,0,0.619-0.176,0.765-0.48l3.459-7.201c0.203-0.422,0.025-0.928-0.396-1.131
		c-0.422-0.201-0.928-0.023-1.13,0.398l-3.461,7.201c-0.202,0.422-0.023,0.926,0.398,1.129
		C85.787,61.809,85.913,61.836,86.035,61.836z"/>
	<path fill="#C62790" d="M69.463,59.148l3.742,2.541c0.146,0.1,0.312,0.146,0.476,0.146c0.271,0,0.537-0.129,0.701-0.371
		c0.263-0.387,0.162-0.914-0.225-1.176l-3.741-2.543c-0.389-0.262-0.914-0.162-1.177,0.225
		C68.976,58.357,69.076,58.885,69.463,59.148z"/>
	<path fill="#C62790" d="M80.509,44.023c0.164,0.156,0.375,0.234,0.585,0.234c0.224,0,0.446-0.09,0.613-0.264l6.672-6.988
		c0.323-0.34,0.31-0.875-0.028-1.197c-0.338-0.324-0.875-0.312-1.197,0.027l-6.672,6.988C80.158,43.162,80.171,43.699,80.509,44.023
		z"/>
	<path fill="#C62790" d="M64.164,74.906l-5.084,0.777c-0.462,0.07-0.779,0.502-0.709,0.965c0.064,0.42,0.425,0.721,0.837,0.721
		c0.042,0,0.085-0.004,0.129-0.012l5.082-0.775c0.462-0.07,0.78-0.504,0.71-0.965C65.059,75.154,64.627,74.836,64.164,74.906z"/>
	<path fill="#C62790" d="M83.342,83.688l-5.084-2.824c-0.409-0.229-0.925-0.08-1.152,0.33c-0.227,0.408-0.079,0.924,0.33,1.15
		l5.082,2.824c0.131,0.072,0.272,0.107,0.411,0.107c0.298,0,0.587-0.158,0.741-0.436C83.897,84.43,83.75,83.914,83.342,83.688z"/>
	<path fill="#C62790" d="M83.493,110.641c0.094,0.033,0.19,0.051,0.284,0.051c0.348,0,0.674-0.217,0.798-0.564l2.259-6.354
		c0.157-0.441-0.073-0.926-0.514-1.082s-0.926,0.072-1.082,0.514l-2.26,6.355C82.822,110,83.052,110.484,83.493,110.641z"/>
	<path fill="#C62790" d="M74.496,105.938c-0.13-0.449-0.6-0.709-1.05-0.58c-0.449,0.131-0.708,0.6-0.579,1.049l1.06,3.672
		c0.106,0.371,0.445,0.613,0.813,0.613c0.077,0,0.156-0.012,0.234-0.033c0.45-0.131,0.71-0.6,0.58-1.049L74.496,105.938z"/>
	<path fill="#20BCBC" d="M89.326,119.32l-10.378,2.117c-0.459,0.094-0.755,0.543-0.661,1.002c0.082,0.4,0.435,0.678,0.829,0.678
		c0.057,0,0.113-0.006,0.171-0.018l10.378-2.119c0.458-0.094,0.754-0.541,0.661-0.998C90.232,119.523,89.785,119.229,89.326,119.32z
		"/>
	<path fill="#20BCBC" d="M28.133,49.266c-0.081-0.461-0.521-0.768-0.98-0.689l-8.896,1.553c-0.462,0.082-0.77,0.52-0.688,0.98
		c0.071,0.412,0.429,0.701,0.833,0.701c0.049,0,0.097-0.004,0.146-0.012l8.896-1.553C27.904,50.164,28.213,49.725,28.133,49.266z"/>
	<path fill="#20BCBC" d="M6.684,24.842c0,0.469,0.379,0.848,0.847,0.848s0.847-0.379,0.847-0.848v-4.094
		c0-0.469-0.379-0.848-0.847-0.848s-0.847,0.379-0.847,0.848V24.842z"/>
	<path fill="#20BCBC" d="M18.105,37.064l5.295-4.518c0.355-0.305,0.397-0.84,0.094-1.195s-0.839-0.396-1.194-0.094l-5.294,4.518
		c-0.357,0.305-0.398,0.84-0.096,1.193c0.168,0.199,0.406,0.299,0.645,0.299C17.75,37.268,17.945,37.201,18.105,37.064z"/>
	<path fill="#20BCBC" d="M15.605,70.014c-0.397-0.25-0.92-0.129-1.168,0.268l-4.519,7.201C9.67,77.879,9.79,78.4,10.186,78.65
		c0.141,0.088,0.296,0.129,0.449,0.129c0.283,0,0.559-0.141,0.72-0.396l4.518-7.201C16.121,70.785,16.002,70.262,15.605,70.014z"/>
	<path fill="#20BCBC" d="M39.688,68.709l-6.072-3.129c-0.415-0.215-0.926-0.051-1.141,0.365c-0.214,0.416-0.051,0.926,0.365,1.141
		l6.071,3.129c0.124,0.062,0.258,0.094,0.388,0.094c0.307,0,0.604-0.168,0.754-0.459C40.267,69.434,40.103,68.922,39.688,68.709z"/>
	<path fill="#20BCBC" d="M51.188,74.254l-6.414,4.094c-0.395,0.252-0.509,0.775-0.258,1.17c0.162,0.254,0.436,0.393,0.715,0.393
		c0.156,0,0.314-0.045,0.455-0.133l6.413-4.096c0.395-0.252,0.51-0.775,0.258-1.17S51.58,74.002,51.188,74.254z"/>
	<path fill="#20BCBC" d="M68.104,67.051h-7.624c-0.468,0-0.848,0.379-0.848,0.846c0,0.469,0.38,0.848,0.848,0.848h7.624
		c0.469,0,0.848-0.379,0.848-0.848C68.951,67.43,68.572,67.051,68.104,67.051z"/>
	<path fill="#20BCBC" d="M89.033,67.186l-7.412,4.812c-0.393,0.254-0.504,0.779-0.25,1.172c0.163,0.25,0.435,0.385,0.713,0.385
		c0.158,0,0.317-0.043,0.46-0.135l7.413-4.812c0.393-0.256,0.504-0.779,0.248-1.172C89.951,67.043,89.427,66.932,89.033,67.186z"/>
	<path fill="#20BCBC" d="M74.946,91.324l3.671,2.684c0.15,0.109,0.326,0.162,0.5,0.162c0.26,0,0.518-0.119,0.684-0.348
		c0.276-0.377,0.194-0.906-0.184-1.184l-3.671-2.682c-0.378-0.277-0.908-0.195-1.184,0.184
		C74.485,90.518,74.569,91.049,74.946,91.324z"/>
	<path fill="#20BCBC" d="M76.693,50.797c0.164,0.158,0.376,0.238,0.589,0.238c0.221,0,0.442-0.086,0.608-0.26
		c0.325-0.336,0.316-0.871-0.02-1.197l-5.472-5.295c-0.336-0.324-0.872-0.316-1.197,0.021c-0.326,0.334-0.317,0.871,0.019,1.197
		L76.693,50.797z"/>
	<path fill="#20BCBC" d="M84.532,24.473l4.589,2.26c0.121,0.059,0.248,0.088,0.375,0.088c0.311,0,0.612-0.176,0.76-0.475
		c0.206-0.42,0.033-0.928-0.386-1.135l-4.59-2.258c-0.42-0.207-0.928-0.035-1.134,0.385C83.939,23.758,84.112,24.266,84.532,24.473z
		"/>
	<path fill="#F9AF6D" d="M77.332,10.406c0.152,0.117,0.334,0.174,0.515,0.174c0.253,0,0.505-0.113,0.672-0.33l3.248-4.236
		c0.284-0.371,0.215-0.902-0.157-1.188c-0.37-0.285-0.902-0.215-1.188,0.156l-3.248,4.236C76.89,9.59,76.96,10.121,77.332,10.406z"
		/>
	<path fill="#F9AF6D" d="M91.846,45.523c-0.274,0.379-0.191,0.908,0.188,1.184l4.4,3.199l0.259,0.189
		c0.151,0.109,0.325,0.162,0.497,0.162c0.263,0,0.521-0.121,0.687-0.35c0.274-0.377,0.191-0.908-0.188-1.182l-1.63-1.188
		l-3.029-2.203C92.65,45.061,92.121,45.145,91.846,45.523z"/>
	<path fill="#F9AF6D" d="M8.25,53.145L6.272,54.84c-0.354,0.305-0.396,0.838-0.091,1.193c0.166,0.195,0.404,0.297,0.643,0.297
		c0.195,0,0.392-0.068,0.551-0.205l1.977-1.693c0.355-0.305,0.396-0.84,0.093-1.195C9.14,52.881,8.604,52.84,8.25,53.145z"/>
	<path fill="#F9AF6D" d="M30.228,11.287c0.364,0,0.703-0.238,0.812-0.605c0.134-0.449-0.121-0.92-0.57-1.053l-2.787-0.832
		L22.88,7.369c-0.448-0.133-0.92,0.121-1.054,0.57c-0.133,0.447,0.122,0.92,0.57,1.053l5.043,1.502l2.547,0.758
		C30.066,11.275,30.147,11.287,30.228,11.287z"/>
	<path fill="#F9AF6D" d="M25.021,70.795c0.271-0.379,0.185-0.908-0.195-1.182l-4.131-2.959c-0.379-0.271-0.909-0.186-1.182,0.195
		s-0.185,0.91,0.195,1.182l4.13,2.961c0.149,0.105,0.322,0.158,0.493,0.158C24.596,71.15,24.855,71.027,25.021,70.795z"/>
	<path fill="#F9AF6D" d="M63.685,63.273c0.165,0.172,0.387,0.258,0.607,0.258c0.213,0,0.425-0.08,0.591-0.24
		c0.335-0.326,0.342-0.863,0.016-1.199l-5.083-5.225c-0.325-0.334-0.862-0.342-1.197-0.016c-0.336,0.326-0.343,0.863-0.017,1.199
		L63.685,63.273z"/>
	<path fill="#F9AF6D" d="M75.743,74.951c-0.438-0.164-0.928,0.059-1.09,0.496l-1.766,4.73c-0.163,0.439,0.06,0.928,0.498,1.09
		c0.097,0.037,0.196,0.055,0.296,0.055c0.343,0,0.666-0.211,0.794-0.551l1.765-4.732C76.403,75.602,76.182,75.113,75.743,74.951z"/>
	<path fill="#F9AF6D" d="M91.142,90.141c-0.276,0.377-0.193,0.908,0.184,1.184l4.46,3.26l2.883,2.105
		c0.15,0.111,0.325,0.164,0.499,0.164c0.261,0,0.519-0.121,0.685-0.348c0.276-0.377,0.193-0.908-0.184-1.184l-4.597-3.359
		l-2.746-2.006C91.946,89.68,91.417,89.762,91.142,90.141z"/>
	<path fill="#F2E5DF" d="M74.63,115.213c-0.462-0.047-0.881,0.295-0.927,0.76l-0.336,3.389c-0.045,0.465,0.295,0.881,0.76,0.928
		c0.029,0.002,0.058,0.004,0.085,0.004c0.431,0,0.799-0.326,0.841-0.766l0.336-3.387C75.435,115.674,75.095,115.26,74.63,115.213z"
		/>
	<path fill="#F2E5DF" d="M90.001,100.867l3.247,4.66c0.165,0.236,0.428,0.363,0.695,0.363c0.168,0,0.337-0.051,0.484-0.152
		c0.383-0.268,0.479-0.797,0.211-1.18l-3.248-4.66c-0.268-0.383-0.796-0.477-1.18-0.211
		C89.828,99.957,89.733,100.484,90.001,100.867z"/>
	<path fill="#F2E5DF" d="M90.251,74.246c-0.398,0.246-0.521,0.768-0.276,1.166c0.16,0.26,0.438,0.402,0.722,0.402
		c0.152,0,0.306-0.041,0.445-0.127l3.551-2.191l1.249-0.773c0.398-0.246,0.521-0.768,0.275-1.166
		c-0.181-0.293-0.513-0.436-0.835-0.393c-0.114,0.016-0.226,0.053-0.331,0.117L90.251,74.246z"/>
	<path fill="#F2E5DF" d="M8.1,34.24c-0.346-0.314-0.882-0.289-1.197,0.057c-0.314,0.346-0.288,0.883,0.059,1.197l3.105,2.822
		c0.162,0.148,0.366,0.223,0.57,0.223c0.229,0,0.459-0.094,0.627-0.279c0.314-0.344,0.289-0.881-0.058-1.195L8.1,34.24z"/>
	<path fill="#F2E5DF" d="M53.74,66.502l-4.552,0.555c-0.464,0.055-0.796,0.479-0.738,0.943c0.052,0.428,0.417,0.744,0.839,0.744
		c0.035,0,0.069-0.002,0.104-0.006l4.553-0.555c0.465-0.057,0.795-0.479,0.738-0.943S54.204,66.441,53.74,66.502z"/>
	<path fill="#F2E5DF" d="M5.322,70.15c-0.32-0.34-0.855-0.357-1.197-0.035c-0.34,0.32-0.356,0.855-0.036,1.197l3.39,3.6
		c0.166,0.178,0.391,0.268,0.616,0.268c0.208,0,0.417-0.076,0.58-0.23c0.341-0.32,0.357-0.857,0.037-1.197L5.322,70.15z"/>
	<path fill="#F2E5DF" d="M79.039,19.057c0.314-0.346,0.288-0.883-0.059-1.197c-0.348-0.314-0.884-0.287-1.197,0.061l-4.729,5.223
		c-0.314,0.348-0.287,0.885,0.06,1.197c0.162,0.148,0.365,0.219,0.567,0.219c0.23,0,0.462-0.094,0.628-0.277L79.039,19.057z"/>
	<path fill="#F2E5DF" d="M88.896,8.215c0.166,0.166,0.383,0.248,0.6,0.248s0.434-0.082,0.599-0.248l1.98-1.982l0.843-0.842
		c0.331-0.33,0.331-0.867,0-1.197c-0.33-0.33-0.866-0.33-1.197,0l-1.083,1.082l-1.741,1.74C88.565,7.348,88.565,7.883,88.896,8.215z
		"/>
	<path fill="#F2E5DF" d="M12.809,3.436l4.377,2.119c0.119,0.057,0.245,0.084,0.369,0.084c0.314,0,0.617-0.176,0.763-0.477
		c0.204-0.422,0.027-0.93-0.394-1.133l-4.377-2.117c-0.42-0.205-0.928-0.029-1.132,0.393S12.388,3.232,12.809,3.436z"/>
	<path fill="#F2E5DF" d="M77.035,63.494c0.082,0.025,0.165,0.037,0.247,0.037c0.363,0,0.699-0.236,0.81-0.602l2.188-7.201
		c0.137-0.447-0.116-0.922-0.563-1.057c-0.445-0.137-0.92,0.115-1.057,0.564l-2.189,7.201
		C76.335,62.885,76.588,63.357,77.035,63.494z"/>
	<path fill="#F2E5DF" d="M73.236,96.27l-2.684-2.824c-0.322-0.34-0.858-0.352-1.196-0.029c-0.339,0.322-0.354,0.857-0.031,1.197
		l2.683,2.824c0.167,0.176,0.391,0.264,0.614,0.264c0.21,0,0.421-0.078,0.584-0.234C73.545,97.145,73.559,96.609,73.236,96.27z"/>
	<path fill="#F2E5DF" d="M93.854,117.371c-0.21-0.418-0.72-0.588-1.138-0.379c-0.419,0.209-0.588,0.719-0.379,1.137l0.848,1.695
		c0.148,0.297,0.447,0.469,0.758,0.469c0.128,0,0.257-0.029,0.379-0.09c0.418-0.209,0.588-0.719,0.379-1.137L93.854,117.371z"/>
</g>
</svg>
