<?xml version="1.0" encoding="utf-8"?>
<!-- Generator: Adobe Illustrator 15.1.0, SVG Export Plug-In . SVG Version: 6.00 Build 0)  -->
<!DOCTYPE svg PUBLIC "-//W3C//DTD SVG 1.1//EN" "http://www.w3.org/Graphics/SVG/1.1/DTD/svg11.dtd">
<svg version="1.1" id="Layer_1" xmlns="http://www.w3.org/2000/svg" xmlns:xlink="http://www.w3.org/1999/xlink" x="0px" y="0px"
	 width="107.292px" height="133.111px" viewBox="0 0 107.292 133.111" enable-background="new 0 0 107.292 133.111"
	 xml:space="preserve">
<g>
	<path fill="#DDAC6C" d="M94.892,74.768c-0.339,2.205-1.188,4.512-1.443,6.615c0.436-0.209,0.87-0.422,1.304-0.639
		c3.543-1.781,7.099-3.709,10.276-6.092c0.108-0.08,0.229-0.172,0.359-0.268c-0.705-2.666-1.607-5.143-2.704-7.43
		c-2.619,1.258-5.22,2.553-7.792,3.91C94.892,72.166,94.892,73.467,94.892,74.768z"/>
	<path fill="#DDAC6C" d="M94.044,85.215c0.815,1.541,1.425,3.189,1.838,4.895c3.665-2.527,7.34-5.043,10.986-7.598
		c-0.253-2.307-0.621-4.504-1.102-6.59c-3.871,2.604-8.062,4.869-12.39,6.809C93.402,83.621,93.591,84.459,94.044,85.215z"/>
	<path fill="#DDAC6C" d="M30.849,38.65c0.562-0.312,1.123-0.627,1.685-0.941c0.833-0.463,1.664-0.93,2.497-1.396
		C32.958,35.91,30.063,36.281,30.849,38.65z"/>
	<path fill="#DDAC6C" d="M98.04,66.436c-1.231,0.299-2.449,0.658-3.651,1.025c0.054,0.258,0.104,0.516,0.151,0.773
		C95.7,67.623,96.868,67.025,98.04,66.436z"/>
	<path fill="#DDAC6C" d="M34.741,42.008c0.848,1.695-3.389,1.979-1.977,3.672c0.571,0.629,1.18,1.113,1.815,1.484
		c0.79-0.652,1.579-1.307,2.372-1.957v-7.135c-1.463,0.818-2.927,1.637-4.39,2.453C33.441,40.99,34.417,41.359,34.741,42.008z"/>
	<path fill="#DDAC6C" d="M36.952,48.029v-0.643c-0.208,0.168-0.415,0.336-0.623,0.504C36.535,47.945,36.743,47.992,36.952,48.029z"
		/>
	<path fill="#DDAC6C" d="M96.021,12.074c-0.283,1.129-1.411,2.824-0.564,4.236c0.583,1.746,2.499,3.361,3.09,5.025
		c1.597-1.152,3.187-2.312,4.765-3.49c0.65-0.484,1.297-0.975,1.944-1.463c-0.166-3.922-1.028-7.141-2.584-9.652
		c-2.27,0.643-4.521,1.352-6.756,2.121C96.064,9.822,96.105,10.893,96.021,12.074z"/>
	<path fill="#DDAC6C" d="M8.133,130.451c-0.559-0.316-1.087-0.662-1.583-1.035C7.046,129.789,7.574,130.135,8.133,130.451z"/>
	<path fill="#DDAC6C" d="M88.55,0.629c0.112-0.188,0.232-0.391,0.354-0.605C88.51,0.008,88.111,0,87.703,0H85.17
		c1.142,0.211,2.233,0.479,3.259,0.816C88.468,0.754,88.511,0.691,88.55,0.629z"/>
	<path fill="#DDAC6C" d="M96.228,118.607c2.319-1.504,4.739-3.26,6.305-5.586c0.158-0.234,1.816-3.178,1.316-3.273
		c-1.79-0.346-3.598-0.584-5.419-0.678c-2.061-0.107-4.119-0.09-6.174,0.023c-1.481,1.988-3.335,3.686-5.554,4.926
		c-0.847,0.283-1.977,0.283-2.824,0.564c-2.259,1.979-1.977,4.801-3.106,7.061c-4.519,9.318-16.097,9.318-25.133,10.449
		c-2.58,0.279-5.16,0.48-7.739,0.623c-0.135,0.131-0.269,0.264-0.402,0.395h15.93c5.971-2.621,12.309-4.338,18.224-7.078
		C86.584,123.746,91.655,121.578,96.228,118.607z"/>
	<path fill="#DDAC6C" d="M85.229,125.584c-5.913,2.785-12.161,4.639-18.188,7.143c-0.302,0.125-0.604,0.254-0.906,0.383
		c16.895-0.053,28.587-5.445,35.078-16.182c-0.434,0.322-0.87,0.631-1.301,0.926C95.33,121,90.239,123.225,85.229,125.584z"/>
	<path fill="#DDAC6C" d="M96.362,92.797c0.625,5.23-0.504,10.721-3.264,15.076c3.975-0.281,7.965-0.229,11.899,0.381
		c1.529-5.102,2.294-10.986,2.294-17.658c0-1.775-0.057-3.494-0.167-5.162C103.543,87.9,99.94,90.336,96.362,92.797z"/>
	<path fill="#DDAC6C" d="M16.834,132.939c1.153,0.113,2.366,0.172,3.645,0.172h23.261c0.073-0.072,0.146-0.143,0.219-0.215
		C34.917,133.213,25.876,132.943,16.834,132.939z"/>
	<path fill="#DDAC6C" d="M80.603,36.951h6.878c11.222,0,17.142-5.787,17.765-17.367c-5.926,4.4-11.991,8.607-18.063,12.803
		C84.986,33.904,82.795,35.428,80.603,36.951z"/>
	<path fill="#DDAC6C" d="M95.306,6.572c1.931-0.66,3.875-1.281,5.832-1.855c-2.251-2.414-5.415-3.902-9.498-4.463
		c-0.308,0.504-0.636,0.996-0.98,1.48C92.768,2.807,94.408,4.346,95.306,6.572z"/>
	<path fill="#DDAC6C" d="M66.935,49.633c8.755,1.412,17.509,1.129,23.439,8.754c1.956,2.543,3.098,5.225,3.804,8.131
		c2.375-0.709,4.771-1.348,7.219-1.738c0.039-0.02,0.077-0.037,0.116-0.055c-1.164-2.045-2.5-3.922-4.015-5.625
		c-6.532-7.348-16.326-11.02-29.384-11.02h-3.458c-0.233,0.164-0.465,0.33-0.697,0.492C64.866,49.018,65.858,49.326,66.935,49.633z"
		/>
	<path fill="#DDAC6C" d="M39.708,48.08h-2.415C38.073,48.182,38.882,48.172,39.708,48.08z"/>
	<path fill="#20BCBC" d="M68.079,21.1c-9.837,5.041-19.482,10.445-29.126,15.852h8.78c4.361-3.244,8.687-6.533,12.952-9.904
		C63.162,25.09,65.635,23.113,68.079,21.1z"/>
	<path fill="#20BCBC" d="M13.505,33.867c5.599-3.057,11.436-5.674,16.915-8.951c5.007-2.996,10.067-6.594,12.917-11.822
		c-2.503,0.268-4.964,0.709-7.388,1.285c-4.604,2.418-9.267,4.723-13.85,7.18c-6.212,3.328-12.19,7.062-17.965,11.102
		c-1.312,0.918-2.618,1.852-3.911,2.809v7.248c0.126-0.1,0.252-0.197,0.379-0.295C4.681,39.279,8.982,36.336,13.505,33.867z"/>
	<path fill="#20BCBC" d="M31.2,49.941c1.131-0.918,2.256-1.846,3.38-2.777c-0.636-0.371-1.244-0.855-1.815-1.484
		c-1.412-1.693,2.824-1.977,1.977-3.672c-0.324-0.648-1.3-1.018-2.179-1.482c-2.508,1.4-5.018,2.793-7.533,4.174
		c-4.601,2.525-9.243,4.996-13.979,7.27c-1.686,1.141-3.398,2.246-5.145,3.316c-1.8,1.102-3.702,2.293-5.682,3.385v17.092
		c3.42-3.033,6.888-6.014,10.388-8.953C17.405,61.104,24.308,55.527,31.2,49.941z"/>
	<path fill="#20BCBC" d="M28.116,15.682c1.283-0.658,2.566-1.316,3.848-1.979c6.789-3.506,13.522-7.213,19.731-11.689
		c0.885-0.637,1.794-1.309,2.7-2.014H25.948c-0.527,0.219-1.056,0.439-1.58,0.664C16.322,4.109,8.396,8.158,0.224,11.473v16.633
		c2.249-1.072,4.483-2.164,6.707-3.246C13.833,21.506,20.85,18.176,28.116,15.682z"/>
	<path fill="#20BCBC" d="M15.095,47.215c10.709-8.395,20.053-18.383,30.164-27.504c6.057-5.465,12.509-10.541,19.465-14.82
		C67.591,3.127,70.535,1.479,73.562,0H58.435c-0.007,0.006-0.014,0.012-0.021,0.018c-4.249,3.652-9.021,6.703-13.825,9.568
		c-1.803,1.074-3.63,2.104-5.473,3.104c2.235-0.434,4.497-0.764,6.791-0.959c0.146-0.012,1.107-0.09,0.895,0.328
		c-1.223,2.387-2.929,4.506-4.882,6.336c-8.893,8.344-20.96,12.066-31.063,18.6c-3.69,2.387-7.305,4.961-10.633,7.846v9.26
		c2.163-0.865,4.305-1.785,6.424-2.758C9.498,50.031,12.31,48.648,15.095,47.215z"/>
	<path fill="#20BCBC" d="M54.462,81.58c8.528-3.285,16.869-7.039,25.415-10.279c3.899-1.48,7.843-2.793,11.827-4.025
		c0.822-0.256,1.646-0.51,2.474-0.758c-0.706-2.906-1.848-5.588-3.804-8.131c-5.931-7.625-14.685-7.342-23.439-8.754
		c-1.076-0.307-2.068-0.615-2.976-1.061c-6.988,4.914-13.957,9.852-20.901,14.822c-9.837,7.039-19.497,14.283-29.079,21.637h6.735
		c1.67-0.859,3.338-1.723,4.998-2.598c7.903-4.16,15.834-8.289,23.952-12.018c4.52-2.076,9.036-4.346,13.7-6.078
		c2.355-0.873,4.865-1.713,7.39-1.887c1.634-0.111,3.6-0.094,4.595,1.428c-0.009,0.047-0.017,0.094-0.024,0.141
		c-1.506,2.543-4.586,3.752-7.222,4.744c-3.252,1.223-6.494,2.465-9.729,3.73c-3.735,1.459-7.483,3.012-10.924,5.092
		c-2.482,1.502-5.347,3.32-7.215,5.602c-0.44,0.539-1.125,1.547-0.26,1.844h2.312c0.7-0.109,1.402-0.277,2.05-0.418
		C47.767,83.867,51.186,82.84,54.462,81.58z"/>
	<path fill="#20BCBC" d="M1.985,55.982c-0.586,0.234-1.174,0.465-1.762,0.691v0.498c0.873-0.504,1.744-1.016,2.611-1.537
		C2.552,55.75,2.269,55.867,1.985,55.982z"/>
	<path fill="#20BCBC" d="M10.798,125.334c8.379-0.766,16.679-2.471,24.855-4.41c8.61-2.043,17.188-4.271,25.735-6.561
		c1.337-0.357,2.674-0.719,4.012-1.076c2.394-2.045,4.806-4.066,7.237-6.064c7.447-6.123,15.322-11.648,23.244-17.113
		c-0.413-1.705-1.022-3.354-1.838-4.895c-0.453-0.756-0.642-1.594-0.667-2.484c-3.744,1.678-7.588,3.111-11.408,4.307
		c-2.293,0.717-4.602,1.357-6.922,1.945c0.122,0.492,0.19,1.027,0.19,1.613c0,3.711-2.447,5.564-7.346,5.564H54.873
		c-16.091,10.918-32.238,21.732-50.07,29.711C6.802,125.713,8.8,125.516,10.798,125.334z"/>
	<path fill="#20BCBC" d="M71.207,111.768c4.36-1.104,8.743-2.105,13.181-2.834c2.875-0.473,5.789-0.855,8.711-1.061
		c2.76-4.355,3.889-9.846,3.264-15.076c-1.354,0.934-2.707,1.869-4.052,2.814C85.053,100.703,78.028,106.113,71.207,111.768z"/>
	<path fill="#20BCBC" d="M94.54,68.234c-0.047-0.258-0.098-0.516-0.151-0.773c-0.308,0.096-0.614,0.189-0.921,0.283
		c-8.282,2.547-16.301,5.67-24.3,8.994c-5.875,2.441-11.729,5.066-17.812,6.955c-1.447,0.449-2.927,0.918-4.427,1.338h20.077
		c8.935-5.982,18.006-11.76,27.515-16.787C94.528,68.24,94.534,68.238,94.54,68.234z"/>
	<path fill="#20BCBC" d="M31.686,96.891c0.977-0.252,1.955-0.496,2.937-0.73H20.701c-10.615,0-17.014,4.07-19.196,12.209
		c4.482-2.225,9.134-4.146,13.746-5.955C20.646,100.299,26.068,98.346,31.686,96.891z"/>
	<path fill="#20BCBC" d="M90.659,1.734c-1.235,1.725-2.682,3.318-4.111,4.846c-1.869,1.992-3.824,3.904-5.828,5.762
		c4.773-2.115,9.637-4.074,14.586-5.77C94.408,4.346,92.768,2.807,90.659,1.734z"/>
	<path fill="#20BCBC" d="M73.205,1.5c-3.632,1.932-7.153,4.068-10.541,6.404c-13.808,9.518-24.907,22.131-37.473,33.117
		c-0.847,0.74-1.701,1.467-2.561,2.186c2.749-1.502,5.484-3.027,8.218-4.557c-0.785-2.369,2.109-2.74,4.182-2.338
		c13.33-7.471,26.644-15.092,40.477-21.59c2.198-1.98,4.345-4.016,6.417-6.121c2.355-2.393,4.739-4.906,6.505-7.785
		C87.403,0.479,86.312,0.211,85.17,0h-8.977c-0.074,0.035-0.149,0.068-0.223,0.105C75.041,0.557,74.116,1.016,73.205,1.5z"/>
	<path fill="#20BCBC" d="M7.124,0c-3.711,0-6.011,1.779-6.9,5.342v3.514C6.836,6.109,13.294,2.906,19.833,0H7.124z"/>
	<path fill="#20BCBC" d="M43.958,132.896c6.4-6.305,13.039-12.371,19.849-18.242c-12.987,3.395-25.9,7.096-39.091,9.641
		c-6.434,1.24-12.9,2.1-19.423,2.678c-0.385,0.033-0.771,0.068-1.16,0.102c-0.001,0-0.002,0.002-0.003,0.002
		c0.064,0.08,0.129,0.156,0.193,0.236c0.091,0.107,0.183,0.213,0.276,0.318c0.081,0.09,0.162,0.176,0.244,0.264
		c0.099,0.105,0.198,0.209,0.3,0.311c0.082,0.082,0.167,0.16,0.251,0.24c0.107,0.1,0.216,0.203,0.327,0.301
		c0.082,0.072,0.166,0.141,0.249,0.211c0.121,0.102,0.239,0.203,0.363,0.299c0.07,0.055,0.145,0.107,0.216,0.16
		c0.496,0.373,1.024,0.719,1.583,1.035c0.062,0.033,0.122,0.07,0.184,0.105c0.16,0.088,0.325,0.17,0.49,0.254
		c0.086,0.043,0.169,0.086,0.255,0.127c0.162,0.078,0.329,0.154,0.495,0.227c0.094,0.043,0.187,0.084,0.282,0.125
		c0.168,0.07,0.339,0.139,0.512,0.205c0.099,0.039,0.198,0.076,0.299,0.113c0.175,0.064,0.354,0.127,0.534,0.188
		c0.101,0.033,0.203,0.066,0.306,0.1c0.186,0.059,0.373,0.117,0.563,0.172c0.099,0.027,0.201,0.055,0.302,0.082
		c0.199,0.053,0.4,0.107,0.604,0.158c0.09,0.021,0.183,0.041,0.274,0.061c0.22,0.051,0.44,0.102,0.666,0.146
		c0.058,0.012,0.119,0.021,0.178,0.033c0.232,0.047,0.469,0.088,0.706,0.127c0.052,0.008,0.104,0.016,0.155,0.025
		c0.191,0.029,0.386,0.061,0.582,0.088c0.053,0.008,0.108,0.014,0.162,0.021c0.192,0.025,0.385,0.051,0.581,0.072
		c0.07,0.008,0.144,0.018,0.215,0.023c0.109,0.012,0.219,0.025,0.329,0.035c0.008,0,0.019,0,0.026,0
		C25.876,132.943,34.917,133.213,43.958,132.896z"/>
	<path fill="#20BCBC" d="M38.084,82.654c5.345-4.963,12.013-8.029,18.731-10.658c3.263-1.275,6.535-2.533,9.813-3.768
		c1.5-0.564,3.149-1.158,4.354-2.256c0.303-0.277,1.333-1.074,0.869-1.518c-0.252-0.238-0.535-0.443-0.864-0.564
		c-1.749-0.65-3.98,0.213-5.627,0.799c-2.324,0.826-4.575,1.838-6.805,2.889c-6.228,2.938-12.507,5.732-18.654,8.84
		c-5.546,2.805-11.039,5.711-16.536,8.613h12.891C36.427,84.119,37.593,83.109,38.084,82.654z"/>
	<path fill="#20BCBC" d="M80.771,121.645c1.13-2.26,0.848-5.082,3.106-7.061c0.848-0.281,1.978-0.281,2.824-0.564
		c2.219-1.24,4.072-2.938,5.554-4.926c-5.916,0.324-11.796,1.453-17.546,2.822c-1.743,0.414-3.482,0.844-5.22,1.281
		c-5.646,4.738-11.152,9.646-16.535,14.688c-1.701,1.594-3.386,3.205-5.056,4.832c2.579-0.143,5.159-0.344,7.739-0.623
		C64.675,130.963,76.253,130.963,80.771,121.645z"/>
	<path fill="#20BCBC" d="M19.731,20.068c-4.909,2.168-9.725,4.582-14.506,6.893c-1.657,0.803-3.324,1.6-5.002,2.381v3.002
		c3.084-2.203,6.247-4.299,9.433-6.363C12.931,23.857,16.308,21.922,19.731,20.068z"/>
	<path fill="#20BCBC" d="M9.538,120.936c14.317-7.152,27.838-15.807,41.076-24.775H38.939c-1.858,0.404-3.712,0.834-5.559,1.299
		c-9.479,2.387-18.675,5.971-27.492,10.135c-1.581,0.748-3.169,1.516-4.734,2.326c-0.28,1.457-0.445,3.027-0.486,4.715v0.668
		c0,0.355,0.007,0.703,0.02,1.047c0.003,0.113,0.011,0.225,0.016,0.336c0.011,0.229,0.021,0.455,0.038,0.678
		c0.008,0.133,0.021,0.262,0.032,0.393c0.018,0.197,0.034,0.395,0.057,0.59c0.014,0.137,0.031,0.271,0.049,0.406
		c0.022,0.184,0.047,0.365,0.074,0.545c0.021,0.137,0.042,0.271,0.065,0.406c0.029,0.174,0.061,0.346,0.094,0.516
		c0.026,0.133,0.053,0.266,0.082,0.398c0.035,0.166,0.074,0.328,0.113,0.492c0.031,0.129,0.062,0.258,0.097,0.387
		c0.042,0.16,0.089,0.316,0.135,0.475c0.036,0.123,0.071,0.248,0.111,0.369c0.05,0.16,0.104,0.316,0.159,0.471
		c0.04,0.115,0.077,0.23,0.12,0.344c0.063,0.17,0.134,0.338,0.202,0.504c0.041,0.098,0.079,0.197,0.121,0.291
		c0.05,0.115,0.105,0.227,0.158,0.34h0.001C4.814,123.23,7.188,122.109,9.538,120.936z"/>
	<path fill="#20BCBC" d="M94.892,74.768c0-1.301,0-2.602,0-3.902c-1.843,0.971-3.672,1.971-5.484,3.014
		c-6.275,3.615-12.397,7.486-18.451,11.469c1.858,0.438,3.109,1.334,3.757,2.688c6.418-1.662,12.705-3.758,18.735-6.652
		C93.704,79.279,94.553,76.973,94.892,74.768z"/>
	<path fill="#20BCBC" d="M98.547,21.336c-0.591-1.664-2.507-3.279-3.09-5.025c-0.847-1.412,0.281-3.107,0.564-4.236
		c0.084-1.182,0.043-2.252-0.105-3.223c-7.359,2.529-14.533,5.684-21.508,9.08c-7.812,6.658-16.03,12.791-24.177,19.02h25.939
		c1.938-1.348,3.874-2.697,5.814-4.039C87.526,29.082,93.083,25.273,98.547,21.336z"/>
	<path fill="#20BCBC" d="M37.763,64.068c7.465-5.365,14.959-10.693,22.479-15.988H39.708c-0.826,0.092-1.635,0.102-2.415,0h-0.341
		v-0.051c-0.209-0.037-0.417-0.084-0.623-0.139C24.065,57.84,11.709,67.699,0.008,78.309C0.003,78.465,0,78.627,0,78.799
		c0,3.561,2.522,5.641,7.569,6.232h2.045c2.051-1.602,4.107-3.193,6.181-4.768C23.042,74.766,30.375,69.379,37.763,64.068z"/>
	<path fill="#754C29" d="M93.099,107.873c-2.922,0.205-5.836,0.588-8.711,1.061c-4.438,0.729-8.82,1.73-13.181,2.834
		c6.821-5.654,13.846-11.064,21.104-16.156c1.345-0.945,2.698-1.881,4.052-2.814c3.578-2.461,7.181-4.896,10.763-7.363
		c-0.066-0.992-0.151-1.967-0.257-2.922c-3.646,2.555-7.321,5.07-10.986,7.598c-7.922,5.465-15.797,10.99-23.244,17.113
		c-2.432,1.998-4.844,4.02-7.237,6.064c-1.338,0.357-2.675,0.719-4.012,1.076c-8.548,2.289-17.125,4.518-25.735,6.561
		c-8.177,1.939-16.477,3.645-24.855,4.41c-1.998,0.182-3.996,0.379-5.995,0.537c17.832-7.979,33.979-18.793,50.07-29.711h-4.259
		c-13.238,8.969-26.759,17.623-41.076,24.775c-2.35,1.174-4.724,2.295-7.126,3.354H2.411c0.058,0.123,0.113,0.248,0.173,0.367
		c0.056,0.109,0.116,0.215,0.173,0.324c0.07,0.129,0.138,0.26,0.211,0.387c0.066,0.115,0.137,0.227,0.206,0.34
		c0.055,0.09,0.107,0.184,0.165,0.271c0.016,0.023,0.031,0.047,0.047,0.068c0.074,0.115,0.152,0.225,0.229,0.336
		c0.003,0.004,0.005,0.006,0.006,0.01c0.072,0.102,0.144,0.203,0.217,0.303c0.082,0.111,0.168,0.221,0.253,0.33
		c0.014,0.016,0.027,0.033,0.039,0.051c0.001,0,0.002-0.002,0.003-0.002c0.389-0.033,0.775-0.068,1.16-0.102
		c6.522-0.578,12.989-1.438,19.423-2.678c13.19-2.545,26.104-6.246,39.091-9.641c-6.81,5.871-13.448,11.938-19.849,18.242
		c-0.072,0.072-0.146,0.143-0.219,0.215h3.758c0.134-0.131,0.268-0.264,0.402-0.395c1.67-1.627,3.354-3.238,5.056-4.832
		c5.383-5.041,10.889-9.949,16.535-14.688c1.737-0.438,3.477-0.867,5.22-1.281c5.75-1.369,11.63-2.498,17.546-2.822
		c2.055-0.113,4.113-0.131,6.174-0.023c1.821,0.094,3.629,0.332,5.419,0.678c0.5,0.096-1.158,3.039-1.316,3.273
		c-1.565,2.326-3.985,4.082-6.305,5.586c-4.572,2.971-9.644,5.139-14.577,7.426c-5.915,2.74-12.253,4.457-18.224,7.078h2.462
		c0.084,0,0.164-0.002,0.247-0.002c0.303-0.129,0.604-0.258,0.906-0.383c6.026-2.504,12.274-4.357,18.188-7.143
		c5.01-2.359,10.101-4.584,14.684-7.73c0.431-0.295,0.867-0.604,1.301-0.926c1.562-2.582,2.824-5.473,3.784-8.674
		C101.063,107.645,97.073,107.592,93.099,107.873z"/>
	<path fill="#754C29" d="M36.952,47.387v-2.18c-0.793,0.65-1.582,1.305-2.372,1.957c-1.124,0.932-2.249,1.859-3.38,2.777
		c-6.893,5.586-13.795,11.162-20.589,16.867c-3.5,2.939-6.968,5.92-10.388,8.953v0.811c-0.125,0.371-0.195,0.953-0.216,1.736
		C11.709,67.699,24.065,57.84,36.329,47.891C36.537,47.723,36.744,47.555,36.952,47.387z"/>
	<path fill="#754C29" d="M11.05,51.969c4.736-2.273,9.379-4.744,13.979-7.27c2.516-1.381,5.025-2.773,7.533-4.174
		c1.463-0.816,2.927-1.635,4.39-2.453c0.666-0.375,1.334-0.748,2.001-1.121c9.644-5.406,19.289-10.811,29.126-15.852
		c-2.444,2.014-4.917,3.99-7.394,5.947c-4.266,3.371-8.591,6.66-12.952,9.904h2.498c8.146-6.229,16.364-12.361,24.177-19.02
		c6.975-3.396,14.148-6.551,21.508-9.08c2.234-0.77,4.486-1.479,6.756-2.121c-0.453-0.732-0.965-1.402-1.534-2.014
		c-1.957,0.574-3.901,1.195-5.832,1.855c-4.949,1.695-9.812,3.654-14.586,5.77c2.004-1.857,3.959-3.77,5.828-5.762
		c1.43-1.527,2.876-3.121,4.111-4.846c0.345-0.484,0.673-0.977,0.98-1.48c-0.87-0.117-1.781-0.197-2.736-0.23
		c-0.121,0.215-0.241,0.418-0.354,0.605c-0.039,0.062-0.082,0.125-0.121,0.188c-1.766,2.879-4.149,5.393-6.505,7.785
		c-2.072,2.105-4.219,4.141-6.417,6.121C61.674,21.221,48.36,28.842,35.03,36.312c-0.833,0.467-1.664,0.934-2.497,1.396
		c-0.562,0.314-1.122,0.629-1.685,0.941c-2.733,1.529-5.469,3.055-8.218,4.557c0.859-0.719,1.714-1.445,2.561-2.186
		c12.565-10.986,23.665-23.6,37.473-33.117c3.388-2.336,6.909-4.473,10.541-6.404c0.911-0.484,1.836-0.943,2.766-1.395
		c0.073-0.037,0.148-0.07,0.223-0.105h-2.632c-3.026,1.479-5.971,3.127-8.838,4.891c-6.956,4.279-13.408,9.355-19.465,14.82
		C35.147,28.832,25.804,38.82,15.095,47.215c-2.785,1.434-5.597,2.816-8.447,4.127c-2.119,0.973-4.261,1.893-6.424,2.758v2.574
		c0.588-0.227,1.176-0.457,1.762-0.691c0.283-0.115,0.566-0.232,0.85-0.348c-0.867,0.521-1.738,1.033-2.611,1.537v1.498
		c1.979-1.092,3.882-2.283,5.682-3.385C7.651,54.215,9.364,53.109,11.05,51.969z"/>
	<path fill="#754C29" d="M41.92,18.395c1.953-1.83,3.659-3.949,4.882-6.336c0.213-0.418-0.748-0.34-0.895-0.328
		c-2.294,0.195-4.556,0.525-6.791,0.959c1.843-1,3.67-2.029,5.473-3.104c4.805-2.865,9.576-5.916,13.825-9.568
		C58.421,0.012,58.428,0.006,58.435,0h-4.039c-0.906,0.705-1.815,1.377-2.7,2.014c-6.209,4.477-12.942,8.184-19.731,11.689
		c-1.281,0.662-2.564,1.32-3.848,1.979c-7.267,2.494-14.283,5.824-21.186,9.178c-2.224,1.082-4.458,2.174-6.707,3.246v1.236
		c1.678-0.781,3.345-1.578,5.002-2.381c4.781-2.311,9.597-4.725,14.506-6.893c-3.424,1.854-6.801,3.789-10.075,5.912
		c-3.186,2.064-6.349,4.16-9.433,6.363v3.125c1.293-0.957,2.599-1.891,3.911-2.809c5.774-4.039,11.753-7.773,17.965-11.102
		c4.583-2.457,9.246-4.762,13.85-7.18c2.424-0.576,4.885-1.018,7.388-1.285c-2.85,5.229-7.91,8.826-12.917,11.822
		c-5.479,3.277-11.316,5.895-16.915,8.951c-4.522,2.469-8.824,5.412-12.902,8.555c-0.127,0.098-0.253,0.195-0.379,0.295v2.123
		c3.328-2.885,6.942-5.459,10.633-7.846C20.96,30.461,33.027,26.738,41.92,18.395z"/>
	<path fill="#754C29" d="M93.377,82.73c4.327-1.939,8.519-4.205,12.39-6.809c-0.119-0.52-0.245-1.031-0.379-1.537
		c-0.131,0.096-0.251,0.188-0.359,0.268c-3.178,2.383-6.733,4.311-10.276,6.092c-0.434,0.217-0.868,0.43-1.304,0.639
		c-6.03,2.895-12.317,4.99-18.735,6.652c0.14,0.293,0.251,0.609,0.334,0.947c2.32-0.588,4.629-1.229,6.922-1.945
		C85.789,85.842,89.633,84.408,93.377,82.73z"/>
	<path fill="#754C29" d="M33.381,97.459c1.847-0.465,3.7-0.895,5.559-1.299h-4.317c-0.981,0.234-1.96,0.479-2.937,0.73
		c-5.617,1.455-11.039,3.408-16.435,5.523c-4.612,1.809-9.264,3.73-13.746,5.955c-0.135,0.5-0.248,1.021-0.351,1.551
		c1.565-0.811,3.153-1.578,4.734-2.326C14.706,103.43,23.901,99.846,33.381,97.459z"/>
	<path fill="#754C29" d="M40.235,83.188c1.868-2.281,4.732-4.1,7.215-5.602c3.44-2.08,7.188-3.633,10.924-5.092
		c3.234-1.266,6.477-2.508,9.729-3.73c2.636-0.992,5.716-2.201,7.222-4.744c0.008-0.047,0.016-0.094,0.024-0.141
		c-0.995-1.521-2.961-1.539-4.595-1.428c-2.524,0.174-5.034,1.014-7.39,1.887c-4.664,1.732-9.181,4.002-13.7,6.078
		c-8.118,3.729-16.049,7.857-23.952,12.018c-1.66,0.875-3.328,1.738-4.998,2.598h2.652c5.497-2.902,10.99-5.809,16.536-8.613
		c6.147-3.107,12.427-5.902,18.654-8.84c2.229-1.051,4.48-2.062,6.805-2.889c1.646-0.586,3.878-1.449,5.627-0.799
		c0.329,0.121,0.612,0.326,0.864,0.564c0.464,0.443-0.566,1.24-0.869,1.518c-1.205,1.098-2.854,1.691-4.354,2.256
		c-3.278,1.234-6.551,2.492-9.813,3.768c-6.719,2.629-13.387,5.695-18.731,10.658c-0.491,0.455-1.657,1.465-1.827,2.377h3.719
		C39.11,84.734,39.795,83.727,40.235,83.188z"/>
	<path fill="#754C29" d="M98.547,21.336c-5.464,3.938-11.021,7.746-16.562,11.576c-1.94,1.342-3.876,2.691-5.814,4.039h3.926h0.506
		c2.192-1.523,4.384-3.047,6.579-4.564c6.072-4.195,12.138-8.402,18.063-12.803c0.019-0.363,0.034-0.732,0.043-1.109v-0.666
		c0-0.488-0.014-0.961-0.032-1.426c-0.647,0.488-1.294,0.979-1.944,1.463C101.733,19.023,100.144,20.184,98.547,21.336z"/>
	<path fill="#754C29" d="M25.948,0h-6.115C13.294,2.906,6.836,6.109,0.224,8.855v2.617C8.396,8.158,16.322,4.109,24.368,0.664
		C24.893,0.439,25.421,0.219,25.948,0z"/>
	<path fill="#754C29" d="M63.959,48.572c0.232-0.162,0.464-0.328,0.697-0.492h-1.575h-2.839
		c-7.521,5.295-15.015,10.623-22.479,15.988c-7.388,5.311-14.721,10.697-21.968,16.195c-2.073,1.574-4.13,3.166-6.181,4.768h4.364
		c9.582-7.354,19.242-14.598,29.079-21.637C50.002,58.424,56.971,53.486,63.959,48.572z"/>
	<path fill="#754C29" d="M94.892,70.865c2.572-1.357,5.173-2.652,7.792-3.91c-0.193-0.404-0.396-0.801-0.603-1.193
		c-0.179-0.34-0.361-0.674-0.549-1.004c-0.007-0.012-0.014-0.023-0.02-0.033c-0.039,0.018-0.077,0.035-0.116,0.055
		c-2.448,0.391-4.844,1.029-7.219,1.738c-0.827,0.248-1.651,0.502-2.474,0.758c-3.984,1.232-7.928,2.545-11.827,4.025
		c-8.546,3.24-16.887,6.994-25.415,10.279c-3.276,1.26-6.695,2.287-10.124,3.033c-0.647,0.141-1.35,0.309-2.05,0.418h4.642
		c1.5-0.42,2.979-0.889,4.427-1.338c6.083-1.889,11.937-4.514,17.812-6.955c7.999-3.324,16.018-6.447,24.3-8.994
		c0.307-0.094,0.613-0.188,0.921-0.283c1.202-0.367,2.42-0.727,3.651-1.025c-1.172,0.59-2.34,1.188-3.5,1.799
		c-0.006,0.004-0.012,0.006-0.019,0.01c-9.509,5.027-18.58,10.805-27.515,16.787h0.885c1.161,0,2.18,0.107,3.064,0.316
		c6.054-3.982,12.176-7.854,18.451-11.469C91.22,72.836,93.049,71.836,94.892,70.865z"/>
</g>
</svg>
