<?xml version="1.0" encoding="utf-8"?>
<!-- Generator: Adobe Illustrator 15.1.0, SVG Export Plug-In . SVG Version: 6.00 Build 0)  -->
<!DOCTYPE svg PUBLIC "-//W3C//DTD SVG 1.1//EN" "http://www.w3.org/Graphics/SVG/1.1/DTD/svg11.dtd">
<svg version="1.1" id="Layer_1" xmlns="http://www.w3.org/2000/svg" xmlns:xlink="http://www.w3.org/1999/xlink" x="0px" y="0px"
	 width="106.461px" height="133.678px" viewBox="0 0 106.461 133.678" enable-background="new 0 0 106.461 133.678"
	 xml:space="preserve">
<g>
	<path fill="none" d="M67.062,96.162c4.753,0,7.063-1.729,7.063-5.283s-2.311-5.283-7.063-5.283H44.686l-0.031-0.006
		c-0.476-0.107-0.926-0.199-1.357-0.275h-0.498c-3.861,0-5.788,1.857-5.788,5.564c0,3.711,1.927,5.564,5.788,5.564h5.991
		c0.577-0.09,1.126-0.184,1.628-0.277l0.051-0.004H67.062z"/>
	<path fill="#543620" d="M37.011,90.879c0-3.707,1.927-5.564,5.788-5.564h0.498c-1.203-0.217-2.248-0.318-3.219-0.318
		c-3.134,0-5.381,1.137-6.871,3.479c-0.537,0.895-1.26,2.639-0.018,4.189c1.979,2.826,5.466,3.615,8.58,4.135
		c0.627,0.055,1.302,0.086,1.985,0.086c1.769,0,3.513-0.203,5.035-0.441h-5.991C38.938,96.443,37.011,94.59,37.011,90.879z"/>
	<path fill="#543620" d="M67.303,48.363C80.905,52.299,95.92,62.1,94.812,77.33c0.001,1.191-0.791,2.236-1.559,3.248
		c-0.919,1.211-1.713,2.258-1.025,3.359c0.736,1.404,1.567,2.746,2.37,4.043c2.708,4.377,5.265,8.508,4.163,14.232
		c-0.502,3.352-2.854,5.266-5.127,7.115c-1.615,1.316-3.287,2.676-4.217,4.537c-0.363,0.727-0.263,1.746-0.166,2.732
		c0.117,1.186,0.237,2.412-0.431,3.248c-5.16,7.311-12.31,11.643-22.396,13.537c26.69-0.465,40.035-14.629,40.035-42.504
		c0-13.65-3.266-24.15-9.794-31.498C90.139,52.039,80.35,48.367,67.303,48.363z"/>
	<path fill="#543620" d="M35.406,36.254c-1.316,0-2.219,0.359-2.759,1.1c-0.239,0.508-0.078,1.377,0.093,2.295
		c0.172,0.926,0.367,1.975,0.227,2.967l-0.007,0.027c-0.165,0.66-0.761,0.865-1.239,1.031c-0.625,0.217-0.825,0.328-0.739,0.797
		c0.542,1.32,2.194,2.42,2.991,2.951c1.024,0.709,2.185,1.053,3.552,1.053c0.451,0,0.926-0.037,1.442-0.111h-1.956v-3.338
		c0.242-4.242,1.971-6.752,5.186-7.529c-0.985-0.172-1.909-0.363-2.799-0.578C38.209,36.621,36.734,36.254,35.406,36.254z"/>
	<path fill="#543620" d="M95.609,7.961c1.18,1.686-0.05,3.164-1.135,4.469c-0.895,1.076-1.666,2.006-1.116,2.885
		c0.495,0.988,1.257,1.955,1.995,2.893c1.865,2.371,3.793,4.822,1.66,7.596c-6.357,7.631-16.096,9.369-25.514,11.053
		c-0.695,0.125-1.383,0.252-2.074,0.377H86.65c11.574,0,17.508-6.154,17.807-18.475V18.09c0-11.871-5.863-17.807-17.584-17.807
		h-9.258c2.061,0.85,4.27,1.311,6.414,1.752C88.506,2.955,92.734,3.826,95.609,7.961z"/>
	<path fill="#EAADC6" d="M88.821,119.846c0.668-0.836,0.548-2.062,0.431-3.248c-0.097-0.986-0.197-2.006,0.166-2.732
		c0.93-1.861,2.602-3.221,4.217-4.537c2.273-1.85,4.625-3.764,5.127-7.115c1.102-5.725-1.455-9.855-4.163-14.232
		c-0.803-1.297-1.634-2.639-2.37-4.043c-0.688-1.102,0.106-2.148,1.025-3.359c0.768-1.012,1.56-2.057,1.559-3.248
		c1.107-15.23-13.907-25.031-27.51-28.967c-0.324-0.094-0.648-0.186-0.972-0.273l-0.036-0.008H40.459l-0.064,0.008
		c-0.518,0.121-0.987,0.211-1.428,0.273c-0.517,0.074-0.991,0.111-1.442,0.111c-1.367,0-2.527-0.344-3.552-1.053
		c-0.797-0.531-2.449-1.631-2.991-2.951c-0.086-0.469,0.114-0.58,0.739-0.797c0.479-0.166,1.074-0.371,1.239-1.031l0.007-0.027
		c0.141-0.992-0.055-2.041-0.227-2.967c-0.171-0.918-0.332-1.787-0.093-2.295c0.54-0.74,1.442-1.1,2.759-1.1
		c1.328,0,2.803,0.367,3.991,0.664c0.89,0.215,1.813,0.406,2.799,0.578c0.245,0.045,0.493,0.088,0.747,0.129l0.043,0.006
		l0.044-0.006c0.496-0.072,1.018-0.109,1.55-0.109h23.266l0.192-0.029c0.459-0.088,0.925-0.168,1.388-0.254
		c0.691-0.125,1.379-0.252,2.074-0.377c9.418-1.684,19.156-3.422,25.514-11.053c2.133-2.773,0.205-5.225-1.66-7.596
		c-0.738-0.938-1.5-1.904-1.995-2.893c-0.55-0.879,0.222-1.809,1.116-2.885c1.085-1.305,2.314-2.783,1.135-4.469
		c-2.875-4.135-7.104-5.006-11.58-5.926c-2.145-0.441-4.354-0.902-6.414-1.752c-0.201-0.084-0.402-0.166-0.602-0.258L76.957,0
		H42.131C28.168,0,17.54,3.566,10.543,10.602C3.547,17.635,0,28.318,0,42.354v47.635c0,14.551,3.207,25.584,9.531,32.797
		c6.33,7.227,16.398,10.893,29.929,10.893h25.261l0.021-0.004c0.571-0.09,1.131-0.188,1.684-0.291
		C76.512,131.488,83.661,127.156,88.821,119.846z M84.955,74.311c0,1.514-1.229,2.742-2.743,2.742s-2.742-1.229-2.742-2.742
		c0-1.516,1.228-2.744,2.742-2.744S84.955,72.795,84.955,74.311z M82.212,64.984c0-1.303,1.057-2.359,2.36-2.359
		c1.303,0,2.359,1.057,2.359,2.359s-1.057,2.359-2.359,2.359C83.269,67.344,82.212,66.287,82.212,64.984z M84.955,94.588
		c0,0.758-0.615,1.373-1.372,1.373s-1.371-0.615-1.371-1.373c0-0.756,0.614-1.371,1.371-1.371S84.955,93.832,84.955,94.588z
		 M83.8,100.936c1.352,0,2.447,1.096,2.447,2.449c0,1.35-1.096,2.447-2.447,2.447s-2.448-1.098-2.448-2.447
		C81.352,102.031,82.448,100.936,83.8,100.936z M84.572,111.197c1.303,0,2.359,1.055,2.359,2.359c0,1.303-1.057,2.359-2.359,2.359
		c-1.304,0-2.36-1.057-2.36-2.359C82.212,112.252,83.269,111.197,84.572,111.197z M77.775,81.262c0,0.625-0.506,1.131-1.13,1.131
		s-1.13-0.506-1.13-1.131c0-0.623,0.506-1.129,1.13-1.129S77.775,80.639,77.775,81.262z M38.193,23.182
		c0.806,0,1.459,0.654,1.459,1.461c0,0.805-0.653,1.459-1.459,1.459c-0.807,0-1.459-0.654-1.459-1.459
		C36.734,23.836,37.387,23.182,38.193,23.182z M36.734,8.875c0-0.729,0.59-1.318,1.318-1.318c0.727,0,1.316,0.59,1.316,1.318
		s-0.59,1.318-1.316,1.318C37.324,10.193,36.734,9.604,36.734,8.875z M28.074,59.518c-2.08,0-3.766-1.686-3.766-3.764
		c0-2.08,1.686-3.768,3.766-3.768c2.078,0,3.765,1.688,3.765,3.768C31.839,57.832,30.152,59.518,28.074,59.518z M29.016,65.826
		c0,0.986-0.801,1.787-1.789,1.787s-1.789-0.801-1.789-1.787c0-0.99,0.801-1.789,1.789-1.789S29.016,64.836,29.016,65.826z
		 M26.285,13.205c-1.092,0-1.977-0.885-1.977-1.977s0.885-1.977,1.977-1.977s1.977,0.885,1.977,1.977S27.377,13.205,26.285,13.205z
		 M28.262,34.736c0,0.457-0.369,0.824-0.823,0.824c-0.455,0-0.823-0.367-0.823-0.824c0-0.453,0.368-0.822,0.823-0.822
		C27.893,33.914,28.262,34.283,28.262,34.736z M25.438,26.102c0,1.092-0.885,1.977-1.977,1.977s-1.977-0.885-1.977-1.977
		s0.885-1.977,1.977-1.977S25.438,25.01,25.438,26.102z M23.155,69.873c1.079,0,1.954,0.875,1.954,1.953s-0.875,1.953-1.954,1.953
		s-1.954-0.875-1.954-1.953S22.076,69.873,23.155,69.873z M30.709,23.182c-0.936,0-1.693-0.758-1.693-1.693s0.758-1.693,1.693-1.693
		s1.695,0.758,1.695,1.693S31.645,23.182,30.709,23.182z M16.777,16.971c-0.727,0-1.317-0.59-1.317-1.318
		c0-0.727,0.591-1.318,1.317-1.318c0.729,0,1.318,0.592,1.318,1.318C18.096,16.381,17.506,16.971,16.777,16.971z M17.719,41.068
		c0,1.248-1.012,2.258-2.259,2.258s-2.259-1.01-2.259-2.258s1.012-2.26,2.259-2.26S17.719,39.82,17.719,41.068z M12.729,24.125
		c1.093,0,1.978,0.885,1.978,1.977s-0.885,1.977-1.978,1.977c-1.091,0-1.976-0.885-1.976-1.977S11.639,24.125,12.729,24.125z
		 M12.541,49.916c0.988,0,1.789,0.801,1.789,1.789s-0.801,1.789-1.789,1.789c-0.987,0-1.787-0.801-1.787-1.789
		S11.554,49.916,12.541,49.916z M11.459,71.566c1.222,0,2.213,0.992,2.213,2.213c0,1.223-0.991,2.213-2.213,2.213
		s-2.211-0.99-2.211-2.213C9.248,72.559,10.237,71.566,11.459,71.566z M10.895,88.512c0.91,0,1.646,0.736,1.646,1.646
		s-0.736,1.648-1.646,1.648s-1.646-0.738-1.646-1.648S9.984,88.512,10.895,88.512z M11.883,96.982c1.455,0,2.636,1.182,2.636,2.637
		s-1.181,2.635-2.636,2.635s-2.635-1.18-2.635-2.635S10.428,96.982,11.883,96.982z M13.672,66.916c-0.988,0-1.789-0.801-1.789-1.787
		c0-0.988,0.801-1.789,1.789-1.789c0.987,0,1.788,0.801,1.788,1.789C15.46,66.115,14.659,66.916,13.672,66.916z M14.707,87.57
		c0-1.873,1.517-3.389,3.389-3.389s3.389,1.516,3.389,3.389c0,1.871-1.517,3.387-3.389,3.387S14.707,89.441,14.707,87.57z
		 M18.096,119.715c0,0.938-0.759,1.695-1.695,1.695c-0.936,0-1.693-0.758-1.693-1.695c0-0.936,0.758-1.693,1.693-1.693
		C17.337,118.021,18.096,118.779,18.096,119.715z M21.201,104.514c1.717,0,3.107,1.391,3.107,3.105c0,1.717-1.391,3.107-3.107,3.107
		c-1.715,0-3.105-1.391-3.105-3.107C18.096,105.904,19.486,104.514,21.201,104.514z M24.709,118.021
		c1.053,0,1.906,0.854,1.906,1.906s-0.854,1.906-1.906,1.906s-1.906-0.854-1.906-1.906S23.656,118.021,24.709,118.021z
		 M26.485,99.514c-0.981,0-1.776-0.797-1.776-1.777s0.795-1.775,1.776-1.775s1.776,0.795,1.776,1.775S27.467,99.514,26.485,99.514z
		 M28.074,75.992c0-1.301,1.053-2.355,2.353-2.355s2.353,1.055,2.353,2.355c0,1.299-1.053,2.352-2.353,2.352
		S28.074,77.291,28.074,75.992z M49.441,116.939c0.572,0,1.036,0.463,1.036,1.035s-0.464,1.035-1.036,1.035
		c-0.571,0-1.035-0.463-1.035-1.035S48.87,116.939,49.441,116.939z M47.876,104.205c-0.902,0-1.635-0.732-1.635-1.635
		s0.732-1.635,1.635-1.635s1.635,0.732,1.635,1.635S48.778,104.205,47.876,104.205z M58.195,72.709c0,2.398-1.943,4.344-4.342,4.344
		s-4.343-1.945-4.343-4.344s1.944-4.342,4.343-4.342S58.195,70.311,58.195,72.709z M53.959,58.766c0-1.664,1.35-3.012,3.014-3.012
		s3.012,1.348,3.012,3.012s-1.348,3.012-3.012,3.012S53.959,60.43,53.959,58.766z M64.785,78.062c0-1.145,0.928-2.07,2.07-2.07
		c1.145,0,2.071,0.926,2.071,2.07c0,1.143-0.927,2.07-2.071,2.07C65.713,80.133,64.785,79.205,64.785,78.062z M48.79,96.443
		c-1.522,0.238-3.267,0.441-5.035,0.441c-0.684,0-1.358-0.031-1.985-0.086c-3.114-0.52-6.602-1.309-8.58-4.135
		c-1.242-1.551-0.52-3.295,0.018-4.189c1.49-2.342,3.737-3.479,6.871-3.479c0.971,0,2.016,0.102,3.219,0.318
		c0.432,0.076,0.882,0.168,1.357,0.275l0.031,0.006h22.376c4.753,0,7.063,1.729,7.063,5.283s-2.311,5.283-7.063,5.283H50.469
		l-0.051,0.004C49.916,96.26,49.367,96.354,48.79,96.443z M43.347,109.031c0.533,0,0.965,0.432,0.965,0.965
		s-0.432,0.965-0.965,0.965c-0.532,0-0.966-0.432-0.966-0.965S42.814,109.031,43.347,109.031z M67.892,64.037
		c-1.247,0-2.259-1.012-2.259-2.26s1.012-2.26,2.259-2.26s2.259,1.012,2.259,2.26S69.139,64.037,67.892,64.037z M64.974,57.26
		c-1.04,0-1.883-0.844-1.883-1.883c0-1.041,0.843-1.883,1.883-1.883s1.882,0.842,1.882,1.883
		C66.855,56.416,66.014,57.26,64.974,57.26z M44.312,58.766c1.065,0,1.93,0.863,1.93,1.928c0,1.066-0.864,1.932-1.93,1.932
		s-1.931-0.865-1.931-1.932C42.381,59.629,43.246,58.766,44.312,58.766z M34.757,69.873c-1.091,0-1.978-0.885-1.978-1.977
		s0.887-1.977,1.978-1.977c1.093,0,1.978,0.885,1.978,1.977S35.85,69.873,34.757,69.873z M34.945,100.936
		c1.716,0,3.107,1.393,3.107,3.107s-1.392,3.105-3.107,3.105s-3.106-1.391-3.106-3.105S33.229,100.936,34.945,100.936z
		 M38.287,121.834c1.846,0,3.342,1.496,3.342,3.342s-1.496,3.342-3.342,3.342s-3.342-1.496-3.342-3.342
		S36.441,121.834,38.287,121.834z M53.959,113.361c-1.195,0-2.164-0.969-2.164-2.164c0-1.197,0.969-2.166,2.164-2.166
		c1.197,0,2.166,0.969,2.166,2.166C56.125,112.393,55.156,113.361,53.959,113.361z M59.702,125.41c0,1.977-1.602,3.578-3.577,3.578
		s-3.577-1.602-3.577-3.578c0-1.975,1.602-3.576,3.577-3.576S59.702,123.436,59.702,125.41z M63.468,104.891
		c-0.729,0-1.318-0.592-1.318-1.318c0-0.729,0.59-1.318,1.318-1.318c0.728,0,1.317,0.59,1.317,1.318
		C64.785,104.299,64.195,104.891,63.468,104.891z M70.15,125.176c1.092,0,1.978,0.885,1.978,1.977s-0.886,1.977-1.978,1.977
		s-1.977-0.885-1.977-1.977S69.059,125.176,70.15,125.176z M70.15,118.021c0-1.223,0.99-2.213,2.213-2.213
		c1.221,0,2.211,0.99,2.211,2.213c0,1.221-0.99,2.211-2.211,2.211C71.141,120.232,70.15,119.242,70.15,118.021z M72.363,111.574
		c-1.223,0-2.213-0.992-2.213-2.213c0-1.223,0.99-2.213,2.213-2.213c1.221,0,2.211,0.99,2.211,2.213
		C74.574,110.582,73.584,111.574,72.363,111.574z M52.877,7.086c-0.598,0-1.082-0.484-1.082-1.082s0.484-1.082,1.082-1.082
		c0.599,0,1.082,0.484,1.082,1.082S53.476,7.086,52.877,7.086z M56.078,28.078c1.17,0,2.117,0.949,2.117,2.117
		c0,1.17-0.947,2.119-2.117,2.119s-2.119-0.949-2.119-2.119C53.959,29.027,54.908,28.078,56.078,28.078z M53.464,16.312
		c0,1.092-0.886,1.977-1.977,1.977c-1.092,0-1.977-0.885-1.977-1.977c0-1.094,0.885-1.979,1.977-1.979
		C52.578,14.334,53.464,15.219,53.464,16.312z M81.526,16.971c1.136,0,2.057,0.92,2.057,2.057c0,1.135-0.921,2.057-2.057,2.057
		s-2.057-0.922-2.057-2.057C79.47,17.891,80.391,16.971,81.526,16.971z M79.47,10.623c0-0.758,0.614-1.371,1.371-1.371
		s1.371,0.613,1.371,1.371s-0.614,1.371-1.371,1.371S79.47,11.381,79.47,10.623z M85.943,26.102c0.545,0,0.988,0.443,0.988,0.988
		s-0.443,0.988-0.988,0.988c-0.546,0-0.988-0.443-0.988-0.988S85.397,26.102,85.943,26.102z M70.15,28.078
		c-1.092,0-1.977-0.885-1.977-1.977s0.885-1.977,1.977-1.977s1.978,0.885,1.978,1.977S71.242,28.078,70.15,28.078z M65.633,14.334
		c-1.404,0-2.542-1.137-2.542-2.541s1.138-2.541,2.542-2.541c1.403,0,2.541,1.137,2.541,2.541S67.036,14.334,65.633,14.334z
		 M64.314,21.959c0,1.195-0.97,2.166-2.165,2.166c-1.196,0-2.165-0.971-2.165-2.166s0.969-2.164,2.165-2.164
		C63.345,19.795,64.314,20.764,64.314,21.959z M46.241,24.125c-1.195,0-2.165-0.971-2.165-2.166s0.97-2.164,2.165-2.164
		c1.196,0,2.165,0.969,2.165,2.164S47.438,24.125,46.241,24.125z M8.117,59.236c0,1.092-0.885,1.977-1.977,1.977
		s-1.977-0.885-1.977-1.977s0.885-1.977,1.977-1.977S8.117,58.145,8.117,59.236z"/>
	<circle fill="#754C29" cx="65.633" cy="11.793" r="2.541"/>
	<circle fill="#754C29" cx="23.461" cy="26.102" r="1.977"/>
	<circle fill="#754C29" cx="70.15" cy="26.102" r="1.977"/>
	<circle fill="#754C29" cx="46.241" cy="21.96" r="2.165"/>
	<circle fill="#754C29" cx="38.052" cy="8.875" r="1.317"/>
	<circle fill="#754C29" cx="15.46" cy="41.067" r="2.259"/>
	<circle fill="#754C29" cx="28.074" cy="55.754" r="3.765"/>
	<circle fill="#754C29" cx="13.671" cy="65.129" r="1.789"/>
	<circle fill="#754C29" cx="53.853" cy="72.709" r="4.342"/>
	<circle fill="#754C29" cx="30.427" cy="75.99" r="2.354"/>
	<circle fill="#754C29" cx="44.312" cy="60.695" r="1.93"/>
	<circle fill="#754C29" cx="82.212" cy="74.311" r="2.743"/>
	<circle fill="#754C29" cx="67.892" cy="61.777" r="2.26"/>
	<circle fill="#754C29" cx="18.096" cy="87.57" r="3.389"/>
	<circle fill="#754C29" cx="21.201" cy="107.62" r="3.106"/>
	<circle fill="#754C29" cx="34.945" cy="104.042" r="3.106"/>
	<circle fill="#754C29" cx="38.287" cy="125.176" r="3.342"/>
	<circle fill="#754C29" cx="56.125" cy="125.41" r="3.577"/>
	<circle fill="#754C29" cx="53.959" cy="111.196" r="2.165"/>
	<circle fill="#754C29" cx="63.468" cy="103.572" r="1.318"/>
	<circle fill="#754C29" cx="83.8" cy="103.384" r="2.448"/>
	<circle fill="#754C29" cx="72.362" cy="118.021" r="2.212"/>
	<circle fill="#20BCBC" cx="83.583" cy="94.588" r="1.372"/>
	<circle fill="#20BCBC" cx="26.285" cy="11.229" r="1.977"/>
	<circle fill="#20BCBC" cx="12.729" cy="26.102" r="1.977"/>
	<circle fill="#20BCBC" cx="11.46" cy="73.779" r="2.212"/>
	<circle fill="#20BCBC" cx="56.078" cy="30.196" r="2.118"/>
	<circle fill="#20BCBC" cx="80.841" cy="10.623" r="1.371"/>
	<circle fill="#20BCBC" cx="24.709" cy="119.928" r="1.906"/>
	<circle fill="#20BCBC" cx="43.347" cy="109.996" r="0.965"/>
	<circle fill="#20BCBC" cx="66.856" cy="78.062" r="2.071"/>
	<circle fill="#20BCBC" cx="34.757" cy="67.896" r="1.977"/>
	<circle fill="#20BCBC" cx="12.541" cy="51.705" r="1.789"/>
	<circle fill="#20BCBC" cx="52.877" cy="6.004" r="1.082"/>
	<circle fill="#F9AF6D" cx="85.943" cy="27.09" r="0.988"/>
	<circle fill="#F9AF6D" cx="51.487" cy="16.312" r="1.977"/>
	<circle fill="#F9AF6D" cx="38.193" cy="24.642" r="1.46"/>
	<circle fill="#F9AF6D" cx="56.972" cy="58.766" r="3.013"/>
	<circle fill="#F9AF6D" cx="23.155" cy="71.826" r="1.953"/>
	<circle fill="#F9AF6D" cx="11.883" cy="99.618" r="2.636"/>
	<circle fill="#F9AF6D" cx="84.572" cy="113.557" r="2.359"/>
	<circle fill="#F9AF6D" cx="49.441" cy="117.975" r="1.035"/>
	<circle fill="#F9AF6D" cx="84.572" cy="64.984" r="2.36"/>
	<circle fill="#C62790" cx="70.15" cy="127.152" r="1.977"/>
	<circle fill="#C62790" cx="30.709" cy="21.488" r="1.693"/>
	<circle fill="#C62790" cx="27.438" cy="34.736" r="0.823"/>
	<circle fill="#C62790" cx="62.149" cy="21.959" r="2.165"/>
	<circle fill="#C62790" cx="64.974" cy="55.377" r="1.883"/>
	<path fill="#C62790" d="M25.438,65.826c0,0.986,0.801,1.787,1.789,1.787s1.789-0.801,1.789-1.787c0-0.99-0.801-1.789-1.789-1.789
		S25.438,64.836,25.438,65.826z"/>
	<circle fill="#C62790" cx="10.895" cy="90.159" r="1.647"/>
	<circle fill="#C62790" cx="26.485" cy="97.736" r="1.776"/>
	<circle fill="#C62790" cx="47.876" cy="102.57" r="1.635"/>
	<circle fill="#C62790" cx="72.363" cy="109.361" r="2.213"/>
	<circle fill="#C62790" cx="76.646" cy="81.262" r="1.13"/>
	<circle fill="#C62790" cx="16.777" cy="15.652" r="1.318"/>
	<circle fill="#C62790" cx="6.141" cy="59.236" r="1.977"/>
	<circle fill="#C62790" cx="81.526" cy="19.027" r="2.057"/>
	<circle fill="#C62790" cx="16.401" cy="119.715" r="1.694"/>
</g>
</svg>
