<?xml version="1.0" encoding="utf-8"?>
<!-- Generator: Adobe Illustrator 15.1.0, SVG Export Plug-In . SVG Version: 6.00 Build 0)  -->
<!DOCTYPE svg PUBLIC "-//W3C//DTD SVG 1.1//EN" "http://www.w3.org/Graphics/SVG/1.1/DTD/svg11.dtd">
<svg version="1.1" id="Layer_1" xmlns="http://www.w3.org/2000/svg" xmlns:xlink="http://www.w3.org/1999/xlink" x="0px" y="0px"
	 width="108.182px" height="133.111px" viewBox="0 0 108.182 133.111" enable-background="new 0 0 108.182 133.111"
	 xml:space="preserve">
<g>
	<path fill="#DDAC6C" d="M96.275,8.686c-0.144,0.791-0.489,1.416-0.938,1.951c2.467-0.33,4.928-0.691,7.408-0.928
		c1.342-0.127,2.729-0.26,4.131-0.348c-0.815-1.943-2.011-3.619-3.592-5.021C100.02,1.447,95.863,0,90.82,0h-3.081
		c3.007,0.951,5.817,2.295,8.253,4.449C96.84,5.016,96.558,7.273,96.275,8.686z"/>
	<path fill="#DDAC6C" d="M37.437,111.406c-4.618,5.768-9.965,10.645-17.126,13.627c-1.962,0.773-3.961,1.105-5.938,1.074
		c-1.012,1.016-1.969,2.084-2.864,3.203c3.531,2.533,8.006,3.801,13.423,3.801c2.816,0,5.008-0.256,6.566-0.777
		c1.558-0.52,2.967-1.41,4.229-2.672c1.259-1.26,2.482-2.93,3.673-5.01c1.186-2.074,2.816-4.674,4.896-7.791l9.344-13.672
		c-0.055,0.033-0.109,0.066-0.163,0.1C48.372,106.299,42.883,108.805,37.437,111.406z"/>
	<path fill="#DDAC6C" d="M70.932,59.643c0.854-0.807,2.084-2.184,2.012-3.295c-0.75,1.068-1.445,2.182-2.072,3.35
		C70.891,59.678,70.913,59.66,70.932,59.643z"/>
	<path fill="#DDAC6C" d="M41.979,107.84c2.943-1.447,5.857-2.953,8.682-4.623c1.723-1.018,4.229-2.182,5.188-4.035
		c1.509-2.918-2.81-2.988-4.542-2.697c-1.412,0.238-2.824,0.52-4.232,0.828c-2.595,4.109-5.156,8.162-7.953,11.914
		C40.078,108.768,41.031,108.305,41.979,107.84z"/>
	<path fill="#DDAC6C" d="M94.845,26.648c0.623,3.24,0.274,6.469-1.958,9.146C87.404,42.34,80.26,47.334,74.924,53.76
		c0.671,0.352,1.16,0.836,1.305,1.514c0.436,2.027-1.916,3.934-3.264,5.053c-1.155,0.957-2.364,1.846-3.613,2.678
		c-0.537,1.393-0.985,2.857-1.316,4.42C65.777,79.002,55.046,84.65,48.832,94.535c-0.285,0.449-0.57,0.9-0.855,1.35
		c0.728-0.156,1.455-0.311,2.184-0.465c2.369-0.496,5.223-1.09,7.559-0.166c0.388,0.154,0.7,0.354,0.947,0.584l46.177-67.568
		c1.112-2.074,1.946-4.094,2.502-6.057c-2.954,1.348-6.094,2.412-9.144,3.396C97.087,25.969,95.967,26.314,94.845,26.648z"/>
	<path fill="#DDAC6C" d="M59.276,35.209c-2.349,0.553-4.692,1.129-7.024,1.74h6.217c0.359-0.516,0.637-1.084,0.812-1.717
		C59.281,35.225,59.277,35.217,59.276,35.209z"/>
	<path fill="#DDAC6C" d="M24.729,32.992c-3.638,0.021-7.275-0.119-10.912-0.867c-2.662-0.666-5.225-1.652-7.661-2.896
		c-0.569,0.609-1.084,1.26-1.528,1.955c0.092,0.105,0.178,0.211,0.271,0.312c2.788,3.109,6.503,4.883,11.136,5.334
		c1.426-0.59,2.834-1.213,4.237-1.83C21.764,34.346,23.248,33.674,24.729,32.992z"/>
	<path fill="#DDAC6C" d="M7.205,124.443c-0.609-1.16-1.068-2.436-1.38-3.822C6.135,122.01,6.596,123.283,7.205,124.443z"/>
	<path fill="#DDAC6C" d="M1.65,26.539c-0.41-0.916-0.744-1.865-1.001-2.846C0.906,24.676,1.24,25.623,1.65,26.539z"/>
	<path fill="#DDAC6C" d="M97.451,11.643c-1.253,0.166-2.51,0.324-3.766,0.48c-1.045,0.803-2.09,1.564-2.493,2.775
		c-0.282,1.131-0.282,2.541,0.282,3.389c1.268,2.189,2.439,4.658,3.097,7.162c0.468-0.143,0.937-0.285,1.401-0.43
		c3.982-1.248,8.089-2.613,11.795-4.557c0.273-1.357,0.414-2.688,0.414-3.992c0-2.068-0.264-3.951-0.782-5.656
		C104.074,10.824,100.729,11.205,97.451,11.643z"/>
	<path fill="#DDAC6C" d="M7.205,124.443c0.686,1.301,1.559,2.459,2.622,3.475c0.638-0.711,1.298-1.393,1.974-2.053
		C10.226,125.594,8.684,125.109,7.205,124.443z"/>
	<path fill="#DDAC6C" d="M57.587,34.102c-5.083-0.564-10.167,0.281-14.968-0.564c-4.814-0.85-9.631-0.705-14.447-0.6
		c-3.047,1.416-5.984,2.734-9.018,4.012H47.59c3.422-0.975,6.87-1.852,10.33-2.68C57.799,34.207,57.684,34.15,57.587,34.102z"/>
	<path fill="#DDAC6C" d="M4.335,28.236c-0.915-0.529-1.81-1.094-2.683-1.693c0.435,0.973,0.955,1.91,1.564,2.811
		C3.572,28.967,3.946,28.594,4.335,28.236z"/>
	<path fill="#754C29" d="M40.794,97.545c2.382-0.605,4.78-1.145,7.183-1.66c0.285-0.449,0.57-0.9,0.855-1.35
		c6.214-9.885,16.945-15.533,19.203-27.111c0.331-1.562,0.779-3.027,1.316-4.42c-5.062,3.381-10.792,5.84-16.314,8.264
		C45.082,74.756,37.229,78.496,29.47,82.4c-1.887,0.949-3.75,1.93-5.598,2.936L13.134,99.945c-1.811,1.809-3.296,3.637-4.476,5.482
		c2.911-0.439,5.814-1.021,8.693-1.623C25.277,102.152,32.955,99.539,40.794,97.545z"/>
	<path fill="#754C29" d="M37.437,111.406c-6.624,3.166-13.185,6.475-18.914,11.012c-1.45,1.148-2.842,2.377-4.149,3.689
		c1.977,0.031,3.976-0.301,5.938-1.074C27.472,122.051,32.818,117.174,37.437,111.406z"/>
	<path fill="#754C29" d="M50.943,70.746c3.82-1.676,7.654-3.352,11.327-5.338c2.979-1.611,6.108-3.375,8.601-5.711
		c0.627-1.168,1.322-2.281,2.072-3.35c-0.037-0.57-0.415-1.068-1.361-1.387c-1.982-0.664-4.217-0.699-6.29-0.812
		c-2.203-0.119-4.409-0.168-6.616-0.135c-4.092,0.062-8.172,0.322-12.248,0.633L25.816,82.689c0.574-0.295,1.146-0.592,1.723-0.881
		C35.252,77.943,43.041,74.209,50.943,70.746z"/>
	<path fill="#754C29" d="M39.121,109.227c2.797-3.752,5.358-7.805,7.953-11.914c-1.825,0.398-3.643,0.844-5.438,1.299
		c-8.58,2.182-16.995,5.162-25.717,6.75c-2.583,0.471-5.359,1.139-8.168,1.594c-1.605,2.961-2.41,5.967-2.41,9.018
		c0,0.385,0.012,0.766,0.028,1.139c0.005,0.107,0.014,0.213,0.021,0.32c0.016,0.268,0.034,0.535,0.06,0.795
		c0.011,0.113,0.023,0.223,0.036,0.334c0.029,0.26,0.062,0.514,0.1,0.766c0.014,0.098,0.029,0.193,0.045,0.289
		c0.047,0.277,0.098,0.549,0.154,0.818c0.014,0.062,0.025,0.125,0.04,0.188c0.312,1.387,0.771,2.662,1.38,3.822
		c1.479,0.666,3.021,1.15,4.596,1.422C19.501,118.33,29.471,113.861,39.121,109.227z"/>
	<path fill="#754C29" d="M48.372,0H18.477C12.688,0,8.16,1.818,4.897,5.453C4.066,6.379,3.343,7.35,2.725,8.367
		c15.341-1.721,30.435-5.412,45.576-8.354C48.324,0.01,48.348,0.004,48.372,0z"/>
	<path fill="#754C29" d="M68.377,7.146c-11.836,7.467-26.116,9.156-39.527,12.008c-5.043,1.07-10.123,2.445-14.787,4.68
		c-2.762,1.322-5.729,3.059-7.907,5.395c2.437,1.244,4.999,2.23,7.661,2.896c3.637,0.748,7.274,0.889,10.912,0.867
		c5.57-2.559,11.072-5.26,16.637-7.838c7.99-3.705,16.158-6.865,24.658-9.199c8.428-2.314,17.031-3.941,25.721-4.873
		c1.201-0.131,2.398-0.283,3.594-0.445c0.448-0.535,0.794-1.16,0.938-1.951c0.282-1.412,0.564-3.67-0.283-4.236
		C93.557,2.295,90.746,0.951,87.739,0H75.787c-0.098,0.34-0.25,0.668-0.432,0.961C73.746,3.543,70.915,5.545,68.377,7.146z"/>
	<path fill="#754C29" d="M56.162,20.373c-8.396,3.012-16.354,7.049-24.396,10.875c-1.223,0.58-2.416,1.143-3.594,1.689
		c4.816-0.105,9.633-0.25,14.447,0.6c4.801,0.846,9.885,0,14.968,0.564c0.097,0.049,0.212,0.105,0.333,0.168
		c4.176-0.998,8.369-1.922,12.559-2.859c8.057-1.801,16.184-3.566,24.093-5.961c-0.657-2.504-1.829-4.973-3.097-7.162
		c-0.564-0.848-0.564-2.258-0.282-3.389c0.403-1.211,1.448-1.973,2.493-2.775c-3.945,0.488-7.896,0.955-11.815,1.611
		C73.131,15.199,64.504,17.377,56.162,20.373z"/>
	<path fill="#754C29" d="M68.444,52.75c1.306,0.096,4.606,0.029,6.479,1.01c5.336-6.426,12.48-11.42,17.963-17.965
		c2.232-2.678,2.581-5.906,1.958-9.146c-7.22,2.156-14.587,3.834-21.931,5.486c-4.544,1.023-9.102,2.008-13.638,3.074
		c0.001,0.008,0.005,0.016,0.005,0.023c-0.176,0.633-0.453,1.201-0.812,1.717h0.965L47.51,53.174
		C54.477,52.635,61.474,52.232,68.444,52.75z"/>
	<path fill="#754C29" d="M12.133,23.242c4.764-2.236,9.84-3.836,14.973-4.979c6.682-1.484,13.449-2.566,20.101-4.189
		c6.688-1.633,13.539-3.695,19.296-7.592c1.449-0.98,2.888-2.039,4.145-3.26c0.782-0.762,2.055-1.994,1.99-3.223h-17.68
		c-1.271,0.264-2.542,0.527-3.818,0.771c-4.418,0.85-8.836,1.695-13.246,2.58c-9.087,1.822-18.166,3.932-27.328,5.332
		C7.693,9.123,4.814,9.5,1.929,9.811C0.645,12.422,0,15.311,0,18.475c0,0.346,0.01,0.686,0.025,1.023
		c0.004,0.098,0.013,0.195,0.018,0.293c0.015,0.242,0.03,0.482,0.053,0.721c0.01,0.105,0.021,0.209,0.033,0.314
		c0.025,0.234,0.054,0.469,0.087,0.701c0.013,0.094,0.027,0.188,0.042,0.281c0.04,0.25,0.084,0.498,0.133,0.746
		c0.014,0.068,0.026,0.139,0.041,0.207c0.062,0.299,0.131,0.598,0.207,0.891c0.004,0.014,0.007,0.027,0.011,0.041
		c0.257,0.98,0.591,1.93,1.001,2.846c0,0.002,0,0.002,0,0.004h0.002c0.873,0.6,1.768,1.164,2.683,1.693
		C6.615,26.137,9.414,24.52,12.133,23.242z"/>
	<path fill="#C62790" d="M94.571,25.449c-7.909,2.395-16.036,4.16-24.093,5.961c-4.189,0.938-8.383,1.861-12.559,2.859
		c-3.46,0.828-6.908,1.705-10.33,2.68h4.662c2.332-0.611,4.676-1.188,7.024-1.74c4.536-1.066,9.094-2.051,13.638-3.074
		c7.344-1.652,14.711-3.33,21.931-5.486c1.122-0.334,2.242-0.68,3.356-1.039c3.05-0.984,6.189-2.049,9.144-3.396
		c0.167-0.588,0.306-1.172,0.423-1.75c-3.706,1.943-7.812,3.309-11.795,4.557C95.508,25.164,95.039,25.307,94.571,25.449z"/>
	<path fill="#C62790" d="M50.16,95.42c-0.729,0.154-1.456,0.309-2.184,0.465c-2.402,0.516-4.801,1.055-7.183,1.66
		c-7.839,1.994-15.517,4.607-23.442,6.26c-2.879,0.602-5.782,1.184-8.693,1.623c-0.324,0.508-0.63,1.016-0.906,1.527
		c2.809-0.455,5.585-1.123,8.168-1.594c8.722-1.588,17.137-4.568,25.717-6.75c1.795-0.455,3.612-0.9,5.438-1.299
		c1.408-0.309,2.82-0.59,4.232-0.828c1.732-0.291,6.051-0.221,4.542,2.697c-0.96,1.854-3.466,3.018-5.188,4.035
		c-2.824,1.67-5.738,3.176-8.682,4.623c-0.947,0.465-1.9,0.928-2.857,1.387c-9.65,4.635-19.62,9.104-27.32,16.639
		c-0.676,0.66-1.336,1.342-1.974,2.053c0.31,0.295,0.628,0.582,0.969,0.854c0.233,0.186,0.472,0.363,0.713,0.539
		c0.896-1.119,1.853-2.188,2.864-3.203c1.308-1.312,2.699-2.541,4.149-3.689c5.729-4.537,12.29-7.846,18.914-11.012
		c5.446-2.602,10.936-5.107,16.041-8.117c0.054-0.033,0.108-0.066,0.163-0.1l5.025-7.352c-0.247-0.23-0.56-0.43-0.947-0.584
		C55.383,94.33,52.529,94.924,50.16,95.42z"/>
	<path fill="#C62790" d="M37.893,3.352c4.41-0.885,8.828-1.73,13.246-2.58C52.415,0.527,53.686,0.264,54.957,0h-6.585
		c-0.024,0.004-0.048,0.01-0.071,0.014C33.159,2.955,18.065,6.646,2.725,8.367C2.436,8.838,2.171,9.32,1.929,9.811
		C4.814,9.5,7.693,9.123,10.564,8.684C19.727,7.283,28.806,5.174,37.893,3.352z"/>
	<path fill="#C62790" d="M14.062,23.834c4.664-2.234,9.744-3.609,14.787-4.68c13.411-2.852,27.691-4.541,39.527-12.008
		c2.538-1.602,5.369-3.604,6.979-6.186C75.537,0.668,75.689,0.34,75.787,0h-3.15c0.064,1.229-1.208,2.461-1.99,3.223
		c-1.257,1.221-2.695,2.279-4.145,3.26c-5.757,3.896-12.607,5.959-19.296,7.592c-6.651,1.623-13.419,2.705-20.101,4.189
		c-5.133,1.143-10.209,2.742-14.973,4.979c-2.719,1.277-5.518,2.895-7.798,4.994c-0.389,0.357-0.763,0.73-1.118,1.117
		c0.426,0.629,0.899,1.238,1.41,1.83c0.444-0.695,0.959-1.346,1.528-1.955C8.334,26.893,11.301,25.156,14.062,23.834z"/>
	<path fill="#C62790" d="M31.766,31.248c8.043-3.826,16-7.863,24.396-10.875c8.342-2.996,16.969-5.174,25.708-6.639
		c3.919-0.656,7.87-1.123,11.815-1.611c1.256-0.156,2.513-0.314,3.766-0.48c3.278-0.438,6.623-0.818,9.948-0.828
		c-0.152-0.5-0.325-0.984-0.522-1.453c-1.402,0.088-2.789,0.221-4.131,0.348c-2.48,0.236-4.941,0.598-7.408,0.928
		c-1.195,0.162-2.393,0.314-3.594,0.445c-8.689,0.932-17.293,2.559-25.721,4.873c-8.5,2.334-16.668,5.494-24.658,9.199
		c-5.564,2.578-11.066,5.279-16.637,7.838c-1.48,0.682-2.965,1.354-4.458,2.008c-1.403,0.617-2.812,1.24-4.237,1.83
		c0.789,0.078,1.601,0.119,2.443,0.119h0.678c3.033-1.277,5.971-2.596,9.018-4.012C29.35,32.391,30.543,31.828,31.766,31.248z"/>
	<path fill="#C62790" d="M53.037,71.268c5.522-2.424,11.252-4.883,16.314-8.264c1.249-0.832,2.458-1.721,3.613-2.678
		c1.348-1.119,3.699-3.025,3.264-5.053c-0.145-0.678-0.634-1.162-1.305-1.514c-1.873-0.98-5.174-0.914-6.479-1.01
		c-6.971-0.518-13.968-0.115-20.935,0.424l-1.082,1.473c4.076-0.311,8.156-0.57,12.248-0.633c2.207-0.033,4.413,0.016,6.616,0.135
		c2.073,0.113,4.308,0.148,6.29,0.812c0.946,0.318,1.324,0.816,1.361,1.387c0.072,1.111-1.157,2.488-2.012,3.295
		c-0.019,0.018-0.041,0.035-0.061,0.055c-2.492,2.336-5.622,4.1-8.601,5.711c-3.673,1.986-7.507,3.662-11.327,5.338
		c-7.902,3.463-15.691,7.197-23.404,11.062c-0.576,0.289-1.148,0.586-1.723,0.881l-1.944,2.646c1.848-1.006,3.711-1.986,5.598-2.936
		C37.229,78.496,45.082,74.756,53.037,71.268z"/>
</g>
</svg>
