<?xml version="1.0" encoding="utf-8"?>
<!-- Generator: Adobe Illustrator 15.1.0, SVG Export Plug-In . SVG Version: 6.00 Build 0)  -->
<!DOCTYPE svg PUBLIC "-//W3C//DTD SVG 1.1//EN" "http://www.w3.org/Graphics/SVG/1.1/DTD/svg11.dtd">
<svg version="1.1" id="Layer_1" xmlns="http://www.w3.org/2000/svg" xmlns:xlink="http://www.w3.org/1999/xlink" x="0px" y="0px"
	 width="108.687px" height="133.678px" viewBox="0 0 108.687 133.678" enable-background="new 0 0 108.687 133.678"
	 xml:space="preserve">
<g>
	<path fill="none" d="M39.459,42.799c0,3.352,2.005,5.184,5.999,5.508c0.433-0.062,0.875-0.135,1.329-0.221l0.053-0.004h15.547
		c4.752,0,7.062-1.729,7.062-5.283s-2.311-5.283-7.062-5.283H46.805c-1.227,0-2.314,0.123-3.23,0.365l-0.055,0.014l-0.054-0.006
		c-0.216-0.027-0.425-0.051-0.63-0.074C40.588,38.627,39.459,40.285,39.459,42.799z"/>
	<path fill="none" d="M62.387,96.162c4.752,0,7.062-1.729,7.062-5.283s-2.311-5.283-7.062-5.283l-13.889-0.002
		c-0.856-0.111-1.66-0.197-2.424-0.262c-4.407,0.182-6.615,2.029-6.615,5.547c0,3.264,1.896,5.09,5.684,5.482
		c0.713-0.045,1.46-0.111,2.248-0.197l0.031-0.002H62.387z"/>
	<path fill="#543620" d="M39.459,90.879c0-3.518,2.208-5.365,6.615-5.547c-1.015-0.084-1.957-0.127-2.84-0.127
		c-3.781,0-6.337,0.777-7.596,2.314c-0.883,1.076-1.141,2.562-0.77,4.418c0.459,1.604,1.939,3.711,4.585,4.299
		c1.729,0.215,3.561,0.262,5.688,0.125C41.355,95.969,39.459,94.143,39.459,90.879z"/>
	<path fill="#543620" d="M102.119,56.6c4.376-5.639,6.567-12.91,6.567-21.814c0-5.043-0.633-9.682-1.892-13.912
		c-1.264-4.23-3.229-7.863-5.898-10.908c-2.672-3.039-6.123-5.414-10.352-7.123c-4.229-1.703-9.314-2.559-15.248-2.559H59.945
		c3.826,1.023,7.85,1.646,11.754,2.242c4.857,0.742,9.881,1.512,14.658,3.068c7.355,2.648,14.047,9.812,12.617,18.389
		c-0.488,2.279-2.036,3.648-3.533,4.975c-1.219,1.078-2.37,2.096-2.98,3.559l-0.018,0.037c-0.744,1.24-1.12,3.115-0.283,4.51
		c0.407,0.693,0.839,1.379,1.295,2.105c2.619,4.166,5.586,8.887,2.064,12.912c-1.842,2.273-5.154,3.496-8.356,4.678
		c-5.337,1.971-10.381,3.83-9.115,10.193c1.763,0.873,3.858,1.703,6.075,2.58c8.994,3.564,20.188,8,16.25,18.887
		c-0.483,1.613-1.926,2.529-3.322,3.412c-1.129,0.717-2.295,1.457-2.909,2.561c-0.513,0.77-0.513,1.779-0.012,2.529
		c0.768,0.971,1.783,2.369,2.744,4.029l0.3,0.043c0.463,0.062,0.787,0.492,0.723,0.955c-0.026,0.184-0.111,0.344-0.23,0.469
		c2.056,4.08,3.385,9.289,0.418,13.738c-5.317,8.271-13.353,13.766-25.23,17.24h2.889c5.787,0,10.758-0.852,14.914-2.559
		c4.152-1.705,7.568-4.119,10.24-7.234c2.67-3.117,4.635-6.791,5.898-11.02c1.259-4.229,1.892-8.865,1.892-13.912
		c0-8.604-2.265-15.766-6.79-21.48c-4.527-5.711-10.871-9.16-19.031-10.35C91.324,65.652,97.741,62.24,102.119,56.6z"/>
	<path fill="#543620" d="M35.098,39.227c-0.963,0.988-1.406,2.451-1.354,4.471c0,2.824,2.521,3.875,4.023,4.252
		c2.377,0.648,4.805,0.768,7.69,0.357c-3.994-0.324-5.999-2.156-5.999-5.508c0-2.514,1.129-4.172,3.377-4.984
		c-1-0.109-1.874-0.164-2.652-0.164C37.794,37.65,36.131,38.166,35.098,39.227z"/>
	<path fill="#4EC1CE" d="M98.084,116.154c2.967-4.449,1.638-9.658-0.418-13.738c-0.156,0.16-0.373,0.262-0.607,0.262
		c-0.039,0-0.079-0.002-0.119-0.008l-7.773-1.082c-0.463-0.066-0.787-0.494-0.723-0.957s0.491-0.787,0.957-0.723l7.474,1.041
		c-0.961-1.66-1.977-3.059-2.744-4.029c-0.501-0.75-0.501-1.76,0.012-2.529c0.614-1.104,1.78-1.844,2.909-2.561
		c1.396-0.883,2.839-1.799,3.322-3.412c3.938-10.887-7.256-15.322-16.25-18.887c-2.217-0.877-4.312-1.707-6.075-2.58
		c-1.266-6.363,3.778-8.223,9.115-10.193c3.202-1.182,6.515-2.404,8.356-4.678c3.521-4.025,0.555-8.746-2.064-12.912
		c-0.456-0.727-0.888-1.412-1.295-2.105c-0.837-1.395-0.461-3.27,0.283-4.51l0.018-0.037c0.61-1.463,1.762-2.48,2.98-3.559
		c1.497-1.326,3.045-2.695,3.533-4.975c1.43-8.576-5.262-15.74-12.617-18.389c-4.777-1.557-9.801-2.326-14.658-3.068
		c-3.904-0.596-7.928-1.219-11.754-2.242c-0.331-0.09-0.664-0.176-0.994-0.271L58.912,0H33.895c-5.946,0-11.113,0.906-15.357,2.693
		c-4.251,1.791-7.805,4.287-10.564,7.42c-2.762,3.131-4.804,6.912-6.069,11.236C0.641,25.656,0,30.402,0,35.453
		c0,8.637,2.306,15.848,6.852,21.436c4.238,5.211,10.197,8.555,17.732,9.951c-7.537,1.41-13.498,4.828-17.734,10.174
		C2.305,82.75,0,89.961,0,98.447c0,5.055,0.641,9.801,1.903,14.104c1.265,4.322,3.306,8.102,6.069,11.236
		c2.764,3.139,6.281,5.598,10.455,7.311c4.164,1.711,9.219,2.58,15.021,2.58h38.42l0.037-0.012c0.318-0.088,0.634-0.18,0.947-0.271
		C84.731,129.92,92.767,124.426,98.084,116.154z M15.165,99.732c-0.376-0.279-0.452-0.811-0.173-1.186
		c0.281-0.375,0.811-0.453,1.187-0.172l7.437,5.555c0.375,0.279,0.451,0.809,0.172,1.184c-0.167,0.223-0.422,0.342-0.68,0.342
		c-0.176,0-0.354-0.055-0.506-0.17L15.165,99.732z M21.97,117.342c-0.153,0.283-0.444,0.445-0.745,0.445
		c-0.137,0-0.275-0.035-0.404-0.104l-6.588-3.576c-0.412-0.225-0.564-0.738-0.341-1.148c0.224-0.412,0.737-0.564,1.149-0.342
		l6.588,3.576C22.041,116.418,22.193,116.932,21.97,117.342z M23.596,84.709l-5.647-3.578c-0.396-0.25-0.513-0.773-0.263-1.168
		c0.25-0.396,0.773-0.514,1.169-0.264l5.647,3.578c0.396,0.25,0.514,0.773,0.264,1.17c-0.162,0.254-0.437,0.393-0.717,0.393
		C23.894,84.84,23.736,84.797,23.596,84.709z M9.468,33.154l0.94-6.346c0.07-0.463,0.502-0.781,0.963-0.715
		c0.463,0.07,0.783,0.5,0.715,0.963l-0.941,6.346c-0.063,0.42-0.424,0.723-0.838,0.723c-0.041,0-0.083-0.004-0.125-0.01
		C9.719,34.047,9.399,33.617,9.468,33.154z M14.166,49.211c0.39-0.26,0.915-0.154,1.175,0.236l2.071,3.105
		c0.26,0.389,0.154,0.916-0.236,1.176c-0.144,0.096-0.307,0.143-0.469,0.143c-0.273,0-0.542-0.133-0.705-0.379l-2.07-3.105
		C13.672,49.996,13.777,49.471,14.166,49.211z M27.738,53.195c-0.096-0.457,0.198-0.906,0.656-1.002
		c0.459-0.096,0.906,0.199,1.002,0.656l1.318,6.309c0.096,0.457-0.198,0.906-0.656,1.002c-0.059,0.012-0.117,0.02-0.174,0.02
		c-0.393,0-0.745-0.275-0.829-0.676L27.738,53.195z M23.255,35.879l3.013-8.096c0.163-0.439,0.652-0.664,1.089-0.5
		c0.438,0.164,0.662,0.65,0.499,1.09l-3.012,8.096c-0.127,0.342-0.451,0.553-0.795,0.553c-0.098,0-0.197-0.018-0.295-0.055
		C23.315,36.805,23.092,36.316,23.255,35.879z M22.261,19.262c-0.468,0-0.847-0.379-0.847-0.848c0-0.467,0.379-0.846,0.847-0.846
		h7.625c0.468,0,0.847,0.379,0.847,0.846c0,0.469-0.379,0.848-0.847,0.848H22.261z M30.702,99.91
		c0.462-0.064,0.894,0.252,0.963,0.715l0.753,5.082c0.068,0.463-0.252,0.895-0.714,0.963c-0.042,0.006-0.083,0.008-0.126,0.008
		c-0.412,0-0.774-0.303-0.836-0.723l-0.754-5.084C29.92,100.408,30.239,99.979,30.702,99.91z M26.869,7.912
		c0.219,0.414,0.062,0.928-0.352,1.146l-7.72,4.096c-0.126,0.066-0.263,0.1-0.396,0.1c-0.305,0-0.598-0.164-0.75-0.451
		c-0.219-0.414-0.062-0.926,0.352-1.146l7.719-4.096C26.137,7.342,26.649,7.5,26.869,7.912z M27.119,125.695l5.46,0.377
		c0.467,0.031,0.819,0.436,0.788,0.902c-0.031,0.447-0.404,0.789-0.846,0.789c-0.02,0-0.039,0-0.059-0.002l-5.459-0.377
		c-0.468-0.031-0.82-0.436-0.788-0.902C26.248,126.014,26.655,125.666,27.119,125.695z M43.466,37.889l0.054,0.006l0.055-0.014
		c0.916-0.242,2.004-0.365,3.23-0.365h15.582c4.752,0,7.062,1.729,7.062,5.283s-2.311,5.283-7.062,5.283H46.84l-0.053,0.004
		c-0.454,0.086-0.896,0.158-1.329,0.221c-2.886,0.41-5.313,0.291-7.69-0.357c-1.503-0.377-4.023-1.428-4.023-4.252
		c-0.053-2.02,0.391-3.482,1.354-4.471c1.033-1.061,2.696-1.576,5.086-1.576c0.778,0,1.652,0.055,2.652,0.164
		C43.041,37.838,43.25,37.861,43.466,37.889z M45.143,96.361c-2.128,0.137-3.959,0.09-5.688-0.125
		c-2.646-0.588-4.126-2.695-4.585-4.299c-0.371-1.855-0.113-3.342,0.77-4.418c1.259-1.537,3.814-2.314,7.596-2.314
		c0.883,0,1.825,0.043,2.84,0.127c0.764,0.064,1.567,0.15,2.424,0.262l13.889,0.002c4.752,0,7.062,1.729,7.062,5.283
		s-2.311,5.283-7.062,5.283H47.422l-0.031,0.002C46.603,96.25,45.855,96.316,45.143,96.361z M59.326,71.428l-4.174,5.365
		c-0.166,0.215-0.416,0.328-0.668,0.328c-0.182,0-0.365-0.059-0.52-0.18c-0.37-0.287-0.436-0.818-0.149-1.188l4.174-5.365
		c0.287-0.371,0.819-0.438,1.188-0.15S59.614,71.059,59.326,71.428z M55.25,62.328c-0.145,0.305-0.449,0.484-0.766,0.484
		c-0.122,0-0.245-0.025-0.361-0.08l-5.584-2.635c-0.424-0.199-0.605-0.705-0.405-1.127c0.2-0.424,0.704-0.605,1.128-0.404
		l5.584,2.633C55.27,61.398,55.45,61.904,55.25,62.328z M40.898,72.352c0.295,0.365,0.238,0.898-0.125,1.191
		c-0.158,0.127-0.346,0.189-0.533,0.189c-0.246,0-0.491-0.107-0.659-0.314l-3.2-3.953c-0.294-0.363-0.238-0.898,0.125-1.191
		c0.364-0.295,0.897-0.238,1.191,0.125L40.898,72.352z M69.084,76.951l-4.001,3.012c-0.153,0.115-0.331,0.17-0.509,0.17
		c-0.258,0-0.512-0.115-0.678-0.338c-0.281-0.373-0.207-0.904,0.168-1.186l4-3.012c0.373-0.283,0.904-0.207,1.186,0.166
		C69.531,76.139,69.457,76.668,69.084,76.951z M36.429,121.246l4.707-4.895c0.324-0.338,0.86-0.348,1.197-0.023
		s0.349,0.861,0.023,1.197l-4.706,4.895c-0.167,0.174-0.389,0.26-0.611,0.26c-0.211,0-0.422-0.078-0.587-0.234
		C36.115,122.119,36.104,121.584,36.429,121.246z M61.517,112.602l2.684-1.318c0.419-0.205,0.928-0.033,1.134,0.387
		c0.205,0.42,0.033,0.928-0.387,1.135l-2.684,1.316c-0.12,0.061-0.247,0.088-0.373,0.088c-0.312,0-0.613-0.174-0.761-0.475
		C60.924,113.316,61.098,112.807,61.517,112.602z M48.649,105.021l7.907-2.447c0.445-0.139,0.922,0.111,1.061,0.559
		c0.137,0.447-0.112,0.922-0.56,1.061l-7.907,2.447c-0.083,0.025-0.168,0.037-0.25,0.037c-0.362,0-0.697-0.232-0.811-0.596
		C47.952,105.635,48.203,105.16,48.649,105.021z M54.315,122.697l8.349-1.693c0.459-0.092,0.905,0.203,0.998,0.662
		c0.093,0.457-0.203,0.904-0.662,0.998l-8.348,1.695c-0.057,0.01-0.113,0.016-0.169,0.016c-0.395,0-0.748-0.277-0.829-0.678
		C53.561,123.238,53.857,122.791,54.315,122.697z M62.275,128.914l4.33-3.766c0.354-0.307,0.889-0.271,1.195,0.082
		s0.27,0.889-0.083,1.195l-4.33,3.766c-0.161,0.141-0.358,0.209-0.556,0.209c-0.236,0-0.473-0.1-0.64-0.291
		C61.886,129.756,61.923,129.221,62.275,128.914z M69.986,26.58c-0.295,0-0.582-0.154-0.738-0.43l-2.824-4.986
		c-0.229-0.408-0.086-0.924,0.32-1.154c0.407-0.232,0.924-0.088,1.154,0.318l2.824,4.986c0.23,0.408,0.088,0.926-0.319,1.154
		C70.271,26.545,70.129,26.58,69.986,26.58z M68.853,9.109l-8.001,2.789c-0.092,0.031-0.187,0.047-0.279,0.047
		c-0.35,0-0.678-0.219-0.8-0.568c-0.153-0.441,0.079-0.926,0.521-1.08l8.001-2.787c0.443-0.152,0.925,0.08,1.078,0.521
		C69.527,8.473,69.294,8.957,68.853,9.109z M55.183,23.918c-0.165,0.24-0.429,0.367-0.699,0.367c-0.165,0-0.333-0.047-0.479-0.148
		l-5.585-3.832c-0.385-0.264-0.483-0.793-0.219-1.178c0.266-0.385,0.793-0.482,1.178-0.219l5.584,3.832
		C55.35,23.006,55.447,23.533,55.183,23.918z M49.496,8.912l-4.143,4.096c-0.164,0.164-0.381,0.246-0.596,0.246
		c-0.219,0-0.436-0.084-0.602-0.252c-0.329-0.332-0.326-0.869,0.006-1.199l4.143-4.096c0.332-0.328,0.869-0.324,1.197,0.008
		C49.832,8.047,49.828,8.584,49.496,8.912z M48.082,28.152c0.463,0.068,0.783,0.498,0.715,0.961
		c-0.062,0.42-0.424,0.725-0.837,0.725c-0.041,0-0.083-0.004-0.124-0.01l-6.213-0.912c-0.463-0.068-0.783-0.498-0.715-0.961
		c0.067-0.463,0.5-0.787,0.961-0.715L48.082,28.152z M70.928,56.977c-0.241,0-0.479-0.102-0.646-0.301
		c-0.303-0.355-0.26-0.891,0.099-1.193l7.343-6.213c0.357-0.303,0.891-0.258,1.193,0.1s0.258,0.893-0.1,1.193l-7.343,6.213
		C71.315,56.91,71.12,56.977,70.928,56.977z M79.964,78.627c-0.226,0-0.45-0.09-0.616-0.266l-3.953-4.189
		c-0.322-0.34-0.307-0.875,0.034-1.197s0.877-0.305,1.198,0.035l3.953,4.188c0.321,0.342,0.305,0.877-0.035,1.199
		C80.381,78.551,80.173,78.627,79.964,78.627z M80.126,102.553c0.46,0.09,0.759,0.535,0.669,0.994l-1.694,8.66
		c-0.079,0.404-0.434,0.684-0.83,0.684c-0.055,0-0.108-0.004-0.164-0.016c-0.459-0.09-0.759-0.535-0.669-0.994l1.695-8.66
		C79.223,102.762,79.665,102.461,80.126,102.553z M81.839,35.549c0.345-0.316,0.882-0.293,1.196,0.053l3.954,4.314
		c0.316,0.344,0.293,0.879-0.053,1.195c-0.161,0.15-0.366,0.223-0.571,0.223c-0.23,0-0.458-0.092-0.625-0.275l-3.954-4.312
		C81.471,36.4,81.494,35.865,81.839,35.549z M79.416,21.393c-0.357-0.303-0.401-0.838-0.099-1.193c0.304-0.357,0.837-0.4,1.194-0.1
		l4.424,3.756c0.357,0.303,0.401,0.838,0.098,1.193c-0.167,0.197-0.406,0.299-0.646,0.299c-0.193,0-0.389-0.066-0.548-0.201
		L79.416,21.393z M92.981,47.799l-1.694,4.002c-0.137,0.322-0.451,0.516-0.781,0.516c-0.109,0-0.221-0.021-0.33-0.066
		c-0.43-0.182-0.632-0.68-0.449-1.111l1.694-4c0.183-0.432,0.681-0.631,1.11-0.449C92.962,46.871,93.163,47.369,92.981,47.799z
		 M85.701,13.92c-0.291-0.365-0.229-0.898,0.137-1.189s0.9-0.23,1.19,0.137l5.836,7.352c0.292,0.367,0.23,0.9-0.137,1.191
		c-0.155,0.123-0.341,0.184-0.526,0.184c-0.249,0-0.496-0.109-0.664-0.32L85.701,13.92z M75.54,121.129l5.083-3.389
		c0.39-0.26,0.916-0.154,1.175,0.234c0.261,0.391,0.155,0.916-0.235,1.176l-5.082,3.389c-0.146,0.096-0.309,0.141-0.469,0.141
		c-0.275,0-0.543-0.131-0.707-0.375C75.046,121.914,75.15,121.389,75.54,121.129z M80.834,86.305
		c-0.445-0.143-0.69-0.619-0.547-1.066c0.143-0.445,0.623-0.688,1.065-0.547l5.271,1.695c0.444,0.143,0.69,0.621,0.547,1.066
		c-0.114,0.357-0.448,0.586-0.806,0.586c-0.086,0-0.174-0.012-0.26-0.039L80.834,86.305z M8.52,104.182
		c-0.094,0.033-0.189,0.049-0.285,0.049c-0.348,0-0.674-0.215-0.797-0.562l-1.883-5.27c-0.157-0.441,0.072-0.926,0.514-1.084
		c0.439-0.156,0.924,0.072,1.082,0.514l1.883,5.27C9.189,103.539,8.961,104.023,8.52,104.182z"/>
	<path fill="#C62790" d="M17.652,12.803c0.152,0.287,0.445,0.451,0.75,0.451c0.133,0,0.27-0.033,0.396-0.1l7.72-4.096
		c0.413-0.219,0.57-0.732,0.352-1.146c-0.22-0.412-0.732-0.57-1.146-0.352l-7.719,4.096C17.591,11.877,17.434,12.389,17.652,12.803z
		"/>
	<path fill="#C62790" d="M70.723,25.314l-2.824-4.986c-0.23-0.406-0.747-0.551-1.154-0.318c-0.406,0.23-0.55,0.746-0.32,1.154
		l2.824,4.986c0.156,0.275,0.443,0.43,0.738,0.43c0.143,0,0.285-0.035,0.417-0.111C70.811,26.24,70.953,25.723,70.723,25.314z"/>
	<path fill="#C62790" d="M23.754,36.967c0.098,0.037,0.197,0.055,0.295,0.055c0.344,0,0.668-0.211,0.795-0.553l3.012-8.096
		c0.163-0.439-0.061-0.926-0.499-1.09c-0.437-0.164-0.926,0.061-1.089,0.5l-3.013,8.096C23.092,36.316,23.315,36.805,23.754,36.967z
		"/>
	<path fill="#C62790" d="M54.846,61.199l-5.584-2.633c-0.424-0.201-0.928-0.02-1.128,0.404c-0.2,0.422-0.019,0.928,0.405,1.127
		l5.584,2.635c0.116,0.055,0.239,0.08,0.361,0.08c0.316,0,0.621-0.18,0.766-0.484C55.45,61.904,55.27,61.398,54.846,61.199z"/>
	<path fill="#C62790" d="M78.916,49.369c-0.303-0.357-0.836-0.402-1.193-0.1l-7.343,6.213c-0.358,0.303-0.401,0.838-0.099,1.193
		c0.167,0.199,0.405,0.301,0.646,0.301c0.192,0,0.388-0.066,0.546-0.201l7.343-6.213C79.174,50.262,79.219,49.727,78.916,49.369z"/>
	<path fill="#C62790" d="M24.766,84.447c0.25-0.396,0.133-0.92-0.264-1.17l-5.647-3.578c-0.396-0.25-0.919-0.133-1.169,0.264
		c-0.25,0.395-0.133,0.918,0.263,1.168l5.647,3.578c0.141,0.088,0.298,0.131,0.453,0.131C24.329,84.84,24.604,84.701,24.766,84.447z
		"/>
	<path fill="#C62790" d="M13.892,112.959c-0.224,0.41-0.071,0.924,0.341,1.148l6.588,3.576c0.129,0.068,0.268,0.104,0.404,0.104
		c0.301,0,0.592-0.162,0.745-0.445c0.224-0.41,0.071-0.924-0.341-1.148l-6.588-3.576C14.629,112.395,14.115,112.547,13.892,112.959z
		"/>
	<path fill="#C62790" d="M54.483,124.375c0.056,0,0.112-0.006,0.169-0.016L63,122.664c0.459-0.094,0.755-0.541,0.662-0.998
		c-0.093-0.459-0.539-0.754-0.998-0.662l-8.349,1.693c-0.458,0.094-0.755,0.541-0.661,1
		C53.735,124.098,54.089,124.375,54.483,124.375z"/>
	<path fill="#C62790" d="M48.9,106.678c0.082,0,0.167-0.012,0.25-0.037l7.907-2.447c0.447-0.139,0.696-0.613,0.56-1.061
		c-0.139-0.447-0.615-0.697-1.061-0.559l-7.907,2.447c-0.446,0.139-0.697,0.613-0.56,1.061
		C48.203,106.445,48.538,106.678,48.9,106.678z"/>
	<path fill="#C62790" d="M79.133,103.221l-1.695,8.66c-0.09,0.459,0.21,0.904,0.669,0.994c0.056,0.012,0.109,0.016,0.164,0.016
		c0.396,0,0.751-0.279,0.83-0.684l1.694-8.66c0.09-0.459-0.209-0.904-0.669-0.994C79.665,102.461,79.223,102.762,79.133,103.221z"/>
	<path fill="#C62790" d="M86.365,88.039c0.357,0,0.691-0.229,0.806-0.586c0.144-0.445-0.103-0.924-0.547-1.066l-5.271-1.695
		c-0.442-0.141-0.923,0.102-1.065,0.547c-0.144,0.447,0.102,0.924,0.547,1.066L86.105,88C86.191,88.027,86.279,88.039,86.365,88.039
		z"/>
	<path fill="#C62790" d="M48.305,7.707l-4.143,4.096c-0.332,0.33-0.335,0.867-0.006,1.199c0.166,0.168,0.383,0.252,0.602,0.252
		c0.215,0,0.432-0.082,0.596-0.246l4.143-4.096c0.332-0.328,0.336-0.865,0.006-1.197C49.174,7.383,48.637,7.379,48.305,7.707z"/>
	<path fill="#C62790" d="M92.728,21.41c0.367-0.291,0.429-0.824,0.137-1.191l-5.836-7.352c-0.29-0.367-0.824-0.428-1.19-0.137
		s-0.428,0.824-0.137,1.189l5.836,7.354c0.168,0.211,0.415,0.32,0.664,0.32C92.387,21.594,92.572,21.533,92.728,21.41z"/>
	<path fill="#F2E5DF" d="M16.707,53.871c0.162,0,0.325-0.047,0.469-0.143c0.391-0.26,0.496-0.787,0.236-1.176l-2.071-3.105
		c-0.26-0.391-0.785-0.496-1.175-0.236c-0.389,0.26-0.494,0.785-0.234,1.176l2.07,3.105C16.165,53.738,16.434,53.871,16.707,53.871z
		"/>
	<path fill="#F2E5DF" d="M40.908,27.955c-0.068,0.463,0.252,0.893,0.715,0.961l6.213,0.912c0.041,0.006,0.083,0.01,0.124,0.01
		c0.413,0,0.774-0.305,0.837-0.725c0.068-0.463-0.252-0.893-0.715-0.961l-6.213-0.912C41.408,27.168,40.976,27.492,40.908,27.955z"
		/>
	<path fill="#F2E5DF" d="M10.307,34.125c0.414,0,0.774-0.303,0.838-0.723l0.941-6.346c0.068-0.463-0.252-0.893-0.715-0.963
		c-0.461-0.066-0.893,0.252-0.963,0.715l-0.94,6.346c-0.068,0.463,0.251,0.893,0.714,0.961
		C10.224,34.121,10.266,34.125,10.307,34.125z"/>
	<path fill="#F2E5DF" d="M68.295,7.51l-8.001,2.787c-0.442,0.154-0.675,0.639-0.521,1.08c0.122,0.35,0.45,0.568,0.8,0.568
		c0.093,0,0.188-0.016,0.279-0.047l8.001-2.789c0.441-0.152,0.675-0.637,0.521-1.078C69.22,7.59,68.738,7.357,68.295,7.51z"/>
	<path fill="#F2E5DF" d="M85.74,41.059c0.167,0.184,0.395,0.275,0.625,0.275c0.205,0,0.41-0.072,0.571-0.223
		c0.346-0.316,0.369-0.852,0.053-1.195l-3.954-4.314c-0.314-0.346-0.852-0.369-1.196-0.053s-0.368,0.852-0.053,1.197L85.74,41.059z"
		/>
	<path fill="#F2E5DF" d="M36.506,68.273c-0.363,0.293-0.419,0.828-0.125,1.191l3.2,3.953c0.168,0.207,0.413,0.314,0.659,0.314
		c0.188,0,0.375-0.062,0.533-0.189c0.363-0.293,0.42-0.826,0.125-1.191l-3.201-3.953C37.403,68.035,36.87,67.979,36.506,68.273z"/>
	<path fill="#F2E5DF" d="M68.064,75.598l-4,3.012c-0.375,0.281-0.449,0.812-0.168,1.186c0.166,0.223,0.42,0.338,0.678,0.338
		c0.178,0,0.355-0.055,0.509-0.17l4.001-3.012c0.373-0.283,0.447-0.812,0.166-1.188C68.969,75.391,68.438,75.314,68.064,75.598z"/>
	<path fill="#F2E5DF" d="M23.107,105.455c0.258,0,0.513-0.119,0.68-0.342c0.279-0.375,0.203-0.904-0.172-1.184l-7.437-5.555
		c-0.376-0.281-0.905-0.203-1.187,0.172c-0.279,0.375-0.203,0.906,0.173,1.186l7.437,5.553
		C22.753,105.4,22.932,105.455,23.107,105.455z"/>
	<path fill="#F2E5DF" d="M37.039,122.68c0.223,0,0.444-0.086,0.611-0.26l4.706-4.895c0.325-0.336,0.313-0.873-0.023-1.197
		s-0.873-0.314-1.197,0.023l-4.707,4.895c-0.325,0.338-0.313,0.873,0.023,1.199C36.617,122.602,36.828,122.68,37.039,122.68z"/>
	<path fill="#F2E5DF" d="M61.13,113.734c0.147,0.301,0.448,0.475,0.761,0.475c0.126,0,0.253-0.027,0.373-0.088l2.684-1.316
		c0.42-0.207,0.592-0.715,0.387-1.135c-0.206-0.42-0.715-0.592-1.134-0.387l-2.684,1.318
		C61.098,112.807,60.924,113.316,61.13,113.734z"/>
	<path fill="#F2E5DF" d="M76.012,122.68c0.16,0,0.323-0.045,0.469-0.141l5.082-3.389c0.391-0.26,0.496-0.785,0.235-1.176
		c-0.259-0.389-0.785-0.494-1.175-0.234l-5.083,3.389c-0.39,0.26-0.494,0.785-0.235,1.176
		C75.469,122.549,75.736,122.68,76.012,122.68z"/>
	<path fill="#EAADC6" d="M89.4,99.908c-0.466-0.064-0.893,0.26-0.957,0.723s0.26,0.891,0.723,0.957l7.773,1.082
		c0.04,0.006,0.08,0.008,0.119,0.008c0.234,0,0.451-0.102,0.607-0.262c0.119-0.125,0.204-0.285,0.23-0.469
		c0.064-0.463-0.26-0.893-0.723-0.955l-0.3-0.043L89.4,99.908z"/>
	<path fill="#EAADC6" d="M30.732,18.414c0-0.467-0.379-0.846-0.847-0.846h-7.625c-0.468,0-0.847,0.379-0.847,0.846
		c0,0.469,0.379,0.848,0.847,0.848h7.625C30.354,19.262,30.732,18.883,30.732,18.414z"/>
	<path fill="#EAADC6" d="M54.963,22.74l-5.584-3.832c-0.385-0.264-0.912-0.166-1.178,0.219c-0.265,0.385-0.166,0.914,0.219,1.178
		l5.585,3.832c0.146,0.102,0.313,0.148,0.479,0.148c0.271,0,0.534-0.127,0.699-0.367C55.447,23.533,55.35,23.006,54.963,22.74z"/>
	<path fill="#EAADC6" d="M29.885,60.18c0.057,0,0.115-0.008,0.174-0.02c0.458-0.096,0.752-0.545,0.656-1.002l-1.318-6.309
		c-0.096-0.457-0.543-0.752-1.002-0.656c-0.458,0.096-0.752,0.545-0.656,1.002l1.317,6.309C29.14,59.904,29.492,60.18,29.885,60.18z
		"/>
	<path fill="#EAADC6" d="M30.742,105.955c0.062,0.42,0.424,0.723,0.836,0.723c0.043,0,0.084-0.002,0.126-0.008
		c0.462-0.068,0.782-0.5,0.714-0.963l-0.753-5.082c-0.069-0.463-0.501-0.779-0.963-0.715c-0.463,0.068-0.782,0.498-0.714,0.961
		L30.742,105.955z"/>
	<path fill="#EAADC6" d="M7.15,97.828c-0.158-0.441-0.643-0.67-1.082-0.514c-0.441,0.158-0.671,0.643-0.514,1.084l1.883,5.27
		c0.123,0.348,0.449,0.562,0.797,0.562c0.096,0,0.191-0.016,0.285-0.049c0.441-0.158,0.67-0.643,0.514-1.084L7.15,97.828z"/>
	<path fill="#EAADC6" d="M27.004,127.385l5.459,0.377c0.02,0.002,0.039,0.002,0.059,0.002c0.441,0,0.814-0.342,0.846-0.789
		c0.031-0.467-0.321-0.871-0.788-0.902l-5.46-0.377c-0.464-0.029-0.871,0.318-0.903,0.787
		C26.184,126.949,26.536,127.354,27.004,127.385z"/>
	<path fill="#EAADC6" d="M62.832,130.4c0.197,0,0.395-0.068,0.556-0.209l4.33-3.766c0.353-0.307,0.39-0.842,0.083-1.195
		s-0.842-0.389-1.195-0.082l-4.33,3.766c-0.353,0.307-0.39,0.842-0.083,1.195C62.359,130.301,62.596,130.4,62.832,130.4z"/>
	<path fill="#EAADC6" d="M59.178,70.238c-0.369-0.287-0.901-0.221-1.188,0.15l-4.174,5.365c-0.286,0.369-0.221,0.9,0.149,1.188
		c0.154,0.121,0.338,0.18,0.52,0.18c0.252,0,0.502-0.113,0.668-0.328l4.174-5.365C59.614,71.059,59.547,70.525,59.178,70.238z"/>
	<path fill="#EAADC6" d="M80.58,77.197l-3.953-4.188c-0.321-0.34-0.857-0.357-1.198-0.035s-0.356,0.857-0.034,1.197l3.953,4.189
		c0.166,0.176,0.391,0.266,0.616,0.266c0.209,0,0.417-0.076,0.581-0.23C80.885,78.074,80.901,77.539,80.58,77.197z"/>
	<path fill="#EAADC6" d="M84.388,25.348c0.239,0,0.479-0.102,0.646-0.299c0.304-0.355,0.26-0.891-0.098-1.193L80.512,20.1
		c-0.357-0.301-0.891-0.258-1.194,0.1c-0.303,0.355-0.259,0.891,0.099,1.193l4.424,3.754C83.999,25.281,84.194,25.348,84.388,25.348
		z"/>
	<path fill="#EAADC6" d="M92.531,46.689c-0.43-0.182-0.928,0.018-1.11,0.449l-1.694,4c-0.183,0.432,0.02,0.93,0.449,1.111
		c0.109,0.045,0.221,0.066,0.33,0.066c0.33,0,0.645-0.193,0.781-0.516l1.694-4.002C93.163,47.369,92.962,46.871,92.531,46.689z"/>
</g>
</svg>
