<?xml version="1.0" encoding="utf-8"?>
<!-- Generator: Adobe Illustrator 15.1.0, SVG Export Plug-In . SVG Version: 6.00 Build 0)  -->
<!DOCTYPE svg PUBLIC "-//W3C//DTD SVG 1.1//EN" "http://www.w3.org/Graphics/SVG/1.1/DTD/svg11.dtd">
<svg version="1.1" id="Layer_1" xmlns="http://www.w3.org/2000/svg" xmlns:xlink="http://www.w3.org/1999/xlink" x="0px" y="0px"
	 width="106.178px" height="133.111px" viewBox="0 0 106.178 133.111" enable-background="new 0 0 106.178 133.111"
	 xml:space="preserve">
<g>
	<path fill="none" d="M32.055,42.516c0,2.889,1.49,4.646,4.458,5.287c0.208,0.045,0.424,0.084,0.646,0.117
		c0.01,0.002,0.021,0.004,0.032,0.006c0.209,0.031,0.426,0.059,0.648,0.08c0.064,0.006,0.133,0.012,0.199,0.016
		c0.177,0.016,0.355,0.029,0.541,0.039c0.267,0.012,0.537,0.02,0.819,0.02h24.263c3.857,0,5.788-1.854,5.788-5.564
		c0-3.707-1.931-5.566-5.788-5.566H47.763h-7.404h-0.959C34.502,36.949,32.055,38.809,32.055,42.516z"/>
	<path fill="#DDAC6C" d="M39.399,48.08c-0.282,0-0.553-0.008-0.819-0.02C38.845,48.074,39.117,48.08,39.399,48.08z"/>
	<path fill="#DDAC6C" d="M67.002,0h-4.933c0.345,0.17,0.69,0.336,1.035,0.496C75.246,6.428,89.367,9.25,98.121,19.982
		c1.694,1.977,1.694,5.082,0.848,7.906c-1.978,9.037-6.496,17.227-3.954,26.545c1.977,6.496,2.824,13.273,2.542,20.051
		c-0.339,3.393-2.31,5.971-4.134,8.65l0.217,0.508c0.185,0.43-0.016,0.928-0.446,1.111c-0.108,0.047-0.222,0.068-0.332,0.068
		c-0.162,0-0.321-0.047-0.457-0.133c-0.807,1.305-1.507,2.67-1.908,4.197c-0.564,1.977-0.564,3.953,0,5.648
		c2.824,8.471,6.778,18.072-1.977,24.85c-1.977,1.695-4.236,2.824-6.494,3.672c-8.19,3.67-16.098,6.777-24.852,8.471
		c-4.322,0.865-8.611,1.338-12.878,1.584H64.33c27.897,0,41.848-14.023,41.848-42.07V43.406c0-14.543-3.154-25.412-9.459-32.611
		C90.409,3.6,80.503,0,67.002,0z"/>
	<path fill="#DDAC6C" d="M36.513,47.803c-2.968-0.641-4.458-2.398-4.458-5.287c0-3.707,2.447-5.566,7.345-5.566h0.959
		c-5.496-0.75-11.117-1.965-13.401,3.365c-1.129,2.26,0,5.646,2.541,6.496c2.312,0.602,4.657,0.879,7.014,0.99L36.513,47.803z"/>
	<path fill="#DDAC6C" d="M37.191,47.926c-0.011-0.002-0.022-0.004-0.032-0.006C37.169,47.922,37.181,47.924,37.191,47.926z"/>
	<path fill="#DDAC6C" d="M38.039,48.021c-0.066-0.004-0.135-0.01-0.199-0.016C37.904,48.012,37.973,48.018,38.039,48.021z"/>
	<path fill="#DD809B" d="M82.025,123.057c2.258-0.848,4.518-1.977,6.494-3.672c8.755-6.777,4.801-16.379,1.977-24.85
		c-0.564-1.695-0.564-3.672,0-5.648c0.401-1.527,1.102-2.893,1.908-4.197c-0.138-0.088-0.253-0.219-0.323-0.381l-2.929-6.855
		c-0.184-0.432,0.016-0.928,0.446-1.111s0.929,0.016,1.111,0.445l2.713,6.348c1.824-2.68,3.795-5.258,4.134-8.65
		c0.282-6.777-0.565-13.555-2.542-20.051c-2.542-9.318,1.977-17.508,3.954-26.545c0.847-2.824,0.847-5.93-0.848-7.906
		C89.367,9.25,75.246,6.428,63.104,0.496C62.76,0.336,62.414,0.17,62.069,0H41.402C13.802,0,0,14.174,0,42.516
		C0,56.17,3.263,66.668,9.794,74.012c6.529,7.346,16.323,11.02,29.383,11.02H69.45v3.34c-0.299,5.195-2.82,7.789-7.568,7.789H19.811
		c-11.574,0-17.512,6.16-17.807,18.477v0.666c0,11.875,5.859,17.809,17.585,17.809h24.707c4.267-0.246,8.556-0.719,12.878-1.584
		C65.928,129.834,73.835,126.727,82.025,123.057z M16.795,113.367l0.377-3.578c0.049-0.465,0.465-0.801,0.931-0.754
		c0.466,0.049,0.804,0.467,0.755,0.932l-0.377,3.576c-0.047,0.436-0.413,0.76-0.842,0.76c-0.029,0-0.06-0.002-0.09-0.006
		C17.084,114.248,16.746,113.832,16.795,113.367z M9.166,108.371c-0.226,0-0.451-0.09-0.617-0.268
		c-0.32-0.342-0.303-0.877,0.038-1.197l3.765-3.529c0.343-0.32,0.878-0.303,1.197,0.039c0.32,0.342,0.303,0.877-0.038,1.197
		l-3.765,3.529C9.582,108.295,9.374,108.371,9.166,108.371z M18.719,127.104c-0.162,0.244-0.432,0.377-0.705,0.377
		c-0.161,0-0.324-0.045-0.47-0.143l-3.953-2.635c-0.39-0.26-0.494-0.787-0.235-1.176c0.261-0.389,0.785-0.494,1.176-0.234
		l3.953,2.637C18.873,126.188,18.979,126.715,18.719,127.104z M85.149,109.445l-3.389,4.518c-0.166,0.223-0.421,0.34-0.679,0.34
		c-0.177,0-0.355-0.057-0.508-0.17c-0.374-0.281-0.449-0.812-0.169-1.186l3.39-4.52c0.281-0.375,0.812-0.449,1.185-0.17
		C85.354,108.539,85.43,109.07,85.149,109.445z M81.58,93.02c-0.041,0.006-0.082,0.01-0.121,0.01c-0.415,0-0.777-0.307-0.839-0.729
		l-0.752-5.271c-0.066-0.463,0.255-0.891,0.719-0.959c0.464-0.064,0.892,0.256,0.958,0.719l0.753,5.271
		C82.365,92.525,82.043,92.953,81.58,93.02z M87.766,65.924c0.021,0.469-0.338,0.865-0.806,0.887
		c-0.014,0.002-0.028,0.002-0.042,0.002c-0.449,0-0.823-0.354-0.845-0.807l-0.377-7.859c-0.021-0.467,0.338-0.865,0.806-0.889
		c0.472-0.023,0.865,0.34,0.887,0.807L87.766,65.924z M87.079,49.842l-3.765,3.082c-0.158,0.129-0.348,0.191-0.536,0.191
		c-0.246,0-0.489-0.105-0.656-0.311c-0.296-0.361-0.243-0.895,0.119-1.191l3.765-3.082c0.362-0.297,0.896-0.244,1.192,0.119
		C87.494,49.012,87.441,49.545,87.079,49.842z M86.163,29.105c0.421,0.207,0.593,0.715,0.387,1.135l-5.082,10.338
		c-0.147,0.299-0.449,0.473-0.762,0.473c-0.126,0-0.253-0.027-0.374-0.086c-0.42-0.207-0.592-0.715-0.386-1.135l5.084-10.338
		C85.236,29.072,85.743,28.898,86.163,29.105z M78.511,13.748c0.271-0.381,0.801-0.471,1.182-0.199l3.576,2.547
		c0.381,0.273,0.471,0.801,0.198,1.182c-0.164,0.232-0.426,0.357-0.69,0.357c-0.171,0-0.341-0.051-0.49-0.158l-3.577-2.547
		C78.328,14.658,78.239,14.129,78.511,13.748z M77.76,103.5l2.542-3.529c0.271-0.381,0.802-0.467,1.183-0.193
		c0.379,0.273,0.465,0.803,0.192,1.182l-2.541,3.531c-0.166,0.229-0.426,0.352-0.689,0.352c-0.171,0-0.345-0.053-0.494-0.16
		C77.572,104.408,77.486,103.881,77.76,103.5z M75.044,123.639l2.635-5.648c0.198-0.422,0.702-0.605,1.127-0.408
		c0.424,0.197,0.607,0.701,0.409,1.127l-2.636,5.646c-0.144,0.309-0.448,0.49-0.769,0.49c-0.119,0-0.241-0.025-0.357-0.08
		C75.029,124.568,74.847,124.064,75.044,123.639z M64.986,18.227c0.293-0.365,0.826-0.422,1.189-0.129l6.779,5.461
		c0.363,0.293,0.422,0.826,0.128,1.191c-0.169,0.207-0.413,0.314-0.661,0.314c-0.186,0-0.374-0.061-0.53-0.188l-6.777-5.459
		C64.75,19.125,64.691,18.592,64.986,18.227z M60.117,30.598c0.116-0.453,0.578-0.729,1.031-0.611l8.096,2.07
		c0.453,0.117,0.727,0.578,0.611,1.031c-0.099,0.383-0.443,0.637-0.82,0.637c-0.07,0-0.141-0.008-0.211-0.027l-8.096-2.068
		C60.275,31.512,60.002,31.051,60.117,30.598z M51.862,8.717c0.448-0.125,0.918,0.137,1.044,0.588l0.999,3.578
		c0.125,0.451-0.138,0.918-0.588,1.043c-0.076,0.021-0.153,0.031-0.229,0.031c-0.371,0-0.711-0.244-0.816-0.619l-0.998-3.576
		C51.148,9.311,51.412,8.842,51.862,8.717z M48.908,23.502c0.396-0.25,0.92-0.133,1.169,0.264l2.729,4.33
		c0.25,0.396,0.132,0.92-0.265,1.168c-0.141,0.09-0.296,0.131-0.451,0.131c-0.281,0-0.557-0.139-0.717-0.395l-2.73-4.33
		C48.395,24.273,48.513,23.75,48.908,23.502z M28.916,5.322l9.037-2.258c0.455-0.115,0.913,0.162,1.027,0.615
		c0.113,0.455-0.162,0.914-0.616,1.027l-9.037,2.26c-0.068,0.018-0.138,0.025-0.206,0.025c-0.38,0-0.725-0.258-0.82-0.643
		C28.187,5.896,28.463,5.436,28.916,5.322z M25.503,27.898c-0.161-0.439,0.063-0.926,0.503-1.088l5.648-2.07
		c0.438-0.16,0.926,0.062,1.087,0.502c0.161,0.441-0.063,0.928-0.503,1.088l-5.648,2.072c-0.097,0.035-0.194,0.051-0.292,0.051
		C25.952,28.453,25.629,28.242,25.503,27.898z M25.682,54.072c-0.154,0.117-0.334,0.174-0.513,0.174
		c-0.256,0-0.509-0.115-0.675-0.334l-3.201-4.213c-0.282-0.373-0.21-0.904,0.163-1.188c0.371-0.283,0.903-0.211,1.187,0.162
		l3.2,4.213C26.126,53.258,26.053,53.789,25.682,54.072z M13.952,60.891c-0.142,0.09-0.3,0.133-0.455,0.133
		c-0.279,0-0.554-0.139-0.715-0.391l-4.33-6.779c-0.252-0.393-0.136-0.918,0.258-1.17c0.395-0.25,0.919-0.135,1.171,0.258
		l4.329,6.777C14.461,60.115,14.347,60.639,13.952,60.891z M14.894,30.021l-1.13,6.025c-0.076,0.406-0.432,0.691-0.832,0.691
		c-0.051,0-0.104-0.006-0.157-0.016c-0.459-0.086-0.763-0.529-0.675-0.988l1.129-6.025c0.086-0.459,0.528-0.762,0.988-0.676
		C14.678,29.119,14.979,29.562,14.894,30.021z M19.709,19.605c-0.366,0-0.702-0.238-0.812-0.605c-0.135-0.447,0.12-0.92,0.568-1.053
		l6.59-1.973c0.447-0.135,0.92,0.121,1.054,0.568c0.134,0.449-0.121,0.922-0.568,1.055l-6.59,1.973
		C19.87,19.594,19.788,19.605,19.709,19.605z M26.783,71.791c-0.148,0.104-0.317,0.152-0.484,0.152
		c-0.268,0-0.531-0.127-0.695-0.363l-4.33-6.213c-0.268-0.385-0.174-0.912,0.21-1.18c0.385-0.268,0.912-0.172,1.18,0.211l4.33,6.213
		C27.261,70.994,27.166,71.523,26.783,71.791z M26.957,40.314c2.284-5.33,7.905-4.115,13.401-3.365h7.404h15.899
		c3.857,0,5.788,1.859,5.788,5.566c0,3.711-1.931,5.564-5.788,5.564H39.399c-0.282,0-0.555-0.006-0.819-0.02
		c-0.186-0.01-0.364-0.023-0.541-0.039c-0.066-0.004-0.135-0.01-0.199-0.016c-0.223-0.021-0.439-0.049-0.648-0.08
		c-0.011-0.002-0.022-0.004-0.032-0.006c-0.223-0.033-0.438-0.072-0.646-0.117l-0.001-0.002c-2.356-0.111-4.702-0.389-7.014-0.99
		C26.957,45.961,25.828,42.574,26.957,40.314z M66.492,58.105v4.141c0,0.469-0.379,0.848-0.847,0.848
		c-0.469,0-0.847-0.379-0.847-0.848v-4.141c0-0.469,0.378-0.848,0.847-0.848C66.113,57.258,66.492,57.637,66.492,58.105z
		 M51.568,56.52c0.044,0.467-0.299,0.879-0.764,0.924l-8.049,0.752c-0.027,0.002-0.053,0.004-0.08,0.004
		c-0.433,0-0.801-0.33-0.843-0.768c-0.044-0.467,0.3-0.879,0.765-0.924l8.049-0.752C51.106,55.713,51.525,56.055,51.568,56.52z
		 M36.608,54.615l-3.954,6.025c-0.163,0.248-0.434,0.383-0.709,0.383c-0.16,0-0.321-0.045-0.464-0.139
		c-0.392-0.258-0.501-0.781-0.244-1.174l3.954-6.023c0.257-0.391,0.782-0.5,1.172-0.244C36.756,53.701,36.864,54.225,36.608,54.615z
		 M43.49,78.676c-0.107,0.369-0.446,0.609-0.813,0.609c-0.078,0-0.158-0.01-0.237-0.033l-4.518-1.318
		c-0.45-0.133-0.708-0.602-0.577-1.051c0.132-0.449,0.603-0.709,1.052-0.576l4.518,1.318C43.363,77.756,43.621,78.227,43.49,78.676z
		 M52.741,71.637c-0.167,0.203-0.408,0.307-0.651,0.307c-0.19,0-0.383-0.064-0.541-0.195l-5.46-4.541
		c-0.36-0.299-0.409-0.834-0.11-1.193s0.833-0.408,1.193-0.109l5.46,4.539C52.992,70.744,53.041,71.277,52.741,71.637z
		 M64.617,75.184c-0.146,0.1-0.312,0.148-0.478,0.148c-0.271,0-0.536-0.129-0.7-0.369c-0.264-0.387-0.164-0.914,0.222-1.178
		l8.284-5.658c0.387-0.264,0.914-0.166,1.177,0.221c0.265,0.387,0.166,0.914-0.221,1.178L64.617,75.184z M65.891,107.043
		l2.447-3.531c0.267-0.385,0.795-0.48,1.179-0.213c0.385,0.266,0.479,0.793,0.214,1.178l-2.447,3.531
		c-0.164,0.236-0.429,0.363-0.697,0.363c-0.167,0-0.334-0.049-0.481-0.15C65.719,107.953,65.624,107.426,65.891,107.043z
		 M27.265,99.811c0.36-0.297,0.895-0.246,1.193,0.115l5.836,7.061c0.297,0.359,0.247,0.893-0.114,1.191
		c-0.158,0.131-0.349,0.193-0.539,0.193c-0.243,0-0.485-0.104-0.653-0.307l-5.836-7.061
		C26.854,100.645,26.903,100.109,27.265,99.811z M36.498,123.844c-0.164,0.164-0.382,0.248-0.598,0.248
		c-0.218,0-0.434-0.084-0.6-0.248l-4.896-4.895c-0.33-0.332-0.33-0.867,0-1.199c0.332-0.33,0.867-0.33,1.198,0l4.895,4.896
		C36.829,122.977,36.829,123.514,36.498,123.844z M45.767,120.41l-4.707,5.459c-0.167,0.195-0.404,0.295-0.642,0.295
		c-0.196,0-0.393-0.068-0.554-0.207c-0.354-0.305-0.394-0.84-0.089-1.193l4.708-5.461c0.306-0.355,0.84-0.393,1.194-0.088
		C46.031,119.52,46.072,120.055,45.767,120.41z M52.75,109.713l-6.459-2.824c-0.429-0.188-0.624-0.688-0.437-1.115
		s0.687-0.625,1.115-0.438l6.459,2.824c0.429,0.188,0.624,0.688,0.437,1.117c-0.139,0.316-0.45,0.508-0.776,0.508
		C52.975,109.785,52.86,109.762,52.75,109.713z M53.972,124.846c-0.371,0-0.713-0.248-0.815-0.623
		c-0.124-0.451,0.141-0.918,0.593-1.041l11.672-3.201c0.452-0.123,0.918,0.143,1.042,0.594c0.123,0.451-0.143,0.916-0.593,1.041
		l-11.673,3.199C54.122,124.836,54.047,124.846,53.972,124.846z"/>
	<path fill="#F2E5DF" d="M65.114,19.418l6.777,5.459c0.156,0.127,0.345,0.188,0.53,0.188c0.248,0,0.492-0.107,0.661-0.314
		c0.294-0.365,0.235-0.898-0.128-1.191l-6.779-5.461c-0.363-0.293-0.896-0.236-1.189,0.129
		C64.691,18.592,64.75,19.125,65.114,19.418z"/>
	<path fill="#F2E5DF" d="M26.59,28.402l5.648-2.072c0.439-0.16,0.664-0.646,0.503-1.088c-0.161-0.439-0.649-0.662-1.087-0.502
		l-5.648,2.07c-0.439,0.162-0.664,0.648-0.503,1.088c0.126,0.344,0.449,0.555,0.795,0.555C26.396,28.453,26.493,28.438,26.59,28.402
		z"/>
	<path fill="#F2E5DF" d="M21.456,48.512c-0.373,0.283-0.445,0.814-0.163,1.188l3.201,4.213c0.166,0.219,0.419,0.334,0.675,0.334
		c0.179,0,0.358-0.057,0.513-0.174c0.371-0.283,0.444-0.814,0.161-1.186l-3.2-4.213C22.359,48.301,21.827,48.229,21.456,48.512z"/>
	<path fill="#F2E5DF" d="M64.799,58.105v4.141c0,0.469,0.378,0.848,0.847,0.848c0.468,0,0.847-0.379,0.847-0.848v-4.141
		c0-0.469-0.379-0.848-0.847-0.848C65.177,57.258,64.799,57.637,64.799,58.105z"/>
	<path fill="#F2E5DF" d="M47.172,65.904c-0.36-0.299-0.895-0.25-1.193,0.109s-0.25,0.895,0.11,1.193l5.46,4.541
		c0.158,0.131,0.351,0.195,0.541,0.195c0.243,0,0.484-0.104,0.651-0.307c0.3-0.359,0.251-0.893-0.109-1.193L47.172,65.904z"/>
	<path fill="#F2E5DF" d="M86.502,57.258c-0.468,0.023-0.827,0.422-0.806,0.889l0.377,7.859c0.021,0.453,0.396,0.807,0.845,0.807
		c0.014,0,0.028,0,0.042-0.002c0.468-0.021,0.827-0.418,0.806-0.887l-0.377-7.859C87.367,57.598,86.974,57.234,86.502,57.258z"/>
	<path fill="#F2E5DF" d="M51.374,29c0.16,0.256,0.436,0.395,0.717,0.395c0.155,0,0.311-0.041,0.451-0.131
		c0.396-0.248,0.515-0.771,0.265-1.168l-2.729-4.33c-0.249-0.396-0.772-0.514-1.169-0.264c-0.396,0.248-0.514,0.771-0.265,1.168
		L51.374,29z"/>
	<path fill="#F2E5DF" d="M29.121,6.992c0.068,0,0.138-0.008,0.206-0.025l9.037-2.26c0.454-0.113,0.729-0.572,0.616-1.027
		c-0.114-0.453-0.572-0.73-1.027-0.615l-9.037,2.258c-0.453,0.113-0.729,0.574-0.615,1.027C28.396,6.734,28.741,6.992,29.121,6.992z
		"/>
	<path fill="#F2E5DF" d="M14.217,29.033c-0.46-0.086-0.902,0.217-0.988,0.676L12.1,35.734c-0.088,0.459,0.216,0.902,0.675,0.988
		c0.054,0.01,0.106,0.016,0.157,0.016c0.4,0,0.756-0.285,0.832-0.691l1.13-6.025C14.979,29.562,14.678,29.119,14.217,29.033z"/>
	<path fill="#F2E5DF" d="M22.663,64.398c-0.268-0.383-0.795-0.479-1.18-0.211c-0.384,0.268-0.478,0.795-0.21,1.18l4.33,6.213
		c0.164,0.236,0.428,0.363,0.695,0.363c0.167,0,0.336-0.049,0.484-0.152c0.383-0.268,0.478-0.797,0.21-1.18L22.663,64.398z"/>
	<path fill="#F2E5DF" d="M80.332,40.965c0.121,0.059,0.248,0.086,0.374,0.086c0.312,0,0.614-0.174,0.762-0.473L86.55,30.24
		c0.206-0.42,0.034-0.928-0.387-1.135c-0.42-0.207-0.927-0.033-1.133,0.387L79.946,39.83C79.74,40.25,79.912,40.758,80.332,40.965z"
		/>
	<path fill="#F2E5DF" d="M42.598,56.508c-0.465,0.045-0.809,0.457-0.765,0.924c0.042,0.438,0.41,0.768,0.843,0.768
		c0.027,0,0.053-0.002,0.08-0.004l8.049-0.752c0.465-0.045,0.808-0.457,0.764-0.924c-0.043-0.465-0.462-0.807-0.922-0.764
		L42.598,56.508z"/>
	<path fill="#F2E5DF" d="M81.545,86.789c-0.066-0.463-0.494-0.783-0.958-0.719c-0.464,0.068-0.785,0.496-0.719,0.959l0.752,5.271
		c0.062,0.422,0.424,0.729,0.839,0.729c0.039,0,0.08-0.004,0.121-0.01c0.463-0.066,0.785-0.494,0.718-0.959L81.545,86.789z"/>
	<path fill="#F2E5DF" d="M84.979,108.258c-0.373-0.279-0.903-0.205-1.185,0.17l-3.39,4.52c-0.28,0.373-0.205,0.904,0.169,1.186
		c0.152,0.113,0.331,0.17,0.508,0.17c0.258,0,0.513-0.117,0.679-0.34l3.389-4.518C85.43,109.07,85.354,108.539,84.979,108.258z"/>
	<path fill="#F2E5DF" d="M53.865,109.277c0.188-0.43-0.008-0.93-0.437-1.117l-6.459-2.824c-0.429-0.188-0.928,0.01-1.115,0.438
		s0.008,0.928,0.437,1.115l6.459,2.824c0.11,0.049,0.225,0.072,0.339,0.072C53.415,109.785,53.727,109.594,53.865,109.277z"/>
	<path fill="#F2E5DF" d="M31.604,117.75c-0.331-0.33-0.866-0.33-1.198,0c-0.33,0.332-0.33,0.867,0,1.199l4.896,4.895
		c0.166,0.164,0.382,0.248,0.6,0.248c0.216,0,0.434-0.084,0.598-0.248c0.331-0.33,0.331-0.867,0-1.197L31.604,117.75z"/>
	<path fill="#F2E5DF" d="M17.549,114.297c0.03,0.004,0.061,0.006,0.09,0.006c0.429,0,0.795-0.324,0.842-0.76l0.377-3.576
		c0.049-0.465-0.289-0.883-0.755-0.932c-0.466-0.047-0.882,0.289-0.931,0.754l-0.377,3.578
		C16.746,113.832,17.084,114.248,17.549,114.297z"/>
	<path fill="#F2E5DF" d="M18.484,125.93l-3.953-2.637c-0.391-0.26-0.915-0.154-1.176,0.234c-0.259,0.389-0.154,0.916,0.235,1.176
		l3.953,2.635c0.146,0.098,0.309,0.143,0.47,0.143c0.273,0,0.543-0.133,0.705-0.377C18.979,126.715,18.873,126.188,18.484,125.93z"
		/>
	<path fill="#F2E5DF" d="M33.641,108.371c0.19,0,0.381-0.062,0.539-0.193c0.361-0.299,0.411-0.832,0.114-1.191l-5.836-7.061
		c-0.299-0.361-0.833-0.412-1.193-0.115c-0.361,0.299-0.411,0.834-0.113,1.193l5.836,7.061
		C33.155,108.268,33.397,108.371,33.641,108.371z"/>
	<path fill="#F2E5DF" d="M66.463,120.574c-0.124-0.451-0.59-0.717-1.042-0.594l-11.672,3.201c-0.452,0.123-0.717,0.59-0.593,1.041
		c0.103,0.375,0.444,0.623,0.815,0.623c0.075,0,0.15-0.01,0.226-0.031l11.673-3.199C66.32,121.49,66.586,121.025,66.463,120.574z"/>
	<path fill="#F2E5DF" d="M66.104,108.221c0.147,0.102,0.314,0.15,0.481,0.15c0.269,0,0.533-0.127,0.697-0.363l2.447-3.531
		c0.266-0.385,0.171-0.912-0.214-1.178c-0.384-0.268-0.912-0.172-1.179,0.213l-2.447,3.531
		C65.624,107.426,65.719,107.953,66.104,108.221z"/>
	<path fill="#754C29" d="M73.122,68.348c-0.263-0.387-0.79-0.484-1.177-0.221l-8.284,5.658c-0.386,0.264-0.485,0.791-0.222,1.178
		c0.164,0.24,0.43,0.369,0.7,0.369c0.165,0,0.331-0.049,0.478-0.148l8.284-5.658C73.288,69.262,73.387,68.734,73.122,68.348z"/>
	<path fill="#754C29" d="M52.272,13.338c0.105,0.375,0.445,0.619,0.816,0.619c0.075,0,0.152-0.01,0.229-0.031
		c0.45-0.125,0.713-0.592,0.588-1.043l-0.999-3.578c-0.126-0.451-0.596-0.713-1.044-0.588c-0.45,0.125-0.714,0.594-0.588,1.045
		L52.272,13.338z"/>
	<path fill="#754C29" d="M27.109,16.543c-0.134-0.447-0.606-0.703-1.054-0.568l-6.59,1.973c-0.448,0.133-0.703,0.605-0.568,1.053
		c0.109,0.367,0.445,0.605,0.812,0.605c0.079,0,0.161-0.012,0.242-0.035l6.59-1.973C26.988,17.465,27.243,16.992,27.109,16.543z"/>
	<path fill="#754C29" d="M78.709,14.93l3.577,2.547c0.149,0.107,0.319,0.158,0.49,0.158c0.265,0,0.526-0.125,0.69-0.357
		c0.272-0.381,0.183-0.908-0.198-1.182l-3.576-2.547c-0.381-0.271-0.911-0.182-1.182,0.199
		C78.239,14.129,78.328,14.658,78.709,14.93z"/>
	<path fill="#754C29" d="M9.881,52.941c-0.252-0.393-0.776-0.508-1.171-0.258c-0.394,0.252-0.51,0.777-0.258,1.17l4.33,6.779
		c0.161,0.252,0.436,0.391,0.715,0.391c0.155,0,0.313-0.043,0.455-0.133c0.395-0.252,0.509-0.775,0.258-1.172L9.881,52.941z"/>
	<path fill="#754C29" d="M86.006,48.531l-3.765,3.082c-0.362,0.297-0.415,0.83-0.119,1.191c0.167,0.205,0.41,0.311,0.656,0.311
		c0.188,0,0.378-0.062,0.536-0.191l3.765-3.082c0.362-0.297,0.415-0.83,0.119-1.191C86.902,48.287,86.368,48.234,86.006,48.531z"/>
	<path fill="#754C29" d="M42.914,77.625l-4.518-1.318c-0.449-0.133-0.92,0.127-1.052,0.576c-0.131,0.449,0.127,0.918,0.577,1.051
		l4.518,1.318c0.079,0.023,0.159,0.033,0.237,0.033c0.367,0,0.706-0.24,0.813-0.609C43.621,78.227,43.363,77.756,42.914,77.625z"/>
	<path fill="#754C29" d="M89.599,76.342c-0.431,0.184-0.63,0.68-0.446,1.111l2.929,6.855c0.07,0.162,0.186,0.293,0.323,0.381
		c0.136,0.086,0.295,0.133,0.457,0.133c0.11,0,0.224-0.021,0.332-0.068c0.431-0.184,0.631-0.682,0.446-1.111l-0.217-0.508
		l-2.713-6.348C90.527,76.357,90.029,76.158,89.599,76.342z"/>
	<path fill="#754C29" d="M77.952,104.682c0.149,0.107,0.323,0.16,0.494,0.16c0.264,0,0.523-0.123,0.689-0.352l2.541-3.531
		c0.272-0.379,0.187-0.908-0.192-1.182c-0.381-0.273-0.911-0.188-1.183,0.193L77.76,103.5
		C77.486,103.881,77.572,104.408,77.952,104.682z"/>
	<path fill="#754C29" d="M44.483,119.303l-4.708,5.461c-0.305,0.354-0.266,0.889,0.089,1.193c0.161,0.139,0.357,0.207,0.554,0.207
		c0.237,0,0.475-0.1,0.642-0.295l4.707-5.459c0.306-0.355,0.265-0.891-0.089-1.195C45.323,118.91,44.789,118.947,44.483,119.303z"/>
	<path fill="#754C29" d="M13.549,103.416c-0.319-0.342-0.854-0.359-1.197-0.039l-3.765,3.529c-0.341,0.32-0.358,0.855-0.038,1.197
		c0.166,0.178,0.392,0.268,0.617,0.268c0.208,0,0.416-0.076,0.58-0.229l3.765-3.529C13.852,104.293,13.869,103.758,13.549,103.416z"
		/>
	<path fill="#754C29" d="M60.729,31.629l8.096,2.068c0.07,0.02,0.141,0.027,0.211,0.027c0.377,0,0.722-0.254,0.82-0.637
		c0.115-0.453-0.158-0.914-0.611-1.031l-8.096-2.07c-0.453-0.117-0.915,0.158-1.031,0.611
		C60.002,31.051,60.275,31.512,60.729,31.629z"/>
	<path fill="#754C29" d="M36.363,53.443c-0.39-0.256-0.915-0.146-1.172,0.244l-3.954,6.023c-0.257,0.393-0.147,0.916,0.244,1.174
		c0.143,0.094,0.304,0.139,0.464,0.139c0.275,0,0.546-0.135,0.709-0.383l3.954-6.025C36.864,54.225,36.756,53.701,36.363,53.443z"/>
	<path fill="#754C29" d="M75.453,124.766c0.116,0.055,0.238,0.08,0.357,0.08c0.32,0,0.625-0.182,0.769-0.49l2.636-5.646
		c0.198-0.426,0.015-0.93-0.409-1.127c-0.425-0.197-0.929-0.014-1.127,0.408l-2.635,5.648
		C74.847,124.064,75.029,124.568,75.453,124.766z"/>
</g>
</svg>
