<?xml version="1.0" encoding="iso-8859-1"?>
<!-- Generator: Adobe Illustrator 19.0.0, SVG Export Plug-In . SVG Version: 6.00 Build 0)  -->
<svg xmlns="http://www.w3.org/2000/svg" xmlns:xlink="http://www.w3.org/1999/xlink" version="1.1" id="Capa_1" x="0px" y="0px" viewBox="0 0 512 512" style="enable-background:new 0 0 512 512;" xml:space="preserve">
<path style="fill:#737373;" d="M256,0l-60,256l60,256c141.385,0,256-114.615,256-256S397.385,0,256,0z"/>
<path style="fill:#969696;" d="M0,256c0,141.385,114.615,256,256,256V0C114.615,0,0,114.615,0,256z"/>
<path style="fill:#FFFFFF;" d="M256,30l-52.969,226L256,482c124.816,0,226-101.184,226-226S380.816,30,256,30z"/>
<path style="fill:#D5F6F5;" d="M256,30l-60,226l60,226c124.816,0,226-101.184,226-226S380.816,30,256,30z"/>
<path style="fill:#FFFFFF;" d="M30,256c0,124.816,101.184,226,226,226V30C131.184,30,30,131.184,30,256z"/>
<rect x="241" y="75" style="fill:#272727;" width="30" height="45"/>
<g>
	<rect x="181" y="399.5" style="fill:#737373;" width="30" height="30"/>
	<rect x="241" y="399.5" style="fill:#737373;" width="30" height="30"/>
</g>
<rect x="301" y="399.5" style="fill:#4D4D4D;" width="30" height="30"/>
<path style="fill:#272727;" d="M256,60l-20,15l20,15c40.377,0,77.428,14.497,106.236,38.551l-20.676,20.676l21.213,21.213  l20.676-20.676c21.042,25.201,34.758,56.711,37.866,91.236H392v30h29.329c-3.009,33.667-16.121,65.264-37.87,91.246l-20.686-20.686  l-21.213,21.213l42.366,42.366l10.606-10.606C431.591,357.475,452,308.275,452,256C452,147.925,364.075,60,256,60z"/>
<path style="fill:#F54100;" d="M303.918,305.214L256,150.017L236,319.5l20,50c27.57,0,50-22.43,50-50  C306,314.834,305.28,309.895,303.918,305.214z"/>
<path style="fill:#FE5F1A;" d="M208.152,304.979l-0.07,0.235c-1.362,4.681-2.082,9.62-2.082,14.286c0,27.57,22.43,50,50,50V150.017  L208.152,304.979z"/>
<path style="fill:#4D4D4D;" d="M256,60C147.925,60,60,147.925,60,256c0,52.277,20.409,101.477,57.469,138.534l10.607,10.607  l42.364-42.368l-21.215-21.213l-20.684,20.686c-21.75-25.98-34.862-57.579-37.871-91.246H120v-30H90.685  c3.107-34.525,16.824-66.036,37.866-91.236l20.676,20.676l21.213-21.213l-20.676-20.676C178.572,104.497,215.623,90,256,90V60z"/>
<g>
</g>
<g>
</g>
<g>
</g>
<g>
</g>
<g>
</g>
<g>
</g>
<g>
</g>
<g>
</g>
<g>
</g>
<g>
</g>
<g>
</g>
<g>
</g>
<g>
</g>
<g>
</g>
<g>
</g>
</svg>
