<?xml version="1.0" encoding="iso-8859-1"?>
<!-- Generator: Adobe Illustrator 16.0.0, SVG Export Plug-In . SVG Version: 6.00 Build 0)  -->
<!DOCTYPE svg PUBLIC "-//W3C//DTD SVG 1.1//EN" "http://www.w3.org/Graphics/SVG/1.1/DTD/svg11.dtd">
<svg version="1.1" id="Capa_1" xmlns="http://www.w3.org/2000/svg" xmlns:xlink="http://www.w3.org/1999/xlink" x="0px" y="0px"
	 width="302.194px" height="302.194px" viewBox="0 0 302.194 302.194" style="enable-background:new 0 0 302.194 302.194;"
	 xml:space="preserve">
<g>
	<g>
		<path d="M264.896,98.41h-2.731v-4.662c0-5.745-4.393-10.399-9.819-10.399c-5.421,0-9.813,4.648-9.813,10.399
			c0,1.685,0,3.256,0,4.662h-2.732c-9.513,0-17.218,4.334-17.218,9.682v9.688h59.537c0,0,0-4.338,0-9.688
			C282.113,102.739,274.403,98.41,264.896,98.41z M252.34,94.51c-2.157,0-3.902-1.742-3.902-3.904c0-2.149,1.745-3.902,3.902-3.902
			c2.156,0,3.907,1.748,3.907,3.902C256.247,92.768,254.502,94.51,252.34,94.51z"/>
		<path d="M210.7,110.246c-4.535,0-8.216,3.854-8.216,8.606v104.74c0,4.752,3.854,8.612,8.611,8.612h82.492
			c4.757,0,8.606-3.86,8.606-8.612v-104.74c0-4.752-3.85-8.606-8.606-8.606h-8.675v10.399h-65.991v-10.399
			C218.922,110.246,215.235,110.246,210.7,110.246z M282.377,182.603c-12.825,2.716-26.082-0.253-38.612,2.68
			c-7.045,1.645-17.223-3.687-22.67,0.906c-1.698,1.435-7.663,0.981-4.91-1.323c5.39-4.54,9.534-6.328,16.385-3.977
			c7.826,2.679,15.188-1.624,22.971-0.907c8.918,0.828,17.023,1.019,25.914-0.869C285.104,178.342,286.105,181.812,282.377,182.603z
			 M234.505,155.798c5.03,2.31,11.839-1.018,17.35-0.738c10.62,0.554,21.621,0.327,32.083-1.745c3.734-0.744,4.957,3.507,1.14,4.266
			c-12.704,2.511-25.387,0.628-38.027,2.252c-3.349,0.422-7.931,2.89-11.459,1.841c-4.572-1.355-11.892-7.926-15.62-0.659
			c-1.255,2.446-7.346,2.331-5.769-0.76C219.18,150.546,225.508,151.68,234.505,155.798z"/>
		<path d="M0.198,99.44L26.022,243.4c1.213,6.771,7.683,11.27,14.449,10.057l155.052-27.808c-0.675-1.592-1.05-3.338-1.05-5.173
			v-55.481c-0.2,0.026-1.191,0.11-1.354-0.802c-0.096-0.454,0.147-0.807,0.554-1.018c0.464-0.248,0.686-0.428,0.807-0.639v-1.244
			c-0.011-0.032-0.011-0.058-0.016-0.095l-1.092-5.854l-7.151-10.848c-0.337-0.549-0.59-0.944-1.218-1.208
			c-0.47-0.147-0.828-0.242-0.938-0.807c-0.19-1.013,0.881-1.155,1.566-1.273l8.121-1.511c0.227-0.045,0.475-0.087,0.728-0.113
			v-23.836c0-7.328,5.779-13.273,12.888-13.273h7.525c1.509-6.085,8.475-10.6,17.74-11.594l-5.754-32.086
			c-1.213-6.774-7.688-11.272-14.449-10.057l-80.406,14.426l7.965,44.413l-41.349,7.415l-7.971-44.416L10.265,85.002
			C3.486,86.204-1.018,92.675,0.198,99.44z M172.136,143.722c2.136-0.396,4.361-0.881,6.513-0.298
			c2.404,0.675,3.86,2.268,4.355,4.762c0.775,3.773-1.418,5.883-4.619,7.296l0.016,0.068c3.001-0.115,5.954,0.222,6.66,3.691
			l0.549,2.891c0.053,0.295,0.079,0.975,0.501,0.886c0.532-0.101,0.453-1.065,1.239-1.219c0.422-0.073,1.044,0.322,1.134,0.786
			c0.169,0.954-0.681,2.362-1.303,3.053c-0.938,1.129-2.077,1.619-3.501,1.883c-1.408,0.264-2.759,0.138-3.961-0.686
			c-1.382-0.97-1.804-2.383-2.094-3.929l-0.422-2.23c-0.284-1.508-0.653-3.354-2.663-3.18l-0.358-1.936
			c1.746-0.501,1.767-1.624,1.472-3.232l-0.738-3.979c-0.316-1.648-0.812-2.365-2.573-2.647l-0.359-1.933L172.136,143.722z
			 M161.815,145.649l8.675-1.622l3.908,20.909c0.221,1.213,0.227,1.419,1.444,1.562c0.448,0.047,0.802,0.306,0.892,0.759
			c0.174,0.949-0.896,1.213-1.023,1.239l-9.308,1.735c-0.121,0.026-1.229,0.152-1.402-0.802c-0.09-0.453,0.147-0.802,0.559-1.013
			c1.076-0.58,1.013-0.775,0.786-1.982l-3.212-17.233c-0.231-1.213-0.231-1.419-1.455-1.562c-0.448-0.053-0.797-0.29-0.881-0.759
			C160.613,145.939,161.684,145.676,161.815,145.649z M159.659,163.523c1.049-0.189,1.144,0.812,1.165,0.949l1.224,6.571
			l-7.549,1.413l-0.364-1.909c2.603-0.828,4.306-3.021,4.701-5.807C158.968,164.204,159.073,163.65,159.659,163.523z
			 M152.337,160.887l-0.383-2.03c1.313-0.633,1.701-2.035,1.762-3.333c0.058-0.585,0.155-1.149,0.852-1.276
			c1.015-0.189,1.07,1.019,1.123,1.282l1.326,7.103c0.048,0.264,0.433,1.414-0.585,1.604c-0.691,0.127-0.989-0.354-1.253-0.891
			C154.649,162.152,153.779,160.987,152.337,160.887z M157.233,146.506l1.244,6.671c0.031,0.158,0.116,0.791-0.87,0.971
			c-0.559,0.105-0.775-0.189-1.042-0.659c-1.35-2.494-3.322-3.789-6.301-3.715l-0.356-1.901L157.233,146.506z M139.749,149.757
			l8.68-1.619l4.583,24.587l-8.678,1.624c-0.124,0.017-1.226,0.158-1.402-0.796c-0.087-0.453,0.155-0.802,0.562-1.018
			c1.078-0.58,1.015-0.771,0.788-1.978l-3.214-17.224c-0.227-1.218-0.232-1.418-1.448-1.566c-0.443-0.053-0.799-0.289-0.886-0.759
			C138.547,150.05,139.614,149.786,139.749,149.757z M132.179,151.168l3.607-0.67c0.735-0.134,1.917-0.498,2.117,0.557
			c0.134,0.735-0.309,0.909-0.81,1.273c-0.783,0.554-1.047,0.77-1.427,1.655c-0.3,0.771-0.422,1.577-0.479,2.373l-0.854,10.732
			l-0.068,0.025l-1.551-3.217l0.583-7.63c0.066-0.56,0.098-0.771-0.005-1.324c-0.166-0.912-0.675-1.402-1.582-1.545
			c-0.593-0.09-1.097-0.2-1.221-0.859C130.312,151.526,131.488,151.3,132.179,151.168z M118.344,153.757l7.193-1.339
			c0.762-0.143,2.302-0.639,2.528,0.548c0.232,1.281-1.308,0.992-1.07,2.336c0.082,0.396,0.174,0.555,0.346,0.929l6.734,13.505
			l-0.535,6.624l-4.725,0.886l-10.26-19.96c-0.442-0.901-0.361-1.018-1.318-1.25c-0.43-0.121-0.754-0.364-0.835-0.828
			C116.2,154.121,117.587,153.899,118.344,153.757z M103.647,156.494l9.297-1.74c0.129-0.016,1.226-0.153,1.41,0.802
			c0.087,0.459-0.153,0.807-0.562,1.018c-1.081,0.58-1.004,0.775-0.783,1.982l3.212,17.224c0.227,1.218,0.232,1.424,1.453,1.565
			c0.448,0.053,0.799,0.296,0.886,0.749c0.179,0.96-0.892,1.224-1.031,1.245l-9.3,1.734c-0.134,0.026-1.231,0.158-1.408-0.801
			c-0.087-0.459,0.156-0.808,0.557-1.013c1.084-0.575,1.021-0.765,0.788-1.978l-3.208-17.218c-0.227-1.229-0.237-1.43-1.453-1.566
			c-0.448-0.058-0.799-0.301-0.886-0.76C102.442,156.784,103.51,156.521,103.647,156.494z M102.025,174.35
			c0.026-0.754,0.39-1.022,1.081-1.16c0.754-0.142,0.938,0.475,1.052,1.097l1.361,7.299l-6.932,1.292l-0.353-1.909
			C100.826,180.114,101.907,177.53,102.025,174.35z M83.851,160.186l9.297-1.729c0.135-0.026,1.226-0.158,1.405,0.791
			c0.084,0.464-0.153,0.812-0.551,1.028c-1.086,0.569-1.015,0.765-0.789,1.972l3.905,20.909l-8.685,1.608
			c-0.129,0.032-1.226,0.169-1.414-0.791c-0.076-0.453,0.156-0.801,0.557-1.018c1.089-0.574,1.021-0.77,0.799-1.973l-3.219-17.228
			c-0.227-1.213-0.232-1.419-1.453-1.562c-0.454-0.053-0.799-0.301-0.886-0.754C82.646,160.48,83.719,160.212,83.851,160.186z
			 M82.018,178.01c1.055-0.19,1.139,0.812,1.168,0.949l1.226,6.565l-7.567,1.413l-0.351-1.903c2.603-0.834,4.303-3.021,4.698-5.812
			C81.333,178.674,81.43,178.115,82.018,178.01z M74.696,175.373l-0.382-2.041c1.311-0.622,1.701-2.02,1.767-3.327
			c0.063-0.586,0.155-1.15,0.847-1.276c1.02-0.185,1.075,1.022,1.123,1.286l1.323,7.094c0.048,0.269,0.438,1.418-0.577,1.613
			c-0.699,0.116-0.989-0.358-1.26-0.896C77.014,176.639,76.144,175.468,74.696,175.373z M79.6,160.981l1.242,6.671
			c0.032,0.153,0.113,0.791-0.875,0.976c-0.562,0.105-0.789-0.189-1.036-0.653c-1.351-2.505-3.328-3.797-6.308-3.718l-0.355-1.909
			L79.6,160.981z M62.119,164.241l8.675-1.619l4.583,24.579l-8.677,1.624c-0.134,0.037-1.231,0.164-1.414-0.791
			c-0.087-0.453,0.156-0.807,0.562-1.022c1.079-0.569,1.01-0.765,0.775-1.968l-3.211-17.228c-0.227-1.213-0.227-1.419-1.448-1.566
			c-0.448-0.053-0.804-0.29-0.886-0.754C60.911,164.53,61.979,164.262,62.119,164.241z M60.938,177.177
			c1.804,7.656-2.896,13.268-8.354,14.275l-0.358-1.904c1.962-0.638,1.709-2.531,1.472-3.771l-2.61-14.006
			c-0.232-1.255-0.675-3.106-2.732-3.001l-0.356-1.903C53.576,165.765,58.965,168.771,60.938,177.177z M38.101,168.713l8.419-1.562
			l4.585,24.58l-8.35,1.561c-0.718,0.132-1.548,0.217-1.728-0.732c-0.087-0.459,0.15-0.812,0.557-1.029
			c1.086-0.569,1.015-0.764,0.788-1.967l-3.214-17.223c-0.09-0.496-0.192-1.402-0.857-1.472c-0.696-0.105-1.339-0.095-1.493-0.912
			C36.648,169.087,37.447,168.85,38.101,168.713z"/>
	</g>
</g>
<g>
</g>
<g>
</g>
<g>
</g>
<g>
</g>
<g>
</g>
<g>
</g>
<g>
</g>
<g>
</g>
<g>
</g>
<g>
</g>
<g>
</g>
<g>
</g>
<g>
</g>
<g>
</g>
<g>
</g>
</svg>
