<?xml version="1.0" encoding="iso-8859-1"?>
<!-- Generator: Adobe Illustrator 19.0.0, SVG Export Plug-In . SVG Version: 6.00 Build 0)  -->
<svg version="1.1" id="Layer_1" xmlns="http://www.w3.org/2000/svg" xmlns:xlink="http://www.w3.org/1999/xlink" x="0px" y="0px"
	 viewBox="0 0 500 500" style="enable-background:new 0 0 500 500;" xml:space="preserve">
<path d="M143.2,351.2c-8,0-15.2-5.6-16.8-13.6L87.2,154.4c-2.4-9.6,4-18.4,13.6-20.8c9.6-2.4,18.4,4,20.8,13.6l39.2,182.4
	c1.6,9.6-4,18.4-13.6,20.8C145.6,350.4,144.8,351.2,143.2,351.2z"/>
<path d="M278.4,351.2c-0.8,0-2.4,0-4,0c-9.6-2.4-15.2-11.2-13.6-20.8L300,147.2c2.4-9.6,11.2-15.2,20.8-13.6
	c9.6,2.4,15.2,11.2,13.6,20.8l-39.2,182.4C293.6,345.6,286.4,351.2,278.4,351.2z"/>
<path d="M212,347.2c-9.6,0-16,0-16-9.6V155.2c0-9.6,6.4-17.6,16-17.6s16,8,16,17.6v182.4C228,347.2,221.6,347.2,212,347.2z"/>
<path style="fill:#18456D;" d="M420.8,152.8c1.6-5.6,0.8-10.4-2.4-15.2s-8.8-7.2-14.4-7.2H17.6c-5.6,0-10.4,2.4-14.4,7.2
	c-3.2,4.8-4,10.4-2.4,15.2L60,342.4c2.4,7.2,8.8,12,16.8,12h268c8,0,14.4-4.8,16.8-12L420.8,152.8z M61.6,226.4H360l-9.6,32H71.2
	L61.6,226.4z M380.8,162.4l-9.6,32H50.4l-9.6-32H380.8z M89.6,322.4l-7.2-24H340l-8,24H89.6z"/>
<g>
	<path style="fill:#0B3249;" d="M404,138.4H17.6c-5.6,0-10.4,2.4-14.4,6.4c-1.6,1.6-2.4,4-3.2,6.4v0.8l60,190.4
		c2.4,7.2,8.8,12,16.8,12h268c8,0,14.4-4.8,16.8-12L420.8,152v-0.8c-0.8-2.4-1.6-4-3.2-6.4C415.2,140.8,409.6,138.4,404,138.4z
		 M340,306.4l-8,24H89.6l-7.2-24h2.4l-2.4-8H340l-2.4,8H340z M360,234.4l-9.6,32H71.2l-9.6-32H64l-2.4-8H360l-2.4,8H360z
		 M380.8,170.4l-9.6,32H50.4l-9.6-32h2.4l-2.4-8h340l-2.4,8H380.8z"/>
	<path style="fill:#0B3249;" d="M354.4,418.4H67.2c-9.6,0-17.6-6.4-17.6-16s8-16,17.6-16h287.2c9.6,0,17.6,6.4,17.6,16
		C372,412,364,418.4,354.4,418.4z"/>
</g>
<path d="M81.6,418.4h113.6c0-16-16-24-34.4-32H99.2C88.8,394.4,81.6,402.4,81.6,418.4z"/>
<path style="fill:#0E3451;" d="M168.8,417.6c0,24-19.2,46.4-43.2,46.4s-43.2-22.4-43.2-46.4s19.2-43.2,43.2-43.2
	S168.8,393.6,168.8,417.6z"/>
<path style="fill:#2689C6;" d="M168.8,417.6c0,24-19.2,43.2-43.2,43.2s-43.2-19.2-43.2-43.2s19.2-47.2,43.2-47.2
	S168.8,393.6,168.8,417.6z"/>
<circle style="fill:#1B5A89;" cx="125.6" cy="417.6" r="43.2"/>
<path style="fill:#18456D;" d="M94.4,387.2c16.8-16.8,44.8-16.8,61.6,0s16.8,44.8,0,61.6"/>
<path style="fill:#0B3249;" d="M125.6,443.2c-14.4,0-25.6-11.2-25.6-25.6s11.2-25.6,25.6-25.6s25.6,11.2,25.6,25.6
	C151.2,432,139.2,443.2,125.6,443.2z"/>
<path d="M143.2,399.2c10.4,10.4,10.4,26.4,0,36.8s-26.4,10.4-36.8,0"/>
<path d="M242.4,418.4H356c0-16-16-24-34.4-32H260C249.6,394.4,242.4,402.4,242.4,418.4z"/>
<path style="fill:#0E3451;" d="M329.6,417.6c0,24-19.2,46.4-43.2,46.4s-43.2-22.4-43.2-46.4s19.2-43.2,43.2-43.2
	C309.6,374.4,329.6,393.6,329.6,417.6z"/>
<path style="fill:#2689C6;" d="M329.6,417.6c0,24-19.2,43.2-43.2,43.2s-43.2-19.2-43.2-43.2s19.2-47.2,43.2-47.2
	C309.6,370.4,329.6,393.6,329.6,417.6z"/>
<circle style="fill:#1B5A89;" cx="285.6" cy="417.6" r="43.2"/>
<path style="fill:#18456D;" d="M255.2,387.2c16.8-16.8,44.8-16.8,61.6,0c16.8,16.8,16.8,44.8,0,61.6"/>
<path style="fill:#0B3249;" d="M285.6,443.2c-14.4,0-25.6-11.2-25.6-25.6s11.2-25.6,25.6-25.6s25.6,11.2,25.6,25.6
	C312,432,300,443.2,285.6,443.2z"/>
<path d="M304,399.2c10.4,10.4,10.4,26.4,0,36.8s-26.4,10.4-36.8,0"/>
<path style="fill:#1B5A89;" d="M500,90.4c0,8.8-7.2,16-16,16h-72c-8.8,0-16-7.2-16-16l0,0c0-8.8,7.2-16,16-16h72
	C492.8,74.4,500,81.6,500,90.4L500,90.4z"/>
<path style="fill:#18456D;" d="M413.6,74.4c-8,0-14.4,4.8-16.8,12c2.4,7.2,8.8,12,16.8,12H484c8,0,12.8-4.8,15.2-12
	c-2.4-8-8-12-15.2-12H413.6z"/>
<path style="fill:#D56ADB;" d="M456,106.4h-8.8c-1.6,0-3.2-8.8-6.4-12.8l6.4-5.6c7.2-7.2,7.2-18.4,0-24.8c-7.2-7.2-18.4-7.2-25.6,0
	l-4.8,6.4c-4-3.2-12.8-4.8-12.8-6.4v-8.8c0-9.6-10.4-18.4-20-18.4s-20,8-20,18.4v8.8c0,1.6-9.6,3.2-14.4,6.4l-5.6-6.4
	c-7.2-7.2-18.4-7.2-25.6,0c-7.2,7.2-7.2,18.4,0,25.6l6.4,4.8c-2.4,4.8-4.8,12.8-6.4,12.8h-8.8c-9.6,0-17.6,10.4-17.6,20
	s8,20,18.4,20h8.8c1.6,8,3.2,9.6,6.4,14.4l-6.4,5.6c-7.2,7.2-7.2,18.4,0,25.6c3.2,3.2,8,5.6,12.8,5.6s9.6-1.6,12.8-5.6l5.6-6.4
	c4.8,2.4,14.4,4.8,14.4,6.4v8.8c0,9.6,10.4,18.4,20,18.4s20-8,20-18.4V192c0-1.6,8.8-3.2,13.6-6.4l5.6,6.4c3.2,3.2,8,5.6,12.8,5.6
	s8.8-1.6,12.8-5.6c7.2-7.2,7.2-18.4,0-25.6l-6.4-5.6c2.4-4.8,4.8-6.4,6.4-14.4h8.8c9.6,0,18.4-10.4,18.4-20S466.4,106.4,456,106.4z
	 M414.4,127.2c0,16.8-13.6,30.4-30.4,30.4s-30.4-13.6-30.4-30.4s13.6-30.4,30.4-30.4C400,96.8,414.4,110.4,414.4,127.2z"/>
<path style="fill:#B95DC1;" d="M456,106.4h-8.8c-1.6,0-3.2-8.8-6.4-12.8l6.4-5.6c7.2-7.2,7.2-18.4,0-24.8c-7.2-7.2-18.4-7.2-25.6,0
	l-2.4,3.2l-14.4,40c5.6,5.6,8.8,13.6,8.8,21.6c0,16-12,28.8-28,30.4l-18.4,51.2c3.2,5.6,10.4,9.6,16.8,9.6c9.6,0,19.2-8,19.2-18.4
	V192c0-1.6,8.8-3.2,13.6-6.4l5.6,6.4c3.2,3.2,8,5.6,12.8,5.6S444,196,448,192c7.2-7.2,7.2-18.4,0-25.6l-6.4-5.6
	c2.4-4.8,4.8-6.4,6.4-14.4h8.8c9.6,0,18.4-10.4,18.4-20S466.4,106.4,456,106.4z"/>
<g>
</g>
<g>
</g>
<g>
</g>
<g>
</g>
<g>
</g>
<g>
</g>
<g>
</g>
<g>
</g>
<g>
</g>
<g>
</g>
<g>
</g>
<g>
</g>
<g>
</g>
<g>
</g>
<g>
</g>
</svg>
