<?xml version="1.0" encoding="UTF-8"?>
<svg version="1.1" xmlns="http://www.w3.org/2000/svg" width="650" height="270">
<path d="M0 0 C214.5 0 429 0 650 0 C650 89.1 650 178.2 650 270 C435.5 270 221 270 0 270 C0 180.9 0 91.8 0 0 Z " fill="#F6FBFE" transform="translate(0,0)"/>
<path d="M0 0 C13.08265651 10.64256276 22.47742117 22.2358874 24.390625 39.53125 C24.83007917 53.71934181 19.47941268 64.92895674 11 76 C10.13375 75.5359375 10.13375 75.5359375 9.25 75.0625 C6.03726202 73.54537373 3.55721585 73 0 73 C1.00911458 71.27473958 2.01822917 69.54947917 3.02734375 67.82421875 C5.97620884 62.29361634 5.53253587 56.09041021 5 50 C2.73741087 45.03970844 -0.28468657 42.65236381 -5 40 C-11.84715819 37.86563479 -18.87975561 38.09129304 -25.375 41.125 C-29.68257797 43.54843927 -32.24396719 45.90770886 -35 50 C-35.598125 50.845625 -36.19625 51.69125 -36.8125 52.5625 C-38.79990683 58.31551976 -38.98738079 65.34162759 -37.390625 71.2578125 C-37.19726562 72.12019531 -37.19726562 72.12019531 -37 73 C-38.5 75.25 -38.5 75.25 -41 77 C-47.14262509 77.96354903 -51.65335711 75.71575512 -57 73 C-56.2575 72.443125 -55.515 71.88625 -54.75 71.3125 C-49.82685069 67.28836325 -49.82685069 67.28836325 -47.69140625 61.55859375 C-48.18018158 57.5060894 -50.41055715 56.1771604 -53.47265625 53.70703125 C-63.04554062 47.24126545 -73.8982095 45.20277494 -85.2734375 44.83984375 C-85.9962793 44.81245117 -86.71912109 44.78505859 -87.46386719 44.75683594 C-88.87801623 44.71146559 -90.29313503 44.68906619 -91.70800781 44.69238281 C-93.6640625 44.63671875 -93.6640625 44.63671875 -97 44 C-99.66705176 40.85287892 -99.98838415 39.35428344 -100.125 35.1875 C-98.91846494 28.37186045 -93.40592261 23.82969988 -88.125 19.8125 C-69.66409622 8.16303313 -44.6079922 9.38404455 -24.09570312 13.51611328 C-19.56121087 14.56310345 -15.24954525 16.11874064 -11 18 C-11 18.66 -11 19.32 -11 20 C-10.29875 20.226875 -9.5975 20.45375 -8.875 20.6875 C-4.32854012 22.76305777 -0.84609004 25.26936129 1.375 29.8125 C1.684375 30.8953125 1.684375 30.8953125 2 32 C2.66 32 3.32 32 4 32 C3.65768354 22.53494975 2.00696192 16.6630434 -4.875 10.0625 C-11.89247881 4.08248899 -20.36452362 -0.78604451 -29 -4 C-28 -6 -28 -6 -25.70703125 -6.921875 C-24.75183594 -7.19515625 -23.79664063 -7.4684375 -22.8125 -7.75 C-21.87019531 -8.03359375 -20.92789063 -8.3171875 -19.95703125 -8.609375 C-12.4070986 -9.6067241 -5.84680551 -4.18082294 0 0 Z " fill="#5E89C0" transform="translate(392,68)"/>
<path d="M0 0 C2.98377993 2.98377993 4.35648501 4.39370568 4.4375 8.6875 C2.74144902 14.57379457 -0.86388399 16.80040557 -6.04296875 19.75390625 C-17.94456006 25.64317226 -30.52467445 26.80915239 -43.625 27 C-46.14590686 27.05118593 -48.66674795 27.10574857 -51.1875 27.1640625 C-52.28191406 27.18162598 -53.37632812 27.19918945 -54.50390625 27.21728516 C-57.6159495 27.37454266 -60.55770122 27.84428671 -63.625 28.375 C-66.72876967 28.57253374 -69.82793729 28.56004185 -72.9375 28.5625 C-73.74123047 28.57474609 -74.54496094 28.58699219 -75.37304688 28.59960938 C-81.03171593 28.61326666 -86.15825662 27.82181393 -91.625 26.375 C-91.625 25.715 -91.625 25.055 -91.625 24.375 C-89.8347939 23.70442113 -88.04278511 23.0386531 -86.25 22.375 C-85.25226563 22.00375 -84.25453125 21.6325 -83.2265625 21.25 C-80.625 20.375 -80.625 20.375 -78.625 20.375 C-79.181875 19.818125 -79.73875 19.26125 -80.3125 18.6875 C-81.075625 17.924375 -81.83875 17.16125 -82.625 16.375 C-83.5325 15.611875 -84.44 14.84875 -85.375 14.0625 C-87.625 11.375 -87.625 11.375 -88.1875 7.875 C-87.50291461 3.61535756 -86.82694527 2.27199811 -83.625 -0.625 C-77.93214171 -4.11551165 -71.98687755 -6.32196889 -65.55859375 -8.046875 C-63.6370192 -8.45467554 -63.6370192 -8.45467554 -62.625 -9.625 C-42.73121881 -12.46407173 -16.59831096 -13.3107228 0 0 Z " fill="#5D86BF" transform="translate(386.625,31.625)"/>
<path d="M0 0 C2.05926425 1.85447554 3.38545321 3.69350459 5 6 C5 6.66 5 7.32 5 8 C3.90945313 8.12955078 3.90945313 8.12955078 2.796875 8.26171875 C-7.94315583 9.76256921 -17.55623645 13.05734997 -26 20 C-27.44430855 22.88861709 -27.37688506 24.79647701 -27 28 C-20.00329019 36.9049034 -7.82043293 40.47422204 3 42 C4.99664468 42.05552681 6.99508875 42.06297769 8.9921875 42.02734375 C10.10980469 42.01509766 11.22742188 42.00285156 12.37890625 41.99023438 C14.70188709 41.955195 17.02481122 41.9161593 19.34765625 41.87304688 C25.68536212 41.81105551 30.91431836 42.30517038 37 44 C46.16850462 44.66894669 55.02045409 43.87282894 64 42 C63.52433594 43.45599609 63.52433594 43.45599609 63.0390625 44.94140625 C61.8063663 49.25584296 61.55865405 53.47241088 61.375 57.9375 C61.33632813 58.71673828 61.29765625 59.49597656 61.2578125 60.29882812 C61.16455873 62.19887379 61.08124038 64.09940278 61 66 C59.99211426 65.98428955 58.98422852 65.9685791 57.94580078 65.95239258 C54.16251803 65.89758841 50.37926946 65.86346877 46.59570312 65.83520508 C44.96641109 65.82023234 43.33715855 65.79984679 41.70800781 65.77368164 C32.58247289 65.6309202 24.64093229 65.71539835 16 69 C0.38390559 73.20236855 -17.81547464 72.56224592 -33 67 C-33.66 66.34 -34.32 65.68 -35 65 C-33.24236328 64.54560547 -33.24236328 64.54560547 -31.44921875 64.08203125 C-22.58123854 61.73617956 -14.18957059 59.23909491 -6 55 C-6.88042969 54.39671875 -7.76085937 53.7934375 -8.66796875 53.171875 C-9.84121394 52.36468231 -11.0143872 51.55738508 -12.1875 50.75 C-12.76564453 50.35425781 -13.34378906 49.95851562 -13.93945312 49.55078125 C-24.62129692 42.18815445 -34.0043228 32.73388714 -38 20 C-35.72205166 12.59333756 -26.96634317 8.66401098 -20.6484375 5.296875 C-14.86536778 2.46504735 -6.55282421 -1.41682686 0 0 Z " fill="#709ECF" transform="translate(285,105)"/>
<path d="M0 0 C2.05616687 0.97134594 3.92324939 1.94384102 5.76171875 3.2890625 C12.55717282 8.00315032 20.00070263 8.14960101 28.00292969 7.36474609 C32.68165235 6.51022144 36.39271516 3.97800419 40 1 C45.31057059 6.99580551 45.14579173 12.16888218 45.0625 19.8125 C45.05798828 20.60076172 45.05347656 21.38902344 45.04882812 22.20117188 C45.03711312 24.13414761 45.01917998 26.06708393 45 28 C44.2471875 28.01417969 43.494375 28.02835938 42.71875 28.04296875 C23.5761512 28.90252719 8.40343145 36.27798104 -5 50 C-6.99633852 52.39633348 -8.8897623 54.82473163 -10.72265625 57.34765625 C-11.14417969 57.89292969 -11.56570312 58.43820313 -12 59 C-12.33 59 -12.66 59 -13 59 C-13.07466663 53.75304201 -13.12884421 48.50639957 -13.16479492 43.2590332 C-13.17979643 41.47740281 -13.20020433 39.69580881 -13.22631836 37.91430664 C-13.26308509 35.33991465 -13.27981285 32.7660147 -13.29296875 30.19140625 C-13.30845261 29.40665421 -13.32393646 28.62190216 -13.33988953 27.81336975 C-13.34280159 18.04482967 -10.08288799 10.27278976 -3.3125 3.1875 C-2.549375 2.465625 -1.78625 1.74375 -1 1 C-0.67 0.67 -0.34 0.34 0 0 Z " fill="#F79544" transform="translate(247,70)"/>
<path d="M0 0 C6.74271382 3.5744507 10.53424987 9.49494535 13.4375 16.4375 C14.44369637 22.81007701 15.17088022 28.57150769 12.3125 34.5 C8.48618808 38.63655343 5.82649346 40.17921893 0.1875 40.5 C-6.76691606 40.28729845 -13.04944178 38.05912378 -19.56494141 35.82226562 C-24.35320887 34.20537322 -29.18099306 32.70972075 -34 31.1875 C-35.91686716 30.57745253 -37.83355064 29.96682745 -39.75 29.35546875 C-40.56984375 29.09403076 -41.3896875 28.83259277 -42.234375 28.56323242 C-42.81703125 28.37736572 -43.3996875 28.19149902 -44 28 C-44.10901505 25.16560863 -44.18777904 22.33549797 -44.25 19.5 C-44.28351563 18.70851562 -44.31703125 17.91703125 -44.3515625 17.1015625 C-44.44496201 11.40419216 -43.53941205 6.62181018 -40 2 C-39.01 1.67 -38.02 1.34 -37 1 C-37 1.66 -37 2.32 -37 3 C-35.67741528 3.68774405 -34.34013497 4.34711373 -33 5 C-31.989375 5.53625 -30.97875 6.0725 -29.9375 6.625 C-23.27372828 9.40157155 -16.26318977 8.75292401 -9.625 6.25 C-5.97043362 4.6205755 -2.94610717 2.74970003 0 0 Z " fill="#854885" transform="translate(394,146)"/>
<path d="M0 0 C13.08265651 10.64256276 22.47742117 22.2358874 24.390625 39.53125 C24.83007917 53.71934181 19.47941268 64.92895674 11 76 C10.13375 75.5359375 10.13375 75.5359375 9.25 75.0625 C6.03726202 73.54537373 3.55721585 73 0 73 C1.00911458 71.27473958 2.01822917 69.54947917 3.02734375 67.82421875 C5.03692501 64.05524507 5.19225423 60.83081669 5.25 56.625 C5.27578125 55.50351563 5.3015625 54.38203125 5.328125 53.2265625 C4.96386107 49.64463382 3.83052429 48.03494235 2 45 C1.70703125 41.88671875 1.70703125 41.88671875 1.8125 38.6875 C1.83957031 37.61886719 1.86664063 36.55023438 1.89453125 35.44921875 C1.92933594 34.64097656 1.96414063 33.83273438 2 33 C2.99 33 3.98 33 5 33 C5 29.04 5 25.08 5 21 C4.34 21 3.68 21 3 21 C2.2884375 19.515 2.2884375 19.515 1.5625 18 C-4.65831346 7.30192288 -17.67999997 0.21308272 -29 -4 C-28 -6 -28 -6 -25.70703125 -6.921875 C-24.27423828 -7.33179688 -24.27423828 -7.33179688 -22.8125 -7.75 C-21.87019531 -8.03359375 -20.92789062 -8.3171875 -19.95703125 -8.609375 C-12.4070986 -9.6067241 -5.84680551 -4.18082294 0 0 Z " fill="#3B5CA1" transform="translate(392,68)"/>
<path d="M0 0 C4.27326583 4.05412399 5.62278988 6.73467323 5.875 12.625 C5.6553914 19.71931267 3.6133426 24.1366574 -1.375 29.125 C-6.92629215 32.9347103 -11.74833071 35.26887464 -18.5625 34.3125 C-23.71856476 31.99655964 -27.0601533 29.47499906 -29.5625 24.3125 C-30.66148651 18.21269893 -30.34395135 12.71294675 -27.0625 7.375 C-20.16098421 -1.4525202 -10.63570555 -5.03796579 0 0 Z " fill="#BF618F" transform="translate(386.5625,112.6875)"/>
<path d="M0 0 C5.99728388 2.48043003 9.7997636 6.80804832 12.9375 12.375 C14.41839467 17.34035273 15.13567473 21.32965432 13.05078125 26.1171875 C10.70950133 30.14980213 8.50443174 33.29952482 4 34.9375 C-2.21931912 35.64135615 -7.81687821 35.19373575 -13.0390625 31.4921875 C-18.18446622 27.31973284 -21.36936528 23.49563194 -22.30859375 16.70703125 C-22.60843652 11.282603 -21.6337626 8.16052141 -18 3.9375 C-12.19981559 -1.17218627 -7.56394471 -2.39868286 0 0 Z " fill="#F69B4C" transform="translate(272,35.0625)"/>
<path d="M0 0 C1.27746094 -0.00773438 2.55492187 -0.01546875 3.87109375 -0.0234375 C9.28485163 0.56090462 12.47049829 2.0531032 15.9375 6.25 C18.64434587 11.56176031 18.18736345 17.59501312 17.5625 23.375 C15.86432659 28.06519323 13.89792539 31.25499137 9.36328125 33.4296875 C3.91213484 35.26954445 -3.05120524 35.61217737 -8.51171875 33.6171875 C-12.5337905 31.04387207 -14.95047676 27.83606971 -16.4375 23.375 C-17.45245536 9.98091698 -17.45245536 9.98091698 -14.75 5.6875 C-10.07809235 1.01559235 -6.60609443 -0.03991598 0 0 Z " fill="#3C59A0" transform="translate(287.4375,212.625)"/>
<path d="M0 0 C3.691875 -0.0825 7.38375 -0.165 11.1875 -0.25 C12.92036255 -0.30462402 12.92036255 -0.30462402 14.68823242 -0.36035156 C22.2568598 -0.44241065 22.2568598 -0.44241065 26.17578125 1.890625 C29.29716896 5.49993842 29.27480613 8.11184172 29.22265625 12.73828125 C28.92093087 15.80317594 27.97602032 17.65804999 26 20 C25.01 20.33 24.02 20.66 23 21 C23.433125 21.77085937 23.86625 22.54171875 24.3125 23.3359375 C24.869375 24.33882812 25.42625 25.34171875 26 26.375 C26.556875 27.37273437 27.11375 28.37046875 27.6875 29.3984375 C29 32 29 32 29 34 C23.88213027 34.88239133 23.88213027 34.88239133 21 34 C19.1515987 31.55435582 17.85184855 29.01740555 16.453125 26.29296875 C15.11183356 23.64224808 15.11183356 23.64224808 11.625 22.875 C10.75875 22.91625 9.8925 22.9575 9 23 C9 26.63 9 30.26 9 34 C6.03 34 3.06 34 0 34 C0 22.78 0 11.56 0 0 Z " fill="#4361A5" transform="translate(414,213)"/>
<path d="M0 0 C3.691875 -0.0825 7.38375 -0.165 11.1875 -0.25 C12.92036255 -0.30462402 12.92036255 -0.30462402 14.68823242 -0.36035156 C22.2568598 -0.44241065 22.2568598 -0.44241065 26.17578125 1.890625 C29.61335631 5.86555119 29.31797289 9.27341021 29.3046875 14.375 C28.91092854 17.76738485 27.55781787 18.8547334 25 21 C25.10277785 25.00833618 26.92533836 27.66250084 29 31 C29 31.66 29 32.32 29 33 C23.88334301 33.79396402 23.88334301 33.79396402 21 33 C19.16627898 30.82029389 17.86308342 28.54161325 16.453125 26.0703125 C15.06331718 23.64390376 15.06331718 23.64390376 11.625 22.9375 C10.325625 22.9684375 10.325625 22.9684375 9 23 C9 26.63 9 30.26 9 34 C6.03 34 3.06 34 0 34 C0 22.78 0 11.56 0 0 Z " fill="#425FA3" transform="translate(316,213)"/>
<path d="M0 0 C3.50625 -0.0825 7.0125 -0.165 10.625 -0.25 C11.71893066 -0.28641602 12.81286133 -0.32283203 13.93994141 -0.36035156 C19.94894168 -0.42869829 23.46221293 -0.07044023 28 4 C29.34553453 6.69106907 29.20594114 8.87165422 29.25 11.875 C29.27578125 12.92429688 29.3015625 13.97359375 29.328125 15.0546875 C28.95411234 18.41189637 28.40955185 19.66378234 26 22 C22.19047018 24.06376573 18.97333812 24.21919424 14.6875 24.125 C13.61886719 24.10695312 12.55023438 24.08890625 11.44921875 24.0703125 C10.64097656 24.04710937 9.83273438 24.02390625 9 24 C9 27.3 9 30.6 9 34 C6.03 34 3.06 34 0 34 C0 22.78 0 11.56 0 0 Z " fill="#3C619C" transform="translate(190,213)"/>
<path d="M0 0 C3.34125 -0.061875 6.6825 -0.12375 10.125 -0.1875 C11.68758545 -0.22846802 11.68758545 -0.22846802 13.28173828 -0.27026367 C18.62833502 -0.31808378 22.37497971 -0.01005419 27 3 C29.20850778 5.20850778 28.43535411 10.28672091 28.44213867 13.33227539 C28.24883015 19.95010904 28.24883015 19.95010904 25.8125 22.4375 C20.94813142 25.38203304 14.44059095 24.3632442 9 24 C9 27.3 9 30.6 9 34 C6.03 34 3.06 34 0 34 C0 22.78 0 11.56 0 0 Z " fill="#4F6EA7" transform="translate(230,213)"/>
<path d="M0 0 C0.71220703 -0.020625 1.42441406 -0.04125 2.15820312 -0.0625 C6.7100022 -0.09618584 9.59614192 0.40877771 13.1875 3.25 C15.3394437 6.47791555 15.38836443 7.53400809 15.1875 11.25 C12.2175 11.25 9.2475 11.25 6.1875 11.25 C5.5275 9.93 4.8675 8.61 4.1875 7.25 C2.00208448 6.5506486 2.00208448 6.5506486 -0.4375 6.5 C-1.66339844 6.41492188 -1.66339844 6.41492188 -2.9140625 6.328125 C-3.54054688 6.30234375 -4.16703125 6.2765625 -4.8125 6.25 C-4.85504356 8.24954746 -4.85330783 10.25041636 -4.8125 12.25 C-2.71138687 14.35111313 2.50186676 13.54897929 5.46484375 13.59179688 C8.96085456 13.73946727 11.11998524 14.20963403 14.140625 16.015625 C16.42358015 18.50770582 16.8253335 19.37375294 16.6875 22.6875 C16.44995301 26.59097493 15.83327013 29.23929605 13.1875 32.25 C9.15816622 34.30445385 5.6763122 34.54798875 1.1875 34.5625 C-0.00875 34.57925781 -1.205 34.59601563 -2.4375 34.61328125 C-6.93327259 34.12936128 -9.51566215 32.59155639 -12.625 29.375 C-14.05143649 26.82242944 -14.05252263 25.1302715 -13.8125 22.25 C-10.8425 22.25 -7.8725 22.25 -4.8125 22.25 C-4.4825 23.57 -4.1525 24.89 -3.8125 26.25 C-0.5125 26.25 2.7875 26.25 6.1875 26.25 C6.5175 24.93 6.8475 23.61 7.1875 22.25 C3.61422701 20.4633635 -0.60628382 20.89747573 -4.55078125 20.7265625 C-8.03992846 20.21677093 -9.99538723 19.3333293 -12.8125 17.25 C-14.65688013 13.56123973 -14.30038734 9.27669687 -13.8125 5.25 C-9.9911025 0.02742342 -6.0821248 0.04332769 0 0 Z " fill="#3C5B99" transform="translate(528.8125,212.75)"/>
<path d="M0 0 C0.71220703 -0.020625 1.42441406 -0.04125 2.15820312 -0.0625 C6.72541059 -0.09629987 9.54428817 0.47550227 13.1875 3.25 C15.1875 5.25 15.1875 5.25 15.3125 8.875 C15.27125 9.98875 15.23 11.1025 15.1875 12.25 C12.5475 12.25 9.9075 12.25 7.1875 12.25 C6.5275 10.6 5.8675 8.95 5.1875 7.25 C2.2175 7.25 -0.7525 7.25 -3.8125 7.25 C-4.56207157 10.72147842 -4.56207157 10.72147842 -4.8125 14.25 C-3.71550781 14.20359375 -2.61851563 14.1571875 -1.48828125 14.109375 C-0.0338815 14.0718421 1.42054783 14.03544357 2.875 14 C3.59623047 13.96648437 4.31746094 13.93296875 5.06054688 13.8984375 C8.8501157 13.82922163 10.80236089 14.02941574 14.16796875 15.95703125 C17.11541498 19.30355144 16.89508106 21.54073656 16.6796875 25.8359375 C15.92479142 29.53852303 14.21727783 31.1153838 11.1875 33.25 C5.51906802 35.17277208 -2.29010894 35.50660162 -7.92578125 33.49609375 C-10.84560647 31.64856167 -12.78321279 29.54371907 -13.8125 26.25 C-13.8125 24.93 -13.8125 23.61 -13.8125 22.25 C-11.1725 22.25 -8.5325 22.25 -5.8125 22.25 C-5.1525 23.57 -4.4925 24.89 -3.8125 26.25 C-0.1825 26.25 3.4475 26.25 7.1875 26.25 C7.5175 24.6 7.8475 22.95 8.1875 21.25 C6.41632813 21.19392578 6.41632813 21.19392578 4.609375 21.13671875 C3.05205212 21.07104851 1.49476186 21.00460153 -0.0625 20.9375 C-0.83980469 20.91494141 -1.61710937 20.89238281 -2.41796875 20.86914062 C-9.79672048 20.52227623 -9.79672048 20.52227623 -12.8125 17.25 C-14.1586031 13.2116907 -14.38519422 9.47266539 -13.8125 5.25 C-9.92187775 0.06250367 -6.11118627 0.04353472 0 0 Z " fill="#3E5D9F" transform="translate(118.8125,212.75)"/>
<path d="M0 0 C2.64 0 5.28 0 8 0 C8.01458252 0.68102783 8.02916504 1.36205566 8.04418945 2.0637207 C8.11862696 5.14722215 8.21530083 8.22963567 8.3125 11.3125 C8.33505859 12.38435547 8.35761719 13.45621094 8.38085938 14.56054688 C8.41630859 15.58857422 8.45175781 16.61660156 8.48828125 17.67578125 C8.51446533 18.62364502 8.54064941 19.57150879 8.56762695 20.5480957 C9.06694421 23.37962771 9.72836191 24.29269418 12 26 C13.94204967 26.5080382 13.94204967 26.5080382 16 26.4375 C17.0209375 26.46650391 17.0209375 26.46650391 18.0625 26.49609375 C20.86270856 25.77910486 21.50641962 24.42865112 23 22 C23.49857326 19.49640263 23.49857326 19.49640263 23.51171875 16.796875 C23.54716797 15.8171875 23.58261719 14.8375 23.61914062 13.828125 C23.64169922 12.81234375 23.66425781 11.7965625 23.6875 10.75 C23.72166016 9.71875 23.75582031 8.6875 23.79101562 7.625 C23.87338093 5.08344188 23.94256834 2.54222374 24 0 C26.64 0 29.28 0 32 0 C32.11693501 3.85390817 32.1874962 7.70735512 32.25 11.5625 C32.30027344 13.19155273 32.30027344 13.19155273 32.3515625 14.85351562 C32.4323359 21.49712794 32.04372085 25.63783464 28 31 C22.95598167 34.81376996 17.08416139 34.68192202 11 34 C6.68832656 32.98187109 3.92546514 30.68405278 1.18652344 27.30029297 C-1.26405679 22.54939443 -0.60595535 17.27083915 -0.375 12.0625 C-0.34792969 10.90169922 -0.32085937 9.74089844 -0.29296875 8.54492188 C-0.22259234 5.69467725 -0.12418624 2.84832281 0 0 Z " fill="#4361A2" transform="translate(147,213)"/>
<path d="M0 0 C2.64 0 5.28 0 8 0 C8.02505615 0.68102783 8.0501123 1.36205566 8.07592773 2.0637207 C8.19190952 5.14683755 8.31462616 8.22965046 8.4375 11.3125 C8.47681641 12.38435547 8.51613281 13.45621094 8.55664062 14.56054688 C8.61948242 16.10258789 8.61948242 16.10258789 8.68359375 17.67578125 C8.72025146 18.62364502 8.75690918 19.57150879 8.79467773 20.5480957 C8.91430187 23.136171 8.91430187 23.136171 10 26 C11.60332791 26.08121924 13.20784026 26.13929134 14.8125 26.1875 C15.70582031 26.22230469 16.59914063 26.25710937 17.51953125 26.29296875 C19.99651858 26.20625171 19.99651858 26.20625171 21.62304688 24.81445312 C23.47407472 22.37529728 23.4276501 20.71906653 23.51171875 17.67578125 C23.54716797 16.64775391 23.58261719 15.61972656 23.61914062 14.56054688 C23.64169922 13.48869141 23.66425781 12.41683594 23.6875 11.3125 C23.72166016 10.22904297 23.75582031 9.14558594 23.79101562 8.02929688 C23.8735456 5.3529678 23.94267937 2.67696841 24 0 C26.64 0 29.28 0 32 0 C32.08729047 4.06236402 32.14048992 8.12448589 32.1875 12.1875 C32.21263672 13.33798828 32.23777344 14.48847656 32.26367188 15.67382812 C32.27333984 16.78564453 32.28300781 17.89746094 32.29296875 19.04296875 C32.3086792 20.06414795 32.32438965 21.08532715 32.34057617 22.13745117 C31.87292549 26.06806353 30.41017768 28.83926412 27.34375 31.36328125 C21.65643157 34.29128629 16.33667349 34.96891032 10 34 C4.85146319 31.4257316 1.817992 28.45397599 0 23 C-0.08209792 21.22686149 -0.10746294 19.45079225 -0.09765625 17.67578125 C-0.09443359 16.64775391 -0.09121094 15.61972656 -0.08789062 14.56054688 C-0.07951172 13.48869141 -0.07113281 12.41683594 -0.0625 11.3125 C-0.05798828 10.22904297 -0.05347656 9.14558594 -0.04882812 8.02929688 C-0.03703743 5.35280915 -0.02058063 2.67643223 0 0 Z " fill="#3C5C99" transform="translate(471,213)"/>
<path d="M0 0 C9.9 0 19.8 0 30 0 C30 2.31 30 4.62 30 7 C26.37 7 22.74 7 19 7 C19 15.91 19 24.82 19 34 C16.36 34 13.72 34 11 34 C11 25.09 11 16.18 11 7 C7.37 7 3.74 7 0 7 C0 4.69 0 2.38 0 0 Z " fill="#3E5BA1" transform="translate(357,213)"/>
<path d="M0 0 C2.75329021 1.79562405 4.52627461 3.05254922 6 6 C6.61885492 10.99504325 6.75635505 14.7800725 4.0625 19.125 C-0.05168182 21.64388683 -3.29586855 22.04438739 -8 21 C-10.5625 19.1875 -10.5625 19.1875 -12 16 C-12.84366732 10.58917207 -12.95931573 6.48257886 -9.9375 1.8125 C-6.22994331 -0.47514136 -4.28868719 -0.6892533 0 0 Z " fill="#F1F6FB" transform="translate(291,219)"/>
<path d="M0 0 C0.91965538 13.53937087 0.91965538 13.53937087 -2.125 18.375 C-6.44037057 20.97874522 -11.86546105 20.66176748 -16.7578125 20.76171875 C-19.85247797 20.98915802 -21.34424688 21.561977 -24 23 C-24.66 22.67 -25.32 22.34 -26 22 C-26 15.07 -26 8.14 -26 1 C-24.68 1 -23.36 1 -22 1 C-21.67 5.29 -21.34 9.58 -21 14 C-14.97920007 13.67589322 -14.97920007 13.67589322 -9 13 C-7.49337903 9.98675805 -7.82229627 7.31713623 -8 4 C-10.35953094 1.64046906 -11.77895617 1.50858587 -15 1 C-15 0.67 -15 0.34 -15 0 C-13.906875 0.020625 -12.81375 0.04125 -11.6875 0.0625 C-0.52112676 -0.12676056 -0.52112676 -0.12676056 0 0 Z " fill="#1D487B" transform="translate(258,217)"/>
<path d="M0 0 C5.488677 -0.3659118 5.488677 -0.3659118 7.67578125 1.19921875 C9.41836237 3.56892345 9.40106209 5.08104595 9.375 8 C9.38273437 8.86625 9.39046875 9.7325 9.3984375 10.625 C8.92993511 13.41764172 8.25130406 14.3307404 6 16 C5.34 16 4.68 16 4 16 C4.433125 16.77085937 4.86625 17.54171875 5.3125 18.3359375 C5.869375 19.33882812 6.42625 20.34171875 7 21.375 C7.556875 22.37273437 8.11375 23.37046875 8.6875 24.3984375 C10 27 10 27 10 29 C4.91307753 29.8770556 4.91307753 29.8770556 2 29 C-0.82628082 25.7361778 -4 21.45637368 -4 17 C-5.65 16.67 -7.3 16.34 -9 16 C-8.4375 14.125 -8.4375 14.125 -7 12 C-3.4375 10.8125 -3.4375 10.8125 0 10 C1.32890384 8.8963377 1.32890384 8.8963377 1.125 6.125 C1.14376866 2.96787587 1.14376866 2.96787587 0 0 Z " fill="#2B539E" transform="translate(433,218)"/>
<path d="M0 0 C2.64 0 5.28 0 8 0 C8.05797565 3.93743833 8.09358789 7.87476719 8.125 11.8125 C8.14175781 12.93205078 8.15851563 14.05160156 8.17578125 15.20507812 C8.18222656 16.27822266 8.18867188 17.35136719 8.1953125 18.45703125 C8.20578613 19.44678955 8.21625977 20.43654785 8.22705078 21.45629883 C8 24 8 24 6 27 C2.375 27.6875 2.375 27.6875 -1 28 C-2.125 24.25 -2.125 24.25 -1 22 C-0.84777027 20.33434251 -0.75082785 18.66343504 -0.68359375 16.9921875 C-0.64169922 16.00605469 -0.59980469 15.01992187 -0.55664062 14.00390625 C-0.51732422 12.97136719 -0.47800781 11.93882812 -0.4375 10.875 C-0.39431641 9.83472656 -0.35113281 8.79445312 -0.30664062 7.72265625 C-0.2003712 5.14857472 -0.09833417 2.57439492 0 0 Z " fill="#264F8E" transform="translate(171,213)"/>
<path d="M0 0 C2.97 0 5.94 0 9 0 C9.33 1.32 9.66 2.64 10 4 C13.63 4 17.26 4 21 4 C21 4.66 21 5.32 21 6 C23.64 5.67 26.28 5.34 29 5 C28.875 6.8125 28.875 6.8125 28 9 C23.55455417 11.74434847 20.1244883 12.40886499 14.9375 12.375 C13.15666016 12.38660156 13.15666016 12.38660156 11.33984375 12.3984375 C6.88334487 11.866785 4.27635234 10.32036449 1.1875 7.125 C-0.23893649 4.57242944 -0.24002263 2.8802715 0 0 Z " fill="#415EA1" transform="translate(515,235)"/>
<path d="M0 0 C0.33 0.66 0.66 1.32 1 2 C3.52733235 2.65555119 3.52733235 2.65555119 6 3 C6.66 5.31 7.32 7.62 8 10 C9.093125 10.12375 10.18625 10.2475 11.3125 10.375 C15 11 15 11 18 13 C18 13.66 18 14.32 18 15 C15.5622037 15.05397335 13.12560315 15.09365616 10.6875 15.125 C9.65206055 15.15013672 9.65206055 15.15013672 8.59570312 15.17578125 C4.82864604 15.21217794 3.21568296 15.14378864 0 13 C-0.94738023 10.15785932 -1.13460559 8.32391609 -1.125 5.375 C-1.12757812 4.57835937 -1.13015625 3.78171875 -1.1328125 2.9609375 C-1 1 -1 1 0 0 Z " fill="#38619C" transform="translate(106,217)"/>
<path d="M0 0 C0 5.61 0 11.22 0 17 C-1.98 17.12375 -3.96 17.2475 -6 17.375 C-11.2359974 17.76984571 -15.97121685 18.52094613 -21 20 C-20.67 19.34 -20.34 18.68 -20 18 C-19.01 18 -18.02 18 -17 18 C-16.67 17.01 -16.34 16.02 -16 15 C-13.03 15.33 -10.06 15.66 -7 16 C-7 15.34 -7 14.68 -7 14 C-9.64 13.67 -12.28 13.34 -15 13 C-15 12.67 -15 12.34 -15 12 C-12.03 12 -9.06 12 -6 12 C-6.66 10.68 -7.32 9.36 -8 8 C-8.33 7.01 -8.66 6.02 -9 5 C-8.01 5 -7.02 5 -6 5 C-5.71125 4.360625 -5.4225 3.72125 -5.125 3.0625 C-3.72314735 0.49243681 -2.91896073 0 0 0 Z " fill="#FE9E45" transform="translate(292,81)"/>
<path d="M0 0 C2.64 0 5.28 0 8 0 C8 7.59 8 15.18 8 23 C7.67 23 7.34 23 7 23 C7 18.71 7 14.42 7 10 C6.34 10 5.68 10 5 10 C4.9727585 11.41655793 4.95349533 12.83327045 4.9375 14.25 C4.92589844 15.03890625 4.91429687 15.8278125 4.90234375 16.640625 C4.99614694 18.90691002 5.36758937 20.8288895 6 23 C4.68 23 3.36 23 2 23 C1.34 23.66 0.68 24.32 0 25 C0 16.75 0 8.5 0 0 Z " fill="#4263A0" transform="translate(147,213)"/>
<path d="M0 0 C2.64 0 5.28 0 8 0 C8 8.25 8 16.5 8 25 C7.67 24.01 7.34 23.02 7 22 C6.01 22 5.02 22 4 22 C2.70623422 19.41246844 2.83167603 17.45041015 2.8125 14.5625 C2.79832031 13.59441406 2.78414063 12.62632812 2.76953125 11.62890625 C3 9 3 9 5 6 C4.01 5.67 3.02 5.34 2 5 C1.67 10.94 1.34 16.88 1 23 C0.67 23 0.34 23 0 23 C0 15.41 0 7.82 0 0 Z " fill="#4367A1" transform="translate(495,213)"/>
<path d="M0 0 C1.79133978 -0.05391993 3.58313899 -0.09275571 5.375 -0.125 C6.37273437 -0.14820313 7.37046875 -0.17140625 8.3984375 -0.1953125 C11 0 11 0 13 2 C13.25 5 13.25 5 13 8 C11 10 11 10 8.3984375 10.1953125 C7.40070313 10.17210937 6.40296875 10.14890625 5.375 10.125 C3.87066406 10.09792969 3.87066406 10.09792969 2.3359375 10.0703125 C1.56507813 10.04710937 0.79421875 10.02390625 0 10 C0 6.7 0 3.4 0 0 Z " fill="#FCFCFE" transform="translate(422,219)"/>
<path d="M0 0 C2.31 0 4.62 0 7 0 C6.67 6.93 6.34 13.86 6 21 C4.02 20.34 2.04 19.68 0 19 C0 12.73 0 6.46 0 0 Z " fill="#2E5694" transform="translate(472,213)"/>
<path d="M0 0 C1.81242052 -0.02687279 3.62495233 -0.04633715 5.4375 -0.0625 C6.44683594 -0.07410156 7.45617187 -0.08570313 8.49609375 -0.09765625 C11 0 11 0 12 1 C12.23728814 7.52542373 12.23728814 7.52542373 11 10 C7.37 10 3.74 10 0 10 C0 6.7 0 3.4 0 0 Z " fill="#CDE6F4" transform="translate(239,220)"/>
<path d="M0 0 C1.60875 -0.020625 3.2175 -0.04125 4.875 -0.0625 C5.77992188 -0.07410156 6.68484375 -0.08570313 7.6171875 -0.09765625 C10 0 10 0 12 1 C12.125 4.375 12.125 4.375 12 8 C10 10 10 10 7.6171875 10.1953125 C6.71226562 10.17210937 5.80734375 10.14890625 4.875 10.125 C2.461875 10.063125 2.461875 10.063125 0 10 C0 6.7 0 3.4 0 0 Z " fill="#E6EFF6" transform="translate(199,220)"/>
<path d="M0 0 C1.45792884 -0.05399736 2.91642712 -0.09279177 4.375 -0.125 C5.18710937 -0.14820313 5.99921875 -0.17140625 6.8359375 -0.1953125 C9 0 9 0 11 2 C11 2.99 11 3.98 11 5 C13.97 5 16.94 5 20 5 C20 5.66 20 6.32 20 7 C16.24840762 9.50106159 12.67647237 9.10433585 8.375 8.75 C7.3540625 8.69005859 7.3540625 8.69005859 6.3125 8.62890625 C1.25941165 8.25941165 1.25941165 8.25941165 -1 6 C-0.625 2.875 -0.625 2.875 0 0 Z " fill="#ECF0F3" transform="translate(524,219)"/>
<path d="M0 0 C5.48605578 -0.36573705 5.48605578 -0.36573705 7.6796875 1.1953125 C9.43015901 3.58796882 9.36876764 5.12359779 9.3125 8.0625 C9.30863281 8.94035156 9.30476563 9.81820312 9.30078125 10.72265625 C9 13 9 13 7 15 C3.375 15.125 3.375 15.125 0 15 C-0.042721 13.33388095 -0.04063832 11.66617115 0 10 C0.33 9.67 0.66 9.34 1 9 C1.14636054 5.63370749 1.07193479 3.21580438 0 0 Z " fill="#21529F" transform="translate(433,218)"/>
<path d="M0 0 C1.19109375 0.00773438 1.19109375 0.00773438 2.40625 0.015625 C3.2003125 0.01046875 3.994375 0.0053125 4.8125 0 C6.90625 0.265625 6.90625 0.265625 8.90625 2.265625 C8.90625 3.585625 8.90625 4.905625 8.90625 6.265625 C11.21625 6.595625 13.52625 6.925625 15.90625 7.265625 C15.57625 7.925625 15.24625 8.585625 14.90625 9.265625 C8.96625 8.935625 3.02625 8.605625 -3.09375 8.265625 C-3.42375 6.285625 -3.75375 4.305625 -4.09375 2.265625 C-2.09375 0.265625 -2.09375 0.265625 0 0 Z " fill="#F5F9FB" transform="translate(117.09375,218.734375)"/>
<path d="M0 0 C3.51056197 2.84714869 4.89669347 4.2024736 5.48828125 8.76953125 C5.45539031 10.11805963 5.39624286 11.4661725 5.3125 12.8125 C5.27866211 13.85180664 5.27866211 13.85180664 5.24414062 14.91210938 C5.18562661 16.60901573 5.0959548 18.30479861 5 20 C3.741875 20.04125 2.48375 20.0825 1.1875 20.125 C0.47980469 20.14820313 -0.22789062 20.17140625 -0.95703125 20.1953125 C-3 20 -3 20 -6 18 C-5.19175781 17.48953125 -4.38351563 16.9790625 -3.55078125 16.453125 C-0.19303412 13.22392868 -0.31479297 11.33254696 -0.1875 6.75 C-0.13980469 5.48671875 -0.09210938 4.2234375 -0.04296875 2.921875 C-0.02878906 1.95765625 -0.01460938 0.9934375 0 0 Z " fill="#EDF4F8" transform="translate(258,218)"/>
<path d="M0 0 C1.81242052 -0.02687279 3.62495233 -0.04633715 5.4375 -0.0625 C6.44683594 -0.07410156 7.45617187 -0.08570313 8.49609375 -0.09765625 C11 0 11 0 12 1 C12.1875 3.9375 12.1875 3.9375 12 7 C10 9 10 9 7.6171875 9.1953125 C6.71226562 9.17210937 5.80734375 9.14890625 4.875 9.125 C3.50988281 9.09792969 3.50988281 9.09792969 2.1171875 9.0703125 C1.41851562 9.04710937 0.71984375 9.02390625 0 9 C0 6.03 0 3.06 0 0 Z " fill="#F0F5FB" transform="translate(325,220)"/>
<path d="M0 0 C1.12921875 -0.00257813 2.2584375 -0.00515625 3.421875 -0.0078125 C6.25 0.125 6.25 0.125 8.25 1.125 C8.292721 2.79111905 8.29063832 4.45882885 8.25 6.125 C6.51150372 7.86349628 4.1713363 7.29716296 1.8125 7.3125 C0.32943359 7.33376953 0.32943359 7.33376953 -1.18359375 7.35546875 C-3.75 7.125 -3.75 7.125 -5.75 5.125 C-5.75 4.135 -5.75 3.145 -5.75 2.125 C-8.06 2.125 -10.37 2.125 -12.75 2.125 C-12.75 1.795 -12.75 1.465 -12.75 1.125 C-8.44859676 0.30382302 -4.377264 -0.01008586 0 0 Z " fill="#ECF1F5" transform="translate(118.75,232.875)"/>
<path d="M0 0 C9.99562363 -0.63019694 9.99562363 -0.63019694 14.1875 2 C15.0846875 2.99 15.0846875 2.99 16 4 C15.67 5.32 15.34 6.64 15 8 C12.69 8.66 10.38 9.32 8 10 C8 9.01 8 8.02 8 7 C2.39 6.67 -3.22 6.34 -9 6 C-9 5.67 -9 5.34 -9 5 C-4.38 5 0.24 5 5 5 C5 4.34 5 3.68 5 3 C2.525 2.01 2.525 2.01 0 1 C0 0.67 0 0.34 0 0 Z " fill="#4C719F" transform="translate(119,227)"/>
<path d="M0 0 C2.64 0 5.28 0 8 0 C8.05785647 3.95827235 8.09354717 7.9164367 8.125 11.875 C8.14175781 13.00292969 8.15851563 14.13085938 8.17578125 15.29296875 C8.18222656 16.36933594 8.18867188 17.44570312 8.1953125 18.5546875 C8.20578613 19.54968262 8.21625977 20.54467773 8.22705078 21.56982422 C8 24 8 24 6 26 C6 21.05 6 16.1 6 11 C4.68 10.67 3.36 10.34 2 10 C1.67 13.96 1.34 17.92 1 22 C0.67 22 0.34 22 0 22 C0 14.74 0 7.48 0 0 Z " fill="#3B5C9A" transform="translate(171,213)"/>
<path d="M0 0 C0.433125 0.9590625 0.433125 0.9590625 0.875 1.9375 C1.82823451 4.15206079 1.82823451 4.15206079 4 5 C3.67 5.99 3.34 6.98 3 8 C2.93062938 10.22818441 2.91542916 12.45834524 2.9375 14.6875 C2.94652344 15.86699219 2.95554687 17.04648438 2.96484375 18.26171875 C2.97644531 19.16535156 2.98804688 20.06898438 3 21 C3.99 21 4.98 21 6 21 C6.25 23.25 6.25 23.25 6 26 C4 28.3125 4 28.3125 2 30 C0.68 29.34 -0.64 28.68 -2 28 C-1.84660156 27.24460938 -1.69320313 26.48921875 -1.53515625 25.7109375 C-0.8112152 20.6909083 -0.63680847 15.68939556 -0.4375 10.625 C-0.39431641 9.60277344 -0.35113281 8.58054688 -0.30664062 7.52734375 C-0.20112208 5.01834712 -0.09900787 2.50926057 0 0 Z " fill="#295087" transform="translate(496,214)"/>
<path d="M0 0 C1.11761719 -0.01417969 2.23523438 -0.02835938 3.38671875 -0.04296875 C6.3125 0.1875 6.3125 0.1875 9.3125 2.1875 C8.4375 6.0625 8.4375 6.0625 7.3125 7.1875 C5.62641034 7.25955511 3.93749341 7.27136068 2.25 7.25 C1.33089844 7.24097656 0.41179688 7.23195312 -0.53515625 7.22265625 C-1.24542969 7.21105469 -1.95570313 7.19945312 -2.6875 7.1875 C-3.0175 5.5375 -3.3475 3.8875 -3.6875 2.1875 C-6.6575 2.1875 -9.6275 2.1875 -12.6875 2.1875 C-12.6875 1.8575 -12.6875 1.5275 -12.6875 1.1875 C-8.41690537 0.3798989 -4.34530161 0.02523404 0 0 Z " fill="#E6E9EC" transform="translate(527.6875,232.8125)"/>
<path d="M0 0 C5.72398793 0.74660712 11.34853777 1.82877141 17 3 C7.8739255 10 7.8739255 10 3 10 C0.75 7.8125 0.75 7.8125 -1 5 C-0.75 2.1875 -0.75 2.1875 0 0 Z " fill="#75A3D3" transform="translate(289,63)"/>
<path d="M0 0 C0.33 0 0.66 0 1 0 C1 6.6 1 13.2 1 20 C2.32 20 3.64 20 5 20 C4.66226563 19.43796875 4.32453125 18.8759375 3.9765625 18.296875 C2.8310942 15.60273356 2.9529974 14.11961767 3.375 11.25 C3.48585937 10.45078125 3.59671875 9.6515625 3.7109375 8.828125 C3.80632812 8.22484375 3.90171875 7.6215625 4 7 C4.66 7 5.32 7 6 7 C6 11.29 6 15.58 6 20 C6.66 20 7.32 20 8 20 C8.33 21.65 8.66 23.3 9 25 C2.25 24.125 2.25 24.125 0 23 C0 15.41 0 7.82 0 0 Z " fill="#2C5691" transform="translate(148,216)"/>
<path d="M0 0 C2.97 0 5.94 0 9 0 C9.66 1.65 10.32 3.3 11 5 C13.64 5.33 16.28 5.66 19 6 C19 6.33 19 6.66 19 7 C12.67370431 7.90375653 7.32629569 7.90375653 1 7 C0.67 4.69 0.34 2.38 0 0 Z " fill="#486391" transform="translate(515,235)"/>
<path d="M0 0 C0 4.95 0 9.9 0 15 C-0.33 15 -0.66 15 -1 15 C-1.33 12.03 -1.66 9.06 -2 6 C-3.32 6 -4.64 6 -6 6 C-6 7.65 -6 9.3 -6 11 C-6.33 11 -6.66 11 -7 11 C-7.12375 9.88625 -7.2475 8.7725 -7.375 7.625 C-7.6465813 3.96896323 -7.6465813 3.96896323 -10 2 C-12.57061311 1.35232207 -12.57061311 1.35232207 -15 1 C-15 0.67 -15 0.34 -15 0 C-13.906875 0.020625 -12.81375 0.04125 -11.6875 0.0625 C-0.625 -0.125 -0.625 -0.125 0 0 Z " fill="#1F4C88" transform="translate(258,217)"/>
<path d="M0 0 C0.66 0.33 1.32 0.66 2 1 C1.071875 1.5775 0.14375 2.155 -0.8125 2.75 C-3.59815842 4.71634712 -5.18738696 6.18037972 -7 9 C-7 8.01 -7 7.02 -7 6 C-11.51290803 9.33562767 -13.68206814 11.33289301 -15 17 C-15.99 17 -16.98 17 -18 17 C-18.33 18.98 -18.66 20.96 -19 23 C-19.33 23 -19.66 23 -20 23 C-19.88669235 16.65477132 -18.48954635 13.48285124 -14.109375 8.89453125 C-9.90097138 5.11476133 -5.39027516 1.79675839 0 0 Z " fill="#92C0E5" transform="translate(312,84)"/>
<path d="M0 0 C1.32 0 2.64 0 4 0 C5.59293052 3.18586105 5.52350846 6.54059949 5 10 C3.1875 12 3.1875 12 1 13 C0.01 13 -0.98 13 -2 13 C-1.48041715 8.62065881 -0.94324258 4.31196609 0 0 Z " fill="#033468" transform="translate(252,223)"/>
<path d="M0 0 C0 5.61 0 11.22 0 17 C-1.98 17.12375 -3.96 17.2475 -6 17.375 C-11.2359974 17.76984571 -15.97121685 18.52094613 -21 20 C-20.67 19.34 -20.34 18.68 -20 18 C-19.01 18 -18.02 18 -17 18 C-16.67 17.01 -16.34 16.02 -16 15 C-11.05 15.33 -6.1 15.66 -1 16 C-1.33 12.04 -1.66 8.08 -2 4 C-2.33 4.99 -2.66 5.98 -3 7 C-4.65 7 -6.3 7 -8 7 C-8.33 6.34 -8.66 5.68 -9 5 C-8.01 5 -7.02 5 -6 5 C-5.71125 4.360625 -5.4225 3.72125 -5.125 3.0625 C-3.72314735 0.49243681 -2.91896073 0 0 0 Z " fill="#FDB16C" transform="translate(292,81)"/>
<path d="M0 0 C0.33 0 0.66 0 1 0 C1 5.94 1 11.88 1 18 C2.98 17.67 4.96 17.34 7 17 C7 19.64 7 22.28 7 25 C4.69 25 2.38 25 0 25 C0 16.75 0 8.5 0 0 Z " fill="#36559D" transform="translate(231,221)"/>
<path d="M0 0 C0.33 0 0.66 0 1 0 C1.33 5.61 1.66 11.22 2 17 C5.0745356 16.2236068 5.0745356 16.2236068 7 14 C7 16.97 7 19.94 7 23 C4.69 23 2.38 23 0 23 C0 15.41 0 7.82 0 0 Z " fill="#36589C" transform="translate(191,223)"/>
<path d="M0 0 C1.79133978 -0.05391993 3.58313899 -0.09275571 5.375 -0.125 C6.37273437 -0.14820313 7.37046875 -0.17140625 8.3984375 -0.1953125 C11 0 11 0 13 2 C13.25 5 13.25 5 13 8 C11 10 11 10 8.3984375 10.1953125 C7.40070313 10.17210937 6.40296875 10.14890625 5.375 10.125 C3.87066406 10.09792969 3.87066406 10.09792969 2.3359375 10.0703125 C1.56507813 10.04710937 0.79421875 10.02390625 0 10 C0 6.7 0 3.4 0 0 Z M2 2 C2 4.31 2 6.62 2 9 C4.97 9 7.94 9 11 9 C11 6.69 11 4.38 11 2 C8.03 2 5.06 2 2 2 Z " fill="#C0CDE5" transform="translate(422,219)"/>
<path d="M0 0 C3.48331435 3.01887244 4.79157144 5.56909529 6 10 C3.36 10 0.72 10 -2 10 C-2.99 8.02 -3.98 6.04 -5 4 C-3.02 4 -1.04 4 1 4 C0.67 2.68 0.34 1.36 0 0 Z " fill="#4A66A7" transform="translate(437,237)"/>
<path d="M0 0 C0.92619141 0.10828125 0.92619141 0.10828125 1.87109375 0.21875 C7.62108387 0.8488859 13.21646559 1.09328281 19 1 C19 1.66 19 2.32 19 3 C15.23667929 5.51533004 11.62916497 5.10321902 7.3125 4.75 C6.62349609 4.71003906 5.93449219 4.67007813 5.22460938 4.62890625 C3.47512615 4.50160855 1.73480885 4.2594889 0 4 C-0.33 3.34 -0.66 2.68 -1 2 C-0.67 1.34 -0.34 0.68 0 0 Z " fill="#CDD6E5" transform="translate(525,223)"/>
<path d="M0 0 C3 0.125 3 0.125 4 1.125 C4.1875 3.5625 4.1875 3.5625 4 6.125 C3.34 6.785 2.68 7.445 2 8.125 C-2.55555556 7.56944444 -2.55555556 7.56944444 -4 6.125 C-4.125 3.625 -4.125 3.625 -4 1.125 C-3 0.125 -3 0.125 0 0 Z " fill="#EAF3FA" transform="translate(326,35.875)"/>
<path d="M0 0 C-0.33 1.98 -0.66 3.96 -1 6 C-2.41777182 5.91214662 -3.83429039 5.80395353 -5.25 5.6875 C-6.03890625 5.62949219 -6.8278125 5.57148438 -7.640625 5.51171875 C-10.39184062 4.9150147 -11.88035957 3.81336211 -14 2 C-12.04396149 1.47061343 -10.08507711 0.95173199 -8.125 0.4375 C-7.03445313 0.14746094 -5.94390625 -0.14257812 -4.8203125 -0.44140625 C-2 -1 -2 -1 0 0 Z " fill="#8EBFE5" transform="translate(264,168)"/>
<path d="M0 0 C3 0.125 3 0.125 4 1.125 C4.1875 3.5625 4.1875 3.5625 4 6.125 C3.34 6.785 2.68 7.445 2 8.125 C-2.55555556 7.56944444 -2.55555556 7.56944444 -4 6.125 C-4.125 3.625 -4.125 3.625 -4 1.125 C-3 0.125 -3 0.125 0 0 Z " fill="#EAF1F9" transform="translate(363,35.875)"/>
<path d="M0 0 C0.66 0.33 1.32 0.66 2 1 C2.09765625 7.15234375 2.09765625 7.15234375 2 9 C1 10 1 10 -2.5625 10.0625 C-3.696875 10.041875 -4.83125 10.02125 -6 10 C-6 9.34 -6 8.68 -6 8 C-5.34 8 -4.68 8 -4 8 C-3.896875 7.05125 -3.79375 6.1025 -3.6875 5.125 C-3 2 -3 2 0 0 Z " fill="#2B4B87" transform="translate(542,231)"/>
<path d="M0 0 C3.37462715 0.54723683 5.08235 1.0549 8 3 C8 3.66 8 4.32 8 5 C3.05 5 -1.9 5 -7 5 C-7.33 4.01 -7.66 3.02 -8 2 C-5.36 2 -2.72 2 0 2 C0 1.34 0 0.68 0 0 Z " fill="#2A5791" transform="translate(116,227)"/>
<path d="M0 0 C0 0.33 0 0.66 0 1 C-1.11117187 1.03738281 -2.22234375 1.07476562 -3.3671875 1.11328125 C-10.87203323 1.42485732 -17.63635525 1.84100375 -24.7734375 4.3671875 C-28.54309162 5.43856288 -32.10799025 5.18832305 -36 5 C-26.05858915 -1.62760723 -11.43999187 -0.35381418 0 0 Z " fill="#8CAFD4" transform="translate(351,79)"/>
<path d="M0 0 C2.625 0.375 2.625 0.375 5 1 C5.625 3.375 5.625 3.375 6 6 C5.34 6.66 4.68 7.32 4 8 C1.375 7.625 1.375 7.625 -1 7 C-1.625 4.625 -1.625 4.625 -2 2 C-1.34 1.34 -0.68 0.68 0 0 Z " fill="#5071B0" transform="translate(281,126)"/>
<path d="M0 0 C2.625 0.375 2.625 0.375 5 1 C5.625 3.375 5.625 3.375 6 6 C5.34 6.66 4.68 7.32 4 8 C1.375 7.625 1.375 7.625 -1 7 C-1.625 4.625 -1.625 4.625 -2 2 C-1.34 1.34 -0.68 0.68 0 0 Z " fill="#4F71B0" transform="translate(299,126)"/>
<path d="M0 0 C0.99 0 1.98 0 3 0 C2.91621094 0.89203125 2.83242187 1.7840625 2.74609375 2.703125 C2.64425781 3.87359375 2.54242188 5.0440625 2.4375 6.25 C2.33308594 7.41015625 2.22867188 8.5703125 2.12109375 9.765625 C2.01801913 12.51871477 2.13786527 14.419982 3 17 C1.68 17 0.36 17 -1 17 C-1.02684679 14.35409986 -1.04676357 11.70846904 -1.0625 9.0625 C-1.07087891 8.30775391 -1.07925781 7.55300781 -1.08789062 6.77539062 C-1.09652441 4.85005687 -1.05224333 2.92464419 -1 1 C-0.67 0.67 -0.34 0.34 0 0 Z " fill="#375F96" transform="translate(150,219)"/>
<path d="M0 0 C2.5 0.125 2.5 0.125 3.5 1.125 C3.6875 3.5625 3.6875 3.5625 3.5 6.125 C2.84 6.785 2.18 7.445 1.5 8.125 C-1.43453261 7.75818342 -2.36437246 7.26062754 -4.5 5.125 C-3.7519084 0.18759542 -3.7519084 0.18759542 0 0 Z " fill="#EFF6FB" transform="translate(344.5,35.875)"/>
<path d="M0 0 C0.99 0.66 1.98 1.32 3 2 C4.9896995 2.39013716 6.99019869 2.73202649 9 3 C9 3.33 9 3.66 9 4 C7.35 4 5.7 4 4 4 C3.34 5.65 2.68 7.3 2 9 C-0.70931419 8.84518205 -2.46584039 8.51827919 -4.4453125 6.59765625 C-5.67679642 5.10228292 -6.8429837 3.5537076 -8 2 C-3.545 2.99 -3.545 2.99 1 4 C0.67 2.68 0.34 1.36 0 0 Z " fill="#426698" transform="translate(156,237)"/>
<path d="M0 0 C0.33 0 0.66 0 1 0 C1.19592461 3.31205884 1.38032746 6.62465854 1.5625 9.9375 C1.61857422 10.88302734 1.67464844 11.82855469 1.73242188 12.80273438 C1.78076172 13.70185547 1.82910156 14.60097656 1.87890625 15.52734375 C1.9260376 16.35999756 1.97316895 17.19265137 2.02172852 18.05053711 C2 20 2 20 1 21 C-1.67058851 21.14115161 -4.32432238 21.04247107 -7 21 C-7 20.67 -7 20.34 -7 20 C-5.02 19.67 -3.04 19.34 -1 19 C-1.185625 17.88625 -1.37125 16.7725 -1.5625 15.625 C-2.18853882 10.69604651 -1.85760499 5.88834842 -1 1 C-0.67 0.67 -0.34 0.34 0 0 Z " fill="#E9F3F8" transform="translate(166,219)"/>
<path d="M0 0 C2.29013653 3.4352048 2.17842973 4.985331 2 9 C-1.3 9 -4.6 9 -8 9 C-6.8125 6.5625 -6.8125 6.5625 -5 4 C-2.3125 3.1875 -2.3125 3.1875 0 3 C0 2.01 0 1.02 0 0 Z " fill="#345C90" transform="translate(133,232)"/>
<path d="M0 0 C2.31 0 4.62 0 7 0 C7.103125 0.639375 7.20625 1.27875 7.3125 1.9375 C7.539375 2.618125 7.76625 3.29875 8 4 C8.99 4.33 9.98 4.66 11 5 C9.54263913 5.19491452 8.08405407 5.38069358 6.625 5.5625 C5.81289063 5.66691406 5.00078125 5.77132812 4.1640625 5.87890625 C2 6 2 6 0 5 C0 3.35 0 1.7 0 0 Z " fill="#275090" transform="translate(523,227)"/>
<path d="M0 0 C3.32901247 2.21934164 3.75023244 3.34683329 5 7 C4.34 7 3.68 7 3 7 C3 8.65 3 10.3 3 12 C3.66 12.33 4.32 12.66 5 13 C2.6568787 12.74438677 0.32156597 12.40729228 -2 12 C-2.33 11.34 -2.66 10.68 -3 10 C-2.34 10 -1.68 10 -1 10 C-0.67 6.7 -0.34 3.4 0 0 Z " fill="#436396" transform="translate(520,220)"/>
<path d="M0 0 C1.15242187 0.00902344 2.30484375 0.01804688 3.4921875 0.02734375 C4.36101563 0.03894531 5.22984375 0.05054688 6.125 0.0625 C6.455 1.3825 6.785 2.7025 7.125 4.0625 C0.44771667 3.47589754 -6.21563095 2.82668989 -12.875 2.0625 C-12.875 1.7325 -12.875 1.4025 -12.875 1.0625 C-8.52167264 0.22226812 -4.43057481 -0.04520995 0 0 Z " fill="#E8EBEC" transform="translate(527.875,232.9375)"/>
<path d="M0 0 C0.33 0 0.66 0 1 0 C1 6.27 1 12.54 1 19 C0.67 18.01 0.34 17.02 0 16 C-0.99 16 -1.98 16 -3 16 C-3 12.37 -3 8.74 -3 5 C-2.34 4.67 -1.68 4.34 -1 4 C-0.34786708 1.97536745 -0.34786708 1.97536745 0 0 Z " fill="#4D6997" transform="translate(502,219)"/>
<path d="M0 0 C1.21816406 0.03480469 1.21816406 0.03480469 2.4609375 0.0703125 C3.68683594 0.09738281 3.68683594 0.09738281 4.9375 0.125 C5.87722656 0.15980469 5.87722656 0.15980469 6.8359375 0.1953125 C5.876875 0.35 5.876875 0.35 4.8984375 0.5078125 C4.2178125 0.7346875 3.5371875 0.9615625 2.8359375 1.1953125 C2.5059375 2.1853125 2.1759375 3.1753125 1.8359375 4.1953125 C0.8459375 4.5253125 -0.1440625 4.8553125 -1.1640625 5.1953125 C-1.4940625 5.8553125 -1.8240625 6.5153125 -2.1640625 7.1953125 C1.7959375 7.1953125 5.7559375 7.1953125 9.8359375 7.1953125 C9.8359375 7.5253125 9.8359375 7.8553125 9.8359375 8.1953125 C5.5459375 8.1953125 1.2559375 8.1953125 -3.1640625 8.1953125 C-3.4940625 6.2153125 -3.8240625 4.2353125 -4.1640625 2.1953125 C-2.1640625 0.1953125 -2.1640625 0.1953125 0 0 Z " fill="#C2D1E3" transform="translate(117.1640625,218.8046875)"/>
<path d="M0 0 C2 2 2 2 2.1953125 4.6015625 C2.17210937 5.59929687 2.14890625 6.59703125 2.125 7.625 C2.10695313 8.62789062 2.08890625 9.63078125 2.0703125 10.6640625 C2.03550781 11.82035156 2.03550781 11.82035156 2 13 C1.01 13 0.02 13 -1 13 C-2.26237731 10.47524538 -2.09856404 8.68799534 -2.0625 5.875 C-2.05347656 4.96492187 -2.04445313 4.05484375 -2.03515625 3.1171875 C-2.02355469 2.41851562 -2.01195312 1.71984375 -2 1 C-1.34 0.67 -0.68 0.34 0 0 Z " fill="#315487" transform="translate(517,217)"/>
<path d="M0 0 C1.67542976 0.28604898 3.34385343 0.61781233 5 1 C5 2.98 5 4.96 5 7 C2.625 7.625 2.625 7.625 0 8 C-0.66 7.34 -1.32 6.68 -2 6 C-1.44444444 1.44444444 -1.44444444 1.44444444 0 0 Z " fill="#4969AB" transform="translate(317,126)"/>
<path d="M0 0 C0.33 0 0.66 0 1 0 C1 2.31 1 4.62 1 7 C-1.64 7 -4.28 7 -7 7 C-7.66 5.02 -8.32 3.04 -9 1 C-4.545 1.99 -4.545 1.99 0 3 C0 2.01 0 1.02 0 0 Z " fill="#6081AE" transform="translate(133,218)"/>
<path d="M0 0 C1.47906892 -0.02689216 2.95827483 -0.04634621 4.4375 -0.0625 C5.26121094 -0.07410156 6.08492187 -0.08570313 6.93359375 -0.09765625 C9 0 9 0 10 1 C10.04063832 2.66617115 10.042721 4.33388095 10 6 C9.46375 5.67 8.9275 5.34 8.375 5 C5.4608939 3.77300796 3.13132292 3.85766714 0 4 C0 2.68 0 1.36 0 0 Z " fill="#FBFDFE" transform="translate(200,220)"/>
<path d="M0 0 C0.33 1.32 0.66 2.64 1 4 C2.3921875 3.690625 2.3921875 3.690625 3.8125 3.375 C7 3 7 3 10 5 C10 5.66 10 6.32 10 7 C8.02 6.34 6.04 5.68 4 5 C3.67 6.32 3.34 7.64 3 9 C2.01 9 1.02 9 0 9 C0 6.03 0 3.06 0 0 Z " fill="#EDF9FA" transform="translate(199,220)"/>
<path d="M0 0 C0.66 0 1.32 0 2 0 C1.39294514 4.12797305 0.06000669 7.37438822 -2 11 C-2.99 11.495 -2.99 11.495 -4 12 C-3.67 9.03 -3.34 6.06 -3 3 C-2.01 2.67 -1.02 2.34 0 2 C0 1.34 0 0.68 0 0 Z " fill="#F46B23" transform="translate(240,81)"/>
<path d="M0 0 C-0.66 1.32 -1.32 2.64 -2 4 C-2.66 4 -3.32 4 -4 4 C-4 4.66 -4 5.32 -4 6 C-6.64 5.67 -9.28 5.34 -12 5 C-11.360625 4.71125 -10.72125 4.4225 -10.0625 4.125 C-7.84793921 3.17176549 -7.84793921 3.17176549 -7 1 C-4.61370553 0.38812962 -2.46459429 0 0 0 Z " fill="#2C538D" transform="translate(167,240)"/>
<path d="M0 0 C0.33 0 0.66 0 1 0 C1.22237877 2.41611533 1.42832339 4.8317717 1.625 7.25 C1.68945312 7.93191406 1.75390625 8.61382812 1.8203125 9.31640625 C2.3359846 15.95568458 2.3359846 15.95568458 0 19 C-0.99 19.33 -1.98 19.66 -3 20 C-3.99 19.34 -4.98 18.68 -6 18 C-5.19175781 17.48953125 -4.38351563 16.9790625 -3.55078125 16.453125 C-0.19303412 13.22392868 -0.31479297 11.33254696 -0.1875 6.75 C-0.13980469 5.48671875 -0.09210938 4.2234375 -0.04296875 2.921875 C-0.02878906 1.95765625 -0.01460938 0.9934375 0 0 Z " fill="#AFC3D6" transform="translate(258,218)"/>
<path d="M0 0 C0.33 0 0.66 0 1 0 C1 3.63 1 7.26 1 11 C2.65 10.67 4.3 10.34 6 10 C6 11.98 6 13.96 6 16 C4.02 15.34 2.04 14.68 0 14 C0 9.38 0 4.76 0 0 Z " fill="#255089" transform="translate(472,218)"/>
<path d="M0 0 C1.48828125 1.11328125 1.48828125 1.11328125 3 3 C3.29296875 5.91796875 3.29296875 5.91796875 3.1875 9.1875 C3.16042969 10.27417969 3.13335937 11.36085937 3.10546875 12.48046875 C3.07066406 13.31191406 3.03585938 14.14335937 3 15 C2.01 15.495 2.01 15.495 1 16 C0.31798844 10.62915894 -0.11521265 5.41499441 0 0 Z " fill="#607FAD" transform="translate(216,216)"/>
<path d="M0 0 C0.33 0 0.66 0 1 0 C1 5.94 1 11.88 1 18 C2.98 17.67 4.96 17.34 7 17 C6.67 18.32 6.34 19.64 6 21 C4.02 20.67 2.04 20.34 0 20 C0 13.4 0 6.8 0 0 Z " fill="#32598D" transform="translate(231,221)"/>
<path d="M0 0 C1.47906892 -0.02689216 2.95827483 -0.04634621 4.4375 -0.0625 C5.26121094 -0.07410156 6.08492187 -0.08570313 6.93359375 -0.09765625 C9 0 9 0 10 1 C10.04092937 3.33297433 10.04241723 5.66705225 10 8 C9.01 7.67 8.02 7.34 7 7 C7.33 5.35 7.66 3.7 8 2 C5.36 2.33 2.72 2.66 0 3 C0 2.01 0 1.02 0 0 Z " fill="#EBFCFE" transform="translate(240,221)"/>
<path d="M0 0 C0.66 0 1.32 0 2 0 C0.125 4.75 0.125 4.75 -1 7 C-1.66 7 -2.32 7 -3 7 C-3 7.66 -3 8.32 -3 9 C-3.99 9.495 -3.99 9.495 -5 10 C-5.66 10.99 -6.32 11.98 -7 13 C-6.36664937 7.61651963 -3.79089107 3.79089107 0 0 Z " fill="#ED864A" transform="translate(243,74)"/>
<path d="M0 0 C2 3.75 2 3.75 2 6 C2.66 6 3.32 6 4 6 C4 6.66 4 7.32 4 8 C1.36 8 -1.28 8 -4 8 C-4.33 8.66 -4.66 9.32 -5 10 C-5.33 8.68 -5.66 7.36 -6 6 C-4.35 5.67 -2.7 5.34 -1 5 C-0.67 3.35 -0.34 1.7 0 0 Z " fill="#456AA0" transform="translate(112,221)"/>
<path d="M0 0 C4.5073626 0.53027795 7.4539073 2.19611275 11 5 C11 5.99 11 6.98 11 8 C10.01 8.33 9.02 8.66 8 9 C7.4225 8.071875 6.845 7.14375 6.25 6.1875 C4.28365288 3.40184158 2.81962028 1.81261304 0 0 Z " fill="#5070A7" transform="translate(378,87)"/>
<path d="M0 0 C1.98 0 3.96 0 6 0 C6 1.65 6 3.3 6 5 C4.02 5 2.04 5 0 5 C0 3.35 0 1.7 0 0 Z " fill="#04386F" transform="translate(240,231)"/>
<path d="M0 0 C3.3 0 6.6 0 10 0 C10 0.33 10 0.66 10 1 C8.35 1 6.7 1 5 1 C5.33 2.98 5.66 4.96 6 7 C3.03 6.505 3.03 6.505 0 6 C0.33 5.34 0.66 4.68 1 4 C0.67 2.68 0.34 1.36 0 0 Z " fill="#44649C" transform="translate(530,227)"/>
<path d="M0 0 C0 3.63 0 7.26 0 11 C-0.33 11 -0.66 11 -1 11 C-1.33 8.69 -1.66 6.38 -2 4 C-2.33 6.97 -2.66 9.94 -3 13 C-3.33 13 -3.66 13 -4 13 C-4.08086147 11.20906809 -4.13912702 9.41710372 -4.1875 7.625 C-4.22230469 6.62726563 -4.25710938 5.62953125 -4.29296875 4.6015625 C-4.14794922 3.31378906 -4.14794922 3.31378906 -4 2 C-1 0 -1 0 0 0 Z " fill="#406092" transform="translate(502,220)"/>
<path d="M0 0 C0.66 0 1.32 0 2 0 C2 3.3 2 6.6 2 10 C1.01 9.67 0.02 9.34 -1 9 C-0.67 6.03 -0.34 3.06 0 0 Z " fill="#204C90" transform="translate(152,223)"/>
<path d="M0 0 C1.09658936 3.28976808 0.79953138 4.71303767 0 8 C-1.32 8 -2.64 8 -4 8 C-4 6.35 -4 4.7 -4 3 C-3.01 2.67 -2.02 2.34 -1 2 C-0.67 1.34 -0.34 0.68 0 0 Z " fill="#104576" transform="translate(250,228)"/>
<path d="M0 0 C1.65 0.33 3.3 0.66 5 1 C5 1.99 5 2.98 5 4 C2.69 4 0.38 4 -2 4 C-1.34 2.68 -0.68 1.36 0 0 Z " fill="#6E99CB" transform="translate(317,126)"/>
<path d="M0 0 C2.97 0.33 5.94 0.66 9 1 C9 1.33 9 1.66 9 2 C2.07 3.485 2.07 3.485 -5 5 C-4.67 4.34 -4.34 3.68 -4 3 C-3.01 3 -2.02 3 -1 3 C-0.67 2.01 -0.34 1.02 0 0 Z " fill="#FCA45A" transform="translate(276,96)"/>
<path d="M0 0 C1 3 1 3 0.0625 5.1875 C-0.4634375 6.0846875 -0.4634375 6.0846875 -1 7 C-2.65 7 -4.3 7 -6 7 C-6.33 6.34 -6.66 5.68 -7 5 C-6.01 5 -5.02 5 -4 5 C-3.71125 4.360625 -3.4225 3.72125 -3.125 3.0625 C-2 1 -2 1 0 0 Z " fill="#FFAF55" transform="translate(290,81)"/>
<path d="M0 0 C2.5 0.3125 2.5 0.3125 5 1 C5.33 1.66 5.66 2.32 6 3 C4.576875 3.185625 4.576875 3.185625 3.125 3.375 C-0.08667191 3.71687177 -0.08667191 3.71687177 -2 6 C-1.125 1.125 -1.125 1.125 0 0 Z " fill="#7BA4D1" transform="translate(281,126)"/>
<path d="M0 0 C1.65 0.33 3.3 0.66 5 1 C5.33 2.65 5.66 4.3 6 6 C5.67 5.01 5.34 4.02 5 3 C2.69 3 0.38 3 -2 3 C-1.34 2.01 -0.68 1.02 0 0 Z " fill="#80A8D4" transform="translate(299,126)"/>
<path d="M0 0 C0.33 1.32 0.66 2.64 1 4 C3.31 4.33 5.62 4.66 8 5 C7.67 5.66 7.34 6.32 7 7 C4.36 6.34 1.72 5.68 -1 5 C-0.67 3.35 -0.34 1.7 0 0 Z " fill="#E3EAF2" transform="translate(125,221)"/>
<path d="M0 0 C3.3 0.33 6.6 0.66 10 1 C9.67 1.66 9.34 2.32 9 3 C6.1875 3.1875 6.1875 3.1875 3 3 C2.01 2.01 1.02 1.02 0 0 Z " fill="#4B76A8" transform="translate(357,81)"/>
<path d="M0 0 C2.97 0.495 2.97 0.495 6 1 C5.67 2.32 5.34 3.64 5 5 C2.525 4.01 2.525 4.01 0 3 C0 2.01 0 1.02 0 0 Z " fill="#254E95" transform="translate(107,216)"/>
<path d="M0 0 C1.485 0.99 1.485 0.99 3 2 C4.9896995 2.39013716 6.99019869 2.73202649 9 3 C9 3.33 9 3.66 9 4 C6.03 4.66 3.06 5.32 0 6 C0 4.02 0 2.04 0 0 Z " fill="#5171A4" transform="translate(156,237)"/>
<path d="M0 0 C0.33 0.99 0.66 1.98 1 3 C1.99 3 2.98 3 4 3 C4 3.66 4 4.32 4 5 C4.66 5.33 5.32 5.66 6 6 C3.6568787 5.74438677 1.32156597 5.40729228 -1 5 C-1.33 4.34 -1.66 3.68 -2 3 C-1.34 3 -0.68 3 0 3 C0 2.01 0 1.02 0 0 Z " fill="#4B678F" transform="translate(519,227)"/>
<path d="M0 0 C2.475 0.495 2.475 0.495 5 1 C3.625 3 3.625 3 2 5 C1.34 5 0.68 5 0 5 C0 3.35 0 1.7 0 0 Z " fill="#2F4D7B" transform="translate(516,236)"/>
<path d="M0 0 C0.66 0.33 1.32 0.66 2 1 C1.67 2.32 1.34 3.64 1 5 C-1.31 4.67 -3.62 4.34 -6 4 C-5.67 3.01 -5.34 2.02 -5 1 C-2.525 1.99 -2.525 1.99 0 3 C0 2.01 0 1.02 0 0 Z " fill="#D1D6DD" transform="translate(535,234)"/>
</svg>
