<?xml version="1.0" standalone="no"?>
<!DOCTYPE svg PUBLIC "-//W3C//DTD SVG 20010904//EN"
 "http://www.w3.org/TR/2001/REC-SVG-20010904/DTD/svg10.dtd">
<svg version="1.0" xmlns="http://www.w3.org/2000/svg"
 width="498.000000pt" height="270.000000pt" viewBox="0 0 498.000000 270.000000"
 preserveAspectRatio="xMidYMid meet">

<g transform="translate(0.000000,270.000000) scale(0.100000,-0.100000)"
fill="#000000" stroke="none">
<path d="M2600 2421 c0 -62 2 -71 18 -71 24 0 42 -19 42 -45 0 -26 -18 -45
-42 -45 -16 0 -18 -9 -18 -70 l0 -70 49 0 c68 0 211 26 271 50 102 40 168 105
153 149 -28 80 -197 153 -390 168 l-83 6 0 -72z m234 -93 c13 -19 14 -25 2
-43 -26 -39 -76 -26 -76 19 0 46 48 62 74 24z"/>
<path d="M2856 2083 l-50 -15 89 -46 c165 -86 258 -200 239 -297 -8 -43 -19
-44 -39 -6 -46 89 -198 158 -390 176 l-71 7 -1 -242 c-1 -148 -6 -255 -13
-276 -6 -18 -28 -47 -48 -64 l-36 -29 35 -15 c19 -8 50 -17 70 -21 31 -6 38
-3 53 20 14 22 15 32 7 57 -25 73 -5 150 57 219 51 57 83 76 150 89 194 36
319 -160 206 -325 -26 -38 -26 -38 -3 -23 22 14 26 14 52 -6 l29 -21 28 34
c70 83 120 242 106 334 -28 182 -147 341 -326 436 -64 34 -74 35 -144 14z"/>
<path d="M1550 1871 c-12 -24 -14 -59 -1 -45 10 10 24 64 17 64 -3 0 -10 -9
-16 -19z"/>
<path d="M2864 1571 c-71 -33 -133 -131 -121 -194 3 -15 5 -11 6 11 1 43 40
82 81 82 40 0 90 -47 90 -85 0 -16 -12 -38 -29 -56 -38 -37 -82 -39 -116 -4
-30 29 -32 21 -5 -22 43 -71 149 -84 229 -28 57 38 95 119 88 181 -12 109
-117 163 -223 115z"/>
<path d="M1970 1390 c0 -11 2 -20 4 -20 2 0 11 -3 19 -6 17 -6 50 23 42 37 -4
5 -19 9 -36 9 -22 0 -29 -5 -29 -20z"/>
<path d="M2140 1401 c0 -17 32 -42 47 -37 8 3 17 6 19 6 2 0 4 9 4 20 0 16 -7
20 -35 20 -19 0 -35 -4 -35 -9z"/>
<path d="M2322 1394 c5 -27 34 -40 52 -25 28 23 19 41 -20 41 -28 0 -35 -4
-32 -16z"/>
<path d="M3100 1225 c-25 -30 -113 -67 -172 -73 -66 -5 -130 14 -178 54 l-29
25 -22 -43 c-16 -32 -23 -67 -27 -133 l-4 -90 210 -62 c115 -35 225 -63 243
-63 44 0 94 31 115 71 36 71 -5 215 -84 292 -35 34 -40 36 -52 22z"/>
<path d="M2583 1207 l-53 -11 0 -103 c0 -112 -2 -109 59 -97 30 6 31 8 31 64
0 31 7 79 15 106 17 58 17 54 8 52 -5 0 -32 -6 -60 -11z"/>
<path d="M1959 1089 c-7 -4 -11 -10 -9 -12 10 -9 302 -88 307 -84 3 3 -15 11
-38 17 -24 6 -62 16 -84 22 -22 5 -68 23 -101 38 -38 17 -67 25 -75 19z"/>
<path d="M268 555 c-37 -21 -56 -82 -38 -124 19 -46 33 -53 123 -60 l82 -6 0
-30 c0 -26 -4 -30 -37 -37 -42 -9 -85 4 -94 27 -4 9 -19 15 -41 15 -35 0 -35
-1 -29 -32 8 -45 37 -65 101 -73 60 -8 147 8 165 30 7 8 14 33 17 55 11 77
-29 110 -133 110 -67 0 -84 7 -84 35 0 34 23 47 77 43 41 -3 48 -6 51 -25 3
-20 10 -23 43 -23 40 0 41 0 34 33 -12 58 -35 72 -128 75 -59 1 -90 -2 -109
-13z"/>
<path d="M640 458 c0 -124 13 -165 62 -201 36 -27 152 -30 191 -4 53 34 62 61
66 194 l3 123 -41 0 -41 0 0 -115 c0 -137 -10 -155 -85 -155 -66 0 -75 20 -76
158 l-1 112 -39 0 -39 0 0 -112z"/>
<path d="M1080 406 l0 -166 35 0 c35 0 35 0 35 45 l0 45 55 0 c64 0 119 20
134 48 6 12 11 47 11 80 0 50 -4 62 -26 83 -23 22 -35 24 -135 27 l-109 4 0
-166z m188 92 c7 -7 12 -29 12 -50 0 -33 -4 -40 -27 -49 -15 -5 -43 -9 -62 -7
-35 3 -36 5 -39 47 -2 24 -1 50 2 57 7 18 97 19 114 2z"/>
<path d="M1480 405 l0 -165 35 0 c32 0 35 2 35 29 0 54 8 61 66 61 61 0 121
24 130 53 7 24 7 112 -1 136 -11 35 -65 51 -169 51 l-96 0 0 -165z m184 92
c13 -9 17 -23 14 -52 l-3 -40 -60 -3 -60 -3 1 51 c1 27 2 52 3 55 2 11 88 4
105 -8z"/>
<path d="M1951 552 c-48 -26 -71 -74 -71 -147 0 -116 54 -170 170 -170 86 1
125 22 152 82 16 36 19 59 15 105 -6 67 -24 101 -70 128 -43 27 -149 27 -196
2z m144 -48 c45 -18 61 -131 24 -178 -17 -22 -28 -26 -69 -26 -65 0 -90 29
-90 107 0 44 5 58 25 78 24 25 73 33 110 19z"/>
<path d="M2340 405 l0 -165 34 0 35 0 3 53 c3 50 4 52 34 55 29 3 35 -2 64
-52 30 -53 33 -56 72 -56 l40 0 -31 55 -31 56 25 22 c32 27 44 92 25 138 -19
45 -61 59 -175 59 l-95 0 0 -165z m189 91 c7 -8 11 -30 9 -48 l-3 -33 -60 0
-60 0 -3 33 c-2 19 -1 40 2 48 7 19 99 19 115 0z"/>
<path d="M2750 540 c0 -29 1 -30 50 -30 l50 0 0 -135 0 -135 40 0 40 0 0 135
0 135 50 0 c49 0 50 1 50 30 l0 30 -140 0 -140 0 0 -30z"/>
<path d="M3310 405 l0 -165 40 0 40 0 0 55 c0 54 0 55 29 55 32 0 59 -27 81
-80 11 -27 17 -30 57 -30 45 0 45 0 29 22 -9 13 -24 38 -33 55 -16 32 -16 33
10 57 36 33 44 85 21 133 -26 53 -52 63 -171 63 l-103 0 0 -165z m204 72 c16
-45 -1 -61 -68 -65 l-56 -3 0 44 c0 24 3 47 7 51 4 4 30 6 57 4 45 -3 52 -6
60 -31z"/>
<path d="M3882 453 c4 -129 14 -163 61 -197 40 -30 153 -30 194 0 51 37 63 77
63 202 l0 113 -37 -3 -38 -3 -1 -112 c0 -134 -10 -153 -81 -153 -73 0 -83 18
-83 155 l0 115 -41 0 -41 0 4 -117z"/>
<path d="M4374 560 c-72 -29 -72 -155 -1 -180 16 -5 55 -10 86 -10 67 0 84 -9
79 -41 -3 -22 -8 -24 -65 -27 -54 -3 -62 -1 -68 18 -3 11 -14 20 -23 20 -9 0
-27 3 -39 6 -19 5 -23 2 -23 -19 0 -40 49 -84 103 -92 138 -21 220 41 187 141
-14 43 -40 54 -120 54 -73 0 -90 6 -90 34 0 38 14 47 66 44 40 -2 51 -7 59
-25 7 -17 18 -23 42 -23 17 0 34 4 37 9 11 18 -17 72 -45 86 -31 16 -150 19
-185 5z"/>
</g>
</svg>
