<svg width="40" height="40" viewBox="0 0 64 64" fill="none" xmlns="http://www.w3.org/2000/svg">
  <circle cx="20" cy="20" r="10" fill="#FF7A59"/>
  <circle cx="44" cy="20" r="10" fill="#8A63D2"/>
  <path d="M32 38C23 38 16 41 16 47V52H48V47C48 41 41 38 32 38Z" fill="#4B2E83"/>
  <path d="M58 28C58 32.4183 53.5228 36 48 36C46.3076 36 44.7216 35.6304 43.3557 34.9816L37 38L38.9403 32.7461C37.7377 31.3364 37 29.5667 37 27.6667C37 23.2484 41.4772 19.6667 47 19.6667C52.5228 19.6667 58 23.2484 58 28Z" fill="#4B2E83"/>
  <path d="M6 28C6 32.4183 10.4772 36 16 36C17.6924 36 19.2784 35.6304 20.6443 34.9816L27 38L25.0597 32.7461C26.2623 31.3364 27 29.5667 27 27.6667C27 23.2484 22.5228 19.6667 17 19.6667C11.4772 19.6667 6 23.2484 6 28Z" fill="#1B2E55"/>
</svg>
