<?xml version="1.0" standalone="no"?>
<!DOCTYPE svg PUBLIC "-//W3C//DTD SVG 20010904//EN"
 "http://www.w3.org/TR/2001/REC-SVG-20010904/DTD/svg10.dtd">
<svg version="1.0" xmlns="http://www.w3.org/2000/svg"
 width="1024.000000pt" height="1024.000000pt" viewBox="0 0 1024.000000 1024.000000"
 preserveAspectRatio="xMidYMid meet">

<g transform="translate(0.000000,1024.000000) scale(0.100000,-0.100000)"
fill="#000000" stroke="none">
<path d="M3612 9499 c-187 -31 -363 -195 -406 -379 -23 -94 -23 -741 -1 -838
47 -206 234 -357 468 -379 l69 -6 -4 -143 c-3 -161 2 -177 64 -177 29 0 49 17
185 158 l153 159 307 6 c296 6 311 7 379 32 134 47 229 128 293 247 54 102 61
158 61 526 0 360 -7 422 -57 525 -37 76 -141 178 -223 218 -120 59 -151 62
-720 61 -283 -1 -539 -5 -568 -10z m1047 -387 c19 -9 40 -26 47 -37 12 -19 -4
-33 -242 -210 -156 -116 -262 -189 -274 -188 -25 3 -520 358 -520 373 0 7 37
42 60 56 8 5 159 11 335 14 176 3 374 7 440 8 98 2 126 -1 154 -16z m56 -762
c-34 -66 -20 -64 -531 -67 -458 -2 -463 -2 -489 19 -52 41 -55 63 -55 378 0
159 3 290 6 290 7 0 339 -242 447 -325 85 -65 113 -63 214 17 43 35 155 121
248 191 l170 129 3 -301 c2 -255 0 -306 -13 -331z"/>
<path d="M6415 9020 c430 -5 580 -9 610 -19 156 -51 258 -154 300 -302 13 -44
15 -47 11 -15 -13 106 -113 237 -222 290 -109 53 -141 56 -729 54 l-540 -2
570 -6z"/>
<path d="M5745 9002 c-151 -52 -250 -160 -291 -317 -19 -71 -19 -600 0 -670
34 -127 121 -236 235 -293 35 -18 71 -32 80 -32 9 0 -10 11 -42 24 -119 49
-200 132 -249 255 -22 53 -23 72 -26 351 -3 202 0 312 8 350 37 170 158 293
328 334 31 8 46 15 32 15 -14 0 -48 -7 -75 -17z"/>
<path d="M5950 8679 c-34 -14 -70 -49 -69 -68 0 -11 3 -8 9 6 5 12 21 30 36
40 25 16 61 19 319 23 l290 6 -280 1 c-166 1 -290 -2 -305 -8z"/>
<path d="M6566 8666 c17 -8 35 -22 40 -32 5 -11 11 -129 14 -264 l6 -245 2
233 c2 182 -1 240 -12 267 -14 33 -42 55 -68 55 -7 -1 1 -7 18 -14z"/>
<path d="M6884 8628 c-76 -59 -216 -182 -224 -198 -6 -10 -9 -38 -8 -62 1 -39
2 -40 5 -8 2 19 6 45 8 57 4 19 202 194 250 221 11 6 15 12 9 12 -6 0 -24 -10
-40 -22z"/>
<path d="M7342 8380 c-1 -146 -7 -294 -13 -330 -21 -134 -109 -256 -227 -318
-65 -34 -122 -49 -237 -62 l-80 -9 85 5 c47 2 108 10 136 18 174 46 308 195
334 371 6 40 9 183 8 330 l-3 260 -3 -265z"/>
<path d="M6960 8417 l5 -202 3 194 c1 107 -1 198 -5 202 -5 5 -6 -83 -3 -194z"/>
<path d="M5874 8500 c0 -52 1 -74 3 -47 2 26 2 68 0 95 -2 26 -3 4 -3 -48z"/>
<path d="M5882 8202 l-2 -134 29 -29 c16 -16 38 -29 48 -29 11 1 7 6 -13 14
-18 8 -36 20 -40 28 -5 7 -11 74 -15 148 l-5 135 -2 -133z"/>
<path d="M6641 8303 c-2 -32 27 -68 131 -159 62 -55 119 -104 126 -108 14 -8
62 18 62 34 0 6 -9 1 -20 -10 -32 -32 -18 -42 -205 129 -38 34 -75 77 -82 95
-6 17 -12 26 -12 19z"/>
<path d="M6612 8095 c0 -16 2 -22 5 -12 2 9 2 23 0 30 -3 6 -5 -1 -5 -18z"/>
<path d="M6584 8038 l-19 -23 23 19 c21 18 27 26 19 26 -2 0 -12 -10 -23 -22z"/>
<path d="M6538 8013 c7 -3 16 -2 19 1 4 3 -2 6 -13 5 -11 0 -14 -3 -6 -6z"/>
<path d="M6113 8003 c75 -2 199 -2 275 0 75 1 13 3 -138 3 -151 0 -213 -2
-137 -3z"/>
<path d="M2870 7873 c-50 -8 -146 -47 -199 -80 -75 -48 -143 -122 -185 -202
-43 -83 -35 -81 -301 -81 -218 0 -266 -9 -390 -69 -191 -94 -331 -263 -387
-468 -31 -113 -31 -362 1 -478 35 -130 89 -231 180 -343 31 -37 73 -75 249
-223 14 -12 22 -30 22 -50 0 -49 -39 -229 -58 -264 -11 -21 -50 -55 -107 -93
-188 -125 -324 -265 -438 -450 -71 -114 -152 -275 -141 -279 21 -7 275 -170
344 -220 133 -98 267 -244 385 -421 1 -1 60 25 131 59 359 170 647 270 1142
398 l142 37 -63 109 c-174 304 -366 531 -565 670 -39 28 -71 56 -72 63 0 8 9
46 21 85 l21 72 121 0 c146 0 203 16 272 77 82 73 115 172 115 355 l0 112 48
7 c71 10 111 29 122 60 14 36 7 55 -83 216 -73 132 -74 134 -85 238 -10 91
-37 222 -57 271 -5 13 8 21 61 38 132 43 221 117 277 230 30 62 32 71 32 181
0 109 -2 119 -32 183 -20 41 -52 87 -83 117 -105 103 -299 166 -440 143z m-66
-767 c30 -64 15 -159 -43 -274 -52 -103 -209 -255 -353 -341 l-37 -22 -60 60
c-85 86 -159 94 -209 21 -82 -121 -22 -302 109 -326 63 -12 86 -49 52 -86 -21
-23 -40 -23 -107 2 -108 41 -176 136 -184 256 -6 100 18 173 78 235 88 91 194
88 301 -8 l39 -35 58 43 c182 137 258 251 277 420 11 91 20 112 44 100 10 -6
26 -26 35 -45z"/>
<path d="M5798 7683 c6 -2 18 -2 25 0 6 3 1 5 -13 5 -14 0 -19 -2 -12 -5z"/>
<path d="M6114 7673 c249 -3 282 -5 299 -21 11 -9 71 -76 133 -149 143 -166
161 -177 209 -128 24 23 25 28 23 157 l-2 133 -5 -138 c-5 -122 -8 -140 -25
-153 -44 -32 -60 -21 -189 130 -61 72 -122 141 -134 154 -22 22 -23 22 -305
20 l-283 -3 279 -2z"/>
<path d="M3865 7464 c-79 -17 -213 -77 -278 -124 -36 -25 -47 -42 -62 -88 -28
-89 -70 -165 -134 -242 -69 -82 -76 -108 -69 -248 9 -163 62 -277 222 -476
193 -239 210 -311 115 -506 -61 -125 -166 -225 -314 -302 -123 -64 -199 -114
-190 -128 3 -5 0 -12 -6 -16 -8 -4 -9 -3 -5 4 16 26 -8 10 -45 -30 -44 -49
-45 -51 -23 -69 15 -12 16 -11 10 7 -4 14 -1 26 11 35 16 13 17 12 5 -3 -10
-13 -11 -22 -2 -39 8 -14 8 -19 1 -15 -19 12 -13 -1 43 -86 82 -127 216 -409
216 -456 0 -10 7 -12 23 -9 174 43 620 108 920 136 115 11 211 22 214 25 9 8
-74 121 -87 118 -6 -1 -9 2 -5 8 3 6 -14 34 -39 62 -25 29 -46 62 -46 74 0 23
29 54 51 54 28 0 129 -120 202 -238 l46 -74 183 2 c101 1 204 5 230 9 l47 6
-38 91 c-115 278 -325 462 -648 568 l-53 18 0 113 0 113 114 -5 c90 -5 123 -2
161 10 130 45 185 147 203 381 l7 91 58 6 c69 8 99 30 91 68 -3 14 -35 79 -71
144 l-64 118 7 82 c4 59 1 108 -11 174 l-17 92 -31 -41 c-91 -118 -289 -186
-511 -175 -216 10 -361 83 -426 213 -24 49 -25 77 -4 98 30 30 51 19 86 -46
43 -79 97 -117 210 -148 199 -55 452 -6 568 110 22 22 52 63 67 92 24 46 28
64 28 143 0 74 -4 98 -23 137 -30 60 -89 119 -150 149 -46 24 -52 24 -382 26
-268 1 -349 -1 -405 -13z m690 -13 c0 -8 6 -16 13 -18 6 -3 12 0 12 7 0 6 -6
8 -12 4 -10 -5 -10 -4 -1 6 23 25 142 -32 182 -88 17 -25 18 -31 6 -36 -8 -3
-14 -2 -14 2 3 18 -2 32 -12 32 -5 0 -7 -6 -4 -12 4 -7 0 -4 -9 6 -8 10 -13
22 -11 27 3 4 0 11 -7 15 -7 4 -10 4 -6 -1 4 -4 3 -14 -3 -22 -9 -9 -8 -13 0
-13 6 0 11 -5 11 -11 0 -5 -4 -7 -10 -4 -5 3 -10 1 -10 -4 0 -10 7 -12 26 -10
10 1 44 -44 45 -60 0 -10 2 -12 6 -3 2 6 9 9 15 6 7 -5 9 3 6 20 -7 38 7 20
22 -28 10 -32 10 -40 -1 -47 -11 -8 -10 -11 5 -20 16 -10 17 -19 11 -67 -7
-55 -44 -144 -65 -157 -13 -8 10 45 27 63 17 18 16 32 -2 32 -8 0 -15 5 -15
10 0 6 8 10 17 8 12 -2 19 6 24 30 5 25 3 32 -8 32 -9 0 -13 6 -10 14 4 9 0
13 -11 11 -9 -2 -23 -4 -30 -4 -7 -1 -10 -5 -7 -11 3 -6 -1 -7 -9 -4 -21 8
-20 11 12 29 26 15 26 15 2 9 -21 -6 -23 -5 -13 8 7 8 10 18 6 21 -9 10 -25 9
-19 -1 3 -5 -1 -20 -9 -35 -12 -24 -12 -28 3 -37 10 -5 12 -10 5 -10 -7 0 -13
-5 -13 -11 0 -5 5 -7 10 -4 6 4 10 -7 10 -25 0 -26 3 -31 18 -26 16 6 16 5 0
-8 -19 -14 -25 -66 -7 -66 5 0 7 -5 4 -10 -4 -6 -13 -7 -23 -1 -9 4 -23 7 -30
5 -7 -1 -8 0 -2 3 7 3 5 10 -6 17 -13 10 -14 15 -4 21 9 5 11 4 6 -3 -4 -7 -1
-12 8 -12 8 0 17 -6 20 -12 3 -7 3 0 1 17 -3 16 1 33 8 37 9 6 8 8 -2 8 -8 0
-23 8 -34 18 -12 10 -17 11 -12 3 5 -10 4 -12 -3 -7 -7 4 -12 17 -13 29 0 12
-3 17 -5 10 -3 -7 -13 -9 -21 -6 -12 5 -15 2 -10 -9 4 -12 0 -15 -16 -11 -21
4 -21 4 -4 -10 12 -10 14 -17 8 -22 -6 -3 -11 -15 -11 -26 0 -17 -15 -24 -45
-20 -5 1 -1 -6 9 -14 15 -12 17 -18 8 -27 -6 -6 -15 -9 -18 -5 -9 8 -11 97 -3
97 11 0 20 -31 12 -43 -4 -7 1 -5 11 3 11 8 14 16 7 18 -6 2 -11 8 -11 14 0 6
7 8 15 4 19 -7 19 1 1 20 -18 17 -27 18 -20 1 3 -8 -3 -13 -16 -13 -15 0 -19
5 -14 19 3 10 0 24 -6 32 -10 12 -9 15 4 15 9 0 16 4 16 10 0 5 -6 7 -14 4 -9
-3 -15 4 -18 20 -3 14 -1 23 3 20 5 -3 9 -1 9 5 0 5 -9 9 -19 8 -11 0 -19 -4
-19 -7 2 -19 -4 -29 -14 -26 -7 1 -10 1 -5 -1 4 -3 7 -15 7 -28 0 -18 5 -23
20 -20 11 2 22 0 25 -6 4 -5 2 -9 -4 -9 -7 0 -7 -8 -1 -26 14 -35 12 -42 -4
-21 -14 18 -15 17 -21 -3 -8 -24 14 -55 22 -32 3 6 9 12 15 12 6 0 3 -9 -7
-20 -10 -11 -22 -17 -28 -13 -6 3 -7 1 -3 -6 4 -6 16 -9 27 -6 11 4 19 2 19
-4 0 -6 -5 -11 -12 -11 -6 0 -8 -3 -5 -7 4 -3 2 -12 -4 -19 -7 -8 -6 -14 2
-20 8 -5 9 -3 4 6 -6 10 -4 12 8 7 11 -4 14 -2 10 9 -3 10 0 12 10 8 9 -3 14
-14 12 -24 -2 -13 1 -17 11 -13 10 3 11 10 4 23 -8 15 -5 17 21 14 26 -3 29
-1 25 20 -5 27 20 32 27 4 3 -10 1 -16 -4 -12 -11 6 -11 2 -3 -21 5 -13 8 -14
15 -3 6 9 9 6 10 -12 1 -14 1 -29 0 -33 -1 -5 3 -6 9 -2 6 3 8 11 5 16 -4 5
-1 9 6 9 7 0 5 10 -7 28 -15 23 -15 25 -1 13 11 -9 17 -10 17 -2 0 15 25 14
39 -3 15 -18 -32 -59 -116 -98 -58 -28 -65 -29 -100 -16 -21 7 -40 15 -43 18
-27 27 -35 27 -37 2 0 -14 -9 -32 -19 -39 -11 -8 -13 -13 -5 -13 18 0 43 28
36 40 -3 5 -1 10 4 10 6 0 11 -4 11 -9 0 -5 15 -12 33 -16 l32 -8 -50 -12
c-78 -20 -293 -17 -281 4 2 3 -11 6 -30 7 -46 1 -141 52 -176 95 -28 35 -28
36 -13 72 8 20 13 37 9 37 -12 0 -30 -26 -28 -40 2 -8 -2 -2 -9 13 -10 25 -16
28 -49 25 -21 -2 -38 1 -39 7 -3 32 -19 -58 -17 -98 0 -26 -2 -50 -5 -54 -4
-3 2 -13 13 -20 12 -8 17 -20 13 -26 -5 -9 -2 -8 8 0 13 11 21 7 45 -18 18
-19 23 -28 11 -24 -10 4 -28 0 -42 -9 -31 -21 -41 -20 -24 1 13 15 12 15 -10
4 -17 -9 -20 -15 -11 -21 9 -5 9 -9 1 -14 -15 -10 -33 3 -25 16 4 7 2 8 -5 4
-9 -6 -9 -11 0 -22 11 -13 5 -19 -16 -14 -5 1 -7 -2 -3 -6 10 -10 -12 -35 -24
-28 -5 3 -8 0 -7 -7 4 -20 -30 -81 -41 -74 -5 3 -12 0 -16 -6 -4 -8 -3 -9 4
-5 7 4 12 1 12 -9 0 -9 -4 -14 -9 -11 -5 3 -8 -41 -7 -98 1 -82 -1 -100 -11
-87 -10 13 -12 11 -10 -16 1 -17 5 -29 9 -27 4 2 9 0 13 -6 4 -6 10 -8 15 -5
11 7 22 -24 13 -37 -3 -7 -1 -8 5 -4 14 8 34 -27 26 -47 -3 -8 0 -18 7 -23 9
-5 10 -2 5 11 -5 15 -4 16 9 5 8 -7 13 -16 10 -20 -3 -5 17 -8 44 -6 45 2 61
-8 39 -24 -4 -3 -3 -12 2 -20 8 -13 10 -12 10 3 0 10 4 15 10 12 6 -4 7 1 3
10 -3 10 -1 20 5 24 16 10 18 77 2 95 -10 13 -10 16 0 14 7 -2 15 3 18 11 3 8
0 11 -7 7 -7 -5 -9 -1 -5 9 4 10 14 15 25 12 11 -3 16 0 13 7 -6 15 -34 17
-34 3 0 -5 -11 -7 -25 -5 -13 3 -22 1 -19 -3 3 -5 0 -9 -6 -9 -6 0 -8 -5 -4
-12 4 -7 3 -8 -5 -4 -7 4 -9 17 -6 29 4 15 4 18 -3 9 -7 -11 -12 -6 -21 19
-17 50 -13 99 14 157 22 48 27 52 45 42 11 -6 20 -15 20 -20 0 -6 4 -10 10
-10 5 0 9 3 9 8 -1 4 2 21 6 39 8 35 30 50 39 27 3 -9 10 -12 16 -9 6 3 7 -1
4 -9 -8 -20 -9 -20 -30 2 -16 15 -17 15 -12 0 4 -9 2 -19 -5 -22 -7 -3 -3 -4
8 -1 11 2 27 0 35 -5 13 -9 13 -10 0 -11 -8 -1 -24 -1 -35 0 -11 0 -14 -2 -8
-5 10 -4 10 -11 2 -27 -9 -20 -9 -20 4 -4 8 9 22 17 31 17 9 0 17 5 17 10 3
20 4 25 12 37 4 6 3 14 -3 18 -6 4 -8 11 -5 16 3 5 0 6 -8 3 -8 -3 -14 1 -14
10 0 8 4 13 9 10 4 -3 8 2 8 11 0 12 7 14 28 10 l27 -6 -27 16 c-16 9 -28 18
-28 21 0 2 12 -2 28 -9 38 -20 127 -44 187 -52 99 -12 116 -16 109 -26 -4 -7
-10 -7 -17 0 -6 6 -26 11 -44 11 -25 0 -31 -4 -27 -15 4 -8 10 -12 15 -9 5 3
9 -1 9 -8 0 -9 3 -9 10 2 6 9 13 11 18 5 4 -5 13 -10 20 -11 28 -2 31 -5 26
-21 -5 -15 -4 -15 4 -3 6 8 8 18 6 22 -3 4 1 8 8 8 9 0 9 3 -2 10 -12 7 -8 10
15 11 26 0 27 2 10 9 -15 6 -7 9 30 9 37 1 46 -2 35 -10 -13 -8 -12 -10 3 -7
10 2 17 7 15 12 -2 8 115 41 172 49 8 1 21 8 29 15 7 7 16 10 19 7 9 -9 -31
-33 -46 -27 -10 3 -13 0 -10 -9 3 -8 12 -12 19 -10 8 2 23 5 34 6 11 1 19 8
17 14 -1 7 2 10 8 6 6 -3 7 -11 4 -17 -5 -7 -1 -9 9 -5 9 3 18 -1 22 -11 3 -9
3 -13 -1 -9 -4 4 -13 -1 -19 -10 -11 -15 -13 -15 -25 6 l-12 23 -19 -28 c-13
-21 -15 -32 -7 -41 8 -10 7 -13 -3 -14 -10 0 -10 -2 -2 -5 7 -3 9 -13 6 -22
-5 -13 -3 -14 7 -5 7 6 19 9 26 6 16 -6 17 -2 8 21 -5 12 -10 14 -19 6 -10 -9
-13 -7 -10 7 2 10 4 24 4 31 1 7 6 10 11 7 6 -4 7 -11 4 -17 -4 -6 2 -8 17 -3
13 3 20 3 14 -2 -14 -11 -17 -33 -5 -33 7 0 7 -6 0 -20 -7 -13 -7 -26 -1 -38
8 -14 6 -19 -5 -19 -8 0 -13 6 -10 12 9 24 -8 35 -34 22 -27 -14 -60 -11 -60
4 0 5 -5 9 -11 9 -5 0 -8 -4 -5 -8 3 -5 -1 -9 -9 -9 -8 0 -12 4 -9 9 3 4 -1 8
-8 9 -7 1 -2 5 12 9 17 5 19 8 8 9 -10 1 -18 6 -18 11 0 6 -8 10 -17 10 -15 0
-16 -2 -3 -10 12 -8 12 -10 -2 -15 -9 -4 -15 -16 -14 -30 0 -15 5 -20 11 -15
6 5 17 5 25 0 13 -8 12 -10 -2 -10 -10 0 -18 -6 -18 -12 -1 -7 -9 -2 -20 11
-11 12 -17 27 -14 32 3 5 -3 6 -12 2 -12 -4 -15 -3 -10 5 11 18 -20 15 -38 -4
-9 -8 -16 -11 -16 -5 0 6 -8 7 -17 4 -11 -4 -13 -8 -5 -11 7 -2 10 -8 7 -12
-5 -8 35 -37 43 -32 12 9 22 -2 17 -17 -3 -11 -1 -22 5 -26 6 -4 10 -3 9 2 -4
22 2 43 12 43 11 0 59 -46 59 -56 0 -2 -10 -4 -22 -5 -15 0 -18 -3 -8 -6 8 -4
21 -13 29 -20 11 -12 16 -12 22 -2 6 10 11 10 23 0 8 -7 15 -16 14 -19 -2 -19
3 -33 11 -28 5 4 7 -3 4 -14 -4 -16 -2 -19 11 -14 9 3 16 1 16 -6 0 -6 -4 -8
-10 -5 -5 3 -10 0 -11 -7 0 -10 -2 -10 -6 0 -2 6 -9 10 -13 7 -5 -3 -7 4 -5
15 2 13 -1 20 -11 20 -8 0 -13 -4 -10 -9 3 -5 0 -14 -8 -20 -11 -9 -15 -7 -19
8 -3 14 2 21 18 25 17 4 22 11 18 26 -3 12 -10 17 -17 13 -6 -4 -20 -6 -31 -5
-19 3 -19 2 -1 -12 18 -14 18 -15 -2 -13 -11 0 -19 4 -16 8 2 4 0 10 -6 14 -6
4 -8 11 -5 16 7 10 -28 13 -38 2 -4 -3 1 -16 10 -27 17 -20 17 -20 1 -7 -20
15 -23 9 -8 -19 8 -16 8 -18 -4 -14 -9 3 -14 11 -13 17 1 7 -6 11 -15 11 -10
-1 -16 2 -13 6 3 5 -1 11 -7 14 -7 4 -3 4 10 2 17 -3 22 0 20 12 -2 11 5 18
19 20 28 4 45 25 37 46 -5 12 -10 14 -20 6 -7 -7 -10 -18 -7 -27 5 -12 1 -14
-15 -8 -13 4 -22 2 -22 -5 0 -6 -10 -8 -24 -4 -13 3 -27 1 -30 -5 -4 -6 -1
-11 6 -11 8 0 9 -3 3 -8 -12 -9 -18 -29 -17 -62 0 -14 -2 -19 -5 -12 -4 10 -8
9 -18 -5 -11 -15 -16 -16 -41 -4 -29 13 -29 13 -9 -7 11 -10 26 -17 33 -14 6
2 12 0 12 -5 0 -5 -9 -9 -20 -10 -11 -1 -20 3 -20 9 0 6 -2 9 -5 6 -3 -3 -1
-16 4 -30 10 -28 1 -50 -23 -54 -20 -3 -20 3 -1 22 17 17 21 39 5 29 -5 -3
-10 -1 -10 6 0 6 -8 18 -17 26 -10 8 -13 12 -6 9 6 -4 14 -2 18 4 3 5 -1 10
-9 10 -8 0 -14 8 -13 19 1 15 5 17 17 11 9 -5 28 -7 41 -4 17 4 20 3 11 -4
-11 -7 -9 -10 7 -15 12 -3 22 -2 22 1 1 4 3 16 4 27 2 11 7 35 11 54 7 32 6
33 -14 22 -25 -13 -40 -33 -19 -25 11 4 14 -2 14 -24 -1 -17 -6 -28 -13 -25
-6 2 -24 5 -40 6 -21 2 -28 7 -26 20 2 9 -2 17 -8 17 -6 0 -9 -4 -6 -8 6 -10
-33 -47 -51 -48 -28 -2 -33 -4 -30 -15 1 -6 -4 -14 -11 -16 -8 -3 -10 2 -6 14
5 15 4 15 -5 3 -8 -11 -7 -18 3 -25 7 -5 11 -17 8 -25 -5 -13 -3 -13 12 -1 13
11 14 16 4 22 -12 8 -4 13 15 10 4 0 7 6 7 16 0 9 3 13 7 10 3 -4 12 -2 20 4
10 9 13 6 11 -15 -1 -14 -5 -26 -9 -26 -4 0 -6 -8 -5 -17 2 -10 7 -16 12 -13
5 3 8 8 7 12 -2 5 2 8 7 8 19 0 22 -28 6 -57 -17 -31 -62 -86 -51 -63 4 8 -2
4 -13 -9 -13 -16 -21 -20 -26 -12 -4 6 -2 11 4 11 6 0 9 4 6 9 -4 5 -1 11 5
13 8 3 8 10 -2 26 -16 25 -26 28 -26 8 0 -8 3 -15 6 -14 19 2 22 -4 11 -17
-13 -15 -45 -21 -36 -7 3 5 -1 9 -9 9 -8 0 -12 -4 -9 -9 3 -4 0 -8 -5 -8 -6 0
-11 -9 -11 -21 0 -14 -5 -19 -13 -16 -8 3 -20 1 -28 -5 -10 -7 -5 -8 19 -5 17
2 32 0 32 -5 0 -4 8 -8 18 -8 16 1 16 1 0 11 -19 10 -24 34 -10 43 14 8 35
-11 37 -33 1 -12 10 -28 21 -35 15 -12 17 -17 7 -27 -7 -7 -13 -18 -13 -24 0
-5 4 -5 8 2 6 9 11 7 19 -7 11 -17 10 -18 -13 -14 -16 3 -23 1 -19 -6 4 -6 0
-7 -10 -3 -9 3 -13 9 -8 12 4 3 9 19 10 35 3 37 -12 21 -20 -21 -4 -20 -2 -33
4 -33 6 0 7 -4 4 -10 -3 -6 1 -7 9 -4 18 7 19 4 10 -21 -4 -9 -10 -12 -13 -7
-4 6 -11 4 -19 -4 -10 -11 -10 -14 0 -14 7 0 19 -9 26 -21 8 -12 9 -18 3 -15
-5 4 -15 -3 -21 -14 -11 -21 -11 -21 15 -4 21 14 26 23 21 44 -3 19 -1 27 10
27 9 0 13 -6 10 -14 -3 -8 -1 -11 4 -8 6 3 10 0 11 -7 0 -9 2 -10 5 -1 6 13
35 6 46 -11 5 -7 8 -7 8 2 0 6 3 12 8 12 13 0 5 -112 -9 -121 -11 -7 -12 -10
-1 -21 11 -11 13 -10 10 2 -2 11 6 14 32 13 26 -1 31 1 20 8 -12 8 -10 10 8 6
12 -3 20 -2 17 3 -3 4 2 10 10 14 18 6 18 4 4 -27 -8 -17 -18 -23 -40 -21 -19
1 -34 -5 -43 -17 -12 -17 -15 -18 -26 -4 -8 9 -10 29 -7 49 4 23 1 36 -7 39
-15 6 -40 -30 -27 -38 5 -3 12 3 14 12 4 14 5 13 6 -4 1 -19 -4 -23 -29 -23
-28 0 -30 2 -25 28 l6 27 -15 -25 c-8 -14 -17 -23 -20 -20 -3 3 -12 -4 -20
-15 -10 -14 -11 -25 -5 -37 12 -23 33 -24 25 -2 -4 9 -2 22 4 29 10 13 67 8
76 -6 5 -8 -10 -13 -29 -10 -5 1 -6 -3 -2 -8 3 -6 12 -8 20 -4 9 3 15 -1 15
-9 0 -25 -12 -29 -37 -13 -21 14 -23 14 -23 0 0 -9 4 -14 9 -10 5 3 12 1 16
-5 3 -5 17 -10 31 -10 13 0 24 -4 24 -10 0 -13 0 -13 -48 4 -22 8 -43 12 -46
9 -3 -4 -6 -1 -6 5 0 7 -7 12 -16 12 -11 0 -14 -6 -8 -22 4 -13 7 -30 6 -39 0
-12 6 -16 21 -13 21 4 21 4 2 -5 -31 -15 -35 -13 -35 19 0 19 -5 29 -12 28
-18 -4 -40 -36 -33 -47 3 -5 1 -12 -5 -16 -5 -3 -10 1 -10 10 0 25 -38 0 -42
-27 -2 -13 -9 -22 -16 -20 -6 1 -12 -6 -12 -15 0 -16 -2 -16 -11 -3 -8 12 -12
12 -16 2 -9 -22 -54 -68 -51 -52 2 8 -3 14 -10 12 -8 -1 -11 2 -8 7 3 5 16 7
28 3 14 -3 19 -1 14 6 -3 6 4 20 16 31 l22 21 -30 -3 c-44 -5 -74 8 -69 31 3
16 -2 19 -33 15 -30 -3 -35 -2 -24 8 18 19 14 31 -7 20 -17 -9 -20 -6 -27 27
-4 20 -6 41 -5 45 1 5 -3 6 -9 2 -6 -3 -7 0 -4 9 7 19 24 11 24 -11 0 -13 3
-13 15 -3 11 9 12 15 5 20 -6 4 -8 15 -4 26 3 11 2 15 -3 8 -4 -5 -22 -9 -40
-8 -18 0 -30 -3 -27 -8 3 -4 10 -5 16 -2 7 5 8 2 4 -5 -5 -7 -13 -10 -20 -8
-7 3 -11 -9 -12 -32 -1 -20 -3 -45 -5 -55 -5 -22 10 -30 31 -16 13 8 13 11 1
22 -10 10 -12 10 -7 1 4 -7 2 -13 -3 -13 -14 0 -14 17 -1 25 12 8 43 -9 39
-21 -1 -5 -9 -14 -17 -20 -12 -9 -12 -13 -2 -19 9 -6 11 -4 5 5 -6 10 -4 11 6
4 18 -11 38 -16 67 -15 12 0 22 -3 22 -8 0 -4 -11 -7 -25 -6 -14 2 -23 -1 -19
-6 3 -5 16 -7 30 -5 13 3 24 0 24 -5 0 -5 8 -9 18 -9 12 0 10 -4 -8 -13 -21
-11 -26 -11 -33 0 -11 18 -34 17 -41 -2 -3 -8 -10 -15 -15 -15 -7 0 -7 9 -1
25 9 24 -3 45 -15 25 -4 -6 -11 -8 -16 -5 -5 4 -9 1 -9 -4 0 -6 -8 -11 -17
-11 -13 0 -15 -2 -5 -8 9 -6 5 -12 -14 -21 -25 -11 -25 -13 -10 -30 9 -10 16
-22 16 -27 0 -5 -5 -1 -11 9 -6 9 -15 14 -21 11 -6 -4 -8 -2 -4 4 3 6 2 13 -4
17 -16 10 -12 45 5 45 8 0 15 5 15 11 0 6 8 8 18 5 14 -5 13 -3 -3 10 -19 15
-19 15 10 9 l30 -7 -25 21 c-34 28 -49 26 -56 -8 -4 -17 -12 -32 -20 -35 -18
-7 -18 -1 2 30 9 13 13 28 9 32 -4 4 -10 1 -13 -7 -4 -11 -6 -11 -13 0 -7 11
-9 11 -9 1 0 -7 -4 -10 -10 -7 -5 3 -10 1 -10 -4 0 -6 8 -11 18 -12 13 0 14
-2 2 -6 -8 -4 -20 -13 -27 -22 -7 -9 -13 -11 -13 -6 0 7 -3 7 -8 0 -4 -5 -18
-19 -32 -30 -16 -13 -11 -3 15 30 21 28 44 55 49 60 6 6 12 15 13 20 3 21 50
114 55 110 2 -3 5 3 5 13 -1 9 1 31 2 47 2 27 3 28 12 10 10 -24 2 61 -12 114
-4 19 -6 37 -4 40 3 2 5 -1 5 -8 0 -7 4 -10 10 -6 14 8 0 37 -16 31 -13 -5
-31 29 -25 49 1 5 -1 7 -5 3 -10 -11 -56 60 -48 74 4 6 3 8 -4 5 -13 -9 -94
92 -85 106 3 5 1 7 -4 4 -6 -4 -18 2 -28 13 -10 12 -13 20 -7 20 17 0 15 17
-4 24 -10 4 -13 2 -8 -7 4 -6 0 -5 -9 3 -28 26 -88 134 -82 148 2 7 1 11 -4 7
-14 -8 -53 105 -46 134 4 17 2 21 -3 13 -20 -30 -29 132 -13 218 6 26 18 52
31 62 12 10 19 18 16 18 -4 0 7 15 24 33 40 42 103 157 126 231 18 56 23 61
94 108 44 29 82 47 92 45 10 -3 16 -2 13 3 -5 8 56 33 108 44 22 5 27 4 22 -6
-4 -7 0 -5 8 5 17 20 82 24 91 5 5 -10 7 -10 12 0 3 6 10 12 15 12 6 0 7 -6 3
-12 -6 -10 -5 -10 7 -1 11 9 18 8 31 -1 9 -6 38 -11 65 -10 26 2 83 4 126 5
42 2 77 7 77 12 0 5 -18 6 -40 3 -22 -3 -40 -1 -40 4 0 5 72 8 167 7 137 -2
168 -5 168 -16z m-48 -307 c-3 -3 -12 -4 -19 -1 -8 3 -5 6 6 6 11 1 17 -2 13
-5z m269 -11 c-14 -4 -15 -7 -6 -13 7 -4 8 -10 3 -13 -5 -3 -14 3 -21 14 -11
17 -9 19 15 18 20 -1 22 -3 9 -6z m-132 -55 c1 -7 5 -19 10 -26 7 -11 4 -11
-13 0 -12 7 -17 14 -12 16 6 2 7 11 4 20 -3 9 -3 14 1 10 4 -3 8 -12 10 -20z
m-14 -32 c0 -3 -4 -8 -10 -11 -5 -3 -10 -1 -10 4 0 6 5 11 10 11 6 0 10 -2 10
-4z m-750 -180 c0 -5 -7 -3 -15 4 -8 7 -15 20 -15 28 0 13 3 12 15 -4 8 -10
15 -23 15 -28z m938 -8 c-7 -13 -17 -26 -21 -29 -5 -3 -8 -9 -8 -13 3 -19 0
-26 -10 -26 -5 0 -7 5 -3 11 4 7 1 10 -7 7 -18 -6 -18 -31 -1 -38 9 -4 0 -10
-21 -17 -31 -9 -35 -9 -29 6 5 14 4 14 -11 2 -11 -9 -17 -10 -17 -2 0 6 5 11
10 11 18 0 24 5 75 57 27 29 51 52 53 53 1 0 -3 -10 -10 -22z m22 -18 c0 -5
-2 -10 -4 -10 -3 0 -8 5 -11 10 -3 6 -1 10 4 10 6 0 11 -4 11 -10z m5 -30 c3
-6 -1 -7 -9 -4 -18 7 -21 14 -7 14 6 0 13 -4 16 -10z m-878 -34 c4 -5 1 -6 -7
-1 -10 6 -12 4 -7 -9 5 -12 -10 -35 -49 -77 -108 -117 -122 -212 -50 -329 33
-53 37 -65 27 -86 -36 -81 -153 58 -168 200 -10 100 48 220 139 286 41 30 101
39 115 16z m9 -33 c-8 -16 -34 -46 -58 -68 l-43 -40 41 45 c23 25 47 55 53 68
7 12 14 22 17 22 2 0 -2 -12 -10 -27z m831 -38 c0 -8 -4 -12 -9 -9 -5 3 -6 10
-3 15 9 13 12 11 12 -6z m40 -82 c-2 -16 -4 -5 -4 22 0 28 2 40 4 28 2 -13 2
-35 0 -50z m-110 12 c0 -8 -4 -12 -9 -9 -5 3 -6 10 -3 15 9 13 12 11 12 -6z
m-247 -97 c0 -16 -33 9 -36 27 -2 16 -1 15 17 -1 10 -9 19 -21 19 -26z m120 6
c0 -2 -7 -4 -15 -4 -8 0 -15 4 -15 10 0 5 7 7 15 4 8 -4 15 -8 15 -10z m-42
-16 c-2 -7 2 -12 8 -11 7 1 14 -10 17 -25 5 -25 4 -26 -10 -7 -8 11 -18 19
-22 18 -4 -1 -8 7 -8 18 -1 10 2 19 8 19 5 0 8 -6 7 -12z m152 -2 c0 -2 -7 -7
-16 -10 -8 -3 -12 -2 -9 4 6 10 25 14 25 6z m154 -12 c3 -8 2 -12 -4 -9 -6 3
-10 10 -10 16 0 14 7 11 14 -7z m21 -34 c3 -6 -1 -7 -9 -4 -18 7 -21 14 -7 14
6 0 13 -4 16 -10z m-235 -33 c13 4 13 3 0 -6 -26 -18 -40 -12 -40 17 1 26 1
26 13 6 7 -12 19 -19 27 -17z m57 11 c2 -17 0 -19 -7 -8 -5 8 -6 18 -4 22 8
12 10 10 11 -14z m77 13 c4 -5 -4 -7 -16 -3 -16 4 -19 2 -13 -9 5 -8 5 -11 0
-7 -4 4 -14 3 -22 -3 -18 -16 -16 -4 3 15 17 18 40 21 48 7z m-110 -46 c-4 -8
-13 -15 -22 -15 -13 0 -12 3 4 15 24 18 25 18 18 0z m30 -10 c-4 -8 -8 -15
-10 -15 -2 0 -4 7 -4 15 0 8 4 15 10 15 5 0 7 -7 4 -15z m236 -36 c12 -23 20
-43 18 -45 -3 -2 -14 17 -26 41 -27 56 -20 60 8 4z m-523 17 c0 -8 -6 -12 -14
-9 -7 3 -10 9 -7 14 8 14 21 11 21 -5z m307 -2 c3 -8 2 -12 -4 -9 -6 3 -10 10
-10 16 0 14 7 11 14 -7z m-202 -31 c-9 -4 -3 -12 17 -24 19 -11 31 -27 31 -40
0 -18 -3 -19 -15 -9 -8 6 -19 9 -25 5 -5 -3 -10 -1 -10 4 0 6 7 11 15 11 18 0
20 19 3 21 -7 1 -16 1 -20 1 -11 -2 -18 27 -7 33 5 4 6 12 3 18 -4 7 -1 6 7
-2 12 -11 12 -14 1 -18z m-75 -10 c6 -15 7 -15 13 1 5 17 7 17 20 1 11 -14 11
-16 -1 -13 -9 2 -13 -4 -12 -17 l2 -20 -15 20 c-9 11 -18 19 -22 18 -4 0 -13
5 -20 13 -11 12 -9 14 8 14 11 0 24 -8 27 -17z m-563 -9 c9 -24 2 -26 -12 -4
-7 11 -8 20 -3 20 5 0 12 -7 15 -16z m521 -6 c5 -4 26 -21 45 -38 34 -29 57
-40 45 -20 -3 6 -2 10 3 10 17 0 24 -51 10 -68 -11 -13 -10 -14 9 -4 18 10 21
9 19 -6 -2 -11 -10 -16 -26 -14 -14 2 -20 0 -15 -7 3 -6 11 -9 16 -6 5 4 9 1
9 -4 0 -6 -4 -11 -10 -11 -5 0 -10 -7 -10 -15 0 -12 3 -13 19 -3 11 7 17 17
13 23 -3 5 1 5 9 -2 8 -7 28 -10 44 -7 39 7 41 11 10 16 -14 3 -25 1 -25 -4 0
-5 -5 -6 -11 -2 -8 5 -8 9 1 14 6 4 13 15 14 26 2 12 12 19 30 21 21 1 26 -2
22 -13 -3 -7 0 -14 7 -14 7 0 8 -3 2 -8 -14 -10 -12 -36 5 -57 14 -18 14 -18
-10 -2 -25 15 -85 13 -75 -3 3 -5 17 -7 31 -4 15 3 34 -3 48 -14 l23 -18 -39
-1 c-21 -1 -36 2 -33 7 3 5 1 11 -4 14 -7 5 -22 -27 -25 -56 -1 -3 -4 -10 -8
-14 -12 -11 1 -24 19 -17 11 4 14 3 9 -6 -5 -7 -14 -10 -21 -7 -8 3 -12 -4
-12 -20 0 -31 -6 -36 -28 -28 -16 6 -16 8 -1 16 14 8 15 13 5 24 -8 10 -8 14
0 14 6 0 11 4 11 10 0 5 -7 7 -15 4 -8 -4 -15 -13 -15 -21 0 -8 -5 -11 -10 -8
-7 4 -6 14 1 28 9 17 9 20 -1 10 -7 -6 -13 -25 -15 -41 -1 -16 -5 -34 -9 -40
-3 -6 -1 -14 5 -18 8 -4 7 -9 -2 -15 -11 -6 -11 -11 -2 -20 10 -10 18 -10 40
0 20 9 24 14 14 21 -11 6 -9 10 7 19 16 8 21 7 26 -5 4 -10 2 -13 -7 -8 -9 6
-9 4 1 -8 19 -24 22 -56 6 -62 -19 -7 -18 -26 2 -26 8 0 12 5 9 10 -3 6 1 10
9 10 8 0 18 -5 21 -10 4 -6 10 -8 15 -5 4 3 10 -2 14 -10 3 -8 1 -15 -4 -15
-6 0 -13 0 -17 0 -5 0 -9 5 -9 10 -3 23 -5 24 -13 12 -4 -7 -17 -14 -29 -15
-20 -1 -20 -2 -4 -20 15 -17 17 -17 20 -3 2 9 8 16 13 16 6 0 7 -6 3 -12 -4
-7 -3 -10 1 -5 5 4 19 0 33 -9 13 -8 26 -13 30 -10 3 3 0 6 -6 6 -6 0 -9 7 -5
16 4 12 14 14 34 10 16 -3 29 -1 29 4 0 6 -5 10 -11 10 -7 0 -17 7 -24 17 -9
13 -14 13 -20 3 -5 -9 -4 -11 3 -6 7 4 12 2 12 -4 0 -7 -6 -10 -12 -7 -7 2
-13 15 -13 28 1 19 5 23 24 21 16 -1 24 4 28 18 9 34 23 22 23 -20 0 -45 9
-50 29 -19 11 19 11 21 -3 16 -11 -4 -16 -1 -16 11 0 12 9 18 25 20 29 2 30 0
11 -37 -44 -84 -150 -128 -281 -116 -44 4 -92 8 -107 9 -25 1 -25 2 -11 18 9
10 20 15 24 12 5 -3 9 0 9 5 0 6 10 11 23 12 l22 0 -22 9 c-26 11 -31 30 -8
30 25 0 41 -46 24 -67 -9 -11 -10 -14 -1 -9 6 4 12 2 12 -3 0 -13 106 -15 114
-3 3 5 -10 7 -27 6 -35 -3 -66 10 -54 23 5 4 11 3 15 -3 4 -6 15 -11 24 -11
12 0 15 5 9 16 -5 8 -5 23 0 33 5 10 13 26 18 36 5 11 6 24 1 31 -5 9 -9 6
-15 -11 -4 -12 -7 -27 -6 -31 1 -4 -6 -10 -14 -13 -8 -3 -13 -10 -10 -14 3 -4
-6 -15 -20 -24 -22 -14 -25 -15 -25 -1 0 8 7 15 15 15 8 0 15 5 15 10 0 6 -4
9 -9 8 -5 -2 -8 2 -7 7 0 6 10 9 21 9 19 -2 19 -2 0 13 -11 8 -19 19 -17 25 1
5 -7 12 -18 15 -19 5 -19 6 -3 19 18 14 6 19 -21 8 -18 -7 -10 -34 10 -34 15
0 19 -36 5 -44 -5 -4 -7 3 -4 13 4 16 1 19 -16 14 -12 -3 -21 -1 -21 6 0 9 -5
9 -20 1 -17 -9 -20 -8 -21 12 0 22 -1 22 -8 3 -5 -11 -7 -22 -5 -25 1 -4 -6
-11 -17 -18 -10 -7 -19 -8 -19 -3 0 5 -3 17 -7 26 -5 14 -2 16 18 11 22 -6 22
-6 7 7 -10 8 -15 17 -11 20 3 4 1 7 -5 7 -7 0 -12 7 -12 15 0 8 7 15 15 15 8
0 14 -3 14 -7 -3 -21 2 -34 11 -28 6 4 8 11 4 16 -3 5 1 21 10 34 20 30 20 39
1 31 -10 -3 -15 1 -15 11 0 13 -3 14 -12 5 -7 -7 -27 -12 -45 -12 -43 0 -43
-15 0 -16 17 -1 41 -2 52 -3 19 -2 19 -2 2 -12 -11 -7 -23 -7 -30 -1 -7 5 -29
8 -49 7 -24 -1 -39 3 -42 12 -3 8 -10 12 -14 9 -5 -3 -9 1 -9 9 0 17 30 30 35
16 2 -6 8 -11 14 -11 6 0 8 6 5 14 -3 8 -3 17 1 19 4 2 2 3 -3 2 -13 -3 -36
21 -28 29 4 3 1 6 -5 6 -6 0 -9 6 -6 14 3 8 0 17 -5 21 -6 3 -8 11 -5 17 5 8
1 9 -11 4 -18 -7 -18 -6 0 14 10 11 24 20 32 20 7 0 18 12 24 27 l10 26 24
-33 c31 -42 32 -60 3 -61 -18 -1 -17 -3 7 -8 28 -6 54 7 36 19 -5 3 -12 16
-16 30 -4 14 -15 30 -24 37 -14 11 -14 13 -1 14 8 1 19 1 24 0 17 -3 34 21 30
43 -3 19 1 25 21 28 13 3 22 1 19 -3 -3 -5 -1 -9 4 -9 6 0 12 7 16 15 3 9 0
15 -9 15 -8 0 -15 5 -15 10 0 11 18 10 35 -2z m555 -63 c-7 -8 -20 -15 -29
-14 -11 0 -9 3 7 9 13 6 22 19 23 32 1 18 2 19 6 5 3 -10 -1 -24 -7 -32z
m-1063 3 c-3 -7 -5 -2 -5 12 0 14 2 19 5 13 2 -7 2 -19 0 -25z m733 28 c0 -2
-6 -9 -14 -15 -11 -9 -16 -9 -22 0 -4 8 -3 9 4 5 7 -4 12 -2 12 3 0 6 5 11 10
11 6 0 10 -2 10 -4z m70 -6 c0 -5 -5 -10 -11 -10 -5 0 -7 5 -4 10 3 6 8 10 11
10 2 0 4 -4 4 -10z m-129 -45 c12 8 12 6 0 -8 -10 -13 -17 -15 -27 -6 -8 6
-14 19 -14 27 0 13 2 13 13 -3 9 -12 19 -15 28 -10z m74 16 c3 -5 1 -12 -5
-16 -5 -3 -10 1 -10 9 0 18 6 21 15 7z m39 -12 c19 3 23 -2 24 -32 1 -23 -3
-34 -13 -34 -8 0 -11 5 -8 10 3 6 -3 17 -13 25 -16 13 -17 14 -1 9 21 -8 23 8
2 17 -8 3 -15 11 -15 18 0 10 2 10 9 0 4 -8 11 -13 15 -13z m216 1 c0 -5 -15
-9 -32 -9 l-33 1 30 8 c17 4 31 8 33 9 1 0 2 -3 2 -9z m-80 -60 c0 -22 -2 -40
-4 -40 -2 0 -6 18 -8 40 -2 22 0 40 4 40 5 0 8 -18 8 -40z m-156 -16 c3 -8 2
-12 -4 -9 -6 3 -10 10 -10 16 0 14 7 11 14 -7z m143 -111 c-3 -10 -5 -2 -5 17
0 19 2 27 5 18 2 -10 2 -26 0 -35z m-97 16 c0 -5 -4 -9 -8 -9 -5 0 -9 7 -9 15
0 8 4 12 9 9 4 -3 8 -9 8 -15z m69 -5 c-7 -8 -6 -14 1 -17 7 -4 7 -5 0 -4 -7
2 -11 6 -10 11 1 5 -4 12 -12 17 -9 6 -6 8 9 6 16 -1 19 -5 12 -13z m-173 -13
c0 -14 -4 -17 -12 -11 -6 6 -15 6 -20 2 -4 -4 -2 1 5 11 18 22 27 22 27 -2z
m64 -36 c0 -14 -29 11 -40 33 l-12 27 26 -28 c14 -15 26 -30 26 -32z m4 39 c9
-3 14 -10 11 -15 -7 -10 -35 0 -35 12 0 11 3 11 24 3z m61 -23 c3 -5 2 -12 -3
-15 -5 -3 -9 1 -9 9 0 17 3 19 12 6z m-30 -11 c3 -5 -1 -10 -10 -10 -9 0 -13
5 -10 10 3 6 8 10 10 10 2 0 7 -4 10 -10z m92 -22 c-3 -7 -5 -2 -5 12 0 14 2
19 5 13 2 -7 2 -19 0 -25z m-147 2 c0 -5 8 -7 18 -3 14 5 15 3 4 -8 -10 -11
-15 -10 -29 4 -11 11 -13 17 -5 17 7 0 12 -4 12 -10z m55 -10 c3 -5 1 -10 -4
-10 -6 0 -11 5 -11 10 0 6 2 10 4 10 3 0 8 -4 11 -10z m-79 -48 c2 -23 5 -45
6 -49 2 -13 -14 -43 -23 -43 -5 0 -8 3 -8 8 3 18 -2 26 -10 14 -6 -10 -10 -9
-14 7 -3 12 -1 19 4 15 12 -7 11 0 -3 31 -6 14 -15 25 -20 25 -4 0 -8 4 -8 8
0 5 7 9 15 9 8 0 12 -4 9 -8 -2 -4 5 -7 16 -6 11 1 20 7 20 15 0 7 -5 10 -12
6 -7 -4 -8 -3 -4 5 14 22 28 6 32 -37z m133 35 c-2 -1 -12 -9 -21 -16 -15 -12
-18 -11 -18 3 0 10 8 16 22 16 12 0 19 -1 17 -3z m27 -29 c-7 -35 -13 -44 -22
-35 -4 4 -2 13 5 20 6 8 9 22 5 31 -4 9 -1 16 6 16 9 0 11 -10 6 -32z m-279
-13 c-8 -9 -16 -10 -24 -3 -18 14 -7 27 16 21 16 -4 17 -8 8 -18z m218 -7 c-3
-7 -17 -14 -32 -15 l-28 -1 25 14 c31 17 41 17 35 2z m-45 -38 c0 -5 -7 -7
-15 -4 -8 4 -15 8 -15 10 0 2 7 4 15 4 8 0 15 -4 15 -10z m-890 -130 c0 -3 -7
-7 -15 -7 -8 0 -15 9 -15 20 0 16 3 17 15 7 8 -7 15 -16 15 -20z m528 1 c-2
-20 3 -31 12 -26 6 4 9 -14 8 -47 -1 -50 -2 -51 -5 -10 -4 39 -6 41 -26 31
-20 -9 -21 -9 -4 4 16 13 16 16 2 30 -19 19 -19 24 -1 24 8 0 15 -3 14 -6z
m-120 -39 c16 11 16 11 0 -6 -17 -19 -44 -13 -31 7 5 8 8 8 11 -1 3 -10 7 -10
20 0z m61 -11 c10 -7 11 -13 2 -27 -11 -18 -11 -18 -9 1 2 14 -2 20 -14 19
-10 -1 -15 2 -12 7 7 11 15 11 33 0z m-44 -58 c-11 -7 -24 -13 -29 -13 -6 1
-1 6 12 13 12 7 19 17 15 22 -4 4 -2 5 6 0 12 -7 11 -10 -4 -22z m89 11 c5
-14 4 -15 -9 -4 -17 14 -19 20 -6 20 5 0 12 -7 15 -16z m-231 -25 c15 2 1 -14
-14 -16 -12 -2 -15 4 -11 25 4 21 6 23 11 8 4 -9 10 -17 14 -17z m94 -1 c-3
-8 -6 -5 -6 6 -1 11 2 17 5 13 3 -3 4 -12 1 -19z m133 -9 c0 -6 -4 -7 -10 -4
-5 3 -10 11 -10 16 0 6 5 7 10 4 6 -3 10 -11 10 -16z m-131 -27 c14 -11 13
-12 -5 -3 -12 6 -24 8 -27 5 -3 -3 -3 4 0 17 5 16 8 19 11 9 3 -8 12 -21 21
-28z m-375 16 c-3 -4 -9 -8 -15 -8 -5 0 -9 4 -9 8 0 5 7 9 15 9 8 0 12 -4 9
-9z m436 -3 c0 -8 -4 -15 -10 -15 -5 0 -7 7 -4 15 4 8 8 15 10 15 2 0 4 -7 4
-15z m-602 -25 c8 -13 8 -20 1 -20 -5 0 -7 -5 -3 -12 4 -6 3 -8 -4 -4 -6 3
-13 2 -17 -4 -3 -6 4 -14 17 -19 21 -9 21 -10 -9 -10 -35 -1 -40 14 -13 36 10
9 11 12 3 13 -7 0 -13 5 -13 11 0 8 5 8 15 -1 10 -8 15 -9 15 -2 0 6 -8 16
-17 21 -14 8 -15 10 -3 11 8 0 21 -9 28 -20z m442 4 c0 -2 -7 -4 -15 -4 -8 0
-15 4 -15 10 0 5 7 7 15 4 8 -4 15 -8 15 -10z m227 -6 c-3 -8 -6 -5 -6 6 -1
11 2 17 5 13 3 -3 4 -12 1 -19z m-542 2 c-3 -5 -11 -10 -16 -10 -6 0 -7 5 -4
10 3 6 11 10 16 10 6 0 7 -4 4 -10z m89 -5 c-4 -8 -8 -15 -10 -15 -2 0 -4 7
-4 15 0 8 4 15 10 15 5 0 7 -7 4 -15z m180 -2 c-5 -5 -12 -12 -16 -18 -4 -6
-8 -2 -8 8 0 9 7 17 17 17 9 0 12 -3 7 -7z m-454 -26 c0 -24 -3 -25 -64 -18
-17 2 27 41 46 41 12 0 18 -7 18 -23z m757 -24 c-3 -10 -5 -2 -5 17 0 19 2 27
5 18 2 -10 2 -26 0 -35z m-417 18 c0 -5 -10 -11 -22 -15 -19 -5 -20 -8 -9 -15
16 -10 25 -45 10 -35 -5 3 -7 9 -4 14 3 4 -3 11 -13 15 -15 6 -15 8 7 26 26
21 31 23 31 10z m137 -13 c-3 -8 -6 -5 -6 6 -1 11 2 17 5 13 3 -3 4 -12 1 -19z
m33 13 c0 -6 -4 -12 -8 -15 -5 -3 -9 1 -9 9 0 8 4 15 9 15 4 0 8 -4 8 -9z
m-383 -16 c0 -8 -4 -15 -9 -15 -10 0 -11 14 -1 23 9 10 10 9 10 -8z m263 -5
c0 -5 -8 -10 -17 -10 -15 0 -16 2 -3 10 19 12 20 12 20 0z m-493 -21 c-9 -6
-15 -15 -11 -21 4 -6 9 -5 15 3 6 10 8 7 6 -8 -1 -15 -5 -19 -13 -13 -6 6 -15
6 -19 2 -5 -4 -5 -1 -1 6 4 6 4 12 -1 12 -14 -1 -58 -28 -55 -34 1 -3 0 -6 -3
-6 -3 0 -11 0 -17 0 -7 0 14 18 47 39 33 21 62 36 65 34 3 -3 -3 -9 -13 -14z
m377 -3 c-2 -11 -10 -27 -19 -35 -13 -14 -15 -13 -15 2 0 10 4 16 9 13 15 -10
19 18 4 29 -12 9 -11 11 5 11 15 0 19 -6 16 -20z m166 14 c0 -5 -4 -10 -9 -10
-6 0 -13 5 -16 10 -3 6 1 10 9 10 9 0 16 -4 16 -10z m90 -10 c0 -11 -4 -20 -9
-20 -5 0 -7 9 -4 20 3 11 7 20 9 20 2 0 4 -9 4 -20z m-565 -20 c-14 -15 -14
-22 -5 -42 l13 -23 -20 20 c-19 19 -19 21 -4 39 15 18 15 19 -4 13 -19 -7 -19
-7 -1 8 25 19 42 8 21 -15z m54 17 c-2 -1 -15 -11 -29 -22 l-25 -20 19 23 c11
12 24 22 29 22 6 0 8 -1 6 -3z m154 -17 c11 0 17 -3 14 -7 -4 -3 0 -15 10 -25
9 -10 12 -18 7 -18 -5 0 -2 -5 6 -11 13 -9 13 -10 0 -6 -8 2 -15 9 -15 15 0 5
-3 14 -7 18 -5 4 -8 -1 -8 -12 0 -15 -2 -16 -9 -5 -5 8 -7 21 -4 30 4 12 3 13
-5 3 -7 -11 -10 -11 -15 2 -4 9 -13 13 -22 10 -8 -3 -12 -11 -9 -16 4 -6 10
-5 15 3 6 10 9 10 9 2 0 -16 -14 -23 -28 -14 -7 4 -10 15 -6 24 3 9 10 15 14
12 5 -3 12 0 16 7 6 9 9 9 12 0 2 -7 13 -12 25 -12z m327 16 c0 -2 -7 -7 -16
-10 -8 -3 -12 -2 -9 4 6 10 25 14 25 6z m0 -46 c0 -5 -2 -10 -4 -10 -3 0 -8 5
-11 10 -3 6 -1 10 4 10 6 0 11 -4 11 -10z m-214 -12 c4 -6 3 -8 -4 -4 -6 3
-15 -2 -21 -11 -6 -11 -11 -13 -11 -5 0 7 -5 10 -12 6 -7 -4 -8 -3 -4 5 4 6
11 9 16 6 5 -3 11 -1 15 5 8 13 12 13 21 -2z m624 2 c8 -5 11 -10 5 -10 -5 0
-17 5 -25 10 -8 5 -10 10 -5 10 6 0 17 -5 25 -10z m-753 -15 c0 -8 -3 -13 -5
-10 -3 3 -12 -1 -20 -8 -13 -11 -14 -9 -1 11 16 26 26 28 26 7z m-413 -14
c-10 -10 -23 -16 -28 -13 -5 3 2 11 15 18 33 18 36 17 13 -5z m238 -13 c-6 -6
-12 -6 -17 3 -5 8 -4 10 3 5 7 -4 12 0 13 11 0 12 2 13 6 5 3 -8 1 -18 -5 -24z
m116 12 c-7 -10 -14 -17 -17 -15 -4 4 18 35 25 35 2 0 -1 -9 -8 -20z m861 11
c10 -7 7 -9 -12 -8 -14 1 -23 5 -20 10 6 9 15 9 32 -2z m-1029 -11 c0 -5 -2
-10 -4 -10 -3 0 -8 5 -11 10 -3 6 -1 10 4 10 6 0 11 -4 11 -10z m355 -10 c-3
-5 -12 -10 -18 -10 -7 0 -6 4 3 10 19 12 23 12 15 0z m715 0 c0 -5 -2 -10 -4
-10 -3 0 -8 5 -11 10 -3 6 -1 10 4 10 6 0 11 -4 11 -10z m-1304 -24 c0 -20 -3
-22 -18 -12 -17 10 -17 12 -1 24 9 6 17 12 18 12 1 0 1 -11 1 -24z m798 -8 c3
-16 3 -28 -2 -28 -4 0 -9 14 -10 32 -3 37 2 35 12 -4z m576 -4 c0 -2 -13 2
-30 11 -16 9 -30 18 -30 21 0 2 14 -2 30 -11 17 -9 30 -18 30 -21z m-1103 0
c4 -14 -15 -39 -24 -31 -4 5 -1 12 7 18 13 8 13 10 0 20 -12 9 -12 10 -1 7 8
-3 16 -8 18 -14z m222 -18 c0 -7 -2 -6 -6 2 -2 6 -11 12 -19 12 -9 0 -12 5 -9
10 8 13 35 -6 34 -24z m101 19 c0 -2 -9 -3 -19 -2 -11 0 -18 5 -15 9 4 6 34 0
34 -7z m-662 -20 c-15 -14 -31 -25 -35 -25 -8 1 48 50 57 50 3 0 -7 -11 -22
-25z m377 15 c3 -5 2 -10 -4 -10 -5 0 -13 5 -16 10 -3 6 -2 10 4 10 5 0 13 -4
16 -10z m271 -22 c4 -7 3 -8 -4 -4 -7 4 -12 2 -12 -5 0 -7 -3 -10 -6 -6 -6 5
3 27 11 27 2 0 7 -5 11 -12z m-71 -38 c-3 -5 -12 -10 -18 -10 -7 0 -6 4 3 10
19 12 23 12 15 0z m970 1 c3 -5 0 -13 -6 -17 -7 -4 -9 -3 -5 4 3 5 0 13 -6 15
-9 4 -10 6 -1 6 6 1 14 -3 18 -8z m-1384 -18 c13 -16 12 -17 -3 -4 -10 7 -18
15 -18 17 0 8 8 3 21 -13z m1430 -20 c13 -16 12 -17 -3 -4 -10 7 -18 15 -18
17 0 8 8 3 21 -13z m-1204 -25 c-3 -8 -6 -5 -6 6 -1 11 2 17 5 13 3 -3 4 -12
1 -19z m240 -4 c-3 -3 -12 -4 -19 -1 -8 3 -5 6 6 6 11 1 17 -2 13 -5z m3 -41
c0 -19 -13 -9 -16 12 -1 8 2 13 7 9 5 -3 9 -12 9 -21z m149 -17 c-3 -3 -11 5
-18 17 -13 21 -12 21 5 5 10 -10 16 -20 13 -22z m897 2 l29 -33 -32 29 c-31
28 -38 36 -30 36 2 0 16 -15 33 -32z m-1303 -11 c-2 -4 -11 -3 -19 4 -12 10
-12 14 -2 20 13 9 30 -10 21 -24z m340 18 c-3 -9 -8 -14 -10 -11 -3 3 -2 9 2
15 9 16 15 13 8 -4z m-767 -44 c3 -23 19 -41 31 -37 11 5 13 1 7 -16 -5 -17
-3 -20 10 -15 11 4 15 3 10 -4 -10 -17 38 -110 51 -99 8 7 12 5 12 -5 0 -8 -5
-11 -10 -8 -11 7 -11 7 22 -65 14 -29 30 -51 36 -48 7 2 12 -2 12 -10 0 -7 -4
-11 -9 -8 -11 7 -10 -3 3 -28 6 -11 9 -22 6 -24 -2 -2 -17 26 -33 63 -32 78
-113 228 -156 290 -15 23 -28 44 -28 48 0 7 35 -26 36 -34z m1828 -97 c3 -8 2
-12 -4 -9 -6 3 -10 10 -10 16 0 14 7 11 14 -7z m-1227 -26 c-3 -8 -6 -5 -6 6
-1 11 2 17 5 13 3 -3 4 -12 1 -19z m652 -82 c-3 -3 -11 5 -18 17 -13 21 -12
21 5 5 10 -10 16 -20 13 -22z m630 0 c-3 -3 -11 5 -18 17 -13 21 -12 21 5 5
10 -10 16 -20 13 -22z m21 -51 c0 -5 -5 -3 -10 5 -5 8 -10 20 -10 25 0 6 5 3
10 -5 5 -8 10 -19 10 -25z m-560 -66 c0 -5 -5 -9 -12 -9 -6 0 -8 3 -5 7 4 3 1
13 -6 22 -11 14 -10 14 6 2 9 -7 17 -17 17 -22z m463 14 c-7 -2 -19 -2 -25 0
-7 3 -2 5 12 5 14 0 19 -2 13 -5z m100 0 c-13 -2 -33 -2 -45 0 -13 2 -3 4 22
4 25 0 35 -2 23 -4z m-743 -19 c0 -2 -7 -4 -15 -4 -8 0 -15 4 -15 10 0 5 7 7
15 4 8 -4 15 -8 15 -10z m378 9 c-10 -2 -26 -2 -35 0 -10 3 -2 5 17 5 19 0 27
-2 18 -5z m70 0 c-10 -2 -26 -2 -35 0 -10 3 -2 5 17 5 19 0 27 -2 18 -5z
m-345 -20 c-13 -2 -33 -2 -45 0 -13 2 -3 4 22 4 25 0 35 -2 23 -4z m-749 -19
c3 -8 2 -12 -4 -9 -6 3 -10 1 -10 -6 0 -7 -2 -10 -5 -7 -5 5 4 38 10 38 2 0 6
-7 9 -16z m541 6 c-3 -5 -25 -9 -48 -8 l-42 1 45 7 c25 4 46 8 48 8 2 1 0 -2
-3 -8z m78 3 c-13 -2 -33 -2 -45 0 -13 2 -3 4 22 4 25 0 35 -2 23 -4z m-873
-7 c0 -2 -7 -7 -16 -10 -8 -3 -12 -2 -9 4 6 10 25 14 25 6z m683 -13 c-13 -2
-33 -2 -45 0 -13 2 -3 4 22 4 25 0 35 -2 23 -4z m-460 -37 c3 3 3 -3 0 -14 -4
-15 -17 -21 -55 -26 -28 -4 -53 -5 -56 -1 -3 3 7 5 21 5 20 0 27 5 27 20 0 11
5 20 10 20 6 0 9 -5 8 -12 -2 -6 6 -13 17 -15 11 -2 16 -1 10 4 -5 4 -10 15
-10 23 0 8 -6 14 -13 12 -8 -1 -11 2 -6 9 5 9 12 6 24 -9 10 -12 20 -19 23
-16z m375 27 c-10 -2 -26 -2 -35 0 -10 3 -2 5 17 5 19 0 27 -2 18 -5z m-658
-33 c0 -14 5 -18 17 -13 15 6 16 5 3 -9 -16 -17 -22 -12 -35 31 -5 16 -4 21 4
17 6 -4 11 -16 11 -26z m588 23 c-10 -2 -26 -2 -35 0 -10 3 -2 5 17 5 19 0 27
-2 18 -5z m-382 -23 c0 -12 -4 -16 -9 -11 -5 5 -6 14 -3 20 10 15 12 14 12 -9z
m299 13 c-16 -3 -47 -8 -69 -13 -21 -5 -34 -5 -30 0 11 10 49 17 94 17 32 0
33 0 5 -4z m-325 -19 c0 -8 -5 -12 -10 -9 -6 4 -8 11 -5 16 9 14 15 11 15 -7z
m165 -4 c-3 -5 -18 -10 -33 -9 l-27 1 25 8 c35 11 42 11 35 0z m42 4 c-3 -3
-12 -4 -19 -1 -8 3 -5 6 6 6 11 1 17 -2 13 -5z m-282 -49 c-71 -17 -95 -18
-95 -6 0 4 12 6 26 3 15 -3 25 -1 22 4 -3 5 19 10 51 11 l56 1 -60 -13z"/>
<path d="M4318 7448 c4 -4 19 -9 35 -12 19 -3 27 -1 27 10 0 10 -10 13 -34 11
-19 -1 -32 -5 -28 -9z"/>
<path d="M4395 7450 c-3 -5 -3 -10 2 -11 43 -4 70 -3 67 3 -2 4 8 9 23 11 16
2 2 5 -29 6 -31 0 -60 -3 -63 -9z"/>
<path d="M4594 7442 c4 -7 2 -20 -6 -29 -10 -13 -10 -17 0 -20 6 -3 10 -9 6
-14 -9 -15 -24 -10 -25 9 0 11 -2 12 -6 4 -3 -7 0 -19 7 -27 10 -13 14 -12 27
1 12 11 13 18 5 26 -9 9 -9 15 0 25 8 10 8 17 -2 26 -10 9 -11 9 -6 -1z"/>
<path d="M4187 7423 c7 -2 9 -12 6 -20 -5 -13 -2 -15 11 -10 11 4 15 3 10 -4
-3 -6 -14 -9 -24 -6 -11 3 -17 0 -14 -7 2 -6 18 -11 34 -12 24 -1 28 1 19 12
-6 8 -8 14 -4 14 4 0 2 6 -4 13 -6 8 -9 16 -6 18 2 3 -6 5 -18 6 -12 0 -17 -1
-10 -4z"/>
<path d="M4426 7422 c-3 -5 -19 -7 -35 -6 -17 1 -28 -2 -25 -7 3 -5 1 -9 -5
-9 -5 0 -12 6 -14 13 -3 7 -6 5 -6 -5 -1 -19 24 -25 34 -9 3 5 18 9 33 9 19
-1 28 -6 29 -19 1 -13 -3 -16 -15 -12 -14 6 -15 5 -2 -9 18 -20 22 -17 26 21
3 29 -9 50 -20 33z"/>
<path d="M4650 7415 c11 -13 10 -14 -5 -9 -13 5 -16 4 -11 -5 4 -6 2 -20 -5
-29 -11 -13 -8 -12 9 2 14 12 22 15 22 7 0 -19 23 -8 26 12 1 9 -2 15 -7 11
-5 -3 -9 -1 -9 4 0 6 -7 13 -16 16 -14 5 -15 4 -4 -9z"/>
<path d="M4256 7407 c3 -8 11 -14 19 -14 11 0 12 4 4 14 -6 7 -15 13 -20 13
-5 0 -6 -6 -3 -13z"/>
<path d="M4026 7402 c-3 -5 1 -9 9 -9 8 0 12 4 9 9 -3 4 -7 8 -9 8 -2 0 -6 -4
-9 -8z"/>
<path d="M4088 7403 c7 -3 16 -2 19 1 4 3 -2 6 -13 5 -11 0 -14 -3 -6 -6z"/>
<path d="M4504 7380 c-2 -27 0 -29 11 -13 7 9 11 23 8 30 -9 23 -18 14 -19
-17z"/>
<path d="M3685 7370 c3 -5 8 -10 11 -10 2 0 4 5 4 10 0 6 -5 10 -11 10 -5 0
-7 -4 -4 -10z"/>
<path d="M4476 7365 c-3 -8 -1 -15 4 -15 6 0 10 7 10 15 0 8 -2 15 -4 15 -2 0
-6 -7 -10 -15z"/>
<path d="M4373 7331 c-17 -16 -29 -32 -26 -35 4 -3 1 -6 -5 -6 -7 0 -12 -4
-12 -9 0 -5 8 -8 18 -6 9 1 16 9 14 17 -3 19 24 43 32 29 4 -5 2 -12 -4 -16
-14 -8 -13 -25 2 -25 6 0 8 3 5 7 -4 3 -2 12 4 19 7 8 7 14 -1 19 -8 5 -8 11
1 21 18 22 7 16 -28 -15z"/>
<path d="M4646 7344 c-9 -23 -8 -27 8 -21 8 3 17 0 19 -7 4 -9 0 -12 -12 -9
-13 3 -20 -2 -24 -17 -3 -14 -10 -19 -17 -15 -9 6 -9 10 1 16 10 7 5 8 -13 5
-17 -3 -28 1 -32 11 -9 22 -8 23 19 13 22 -8 25 -7 25 11 0 18 -3 19 -15 9 -8
-6 -19 -9 -25 -5 -15 10 -24 -23 -10 -40 7 -8 16 -13 20 -10 4 3 14 -3 21 -12
12 -15 11 -16 -8 -11 -31 8 -29 -4 2 -19 14 -6 23 -7 19 -2 -3 5 0 9 6 9 6 0
8 5 5 10 -3 6 1 10 10 10 9 0 14 4 11 8 -2 4 5 8 17 9 12 0 16 -1 10 -4 -7 -3
-13 -12 -13 -21 0 -15 2 -15 10 -2 8 13 10 12 10 -2 0 -10 4 -18 9 -18 5 0 7
9 4 21 -3 12 0 25 7 29 9 6 6 12 -14 25 -14 10 -26 24 -26 31 0 19 -16 18 -24
-2z"/>
<path d="M4420 7329 c0 -5 4 -8 9 -4 5 3 17 -3 27 -12 17 -17 18 -17 11 0 -4
10 -7 21 -7 23 0 2 -9 4 -20 4 -11 0 -20 -5 -20 -11z"/>
<path d="M4541 7314 c0 -11 3 -14 6 -6 3 7 2 16 -1 19 -3 4 -6 -2 -5 -13z"/>
<path d="M4426 7312 c-2 -4 -1 -14 3 -21 6 -10 10 -9 14 3 6 16 -8 32 -17 18z"/>
<path d="M4165 7290 c-3 -6 1 -7 9 -4 18 7 21 14 7 14 -6 0 -13 -4 -16 -10z"/>
<path d="M4500 7280 c0 -5 5 -10 11 -10 5 0 7 -5 3 -12 -4 -7 -3 -8 5 -4 9 6
9 11 0 22 -14 17 -19 18 -19 4z"/>
<path d="M4725 7280 c-3 -5 -1 -10 4 -10 6 0 11 5 11 10 0 6 -2 10 -4 10 -3 0
-8 -4 -11 -10z"/>
<path d="M4720 7255 c0 -3 8 -14 17 -24 16 -20 17 -20 34 0 10 12 19 16 22 9
3 -6 5 -6 3 1 -1 7 -10 13 -19 15 -11 1 -15 -2 -11 -9 5 -8 2 -7 -7 1 -13 12
-39 17 -39 7z"/>
<path d="M4643 7234 c-3 -8 -12 -13 -20 -10 -16 6 -73 -20 -73 -33 0 -18 13
-18 32 1 15 15 22 17 28 8 5 -9 9 -9 14 -1 13 20 23 11 22 -18 -1 -18 -5 -27
-13 -24 -7 3 -11 8 -8 12 2 4 -2 8 -10 8 -8 0 -15 -4 -15 -9 0 -10 42 -28 51
-22 4 2 9 -3 13 -11 3 -8 10 -15 16 -15 6 0 4 8 -5 17 -16 15 -16 18 5 33 14
11 20 24 17 36 -4 18 -5 18 -6 -1 -1 -12 -8 -21 -19 -22 -15 -1 -18 5 -17 33
1 37 -2 42 -12 18z"/>
<path d="M4334 7209 c4 -33 3 -36 -17 -33 -12 2 -15 1 -7 -2 8 -4 23 -13 32
-21 15 -13 16 -12 14 10 -2 13 -7 30 -11 38 -7 12 -6 12 8 1 14 -12 16 -11 14
7 0 11 -5 17 -10 14 -5 -3 -13 1 -18 8 -6 9 -7 1 -5 -22z"/>
<path d="M4487 7228 c-7 -5 0 -6 17 -4 16 3 31 7 33 10 8 8 -37 2 -50 -6z"/>
<path d="M4520 7180 c0 -5 5 -10 10 -10 6 0 10 5 10 10 0 6 -4 10 -10 10 -5 0
-10 -4 -10 -10z"/>
<path d="M4415 7160 c-3 -6 1 -7 9 -4 18 7 21 14 7 14 -6 0 -13 -4 -16 -10z"/>
<path d="M4386 7145 c-3 -8 3 -19 14 -25 27 -14 40 -12 40 6 0 8 5 12 10 9 6
-3 10 -1 10 4 0 16 -15 13 -30 -3 -14 -18 -41 -10 -33 10 3 8 3 14 0 14 -3 0
-7 -7 -11 -15z"/>
<path d="M4564 7151 c4 -5 0 -12 -6 -14 -16 -7 10 -27 32 -26 10 1 9 3 -3 6
-12 3 -16 10 -12 24 4 11 2 19 -5 19 -6 0 -9 -4 -6 -9z"/>
<path d="M3500 7130 c0 -5 5 -10 11 -10 5 0 7 5 4 10 -3 6 -8 10 -11 10 -2 0
-4 -4 -4 -10z"/>
<path d="M4335 7120 c-3 -5 -1 -10 4 -10 6 0 11 5 11 10 0 6 -2 10 -4 10 -3 0
-8 -4 -11 -10z"/>
<path d="M4273 7095 c0 -8 4 -12 9 -9 5 3 6 10 3 15 -9 13 -12 11 -12 -6z"/>
<path d="M4367 7103 c-3 -5 6 -8 19 -8 13 0 24 3 24 8 0 4 -9 7 -19 7 -11 0
-22 -3 -24 -7z"/>
<path d="M4466 7093 c-6 -14 -5 -15 5 -6 7 7 10 15 7 18 -3 3 -9 -2 -12 -12z"/>
<path d="M4435 7071 c6 -11 4 -13 -9 -8 -9 4 -14 3 -11 -2 3 -5 1 -12 -5 -16
-5 -3 -10 -2 -10 4 0 6 -7 8 -15 5 -26 -10 -16 -22 17 -20 17 1 34 8 36 15 4
11 6 11 13 0 4 -7 10 -11 14 -8 3 3 -5 14 -17 25 -12 10 -18 13 -13 5z"/>
<path d="M4330 7046 c0 -2 7 -6 15 -10 8 -3 15 -1 15 4 0 6 -7 10 -15 10 -8 0
-15 -2 -15 -4z"/>
<path d="M4275 7031 c-3 -5 -2 -12 3 -15 5 -3 9 1 9 9 0 17 -3 19 -12 6z"/>
<path d="M4093 7015 c0 -8 4 -12 9 -9 5 3 6 10 3 15 -9 13 -12 11 -12 -6z"/>
<path d="M3416 7005 c-9 -26 -7 -32 5 -12 6 10 9 21 6 23 -2 3 -7 -2 -11 -11z"/>
<path d="M4300 7016 c0 -2 9 -6 20 -9 11 -3 18 -1 14 4 -5 9 -34 13 -34 5z"/>
<path d="M4353 7013 c4 -6 -2 -18 -13 -28 -11 -10 -20 -22 -20 -27 0 -9 14 3
38 34 10 12 10 18 1 24 -7 4 -9 3 -6 -3z"/>
<path d="M4405 6995 c2 -28 15 -48 15 -22 0 10 6 17 14 17 30 0 27 -31 -4 -43
-13 -4 -12 -6 1 -6 37 -2 55 49 19 55 -14 3 -26 9 -28 14 -7 20 -18 9 -17 -15z"/>
<path d="M3977 6986 c-3 -8 1 -20 9 -26 10 -9 14 -9 14 -1 0 6 -4 11 -10 11
-5 0 -7 7 -4 15 4 8 4 15 1 15 -3 0 -7 -6 -10 -14z"/>
<path d="M4125 6980 c3 -5 8 -10 11 -10 2 0 4 5 4 10 0 6 -5 10 -11 10 -5 0
-7 -4 -4 -10z"/>
<path d="M4120 6940 c0 -6 7 -10 15 -10 8 0 15 2 15 4 0 2 -7 6 -15 10 -8 3
-15 1 -15 -4z"/>
<path d="M4357 6930 c-3 -11 -3 -20 -1 -20 2 0 8 9 14 20 6 11 7 20 2 20 -6 0
-12 -9 -15 -20z"/>
<path d="M4477 6943 c-3 -5 -2 -15 2 -22 5 -7 11 -9 14 -4 3 5 2 15 -2 22 -5
7 -11 9 -14 4z"/>
<path d="M4604 6939 c-3 -6 -2 -15 3 -20 5 -5 9 -1 10 11 2 22 -2 25 -13 9z"/>
<path d="M4120 6910 c0 -5 5 -10 10 -10 6 0 10 5 10 10 0 6 -4 10 -10 10 -5 0
-10 -4 -10 -10z"/>
<path d="M4455 6910 c3 -5 8 -10 11 -10 2 0 4 5 4 10 0 6 -5 10 -11 10 -5 0
-7 -4 -4 -10z"/>
<path d="M4070 6881 c0 -6 7 -7 17 -4 12 5 14 3 8 -8 -4 -8 -5 -11 0 -7 4 4
15 2 23 -4 12 -10 14 -9 11 6 -4 20 -59 35 -59 17z"/>
<path d="M4565 6878 c8 -21 14 -22 35 -7 13 9 13 10 -1 6 -9 -3 -22 0 -28 6
-9 9 -11 8 -6 -5z"/>
<path d="M4510 6876 c0 -2 9 -6 20 -9 11 -3 20 -1 20 4 0 5 -9 9 -20 9 -11 0
-20 -2 -20 -4z"/>
<path d="M4140 6861 c0 -6 4 -13 10 -16 6 -3 7 1 4 9 -7 18 -14 21 -14 7z"/>
<path d="M4165 6860 c3 -5 8 -10 11 -10 2 0 4 5 4 10 0 6 -5 10 -11 10 -5 0
-7 -4 -4 -10z"/>
<path d="M3340 6849 c0 -5 5 -7 10 -4 6 3 10 8 10 11 0 2 -4 4 -10 4 -5 0 -10
-5 -10 -11z"/>
<path d="M4275 6841 c-3 -5 -1 -12 5 -16 5 -3 10 1 10 9 0 18 -6 21 -15 7z"/>
<path d="M4328 6823 c7 -3 16 -2 19 1 4 3 -2 6 -13 5 -11 0 -14 -3 -6 -6z"/>
<path d="M3760 6786 c0 -8 4 -17 9 -20 5 -4 7 3 4 14 -6 23 -13 26 -13 6z"/>
<path d="M3340 6780 c0 -5 5 -10 11 -10 5 0 7 5 4 10 -3 6 -8 10 -11 10 -2 0
-4 -4 -4 -10z"/>
<path d="M4597 6714 c-3 -3 -20 -8 -39 -11 -48 -7 -67 -20 -25 -18 19 1 39 5
46 9 6 4 11 4 12 -1 0 -4 2 -16 4 -26 2 -13 -1 -17 -11 -13 -9 3 -14 -1 -14
-14 0 -11 7 -20 15 -20 8 0 15 5 15 11 0 6 7 8 16 5 12 -5 15 -2 10 10 -4 9
-1 24 6 33 12 15 11 15 -6 1 -18 -14 -19 -13 -14 7 6 22 -3 38 -15 27z"/>
<path d="M4108 6693 c7 -3 16 -2 19 1 4 3 -2 6 -13 5 -11 0 -14 -3 -6 -6z"/>
<path d="M4176 6681 c-3 -5 1 -12 10 -15 8 -3 13 -2 9 3 -3 5 1 12 7 14 8 4 7
6 -4 6 -9 1 -19 -3 -22 -8z"/>
<path d="M4480 6675 c0 -8 5 -15 10 -15 6 0 10 -8 10 -17 0 -13 3 -14 12 -5 9
9 7 16 -10 32 -18 17 -22 18 -22 5z"/>
<path d="M4400 6664 c0 -10 6 -14 15 -10 8 3 15 2 15 -2 0 -4 9 -8 20 -9 11
-1 20 4 20 12 0 8 -7 11 -19 8 -10 -3 -22 0 -25 6 -11 16 -26 13 -26 -5z"/>
<path d="M4215 6651 c-3 -5 -2 -12 3 -15 5 -3 9 1 9 9 0 17 -3 19 -12 6z"/>
<path d="M4458 6628 c-30 -11 -38 -28 -12 -28 8 0 12 5 9 10 -3 6 1 10 9 10 8
0 18 5 21 10 3 6 5 10 3 9 -2 0 -15 -5 -30 -11z"/>
<path d="M4057 6615 c-8 -8 -18 -11 -22 -7 -5 4 -5 2 -2 -4 4 -6 -5 -22 -20
-35 l-25 -24 6 25 c5 17 4 21 -2 11 -8 -11 -10 -11 -15 0 -4 10 -6 9 -6 -3 -1
-9 4 -20 9 -23 6 -4 8 -11 5 -16 -3 -5 1 -6 9 -3 9 3 16 10 16 15 0 5 5 8 12
7 7 -2 12 2 13 7 1 20 17 36 31 31 9 -3 11 0 7 11 -5 12 -3 14 7 8 9 -5 11 -4
6 3 -9 15 -12 15 -29 -3z"/>
<path d="M3850 6577 c-20 -42 -24 -97 -12 -129 7 -17 8 -16 19 2 11 16 10 18
-2 14 -23 -9 -19 56 6 85 18 22 23 24 51 13 30 -11 30 -11 12 7 -11 10 -22 17
-26 14 -4 -2 -5 2 -2 10 3 8 -2 17 -11 21 -12 4 -21 -5 -35 -37z"/>
<path d="M4618 6603 c7 -3 16 -2 19 1 4 3 -2 6 -13 5 -11 0 -14 -3 -6 -6z"/>
<path d="M4375 6591 c-3 -5 -1 -12 5 -16 5 -3 10 1 10 9 0 18 -6 21 -15 7z"/>
<path d="M3680 6580 c0 -5 5 -10 11 -10 5 0 7 5 4 10 -3 6 -8 10 -11 10 -2 0
-4 -4 -4 -10z"/>
<path d="M4280 6586 c0 -2 7 -6 15 -10 8 -3 15 -1 15 4 0 6 -7 10 -15 10 -8 0
-15 -2 -15 -4z"/>
<path d="M4630 6579 c0 -5 5 -7 10 -4 6 3 10 8 10 11 0 2 -4 4 -10 4 -5 0 -10
-5 -10 -11z"/>
<path d="M4330 6560 c13 -9 13 -11 0 -20 -12 -7 -10 -9 8 -7 12 0 22 5 22 9 0
4 8 8 18 8 11 0 13 -3 5 -8 -6 -4 -13 -16 -15 -27 -1 -11 -9 -23 -17 -26 -10
-4 -11 -8 -4 -12 6 -4 18 0 26 8 11 10 17 11 19 3 6 -16 56 -16 63 0 2 7 0 10
-5 7 -6 -3 -10 -1 -10 4 0 6 8 11 17 11 18 0 10 13 -10 16 -7 1 -18 3 -26 5
-7 2 -16 -2 -18 -9 -3 -8 2 -10 14 -6 14 5 15 4 3 -4 -19 -14 -32 -5 -25 18 4
13 -1 22 -15 30 -15 8 -20 8 -20 -2 0 -9 -3 -9 -12 0 -7 7 -17 12 -22 12 -6 0
-4 -5 4 -10z"/>
<path d="M4084 6549 c-3 -5 4 -9 16 -9 18 0 20 -4 14 -22 l-6 -23 26 24 c28
26 36 42 11 21 -8 -7 -15 -8 -15 -2 0 13 -38 23 -46 11z"/>
<path d="M4206 6538 c9 -16 14 -35 10 -43 -3 -9 -2 -13 4 -10 16 10 12 31 -11
56 l-20 24 17 -27z"/>
<path d="M4270 6549 c0 -5 -9 -9 -20 -9 -11 0 -20 -5 -20 -10 0 -14 31 -9 49
8 12 11 15 11 23 0 8 -10 9 -10 6 1 -4 16 -38 25 -38 10z"/>
<path d="M4051 6538 c-1 -20 -21 -25 -21 -6 0 6 -3 9 -6 5 -3 -3 -2 -13 3 -22
9 -15 11 -15 22 -1 7 8 11 21 8 28 -4 8 -6 7 -6 -4z"/>
<path d="M4181 6524 c0 -11 3 -14 6 -6 3 7 2 16 -1 19 -3 4 -6 -2 -5 -13z"/>
<path d="M4155 6520 c-3 -5 -1 -10 4 -10 6 0 11 5 11 10 0 6 -2 10 -4 10 -3 0
-8 -4 -11 -10z"/>
<path d="M3965 6511 c3 -5 1 -12 -5 -16 -5 -3 -10 -11 -10 -18 0 -6 7 -2 15 9
17 23 19 34 4 34 -5 0 -8 -4 -4 -9z"/>
<path d="M3986 6503 c-4 -9 -2 -21 4 -27 7 -7 10 -2 10 17 0 31 -5 34 -14 10z"/>
<path d="M4249 6518 c-9 -37 -8 -50 6 -44 18 7 20 -5 3 -24 -11 -12 -10 -12 2
-4 24 16 45 11 43 -12 -2 -15 4 -20 25 -22 23 -1 24 0 9 9 -9 6 -15 14 -12 20
4 5 2 9 -3 9 -6 0 -9 11 -8 24 0 13 4 22 9 19 4 -2 7 0 7 5 0 5 -8 12 -18 14
-15 4 -18 1 -14 -17 2 -13 -2 -26 -8 -30 -9 -5 -10 -1 -6 13 5 15 1 24 -14 32
-11 6 -20 9 -21 8z"/>
<path d="M4340 6509 c0 -5 5 -7 10 -4 6 3 10 8 10 11 0 2 -4 4 -10 4 -5 0 -10
-5 -10 -11z"/>
<path d="M3677 6490 c-3 -11 -1 -23 4 -26 5 -3 9 6 9 20 0 31 -6 34 -13 6z"/>
<path d="M4117 6470 c3 -11 7 -20 9 -20 2 0 4 9 4 20 0 11 -4 20 -9 20 -5 0
-7 -9 -4 -20z"/>
<path d="M4160 6482 c0 -7 -4 -11 -8 -8 -5 3 -9 -1 -9 -9 0 -8 4 -12 8 -10 13
9 17 -34 3 -46 -8 -6 -11 -15 -9 -20 9 -13 35 1 35 20 1 14 2 14 11 -2 6 -9
15 -15 20 -12 5 4 6 11 3 17 -5 7 2 9 22 4 25 -5 27 -4 13 6 -9 7 -14 20 -11
28 3 9 -2 7 -13 -5 -9 -11 -13 -13 -9 -5 7 13 5 13 -9 1 -12 -9 -17 -10 -17
-2 0 7 -5 9 -12 5 -7 -5 -9 -2 -6 8 4 8 2 21 -3 29 -7 11 -9 11 -9 1z"/>
<path d="M4010 6472 c0 -12 29 -24 41 -16 5 3 9 11 9 17 0 8 -4 7 -9 -2 -8
-12 -12 -12 -25 -2 -9 8 -16 9 -16 3z"/>
<path d="M3881 6452 c0 -11 2 -12 6 -4 2 6 9 10 13 7 5 -3 11 -2 14 3 2 4 -4
9 -15 9 -12 1 -19 -4 -18 -15z"/>
<path d="M4048 6433 c7 -3 16 -2 19 1 4 3 -2 6 -13 5 -11 0 -14 -3 -6 -6z"/>
<path d="M4072 6415 c4 -4 0 -13 -9 -20 -9 -7 -12 -15 -7 -18 6 -3 15 3 22 13
9 15 9 21 -1 26 -6 4 -9 4 -5 -1z"/>
<path d="M4105 6410 c-3 -6 1 -7 9 -4 18 7 21 14 7 14 -6 0 -13 -4 -16 -10z"/>
<path d="M3936 6363 c-5 -11 -1 -22 11 -30 14 -11 20 -11 32 2 13 13 13 16 -4
30 -26 19 -31 19 -39 -2z m34 -20 c0 -13 -3 -13 -15 -3 -8 7 -12 16 -9 21 8
13 24 1 24 -18z"/>
<path d="M4115 6360 c-3 -5 1 -10 10 -10 9 0 13 5 10 10 -3 6 -8 10 -10 10 -2
0 -7 -4 -10 -10z"/>
<path d="M4035 6340 c-3 -6 1 -7 9 -4 18 7 21 14 7 14 -6 0 -13 -4 -16 -10z"/>
<path d="M4005 6320 c3 -5 8 -10 11 -10 2 0 4 5 4 10 0 6 -5 10 -11 10 -5 0
-7 -4 -4 -10z"/>
<path d="M3575 6310 c-16 -7 -17 -9 -3 -9 9 -1 19 -9 21 -18 3 -11 5 -7 6 10
0 15 0 27 -1 26 -2 0 -12 -4 -23 -9z"/>
<path d="M4066 6313 c5 -5 12 -12 16 -18 4 -6 8 -2 8 8 0 9 -7 17 -17 17 -9 0
-12 -3 -7 -7z"/>
<path d="M4035 6300 c3 -5 8 -10 11 -10 2 0 4 5 4 10 0 6 -5 10 -11 10 -5 0
-7 -4 -4 -10z"/>
<path d="M3945 6287 c-10 -12 -17 -53 -7 -43 3 3 11 1 18 -5 9 -8 15 -5 23 10
7 13 8 22 1 26 -6 3 -10 -4 -11 -17 0 -22 -1 -22 -8 -3 -5 11 -6 26 -4 33 6
15 1 15 -12 -1z"/>
<path d="M4015 6270 c-3 -11 -11 -20 -18 -20 -6 0 -2 -6 9 -14 17 -13 21 -12
37 4 19 21 24 41 5 22 -18 -18 -30 -14 -23 8 3 11 4 20 1 20 -2 0 -8 -9 -11
-20z"/>
<path d="M4140 6279 c0 -5 5 -7 10 -4 6 3 10 8 10 11 0 2 -4 4 -10 4 -5 0 -10
-5 -10 -11z"/>
<path d="M4238 6273 c7 -3 16 -2 19 1 4 3 -2 6 -13 5 -11 0 -14 -3 -6 -6z"/>
<path d="M4080 6249 c0 -5 5 -7 10 -4 6 3 10 8 10 11 0 2 -4 4 -10 4 -5 0 -10
-5 -10 -11z"/>
<path d="M4135 6250 c-3 -5 -1 -10 4 -10 6 0 11 5 11 10 0 6 -2 10 -4 10 -3 0
-8 -4 -11 -10z"/>
<path d="M3840 6220 c0 -5 5 -10 10 -10 6 0 10 5 10 10 0 6 -4 10 -10 10 -5 0
-10 -4 -10 -10z"/>
<path d="M4050 6217 c0 -2 6 -10 14 -16 11 -9 16 -9 22 1 4 7 4 10 -1 6 -4 -4
-14 -3 -22 3 -7 6 -13 9 -13 6z"/>
<path d="M3857 6186 c-4 -10 -13 -13 -24 -10 -15 5 -15 4 -3 -4 8 -6 18 -8 22
-6 4 3 8 1 8 -5 0 -5 -6 -12 -12 -14 -10 -4 -10 -6 -1 -6 17 -1 33 32 24 48
-6 10 -10 9 -14 -3z"/>
<path d="M3913 6183 c-3 -10 -8 -22 -11 -27 -3 -5 0 -6 5 -3 11 7 25 47 17 47
-3 0 -7 -8 -11 -17z"/>
<path d="M4030 6140 c-8 -5 -10 -10 -5 -10 6 0 17 5 25 10 8 5 11 10 5 10 -5
0 -17 -5 -25 -10z"/>
<path d="M4084 6138 c-4 -7 -3 -8 4 -4 8 5 10 -2 6 -22 -7 -33 5 -46 26 -30
12 8 12 9 -2 4 -13 -4 -18 0 -18 15 0 16 3 18 19 9 25 -13 41 -13 21 0 -13 9
-13 10 0 10 11 1 10 4 -4 15 -24 18 -42 19 -52 3z m41 -8 c3 -5 1 -10 -4 -10
-6 0 -11 5 -11 10 0 6 2 10 4 10 3 0 8 -4 11 -10z"/>
<path d="M4033 6105 c0 -8 4 -12 9 -9 4 3 8 9 8 15 0 5 -4 9 -8 9 -5 0 -9 -7
-9 -15z"/>
<path d="M4063 6099 c-2 -23 3 -25 10 -4 4 8 3 16 -1 19 -4 3 -9 -4 -9 -15z"/>
<path d="M3843 6095 c0 -8 4 -12 9 -9 5 3 6 10 3 15 -9 13 -12 11 -12 -6z"/>
<path d="M4089 6057 c11 -14 11 -20 0 -34 -8 -9 -9 -14 -3 -10 15 9 26 -17 12
-31 -13 -13 4 -23 22 -12 12 7 12 12 2 22 -6 6 -12 18 -12 26 0 12 3 12 15 2
13 -11 14 -10 9 5 -5 12 -4 16 3 12 7 -5 9 0 6 13 -3 11 -10 20 -15 20 -6 0
-7 -7 -4 -16 6 -15 3 -14 -21 1 -24 16 -26 16 -14 2z"/>
<path d="M3736 6051 c-4 -5 0 -12 6 -14 10 -4 10 -6 1 -6 -7 -1 -13 -5 -13
-11 0 -18 17 -10 34 15 16 24 15 25 -3 25 -11 0 -22 -4 -25 -9z"/>
<path d="M3770 6037 c0 -2 6 -10 14 -16 11 -9 16 -9 22 1 4 7 4 10 -1 6 -4 -4
-14 -3 -22 3 -7 6 -13 9 -13 6z"/>
<path d="M3876 6018 c3 -4 14 -6 24 -5 31 5 32 13 1 12 -16 0 -27 -3 -25 -7z"/>
<path d="M3740 5973 c0 -43 16 -60 18 -19 1 19 -3 38 -8 41 -6 4 -10 -6 -10
-22z"/>
<path d="M4046 5987 c3 -10 9 -15 12 -12 3 3 0 11 -7 18 -10 9 -11 8 -5 -6z"/>
<path d="M4238 5940 c35 -35 52 -38 52 -10 0 13 -9 22 -27 26 -16 3 -34 8 -41
10 -8 2 0 -10 16 -26z"/>
<path d="M3870 5930 c-6 -11 -8 -20 -6 -20 3 0 10 9 16 20 6 11 8 20 6 20 -3
0 -10 -9 -16 -20z"/>
<path d="M4065 5939 c-9 -14 -2 -20 14 -10 8 6 9 11 3 15 -6 3 -14 1 -17 -5z"/>
<path d="M4125 5930 c3 -5 8 -10 11 -10 2 0 4 5 4 10 0 6 -5 10 -11 10 -5 0
-7 -4 -4 -10z"/>
<path d="M4190 5930 c-11 -8 -8 -9 13 -6 24 4 28 2 22 -12 -5 -13 -3 -14 6 -5
24 24 -11 43 -41 23z"/>
<path d="M3801 5900 c-13 -11 -19 -20 -14 -20 6 0 18 9 28 20 23 25 17 25 -14
0z"/>
<path d="M4075 5910 c-4 -6 -11 -8 -16 -5 -5 4 -9 2 -9 -4 0 -5 9 -9 19 -8 11
0 18 4 15 8 -2 4 4 10 13 12 16 4 16 5 1 6 -9 0 -20 -4 -23 -9z"/>
<path d="M4000 5893 c0 -7 4 -13 9 -13 5 0 11 6 14 13 3 8 -1 14 -9 14 -8 0
-14 -6 -14 -14z"/>
<path d="M4141 5891 c-27 -27 -62 -36 -72 -20 -5 9 -7 4 -6 -15 1 -16 9 -32
17 -34 8 -3 12 -1 8 3 -8 9 16 35 32 35 6 0 8 -6 5 -12 -4 -7 5 0 19 15 38 41
35 66 -3 28z m0 -24 c-10 -9 -11 -8 -5 6 3 10 9 15 12 12 3 -3 0 -11 -7 -18z"/>
<path d="M4001 5846 c-23 -25 -12 -56 20 -56 11 0 18 -4 15 -9 -3 -5 -16 -7
-29 -4 -19 4 -20 3 -4 -7 9 -6 17 -18 17 -25 0 -14 12 -20 33 -16 5 1 6 -3 3
-8 -3 -5 -16 -7 -28 -3 -15 3 -19 2 -14 -7 6 -9 0 -10 -21 -6 -19 5 -24 4 -15
-3 10 -6 5 -9 -16 -8 -35 1 -32 7 11 22 18 6 33 18 35 28 2 9 0 16 -5 15 -26
-4 -33 3 -29 27 l5 27 -21 -23 c-17 -18 -19 -26 -10 -40 8 -14 8 -19 -2 -23
-16 -6 -26 1 -26 17 0 6 5 4 11 -4 7 -10 9 -11 7 -2 -2 8 -7 13 -11 13 -4 -1
-18 -1 -32 -1 -15 0 -25 -6 -25 -14 0 -20 17 -29 26 -15 5 8 3 9 -6 4 -9 -6
-11 -4 -5 5 6 10 11 9 22 -5 7 -11 13 -27 13 -37 0 -10 3 -18 8 -19 4 0 17 -2
29 -3 12 -1 20 1 17 6 -7 11 3 10 26 -2 15 -8 23 -3 45 26 15 19 30 33 33 30
8 -9 33 15 26 25 -3 5 -11 9 -17 9 -7 0 -6 -4 3 -10 11 -7 7 -10 -17 -10 -17
0 -35 4 -38 10 -7 12 38 24 65 17 37 -10 51 43 14 57 -9 3 -14 -1 -14 -14 0
-13 5 -18 15 -14 8 4 15 1 15 -5 0 -14 -47 -14 -56 0 -4 8 -9 7 -15 -2 -7 -11
-9 -10 -9 3 0 12 -6 16 -22 13 -26 -5 -41 14 -26 32 8 10 14 10 24 2 8 -6 14
-10 15 -8 6 30 5 36 -7 36 -7 0 -22 -10 -33 -21z m-6 -106 c3 -5 -1 -10 -10
-10 -9 0 -13 5 -10 10 3 6 8 10 10 10 2 0 7 -4 10 -10z"/>
<path d="M3873 5840 c-1 -11 2 -22 8 -25 5 -3 6 1 3 10 -5 11 -2 14 10 9 11
-4 16 -1 15 12 0 12 -3 14 -6 6 -3 -9 -9 -10 -17 -3 -8 7 -12 4 -13 -9z"/>
<path d="M3943 5828 c0 -18 2 -25 4 -15 3 10 9 14 16 10 7 -4 5 2 -3 13 -8 10
-15 20 -16 22 0 1 -1 -12 -1 -30z"/>
<path d="M3915 5820 c-3 -5 -1 -10 4 -10 6 0 11 5 11 10 0 6 -2 10 -4 10 -3 0
-8 -4 -11 -10z"/>
<path d="M4187 5819 c7 -7 15 -10 18 -7 3 3 -2 9 -12 12 -14 6 -15 5 -6 -5z"/>
<path d="M3686 5778 c-11 -17 -14 -28 -9 -25 6 4 13 -2 16 -13 6 -25 33 -17
40 11 4 13 1 19 -6 16 -7 -3 -11 -11 -9 -18 1 -8 -4 -6 -13 5 -11 15 -12 23
-3 33 6 7 9 15 6 18 -2 2 -12 -10 -22 -27z"/>
<path d="M3840 5771 c0 -5 5 -13 10 -16 6 -3 10 -2 10 4 0 5 -4 13 -10 16 -5
3 -10 2 -10 -4z"/>
<path d="M3625 5679 c-4 -6 -5 -12 -2 -15 2 -3 7 2 10 11 7 17 1 20 -8 4z"/>
<path d="M3723 5643 c-7 -3 -13 -12 -13 -21 0 -15 2 -15 17 1 18 18 16 27 -4
20z"/>
<path d="M4437 6296 c-3 -8 1 -17 10 -20 22 -9 24 -4 8 17 -10 14 -14 15 -18
3z"/>
<path d="M4364 6258 c3 -39 3 -41 -11 -23 -9 12 -13 14 -11 5 3 -8 -2 -20 -11
-27 -10 -8 -11 -12 -4 -13 7 0 10 -6 7 -14 -3 -8 -1 -17 5 -20 11 -7 3 -37
-13 -48 -6 -4 -15 -3 -21 2 -16 13 -52 8 -52 -7 0 -7 7 -13 14 -13 8 0 11 5 7
11 -4 7 -1 10 7 7 8 -3 13 -11 12 -17 -4 -14 24 -15 32 -1 4 6 11 8 16 4 5 -3
9 -2 8 3 -4 23 3 25 17 5 8 -12 20 -20 25 -17 8 6 11 -2 8 -22 -2 -14 32 -24
45 -14 7 6 16 8 19 4 4 -3 -2 -13 -13 -20 -18 -12 -23 -13 -37 -1 -9 7 -18 12
-20 11 -1 -2 -4 -3 -5 -2 -2 0 -14 3 -28 5 -13 3 -29 9 -34 14 -6 6 -17 10
-25 9 -11 0 -10 -3 4 -9 20 -8 20 -9 -1 -9 -12 -1 -21 -8 -21 -16 0 -11 4 -12
11 -5 13 13 29 13 21 0 -3 -5 -2 -10 4 -10 5 0 11 4 13 10 4 12 58 -1 57 -14
0 -5 6 -13 15 -18 9 -5 14 -14 10 -20 -4 -6 1 -8 15 -3 16 5 21 2 21 -12 1
-17 2 -17 15 1 18 23 14 29 -21 30 -15 1 -30 8 -32 16 -5 13 -3 13 11 1 11 -9
17 -10 17 -2 0 6 7 11 15 11 8 0 19 9 25 20 6 11 7 19 3 18 -9 -3 -13 5 -13
25 0 7 3 8 8 2 12 -17 59 -38 74 -32 7 3 3 6 -9 6 -13 1 -23 5 -23 11 0 5 6 7
13 5 17 -7 38 40 24 54 -16 16 -31 13 -17 -4 10 -12 8 -13 -10 -10 -15 3 -20
0 -17 -10 8 -20 -16 -25 -33 -6 -8 8 -14 17 -12 18 1 2 0 3 -3 3 -13 -1 -53
53 -49 64 3 7 -2 13 -9 13 -16 0 -17 -18 -1 -38 6 -8 9 -24 8 -36 -1 -19 3
-22 21 -17 40 10 41 -15 1 -46 -18 -14 -18 -13 -12 8 7 21 1 25 -31 21 -3 0
-11 7 -16 16 -7 13 -5 20 7 27 9 5 14 14 10 19 -4 6 -10 6 -19 -1 -9 -7 -15
-8 -19 -1 -4 6 3 15 14 21 18 10 19 14 8 28 -8 10 -9 13 -1 9 6 -4 15 -3 18 3
4 6 3 10 -2 9 -19 -3 -23 2 -13 21 8 15 8 20 -2 20 -10 0 -10 2 0 9 11 7 11 9
-2 14 -13 5 -15 -1 -12 -35z m-1 -71 c-3 -5 -9 -3 -14 4 -4 7 -5 17 -2 22 3 5
9 3 14 -4 4 -7 5 -17 2 -22z m77 -47 c0 -5 -2 -10 -4 -10 -3 0 -8 5 -11 10 -3
6 -1 10 4 10 6 0 11 -4 11 -10z"/>
<path d="M4405 6277 c-4 -14 -2 -34 4 -44 6 -10 11 -13 11 -7 0 18 37 23 57 9
15 -11 16 -15 3 -31 -13 -15 -13 -17 0 -12 8 2 17 13 19 24 2 10 8 22 14 26
17 11 4 18 -38 22 -22 1 -43 10 -51 21 -12 16 -13 16 -19 -8z m35 -17 c8 -5
11 -10 5 -10 -5 0 -17 5 -25 10 -8 5 -10 10 -5 10 6 0 17 -5 25 -10z"/>
<path d="M4446 6215 c4 -8 -1 -17 -10 -21 -9 -3 -13 -10 -10 -16 7 -10 33 20
34 40 0 6 -4 12 -10 12 -5 0 -7 -7 -4 -15z"/>
<path d="M4262 6191 c2 -24 5 -28 16 -18 10 7 10 13 3 15 -6 2 -9 8 -6 12 3 5
1 12 -5 15 -7 4 -10 -5 -8 -24z"/>
<path d="M4603 6213 c-18 -6 -16 -23 1 -23 17 0 30 16 19 23 -5 2 -14 2 -20 0z"/>
<path d="M4485 6182 c-13 -9 -17 -32 -6 -32 5 0 11 -8 13 -17 3 -11 6 -4 9 15
6 34 0 46 -16 34z"/>
<path d="M4226 6162 c-3 -6 -1 -14 5 -17 14 -9 20 -2 10 14 -6 8 -11 9 -15 3z"/>
<path d="M4615 6120 c3 -5 8 -10 11 -10 2 0 4 5 4 10 0 6 -5 10 -11 10 -5 0
-7 -4 -4 -10z"/>
<path d="M4435 6100 c3 -5 8 -10 11 -10 2 0 4 5 4 10 0 6 -5 10 -11 10 -5 0
-7 -4 -4 -10z"/>
<path d="M4356 6075 c4 -8 10 -12 15 -9 11 6 2 24 -11 24 -5 0 -7 -7 -4 -15z"/>
<path d="M4393 5980 c3 -14 0 -20 -10 -20 -12 0 -13 -3 -4 -13 6 -8 9 -16 6
-19 -3 -2 2 -5 10 -5 9 0 14 6 11 13 -3 8 2 17 11 22 14 8 13 10 -2 15 -9 4
-13 11 -10 17 3 5 1 10 -6 10 -6 0 -9 -8 -6 -20z"/>
<path d="M4501 5901 c-9 -6 -10 -11 -2 -15 13 -8 31 1 31 15 0 11 -11 11 -29
0z"/>
<path d="M4665 5810 c-3 -5 -1 -10 4 -10 6 0 11 5 11 10 0 6 -2 10 -4 10 -3 0
-8 -4 -11 -10z"/>
<path d="M4410 5795 c0 -8 2 -15 4 -15 2 0 6 7 10 15 3 8 1 15 -4 15 -6 0 -10
-7 -10 -15z"/>
<path d="M4602 5943 c4 -20 22 -21 26 -2 2 9 -4 16 -13 16 -9 0 -15 -7 -13
-14z"/>
<path d="M3548 5583 c-10 -2 -18 -8 -18 -13 0 -12 33 -5 38 8 2 7 2 11 0 11
-1 -1 -11 -3 -20 -6z"/>
<path d="M6049 7217 c-44 -24 -50 -24 -85 -12 -100 36 -199 -1 -234 -86 -10
-24 -18 -29 -47 -29 -108 0 -189 -118 -148 -216 9 -21 25 -49 37 -61 l20 -21
-36 -48 c-41 -53 -70 -139 -86 -259 -11 -76 -16 -86 -92 -202 -90 -136 -100
-172 -58 -204 14 -11 45 -23 70 -27 l45 -8 -3 -104 c-10 -288 74 -397 313
-406 l90 -3 12 -68 c19 -111 18 -122 -19 -135 -114 -40 -253 -138 -334 -236
-47 -57 -152 -239 -142 -246 1 -2 109 -8 239 -15 129 -6 336 -23 460 -36 205
-24 673 -89 709 -100 12 -4 21 13 38 70 12 42 46 132 76 200 l53 125 -35 52
c-48 71 -131 149 -222 209 -95 62 -129 96 -135 134 -2 17 -7 98 -10 180 l-7
150 50 17 c61 22 118 81 134 141 9 33 21 48 57 72 68 45 103 120 106 228 2 62
8 94 25 132 18 38 24 68 24 126 1 72 -1 79 -31 117 -28 35 -32 44 -23 67 14
37 12 90 -4 129 -32 77 -122 145 -191 146 -26 0 -33 5 -44 36 -19 52 -69 104
-126 130 -56 27 -86 29 -151 13 -40 -10 -47 -10 -67 9 -34 31 -84 53 -135 58
-38 5 -56 1 -93 -19z m418 -768 c15 -5 45 -27 65 -46 122 -118 72 -376 -88
-453 -42 -21 -46 -21 -70 -5 -37 24 -28 54 26 85 117 67 141 278 37 328 -36
17 -89 1 -111 -34 -26 -39 -86 -27 -86 18 0 24 58 88 95 104 37 16 94 18 132
3z"/>
<path d="M4847 4200 c-4 -167 -7 -395 -7 -507 l0 -203 103 0 104 0 6 98 c4 53
7 139 7 190 l0 92 40 0 40 0 97 -192 98 -193 118 -3 c64 -1 117 0 117 4 0 4
-48 99 -107 212 -68 132 -102 207 -94 210 39 13 99 74 128 131 30 56 33 72 33
146 0 74 -3 90 -32 146 -24 45 -46 71 -81 95 -77 53 -127 63 -357 70 l-207 7
-6 -303z m400 95 c43 -18 66 -57 65 -111 -1 -97 -60 -144 -179 -144 l-73 0 0
133 c0 74 3 136 6 140 10 10 146 -4 181 -18z"/>
<path d="M5656 4447 c-22 -134 -23 -157 -7 -161 9 -2 62 -10 119 -17 l103 -12
-5 -36 c-7 -40 -83 -676 -88 -731 l-3 -35 80 -12 c137 -20 131 -22 138 45 16
143 88 736 90 738 1 1 53 -4 115 -13 62 -8 115 -13 118 -11 7 8 27 178 21 184
-3 3 -142 23 -309 44 -167 22 -317 41 -335 44 -30 4 -33 2 -37 -27z"/>
<path d="M4194 4440 c-146 -31 -267 -155 -309 -317 -19 -73 -19 -227 0 -318
53 -250 255 -404 481 -367 251 42 395 268 356 560 -29 217 -128 368 -279 426
-55 20 -188 29 -249 16z m174 -200 c68 -42 110 -157 119 -325 7 -132 -9 -203
-57 -252 -81 -83 -215 -60 -269 46 -50 98 -73 319 -43 419 14 46 64 109 96
122 40 16 119 11 154 -10z"/>
<path d="M3191 4235 c-90 -25 -165 -46 -166 -48 -3 -3 236 -961 241 -966 7 -8
204 51 204 61 0 5 -18 80 -40 168 -22 88 -40 163 -40 168 0 4 37 19 81 32 142
41 241 127 270 234 6 23 9 71 6 108 -10 121 -65 211 -155 255 -46 22 -72 28
-146 30 -82 3 -108 -2 -255 -42z m279 -150 c52 -27 81 -115 60 -179 -15 -45
-59 -79 -129 -100 -30 -9 -55 -15 -56 -13 -5 6 -65 258 -65 271 0 31 142 46
190 21z"/>
<path d="M6941 4163 c-16 -54 -82 -267 -145 -473 -64 -206 -112 -377 -108
-381 4 -3 49 -20 100 -37 66 -22 94 -27 97 -19 2 7 27 86 56 177 28 91 53 167
55 169 2 2 21 -1 43 -7 l39 -12 17 -98 c9 -53 27 -146 38 -207 l22 -110 108
-33 c60 -19 111 -31 114 -28 5 5 -71 406 -84 441 -2 6 23 18 54 27 77 22 134
73 173 152 60 121 49 239 -29 328 -55 63 -113 89 -316 148 -99 29 -185 55
-192 57 -7 3 -23 -31 -42 -94z m286 -165 c103 -38 136 -102 97 -184 -36 -76
-98 -96 -211 -69 -61 14 -73 20 -68 33 3 9 23 69 43 134 41 133 30 126 139 86z"/>
<path d="M2540 4017 c-213 -77 -270 -100 -270 -107 0 -18 338 -902 349 -913 7
-7 191 59 191 69 0 3 -100 277 -114 314 -5 12 7 20 51 35 225 77 316 264 224
460 -54 115 -130 166 -256 172 -71 4 -90 0 -175 -30z m188 -177 c58 -36 82
-132 49 -197 -15 -28 -88 -74 -135 -85 -11 -3 -112 229 -112 259 0 15 82 41
130 42 19 1 50 -8 68 -19z"/>
<path d="M8176 3768 c-18 -40 -88 -188 -154 -329 -67 -140 -127 -279 -133
-308 -29 -139 41 -265 189 -340 179 -91 318 -78 435 41 46 47 69 89 201 363
81 171 151 316 153 323 3 8 -30 29 -92 58 -53 25 -98 44 -100 42 -2 -2 -64
-129 -138 -283 -168 -353 -171 -359 -203 -384 -87 -68 -235 0 -234 108 1 49 8
65 168 399 l141 293 -95 45 c-52 24 -97 44 -100 44 -2 0 -19 -33 -38 -72z"/>
<path d="M1958 3767 l-86 -42 159 -295 c87 -162 164 -309 170 -328 23 -71 -16
-146 -93 -177 -55 -22 -97 -13 -138 29 -19 19 -103 165 -190 330 -86 163 -159
299 -162 302 -5 4 -174 -69 -186 -81 -5 -4 296 -586 333 -645 38 -61 108 -117
169 -136 49 -15 66 -16 123 -7 84 15 175 61 247 124 98 88 135 206 102 325
-20 67 -333 644 -350 643 -6 0 -50 -19 -98 -42z"/>
<path d="M1159 3296 c-135 -38 -280 -154 -312 -250 -30 -88 -17 -171 37 -246
69 -95 198 -130 360 -96 43 9 105 16 138 16 52 0 63 -3 89 -29 40 -41 40 -88
-1 -135 -42 -48 -109 -69 -205 -64 l-75 3 0 -95 c0 -61 4 -100 12 -108 45 -45
283 34 395 133 208 183 112 491 -160 512 -45 4 -94 -1 -166 -17 -115 -25 -160
-21 -197 15 -26 26 -32 72 -14 106 19 35 134 79 208 79 l34 0 -8 67 c-11 109
-15 118 -55 120 -19 1 -55 -4 -80 -11z"/>
<path d="M9035 3295 c-60 -22 -108 -66 -142 -132 -65 -121 -52 -208 48 -344
80 -108 94 -142 80 -190 -17 -55 -55 -82 -109 -76 -63 7 -110 48 -152 135 -19
39 -39 72 -43 72 -4 0 -44 -16 -87 -36 -91 -42 -94 -48 -56 -130 32 -68 75
-115 151 -163 132 -84 265 -104 363 -55 95 47 162 161 162 274 0 77 -18 120
-85 211 -91 124 -107 187 -60 234 58 59 158 10 215 -105 12 -25 24 -46 25 -48
5 -5 143 67 150 78 12 20 -39 105 -99 166 -81 80 -155 116 -249 120 -47 2 -86
-2 -112 -11z"/>
<path d="M3548 2850 c-299 -54 -510 -294 -534 -604 -13 -161 42 -381 140 -560
244 -448 729 -740 1386 -836 125 -18 410 -38 410 -29 0 2 -60 65 -134 139 -73
74 -145 153 -159 175 -36 55 -47 137 -47 342 0 195 1 193 -79 217 -68 20 -101
39 -143 83 -68 70 -99 173 -118 383 -13 151 -32 232 -75 325 -81 176 -217 296
-394 349 -67 20 -190 28 -253 16z m-16 -592 c59 -62 98 -111 98 -124 0 -11
-18 -45 -40 -74 -22 -29 -40 -61 -40 -71 0 -49 287 -319 338 -319 10 0 41 16
69 35 29 19 62 35 74 35 21 0 217 -122 231 -144 19 -28 7 -61 -37 -102 -85
-82 -180 -85 -329 -11 -223 111 -456 338 -556 541 -37 74 -49 163 -30 220 19
59 72 112 115 115 6 1 54 -45 107 -101z"/>
</g>
</svg>
