<?xml version="1.0" encoding="UTF-8"?><svg width="1440" height="720" xmlns="http://www.w3.org/2000/svg" xmlns:xlink="http://www.w3.org/1999/xlink"><defs><linearGradient x1="70.3%" y1="79.2%" x2="-47%" y2="79.2%" id="a"><stop stop-color="#323A45" offset="0%"/><stop stop-color="#49515C" offset="100%"/></linearGradient><linearGradient x1="70.3%" y1="79.2%" x2="-47%" y2="79.2%" id="b"><stop stop-color="#323A45" offset="0%"/><stop stop-color="#49515C" offset="100%"/></linearGradient><linearGradient x1="55.5%" y1="62.6%" x2="98.4%" y2="41.3%" id="d"><stop stop-opacity="0" offset="0%"/><stop offset="100%"/></linearGradient><linearGradient x1="-33.6%" y1="124%" x2="-33.6%" y2="84.6%" id="e"><stop stop-color="#FFCFB9" offset="0%"/><stop stop-color="#FFF" offset="100%"/></linearGradient><linearGradient x1="108.1%" y1="104.2%" x2="-6%" y2="0%" id="f"><stop stop-color="#F7A969" offset="0%"/><stop stop-color="#ED7038" offset="100%"/></linearGradient><linearGradient x1="145.8%" y1="12.3%" x2="-136.3%" y2="8.9%" id="g"><stop stop-opacity="0" offset="0%"/><stop offset="100%"/></linearGradient><linearGradient x1="32%" y1="-1.3%" x2="31%" y2="130.1%" id="h"><stop stop-color="#723210" offset="0%"/><stop stop-color="#A75A31" offset="100%"/></linearGradient><linearGradient x1="33%" y1="38.8%" x2="26%" y2="59.5%" id="i"><stop stop-color="#723210" offset="0%"/><stop stop-color="#A75A31" offset="100%"/></linearGradient><linearGradient x1="33.9%" y1="-43.8%" x2="27.3%" y2="130.1%" id="j"><stop stop-color="#723210" offset="0%"/><stop stop-color="#A75A31" offset="100%"/></linearGradient><linearGradient x1="39.7%" y1="-43.8%" x2="35.4%" y2="130.1%" id="k"><stop stop-color="#723210" offset="0%"/><stop stop-color="#A75A31" offset="100%"/></linearGradient><linearGradient x1="46.7%" y1="2%" x2="45.9%" y2="130.1%" id="l"><stop stop-color="#723210" offset="0%"/><stop stop-color="#A75A31" offset="100%"/></linearGradient><linearGradient x1="91.4%" y1="104.2%" x2="10.1%" y2="0%" id="m"><stop stop-color="#F7A969" offset="0%"/><stop stop-color="#ED7038" offset="100%"/></linearGradient><linearGradient x1="-42.1%" y1="98.6%" x2="104.2%" y2="23.6%" id="n"><stop stop-color="#FF7F8C" offset="0%"/><stop stop-color="#FFCFB9" offset="50.1%"/><stop stop-color="#FFF" offset="100%"/></linearGradient><linearGradient x1="-42.1%" y1="51.4%" x2="104.2%" y2="49.2%" id="o"><stop stop-color="#FF7F8C" offset="0%"/><stop stop-color="#FFCFB9" offset="50.1%"/><stop stop-color="#FFF" offset="100%"/></linearGradient><linearGradient x1="-33.6%" y1="124%" x2="-33.6%" y2="84.6%" id="p"><stop stop-color="#FFCFB9" offset="0%"/><stop stop-color="#FFF" offset="100%"/></linearGradient><linearGradient x1="76.6%" y1="-132%" x2="76.6%" y2="107.2%" id="q"><stop stop-color="#FF7F8C" offset="0%"/><stop stop-color="#FFCFB9" offset="100%"/></linearGradient><linearGradient x1="37.1%" y1="2%" x2="33.8%" y2="130.1%" id="r"><stop stop-color="#723210" offset="0%"/><stop stop-color="#A75A31" offset="100%"/></linearGradient><linearGradient x1="113.3%" y1="50%" x2="-45.2%" y2="50%" id="s"><stop stop-color="#F7A969" offset="0%"/><stop stop-color="#ED7038" offset="100%"/></linearGradient><linearGradient x1="113.3%" y1="50%" x2="-45.2%" y2="50%" id="t"><stop stop-color="#F7A969" offset="0%"/><stop stop-color="#ED7038" offset="100%"/></linearGradient><linearGradient x1="129.5%" y1="12.3%" x2="-104.6%" y2="8.9%" id="u"><stop stop-opacity="0" offset="0%"/><stop offset="100%"/></linearGradient><linearGradient x1="76.6%" y1="-132%" x2="76.6%" y2="107.2%" id="v"><stop stop-color="#FF7F8C" offset="0%"/><stop stop-color="#FFCFB9" offset="100%"/></linearGradient><linearGradient x1="40.9%" y1="2%" x2="38.6%" y2="130.1%" id="w"><stop stop-color="#723210" offset="0%"/><stop stop-color="#A75A31" offset="100%"/></linearGradient><linearGradient x1="71.8%" y1="-30.6%" x2="55.8%" y2="92%" id="x"><stop stop-color="#FF7F8C" offset="0%"/><stop stop-color="#FFCFB9" offset="100%"/></linearGradient><linearGradient x1="-33.6%" y1="124%" x2="-33.6%" y2="84.6%" id="y"><stop stop-color="#FFCFB9" offset="0%"/><stop stop-color="#FFF" offset="100%"/></linearGradient><linearGradient x1="-99.4%" y1="24.8%" x2="104.9%" y2="29.2%" id="z"><stop stop-color="#FF7F8C" offset="0%"/><stop stop-color="#FFCFB9" offset="100%"/><stop stop-color="#FFCFB9" offset="100%"/></linearGradient><linearGradient x1="-42.1%" y1="166.6%" x2="-26.9%" y2="47.2%" id="A"><stop stop-color="#0F4565" offset="0%"/><stop stop-color="#FF7F8C" offset="49%"/><stop stop-color="#FFCFB9" offset="80.9%"/><stop stop-color="#FFF" offset="100%"/></linearGradient><path d="M310 465C148.2 465 17 336 17 177h586c0 159-131.2 288-293 288z" id="c"/></defs><g fill="none" fill-rule="evenodd"><path d="M631 317C432.2 317 271 175 271 0h720c0 175.1-161.2 317-360 317z" fill="url(#a)" transform="rotate(-180 679.5 166)"/><path d="M271 683C121.3 683 0 575 0 442h542c0 133.1-121.3 241-271 241z" fill="url(#b)" transform="translate(97 15)"/><g fill-rule="nonzero" transform="rotate(-45 858.3 -470.1)"><use fill="#FBD6D1" xlink:href="#c"/><use fill="url(#d)" style="mix-blend-mode:overlay" xlink:href="#c"/></g><path d="M721 582.4L1135.4 168a285.3 285.3 0 0130.2 35.6L721 582.4z" fill-opacity=".7" fill="#FBD6D1" fill-rule="nonzero"/><path d="M29.7 197.7c19-7.6 29-47.6 7.6-81C16 83.4 56.3 5.1 90.6 1c22.8-2.9 37.8 1.3 45 12.4 10.3-8.1 22-6.8 35 4 19.6 16 4.4 61.4 12.6 84 8.2 22.7 9.4 56.4-1.6 68.5-7.3 8-15.3 11.4-24 10l-15.1-33.2c-31.5 27.6-53.2 44.1-65.1 49.6-17.7 8.2-33.6 8.7-47.7 1.5z" fill="url(#e)" fill-rule="nonzero" transform="rotate(11 -392.5 4434.5)"/><path d="M49 225.3c-23.7 3-37.1 11.5-40.2 25.2-3.1 13.8-2.6 33 1.6 57.5 28.9 8.6 45 16.2 48.6 22.7 5.2 9.9 16.1 47.6 32.5 64 16.4 16.3 37.3 49.6 41.8 65.4 3 10.5 6.3 20 10 28.5 36.8-3 69.6-11 98.2-23.6 28.6-12.6 57-31.5 85-56.6-23.7-37.4-36.2-61.5-37.3-72.2-1.7-16.2 7.7-122.2 7.7-125.3 0-3.1-41.2-52.6-61.5-52.6-13.5 0-45 9.2-94.7 27.7l-91.8 39.3z" fill="url(#f)" transform="rotate(11 -392.5 4434.5)"/><path d="M49 225.3c-23.7 3-37.1 11.5-40.2 25.2-3.1 13.8-2.6 33 1.6 57.5 28.9 8.6 45 16.2 48.6 22.7 5.2 9.9 16.1 47.6 32.5 64 16.4 16.3 37.3 49.6 41.8 65.4 3 10.5 6.3 20 10 28.5 27.1-3.2 49.6-7.3 67.4-12.4 17.9-5 36-13 54.7-24-58-83.1-106.8-133.8-146.5-152.1-39.7-18.3-63-43.3-70-74.8z" fill-opacity=".5" fill="url(#g)" style="mix-blend-mode:soft-light" transform="rotate(11 -392.5 4434.5)"/><path d="M1079.5 458.6c5.7-20.7 10.4-37.4 10.6-38.6.4-2-12.1-25.7-26.4-43.6-8-10 9.6 46.6 15.8 82.2z" fill="#1A1616"/><path d="M191.8 168.2c-17.4 3.5-28 5.2-31.7 5.2-3.8 0-6.9-10.9-9.4-32.6l-70.4-22c1.4 32 1 54.3-1.1 66.6a71 71 0 01-16.4 34c15.4 18.1 31 31.2 46.8 39a50.8 50.8 0 0069.9-27.5c9-21 13.1-41.8 12.3-62.7z" fill="url(#h)" transform="rotate(11 -392.5 4434.5)"/><path d="M963 357.1c-3.7-.7-4.7-12-3-33.8l-64.9-35c14.6 62 25.9 100.4 34 115.1 14 25.3 35 24 42 13.9a147 147 0 0021.2-45.8c1.2-4.4-23.8-13.3-29.3-14.4z" fill-opacity=".5" fill="#1A1616" opacity=".1"/><path d="M932.4 347c9.9 4.9 9.3 18 5.2 30-2.8 8.6-12.8 24.9-17.8 37.6-4.5 11.6-19.6 16.9-18.2 9.5 1.5-7.5 21.7-7 21 1-.8 7.8-22.6 23.5-22 12.7.7-10.7 20.4-9.4 18.5.4-2 9.7-21.2 22.3-20.4 13.3.8-9 20.9-11.2 19.2-2.6-1.7 8.6-17.7 25.5-19.2 17.2s20.1-15.3 19.2-5.2c-.8 10.1-14.5 26.3-16.6 18.5-2.2-7.8 17.8-12.1 17.4-4.8-.4 7.3-8.5 26.2-12.8 20.4-4.2-5.9 4.6-13.8 12.5-12.3 8 1.6 2 19-4.3 28.9-6.3 9.7-11 .9-6.3-5.6 4.6-6.5 17.9-10.3 16.4 1.7-1.4 12-10.2 29.4-13.5 21.5-3.4-7.8 13.2-17.1 17.2-8.5 4 8.7-9.4 32.5-12.3 25.4-2.9-7 1-13.2 7.3-14.5 6.4-1.3 12.2 12.8 2.5 27.4-9.6 14.7-12.5 2-4.8-6.4 7.7-8.5 17.6-.7 9.7 12.9-7.9 13.6-23 24.4-19 12.8 4.2-11.5 19.7-10.8 19-3.3-.6 7.5-14.7 33.5-21 26.4-6.3-7.2 2.4-14.5 10-16.4 7.6-1.9 18.6 5.3 10.2 16.5-8.4 11.3-17 26.2-15.4 13.1 1.5-13 31.7-12.9 23.5 0-8 12.9-25 34.9-22 19.3 3-15.7 30.6-1.9 26.3 4-4.3 5.8-26.3 26.8-26.3 13.4 0-13.5 25.8-8.7 25-1.2-.7 7.5-4.4 13.9-4.4 15.2" stroke="#FFC998" stroke-width="3.5"/><path d="M119.6 426.3s-15.2-4.6-11.4-8.3c3.8-3.7 14.8-4.7 20.5-.8 3.8 2.6 8 5.6 12.4 9h-21.5z" fill="url(#i)" transform="rotate(21 37.6 2547.3)"/><path d="M244.2 256l34.5 103.7c-13.7 18-25.2 30.1-34.5 36.2a202.3 202.3 0 01-82.3 28.5c-2.1.2-11.5-2.4-23.3-3.4-8.2-.8-18.3.3-25.2-1-2.1-.5-17.6-3.4-20.1 2.2-1 2.3 4 5.7 4.6 9.2.5 3-4.7 7.6-2 11.4 1.7 2.5 1.8 6 1.4 9-.5 3.6-1.5 6.7 2 8.4 4 1.9 15.8 4 22.8 4.7 7 .8 17.6-4.7 20-4.7 18.3 0 62.6-4.1 90.6-10.3 28-6.1 92.7-48 101.7-67.6 9-19.5-19-76-28.7-103.7a853.3 853.3 0 00-25.8-63.6c-9 5.8-15.4 11-19.4 15.5-4 4.5-9.4 13-16.3 25.5z" fill="url(#j)" transform="rotate(11 -392.5 4434.5)"/><path d="M1077.1 583.6c-13 33.6-85.8 51.2-114.9 50-29-1.2-89.7-1.6-71.7 2a513 513 0 0091 7.2c28.7-1 100.1-29.5 112.7-47 12.6-17.4-4.1-78.2-8.4-107.3a853.3 853.3 0 00-13.2-67.3c-1.5-1.6-4.6-.6-9.4 3-3.3 2.5-2.4 34.1 3.1 65.2 6.6 37.2 18 76 10.8 94.2z" fill="#1A1616" opacity=".1"/><path d="M120 152.4c8.2 4.5 22.6 9.2 33.6-3.6a72 72 0 0017-38.3c0-8-4.7-17.5-3.3-39.5 1.4-22-7.8-34.6-15.7-39.9-1.8-1.2-7.8.3-18 4.6-21.3-7.8-35-9.6-40.9-5.6C78.9 39.5 70 81.7 70 92c0 10.1 6 22.7 9.6 30 3.6 7.5 32.1 26 40.3 30.5z" fill="url(#k)" transform="rotate(11 -392.5 4434.5)"/><path d="M919.3 295.7c13.3 1.5 22.7 3 28.1 4.8a79.6 79.6 0 0117.4 8.3 29 29 0 01-19.8 1.5 95.5 95.5 0 01-25.7-14.6z" fill="#833E1A"/><path d="M892 274.9c-1.7-9.1-4.4-15-8.1-17.5-5.6-3.8-10.5-3.4-16.2.8a30.9 30.9 0 00-9.5 19c.4 3.2 1.7 12.4 10.8 24.7 9.1 12.3 28.6 39.7 37 46.4 8.3 6.7 22.5 15.2 29.3 6.5 7-8.7 7.2-16.4 1.4-21-2-1.6-8-5.4-15.3-11.6-4-3.4-11.3-10-21.8-19.7l-7.6-27.6z" fill="#1A1616"/><path d="M2 312c-3.2 17-5.6 47.3 18.5 56 24.1 8.6 38.5-24.3 42.1-40.4 8.2-36.3 18.4-111.4 24-128.6 5.6-17.3 7.3-48.8 7.3-56.8 0-4.4 2-4.7 10 0 1 .7 3.6 2.1 7.5 4.3.3-5 0-8.6-1.2-11a19 19 0 00-6.4-7 19 19 0 00-1.8-8.8c-1-1.6-3.5-2.3-7.3-2.1-3-8.3-7.4-11-13.2-8-4.7-4.6-17.3-13.2-23.4-9.3-6.2 3.9-6.1 17.4-6.1 26.9 0 9.4 4.8 29.6 6 43.2 1.3 13.7-3.1 27-14 49.4-11 22.2-39 75-42 92.1z" fill="url(#l)" transform="rotate(11 -392.5 4434.5)"/><path d="M781.3 463c-6.3 16.2-14.5 45.4 7.5 58.5-2.4-40.6 69.4-142.1 78.2-158 8.8-15.8 40.4-86.7 31-84-3.7-5.4-14.4-16.3-21.2-13.6-6.8 2.6-9.3 16-11.1 25.2-1.8 9.3-.9 30-2.3 43.6-1.4 13.6-8.3 26-23.2 45.8-15 19.8-52.5 66.2-58.9 82.4z" fill-opacity=".1" fill="#FFF" style="mix-blend-mode:soft-light"/><path d="M296.9 210.9c0-3.1-41.2-52.6-61.5-52.6-4.7 0-11.6 1.2-20.8 3.4-11.3 2.8-2 37.1 28 103a202 202 0 0123.4-33.9c18.4-18 30.9-19.5 30.9-20z" fill="url(#m)" transform="rotate(11 -392.5 4434.5)"/><path fill="#F39558" d="M968.5 463l39.3-10.6 1.8 10.6-39 9.3z"/><g><g fill-rule="nonzero"><path d="M309.6 454c-161.8 0-293-129-293-288h586c0 159-131.2 288-293 288z" fill="url(#n)" transform="rotate(135 388 365.3)"/><path d="M105.3 419c-.3-1.4-4.3-33.8-4.3-49.1h586L105.3 419z" fill="url(#o)" opacity=".6" transform="rotate(135 472.5 449.8)"/></g><path d="M398.3 568.4c-2.5 19.7-1 41.5 4.4 65.3l65.7-65.3h-70.1z" fill="#1A1616"/><path d="M114.1 316.5c-39 25.8-136-13.2-109.6-80.6 26.5-67.5 65.6-65 89.9-113.6C118.6 73.8 103.7 12.1 164.5 5c60.8-7.1 39.4 31.6 92.7 23.7 53.3-7.8 37 76.6 27 90.4-10 13.9-58.7 43.1-42.2 116.8 16.5 73.6-89 54.7-127.9 80.6z" fill="url(#p)" fill-rule="nonzero" transform="translate(363 105)"/><path d="M224.9 295.8c15 11.2 57.5 41 74.5 47 17.1 5.8 31.8 6 28.8-16-3-21.9-26.7-127.1-31.4-133.5-4.8-6.4-1.3-38.6-7.8-45.6-4.4-4.7-12-8.4-23-11-9 17.6-11.8 29.7-8.3 36.3 5.2 9.9 12.8 15.3 12.8 20.3s19.4 99.6 14.5 98.6c-5-1-19-13.4-19-13.4s-56.1 6-41.1 17.3z" fill="url(#q)" fill-rule="nonzero" transform="translate(363 105)"/><path d="M587.9 400.7c15 11.2 57.5 41 74.5 47 17.1 5.8 31.8 6 28.8-15.9-3-22-26.7-127.2-31.4-133.6-4.8-6.4 31.4 127.7 11.2 137.6-20.2 9.9-56.3-50.8-68.5-47.8-12 2.9-22 7.2-14.6 12.7z" fill="#1A1616" style="mix-blend-mode:overlay" opacity=".2"/><path d="M182.5 186.8c10.8 2.4 32.1 10.7 41.3 26.1 9.2 15.5 54 60 49.3 65.4-4.6 5.3-41 25.7-45.1 25.7-2.8 0-9.7-5.8-20.8-17.3L182.5 210c-7.2-17-7.2-24.7 0-23.2z" fill="url(#r)" transform="translate(363 105)"/><path d="M78.3 196.3c22.7-7.8 61.2-14 85-12 23.8 2.2 29.8 6.5 34.3 12 4.5 5.5 5.7 37.4 15.2 62.5 9.5 25.2-3.8 61-13 85.3-3.3 8.5-6.8 20-9.4 32.6l-86.3 88c-8.7.1-30 6-47 5.6-6-.1-15-2.4-27-6.8 1.3-30.2 7.8-54.7 19.5-73.5 17.5-28.2 40.3-93 40.3-104.8 0-11.8-34.3-81-11.6-88.9z" fill="url(#s)" transform="translate(363 105)"/><path d="M163.3 184.4c23.8 2.1 29.8 6.4 34.3 12 4.5 5.4 5.7 37.3 15.2 62.4 9.5 25.2-3.8 61-13 85.3-3.3 8.5-6.8 20-9.4 32.6l-86.3 88c-8.7.1-30 6-47 5.6-6-.1-15-2.4-27-6.8 1.3-30.2 7.8-54.7 19.5-73.5 17.5-28.2 40.3-93 40.3-104.8 0-11.8 49.6-103 73.4-100.8z" fill="url(#t)" transform="translate(363 105)"/><path d="M103.2 310c8.1 14.4 45.1-2.2 61.3-2.2 16.2 0 44.5 12 35.2 36.3-3.2 8.5-77.2-.3-96.5 52.6-3.7 10.3-.8 30.3-5.4 47.3-3.2 11.9-13.5 23.6-17.6 24.3-7.6 1.2-15.8 2.2-23.2 2-5.9-.1-14.8-2.4-26.8-6.8 1.2-30.2 7.7-54.7 19.4-73.5 17.5-28.2 40.3-93 40.3-104.8 0-11.8-5.9-9.4 13.3 24.8z" fill-opacity=".5" fill="url(#u)" style="mix-blend-mode:soft-light" transform="translate(363 105)"/><path d="M44.6 290.4c-3.2 27.5-4.9 43.7-4.9 48.8 0 7.5 3 16.4 32 14.5 28.8-1.8 95.8-13.8 104-14.5 8.3-.8 12.4 2.5 20.7 1.8 8.3-.7 17.1-4.4 21.5-6.7 4.4-2.3 8.1-8.4 3.7-15-4.4-6.7-15-11.9-20-9.8-5 2-16 13-24.5 14.9-8.5 2-98.6 1.6-98.6-2.2a58 58 0 013.6-17c.8-.8-11.7-5.7-37.5-14.8z" fill="url(#v)" fill-rule="nonzero" transform="translate(363 105)"/><path d="M407.6 395.3c-3.2 27.5-4.9 43.8-4.9 48.8 0 7.5 3 16.4 32 14.6 19.2-1.3 54.4-6.1 105.4-14.6a93.3 93.3 0 00-20.1-1.4c-63.5 5.4-95.5 8-99.6 1.4-6.4-10.3-2.2-27.5 3.6-38 4.2-7.6.6-4.7-5-6.7l-11.4-4z" fill="#1A1616" style="mix-blend-mode:overlay" opacity=".2"/><path d="M34.8 290.1c17.6-54.9 30.8-85.7 39.8-92.6a27.3 27.3 0 0139.7 7.5c8.2 13-21 102.1-26.7 104.1-2.6.9-18.7.5-34.4-5.9a70 70 0 01-18.4-13z" fill="url(#w)" transform="translate(363 105)"/><path d="M154.4 123.4c3 11.4-11.8 36.1-26 59.4-.9 1.4-6 3-15.1 5 12.3 24.2 24.3 36.9 35.9 38.2 17.3 2 43.7-19.9 43.7-27.2 0-4.9-4.1-9-12.3-12.2l20-28.9c-35.4-40.2-50.8-51.7-46.2-34.3z" fill="url(#x)" fill-rule="nonzero" transform="translate(363 105)"/><path d="M149.6 224c-12.3-3-23.4-15.2-33.3-36.8l-4.5.8c13.3 25 25.7 38.3 37.3 39.6 14.6 1.7 35.8-13.6 42.2-23.3 1.3-1.8 1.6-4.3 1.6-5.5-1 2.2-1.9 3.6-2.5 4.2a55.6 55.6 0 01-40.8 21z" fill="url(#y)" fill-rule="nonzero" transform="translate(363 105)"/><path d="M527.8 328c14.3-6 28-19 28-24.2 0-5-4-9-12.2-12.2l20-29c-13-14.4-22-24-26.6-28.6-16.3-15.9-14.6 96.3-9.2 94z" fill-opacity=".5" fill="#996262" opacity=".1"/><path d="M606.2 230l11 33.6c-3.8 10.3-1 17.8 8.3 22.5 8.8 4.5 18.5-.8 21.4-10.2 2.8-9.3-.2-16.2-8.3-19.2-8.1-3-9.6-12.6-11.5-17.7-1.3-3.4-4.6-14.7-10-34l-10.9 25z" fill="#1A1616"/><g opacity=".2" transform="translate(620 258)" fill="#FEFCFA"><circle cx="1.5" cy="7.5" r="1.5"/><circle cx="6.5" cy="4.5" r="1.5"/><circle cx="11.5" cy="1.5" r="1.5"/><circle cx="11.5" cy="6.5" r="1.5"/><circle cx="16.5" cy="4.5" r="1.5"/><circle cx="5.5" cy="9.5" r="1.5"/><circle cx="3.5" cy="15.5" r="1.5"/><circle cx="8.5" cy="18.5" r="1.5"/><circle cx="6.5" cy="23.5" r="1.5"/><circle cx="13.5" cy="21.5" r="1.5"/><circle cx="19.5" cy="18.5" r="1.5"/><circle cx="14.5" cy="15.5" r="1.5"/><circle cx="20.5" cy="12.5" r="1.5"/><circle cx="9.5" cy="12.5" r="1.5"/><circle cx="15.5" cy="9.5" r="1.5"/><circle cx="21.5" cy="6.5" r="1.5"/></g><path d="M138 101.6c.4 9 13.3 17.8 19.2 28.2 16.3 28.5 47.5 56.6 62.6 54.1 20.6-3.4 40.7-58.7 37-87.9-3.8-29.2-19.6-52.6-44.5-52.6s-76.2 24.3-74.4 58.2z" fill="url(#z)" fill-rule="nonzero" transform="translate(363 105)"/><path d="M576 249c8.1 8.3 14 13 17.5 13.8 3.6.8 8-1.4 13.5-6.5-3.6-1.2-7.2-2.2-10.8-3a757 757 0 00-20.2-4.4z" fill="#FFF" fill-rule="nonzero" opacity=".7"/><path d="M134.6 102.1v-7.8c0-3.2-1.3-17.1 8.9-25.5 10.2-8.3 12.2 5.6 21.3-1.6 6-4.8 17.8-9 35.2-12.8 27.1 33.3 39.7 58.3 37.7 75C249 111 254.3 99.8 254 95.6c-1.3-12-21-56.6-40.2-64-19.1-7.3-56.5-5.3-75.7 11.2-19.2 16.5-18.6 36-17.8 39a63 63 0 0014.4 20.4z" fill="url(#A)" fill-rule="nonzero" transform="rotate(-31 557.6 -523.5)"/><path d="M638.5 282.3c5.6 6.7-4 26.1-8.5 31.3-2 2.6-5 5-.4 7 4.5 1.9 7.4-2.4 3.9-3-3.5-.5-10.5 5-5.5 7.5 5 2.6 10-.3 5.2-1.8-4.7-1.6-11.6 4.9-7 7 4.5 2 9.6 1.1 7-.8-2.5-2-10.7.2-7 4.7 3.5 4.5 9 3.2 7 0s-10.5 2-7.4 5.3c3 3.4 9 4 6.6.5-2.4-3.6-11 1.9-6.6 5.6 4.4 3.7 7-.1 4.9-1.5-2-1.4-12.3-.5-7.3 5.6 5 6 6.1-.3 3.2-1.5-3-1.1-9.8 2.7-6.4 6.9 3.4 4.2 7.3.3 3.2-2.3-2.3-1.4-4.4.8-6 2.3" stroke="#FFF" stroke-width="2"/></g></g></svg>